<?xml version="1.0" encoding="UTF-8"?><svg id="Layer_1" xmlns="http://www.w3.org/2000/svg" viewBox="0 0 871.82 746.89"><path d="m57.85,116.38h755.87c32.09,0,58.1-26.01,58.1-58.1S845.81.18,813.72.18H57.85C25.76.18-.25,26.19-.25,58.28s26.01,58.1,58.1,58.1Z"/><path d="m813.97,314.65H58.1c-32.09,0-58.1,26.01-58.1,58.1s26.01,58.1,58.1,58.1h755.87c32.09,0,58.1-26.01,58.1-58.1s-26.01-58.1-58.1-58.1Z"/><path d="m813.97,629.12H58.1c-32.09,0-58.1,26.01-58.1,58.1s26.01,58.1,58.1,58.1h755.87c32.09,0,58.1-26.01,58.1-58.1s-26.01-58.1-58.1-58.1Z"/></svg>