<?xml version="1.0" encoding="UTF-8"?>
<svg id="Tracy_s_Kitchen" data-name="Tracy&amp;apos;s Kitchen" xmlns="http://www.w3.org/2000/svg" width="1920" height="1080" xmlns:xlink="http://www.w3.org/1999/xlink" viewBox="0 0 1920 1080">
  <defs>
    <style>
      .cls-1 {
        fill: #ff8b7e;
      }

      .cls-1, .cls-2, .cls-3, .cls-4, .cls-5, .cls-6, .cls-7, .cls-8, .cls-9, .cls-10, .cls-11, .cls-12, .cls-13, .cls-14, .cls-15, .cls-16, .cls-17, .cls-18, .cls-19, .cls-20, .cls-21, .cls-22, .cls-23, .cls-24, .cls-25, .cls-26, .cls-27, .cls-28 {
        stroke-width: 0px;
      }

      .cls-2 {
        fill: #a67c52;
      }

      .cls-3 {
        fill: #000;
      }

      .cls-4 {
        fill: #f69183;
      }

      .cls-5 {
        fill: #0071bc;
      }

      .cls-6 {
        fill: #f8af97;
      }

      .cls-7 {
        fill: #ffcab4;
      }

      .cls-8 {
        fill: #ec1c24;
      }

      .cls-9 {
        fill: #d17954;
      }

      .cls-10 {
        fill: #fabda0;
      }

      .cls-11 {
        fill: #ffcd00;
      }

      .cls-12 {
        fill: none;
      }

      .cls-13 {
        fill: #f0f0f1;
      }

      .cls-14 {
        fill: #ffc2b0;
      }

      .cls-15 {
        fill: #2d3196;
      }

      .cls-16 {
        fill: #f8af94;
      }

      .cls-29 {
        clip-path: url(#clippath-1);
      }

      .cls-17 {
        fill: #f59182;
      }

      .cls-18 {
        fill: #006838;
      }

      .cls-19 {
        fill: #f1f1f2;
      }

      .cls-20 {
        fill: #ffaa97;
      }

      .cls-21 {
        fill: #945538;
      }

      .cls-30 {
        clip-path: url(#clippath);
      }

      .cls-22 {
        fill: #404041;
      }

      .cls-23 {
        fill: #fdd133;
      }

      .cls-24 {
        fill: #231f20;
      }

      .cls-25 {
        fill: #241f20;
      }

      .cls-26 {
        fill: #f7a991;
      }

      .cls-27 {
        fill: #be1e2d;
      }

      .cls-28 {
        fill: #3b2314;
      }
    </style>
    <clipPath id="clippath">
      <rect class="cls-12" y="-1114.140027346671559" width="1920" height="1080"/>
    </clipPath>
    <clipPath id="clippath-1">
      <rect class="cls-12" width="1920" height="1080"/>
    </clipPath>
  </defs>
  <g class="cls-30">
    <g>
      <path class="cls-15" d="M68.209942571244028,20.493702024088634l.000000006250048-129.314860352309552c.000000002812158-58.267904250707943,47.67373984659389-105.94164409233781,105.941644097296376-105.941644092516071h.000211883496377c58.2679042327145-.000000000185537,105.941644062415435,47.673739826430392,105.941644066013396,105.941644059144892l.000000007967174,129.314860405580475-211.883500061023369-.000000019899744Z"/>
      <rect class="cls-21" x="88.843650558684089" y="-186.479698416986253" width="171.567082852589238" height="224.869477459324798" rx="85.783455633614935" ry="85.783455633614935"/>
    </g>
    <rect class="cls-9" x="425.646721611570229" y="-194.857700120635002" width="181.728727550731492" height="238.188138070865648" rx="90.864272881571864" ry="90.864272881571864"/>
    <g>
      <path class="cls-11" d="M1413.059729008529757,142.194640889369111l-87.534136399059207-7.723600270501265s-45.697968267160832-27.676234302649391-39.904981837789819-58.572161849870099c4.002429807809676-21.344163562049289,20.13430879553016-35.939944661738991,25.069073508650035-56.655883896799423,1.801370377428611-7.562066159169262,1.918594134949672-15.409541776529295,2.026927789818728-23.182446485399851.276678964410166-19.85162579523967.552185296950483-39.740007400199829-1.080152256248766-59.526342500930696-1.804752702151745-21.876270087819648-5.939730613921711-43.627252964530271-5.516291342089971-65.573755862382313.337482550779896-17.491462789659636,3.834069557378825-35.609440035414082,13.177309567299744-50.639853053447951,10.647648384339846-17.128806786249697,28.510169533759836-16.303176882980551,46.777016045169148-15.389834678660918,4.487729472200954-9.791145686791424,11.589568060509919-19.683329802443041,20.351212564009984-26.016711242587917,22.080623911220755-15.956296552303684,55.917992028560548-8.936676938526944,80.089447359030601-1.806421928817144,40.74273340344007,12.018560533311756,63.054348524390662,54.3777977603404,68.220426828680502,94.198899328235711,2.037545796079939,15.70580096068079-1.619662560671713,31.156852109241299-3.464021975110882,46.629950685721269-2.033966443059398,17.063805726800638,2.098575239049751,34.476396327700058,5.185513971469845,51.234287669469268,2.19733065301989,11.928526055420662,4.977614386591085,23.848751316631024,9.595199394079827,35.098065498101278,4.462355052890416,10.871144526359785,10.579100728329649,16.83642580311971,17.943844043940771,25.44341767566948,11.774515770370272,13.760582982400592,26.514020535048985,35.348236337620619,21.557352112769877,54.555388883400155-5.149066846999631,19.952634032149945-9.65450033811976,49.55976840241965-25.745334235019982,49.55976840241965-16.090833896880213,0-146.748405139600436,8.367233626380767-146.748405139600436,8.367233626380767Z"/>
      <rect class="cls-20" x="1337.362271234537502" y="-189.170768921075791" width="174.813902279266131" height="229.125017435126381" rx="87.406863743635782" ry="87.406863743635782"/>
    </g>
    <rect class="cls-7" x="1656.017196965166249" y="-195.218832784096065" width="181.728727434858683" height="238.188138095833835" rx="90.864272911248264" ry="90.864272911248264"/>
  </g>
  <g class="cls-29">
    <g>
      <g>
        <rect class="cls-2" x="1333.027574410855323" y="760.730163179143119" width="159.908156135307763" height="257.501725565446122" rx="79.953998141374029" ry="79.953998141374029"/>
        <circle class="cls-26" cx="1337.70197913406264" cy="869.171622412066881" r="20.404307330542679"/>
        <circle class="cls-26" cx="1491.073686930132681" cy="869.076718658455775" r="20.404307330543134"/>
        <rect class="cls-16" x="1342.505576479774618" y="772.678057753541339" width="140.924640104909031" height="175.698245126953907" rx="70.462249623517039" ry="70.462249623517039"/>
        <path class="cls-2" d="M1342.505576534189458,850.176566799153079c54.126954778350409-6.309276937354298,70.462320013701174-54.445940877676549,70.462320013701174-54.445940877676549,0,0,37.465018912389496,50.461134390925508,70.462320013699355,54.445940877676549,0,0,10.813585255820726-70.525030281271029-70.448564089809224-78.263752303319052,0,0-76.306829603310689,1.074822503060204-70.476075937591304,78.263752303319052"/>
        <path class="cls-8" d="M1484.627473266529705,850.133377434989598l-8.488264731518939-1.355949677299577,4.244132365760379.677974838648879-4.24536684288978-.669703841891533c.017035784359905-.10999191209703,1.671482031189953-11.150908448711562-1.904798208370266-24.087364615234037-2.061576803609569-7.456859091151273-5.445031715791629-14.101679127559692-10.056544474820839-19.749782330891321-5.767230246170584-7.063801573624005-13.528387949349053-12.631416868216547-23.067933402999188-16.548412795078548-19.258830777120238-7.907813585976328-40.869463930630445-7.52438499004711-59.290331633319511,1.051897960691349-10.183819066711294,4.741256305171191-18.083855446780944,11.345955834922279-23.480495659161534,19.630531840337426-6.893937520819236,10.583048969871015-9.751628624218938,24.052922703363947-8.493696430879936,40.035574630723204l-8.569493326540396.674518302688739c-3.196801970439992-40.619482312224136,18.310381999750462-59.471305980274337,36.915557137641372-68.133385091401578,20.58910333015956-9.58559145052277,44.712391229819332-10.026917023749775,66.183405020159626-1.210898614770485,10.955490719359659,4.498434654109587,19.906437478419321,10.971538922027321,26.604463479039623,19.239572933927775,5.370716192699547,6.629759415447552,9.285490060730808,14.391164014054084,11.635687616850191,23.068920984707802,3.97155981591095,14.666082070438279,2.095401476910411,26.86444436218153,2.013679091049198,27.376505474841906Z"/>
        <g>
          <path class="cls-19" d="M1412.967897220250961,924.066050404000634c-18.694311599700086.381358016853483-27.495383904779374-11.359534551753313-30.314885588801189-16.510213252377071-.878769408029257-1.605340013933528.600550646940974-3.399127019400112,2.804550626720811-3.399127019400112h55.020668579440098c2.203999979779837,0,3.683320034750068,1.793787005466584,2.804550626720811,3.399127019400112-2.819501684021816,5.150678700623757-9.884322412081019,15.386347809200743-28.974933243142004,16.445205813546636-.446735355799319.024778112734566-.892127652317868.065007438830435-1.339951000938527.065007438830435"/>
          <path class="cls-19" d="M1412.082807606240749,926.476899560992024c-20.219871221199355,0-29.232294941230066-13.558385743563122-31.536569948189936-17.767829302030805-.757722061109234-1.384095755813178-.729699430310575-3.020765531997313.074685866238724-4.378196581850716.941659153169894-1.588895511333249,2.794979665311985-2.575983422811987,4.836681387161661-2.575983422811987h55.020522143298876c2.04182516956098,0,3.895022233989948.987087911478739,4.836681387159842,2.576106870526928.804385296551118,1.357307602138462.83253137506108,2.993977378322597.074809313950027,4.378073134135775-5.98375753440996,10.931171519945565-16.396325212919692,16.882956096746057-30.948835387589497,17.690057242973126-.116040850029094.006419281065973-.232328595480794.014073039259529-.348492893210278.021603349738143-.33133366113907.021603349738143-.705874021739874.046045996870816-1.098067405278925.047157026287096-.305656536871538.006048937924788-.610695835181104.00901168303244-.911414463540495.00901168303244ZM1384.909497066661061,906.671565759344958c2.236996003490276,3.953413002136585,10.260356648630477,15.359240977761146,28.009421898319488,14.993218509336657l.049008741980288-.000493790852488c.245290605309492,0,.520455557119931-.017899918353578.811915607018818-.036910866125254.13159526184063-.008641339893074.263067075960862-.017159232076665.394785785510976-.024442647130854,12.660550528440581-.702170590357127,21.693219673359636-5.725751814679825,26.852346486330134-14.931124309803636-.116287745449881-.05752663416024-.296768301550401-.113325000342229-.548848531070689-.113325000342229h-55.020522143298876c-.251586438669619,0-.431820099340257.055551470755745-.548107844790138.113078104917804Z"/>
        </g>
        <g>
          <ellipse class="cls-24" cx="1444.293379923422435" cy="869.457207838705472" rx="4.483159692691515" ry="7.385206878017016"/>
          <path class="cls-24" d="M1444.293402066270573,879.24419982683321c-3.860703769829342,0-6.884925837779519-4.298943150239211-6.884925837779519-9.786934670082701,0-5.488114967556612,3.024222067950177-9.787058117794004,6.884925837779519-9.787058117794004,3.860703769840256,0,6.884925837790433,4.298943150237392,6.884925837790433,9.787058117794004,0,5.48799151984349-3.024222067950177,9.786934670082701-6.884925837790433,9.786934670082701ZM1444.293402066270573,864.473804439085143c-.60415310640019,0-2.081328437659977,1.746291345143618-2.081328437659977,4.983460717665366,0,3.237045924810445,1.477175331259787,4.983337269954063,2.081328437659977,4.983337269954063s2.081328437659977-1.746291345143618,2.081328437659977-4.983337269954063c0-3.237169372521748-1.477175331259787-4.983460717665366-2.081328437659977-4.983460717665366Z"/>
        </g>
        <g>
          <ellipse class="cls-24" cx="1381.419635493933129" cy="868.886036985429655" rx="4.483159692691515" ry="7.385206878016561"/>
          <path class="cls-24" d="M1381.419630226049776,878.673007259747465c-3.860703769829342,0-6.884925837788614-4.298943150239211-6.884925837788614-9.786934670080882,0-5.488114967556612,3.024222067959272-9.787058117797642,6.884925837788614-9.787058117797642,3.860703769831161,0,6.884925837790433,4.29894315024103,6.884925837790433,9.787058117797642,0,5.487991519841671-3.024222067959272,9.786934670080882-6.884925837790433,9.786934670080882ZM1381.419630226049776,863.902611872001216c-.604029658688887,0-2.081328437659977,1.746291345143618-2.081328437659977,4.983460717665366,0,3.237045924808626,1.47729877897109,4.983337269952244,2.081328437659977,4.983337269952244.604029658690706,0,2.081328437659977-1.746291345143618,2.081328437659977-4.983337269952244,0-3.237169372521748-1.477298778969271-4.983460717665366-2.081328437659977-4.983460717665366Z"/>
        </g>
        <rect class="cls-17" x="1407.952252646914758" y="871.004317478763141" width="9.808510095751899" height="25.509045969696217" rx="4.904250180858514" ry="4.904250180858514"/>
        <path class="cls-2" d="M1371.091747678521642,853.096122541976001c-1.141891343320822,0-2.244402866261225-.620818547626186-2.807077541161561-1.704195675081792-.804508744258783-1.548898452390858-.201096324139144-3.456659405865139,1.347802128249896-4.261168150125741,2.501297556580539-1.299287177125734,6.54346946420992-2.817323701317946,11.588036799710608-2.683136037514487,3.189888898519712.086043055816845,6.290031309848928.809076309631564,9.214507625869373,2.148854336553995,1.586796900221088.726983580627348,2.28378268663073,2.602648128777219,1.556799106010658,4.189445028994669-.72710702834047,1.586673452504328-2.603018471920223,2.283535791209943-4.189445029000126,1.556799106008839-2.146261934580252-.983384480094173-4.418070193079984-1.513839301958797-6.752342994250284-1.576797635481853-3.69306177586077-.098758170232031-6.664324775030764,1.018320182814932-8.504189486469841,1.973805479818111-.465521324929796.241834069358447-.96338595061934.356393546828258-1.454090608958722.356393546828258Z"/>
        <path class="cls-2" d="M1434.528194193640957,853.001191250838019c-1.141891343320822,0-2.244526313970709-.620818547626186-2.807200988871045-1.704195675081792-.804632191968267-1.548775004675917-.201219771850447-3.45665940586332,1.34780212826081-4.261168150123922,2.501297556569625-1.299163729414431,6.545197732179076-2.818434730734225,11.587789904278907-2.683136037514487,3.190135793940499.086166503526329,6.290401652981018.809199757346505,9.214631073580676,2.148854336555814,1.586796900221088.726983580627348,2.28378268663073,2.6026481287754,1.556922553720142,4.189321581279728-.727353923770352,1.58679690021745-2.603018471909309,2.283535791209943-4.189321581279728,1.556922553721961-2.146261934591166-.983261032381051-4.418193640800382-1.513839301958797-6.752589889680166-1.576797635483672-3.696765207239878-.09814093166824-6.664695118159216,1.018320182816751-8.504066038749443,1.97380547981993-.465397877231226.241834069358447-.963385950621159.356393546826439-1.453967161260152.356393546826439Z"/>
        <path class="cls-27" d="M1476.158408009659979,809.014316711673018c-3.425076608529707,1.124290972566087-7.292189365309241,1.701539537500139-10.913047295889555,2.114199488689337-.016870687870323.002276918745338-.034443695380105.004227783047099-.051010135190154.005849352924997-.009452830408918-.013701110674447-.019303732400658-.02838362465809-.028452314749302-.042740084196339-2.021578003879767-3.032181346636207-4.076357508040019-6.358689922546546-5.427990832569776-9.700585847091133-1.325149420430535-3.275213955012077-1.748148656610283-7.084047076688876.009016708248964-10.008129497546179,1.451337365569998-2.414277028994547,4.409390296301353-3.927848720639304,7.386152691231473-3.614852406586579,1.64165006362964.172498917347184,3.229364845668897.922024398909343,4.450230276359434,2.029524882636906,1.022231108780034.927487393877527,1.53318290831885,2.002168774582969,2.054050280848969,3.150586747089619,1.213360465000733-.343296394210483,2.364063474211434-.646548489068664,3.732227403281286-.464286296428327,1.633227784119299.217522667209778,3.23043220801992.946607505666179,4.422340870878543,2.089598528396891,2.160204066251026,2.071859040812342,2.912405427210615,5.307929775870434,2.004897564411294,7.974681628600592-1.09892464944096,3.229673066001851-4.282069180240796,5.364340833843016-7.638415216861176,6.466153503510213Z"/>
        <path class="cls-8" d="M1446.442611778940773,806.701943615255004l-.03546917426138.071513973718538c-.012336376688836-.019789221443716-.023762360198816-.039155789552751-.035639322688439-.059934586955933.023077918560375-.003348006946908.047571164179317-.007241803856232.071108496949819-.011579386762605Z"/>
        <path class="cls-8" d="M1446.371503281990954,806.71352300201761c-.023537332770502.004337582906373-.045704858130193.008108243180686-.068782776679654.011456250129413l.031736562148581-.073246852369266c.011876962489623.020778797401363.024709837831324.042001380799775.037046214531074.061790602239853Z"/>
        <path class="cls-23" d="M1338.401061891619975,889.23200249162619c-1.027039702848924,1.029099851246428-2.300304890239204,1.928604503758834-3.513484213808624,2.722365658146373-.005594399481197.00383266699464-.011490810240502.00766533398928-.017085209721699.011195989703992-.005594399479378-.003530655714712-.011490810238683-.007363322709352-.017085209718061-.011195989703992-1.213179323571239-.793761154387539-2.486444510961519-1.693265806899944-3.513484213810443-2.722365658146373-1.006718657961756-1.008480390441036-1.781924095301292-2.378058414104089-1.640539670410362-3.795936670805531.11692151096031-1.170768310548738.914806557510019-2.265253604551617,2.019304963689137-2.670531174024291.609099231731307-.22354947070562,1.293888243561014-.218839532839411,1.907690222409656-.013842183798261.51396567761185.17171139121092.871230643841045.489218729262575,1.244113907840074.832936332228201.372868882521288-.343717602965626.730148230231862-.661224941017281,1.24409952635142-.832936332228201.613514349059187-.20499734904115,1.298303360888895-.20970728690736,1.907690222409656.013842183798261,1.104498406179118.405277569472673,1.902095822939373,1.499762863475553,2.019031715390156,2.670531174024291.141672054680384,1.417878256701442-.633835393949994,2.787456280364495-1.640252040620908,3.795936670805531Z"/>
        <path class="cls-23" d="M1494.489611819270067,889.23200249162619c-1.027039702848924,1.029099851246428-2.300304890239204,1.928604503758834-3.513484213810443,2.722365658146373-.005594399468464.00383266699464-.011490810238683.00766533398928-.017085209718061.011195989703992-.005594399481197-.003530655714712-.011490810240502-.007363322709352-.017085209721699-.011195989703992-1.21317932356942-.793761154387539-2.486444510948786-1.693265806899944-3.513484213799529-2.722365658146373-1.006718657959937-1.008480390441036-1.781924095310387-2.378058414104089-1.640539670419457-3.795936670805531.11692151096031-1.170768310548738.914806557510019-2.265253604551617,2.019304963689137-2.670531174024291.609099231729488-.22354947070562,1.293888243570109-.218839532839411,1.90769022242057-.013842183798261.513965677599117.17171139121092.871230643830131.489218729262575,1.244113907830979.832936332228201.372868882519469-.343717602965626.730148230239138-.661224941017281,1.244099526349601-.832936332228201.613514349059187-.20499734904115,1.298303360888895-.20970728690736,1.907690222409656.013842183798261,1.104498406190032.405277569472673,1.902095822939373,1.499762863475553,2.019031715399251,2.670531174024291.141672054680384,1.417878256701442-.633835393959089,2.787456280364495-1.640252040630003,3.795936670805531Z"/>
        <path class="cls-8" d="M1342.585512144949462,1088.104177035460452l-.000000030318915-62.231401500270294c-.00000001888111-38.754237295990606,31.708012298760877-70.462249623044045,70.46224959474057-70.462249615677138h.000140945459862c14.532838381379406.000000002763045,28.074801457949434,4.458938876990942,39.32536544380855,12.076292836547509,18.750941168591453,12.695590739755062,31.136884053641552,34.164557832140417,31.136884053581525,58.385956674399495l-.000000000130967,62.231401618599193c-.000000000029104,12.646177216731303-10.25175219664925,22.897929410661163-22.897929413369638,22.897929407370611l-95.128781192290262-.000000024700057c-12.646177207740038-.000000003290552-22.897929395310712-10.251752188520186-22.897929401480724-22.897929396269319Z"/>
      </g>
      <g>
        <path class="cls-28" d="M777.893294584120667,801.754812480608962s40.669832919180408-6.401605005890815,37.852439004580447-42.372696159032785c0,0-40.927253822750572,2.039189609076857-37.852439004580447,42.372696159032785Z"/>
        <path class="cls-28" d="M796.971948583410267,801.754812480608962s40.669832919171313-6.401605005890815,37.852439004580447-42.372696159032785c0,0-40.927253822750572,2.039189609076857-37.852439004580447,42.372696159032785Z"/>
        <path class="cls-28" d="M820.02203476332943,908.930152894114144l-8.420046087958326-.000000000032742c-38.7542372513999-.000000000156433-70.462249552170761-25.033228421078093-70.462249557260293-55.629396490938234l-.000000004580215-27.453601261122458c-.000000005089532-30.596168071951979,31.708012289509497-55.629396496022309,70.462249543570579-55.629396497935886l8.420046107388771-.000000000412911c38.754240718641086-.000000001911758,70.462249548090767,26.630026908731452,70.462249544001679,55.629396490203362l-.000000003861715,27.453601281356896c-.0000000043201,30.596168063540972-31.708012297900495,55.629396479038405-70.46224954130048,55.629396478881972Z"/>
        <circle class="cls-6" cx="740.546094360739971" cy="875.771322568194591" r="20.404307330541315"/>
        <circle class="cls-6" cx="893.917802156811376" cy="875.67641881458303" r="20.404307330541769"/>
        <path class="cls-28" d="M794.222196428101597,788.198470982290019s49.983421965109301,45.425005043231067,93.413141140477819,3.732349946130853c0,0-44.629979947938409-50.373155292247247-93.413141140477819-3.732349946130853Z"/>
        <path class="cls-28" d="M736.111368343859795,807.297056456958671s60.259748646101798,30.504692223134043,91.044713849700202-21.232179677963359c0,0-56.414169862970084-36.697838123291149-91.044713849700202,21.232179677963359Z"/>
        <path class="cls-28" d="M760.950401691279694,772.931536900110586s37.514233067871828,50.80847846346478,81.936125942420404,26.050810029741115c0,0-32.06634515802034-53.697978523767233-81.936125942420404-26.050810029741115Z"/>
        <rect class="cls-10" x="745.34969170897341" y="779.277757935763702" width="140.924640070215673" height="175.698245128100439" rx="70.462249551338829" ry="70.462249551338829"/>
        <g>
          <path class="cls-28" d="M885.589182154481023,859.805094773229939c1.043745548449806-43.684122942953763-30.801529822150769-58.831624303194985-52.649302244821229-64.082647909779553-14.092720982189348-3.387128404983741-28.861807503810269-3.036946909052858-42.666957886778619,1.378395254023417-46.003087655690251,14.713303870144955-45.140296180381483,60.742201863788068-45.140296180381483,60.742201863788068,0,0,2.951034274310587-83.369742596247306,57.048960218111461-80.860773010022967,54.097925943809969,2.508969586227977,62.236652242969285,10.795785397258442,62.236652242969285,10.795785397258442l20.34589987804975,36.962356967876985.825043972850835,35.064681436855608Z"/>
          <path class="cls-28" d="M885.589293995621119,864.229500483321317h-.000740686280551c-2.402786281769295-.000493790850669-4.365851810569438-1.918254009062366-4.422390863030159-4.320299604552929l-.183443301209991-7.799426494144427c-1.093499839898868-14.555966710629946-6.512113745149691-26.483978511361784-16.160293186059789-35.530967590973887-10.24393810283982-9.605836875416571-23.554317391399309-14.304380271962145-32.916591929481001-16.554461733005155-13.540485825209544-3.254698947737779-27.470572631988034-2.808188570574202-40.285185905988328,1.29064583723266-9.742493493480652,3.11594371855972-17.997195152400309,7.983733929340815-24.534739126391287,14.467948491408606-5.231960963519668,5.189248054888594-9.410172250640244,11.444837452867432-12.418593011359917,18.59332415746394-2.565490367229359,6.095477714488879-3.844161776320107,11.834808777573926-4.480905078899013,16.103013447327612-.511567321800612,4.550776484333255-.628101962680375,7.407480006033438-.632052289491185,7.520311215524998-.084438235538983,2.382787752294462-2.04108448327861,4.267710878901198-4.420909490469057,4.267834326616139-.01259166671116,0-.024936437990618,0-.037528104690864-.000123447714941-2.396860791550353-.019998529469376-4.341902954289253-1.944795267309019-4.386837921749247-4.341285715725462-.004937908510328-.258869853723809-.047897712560371-3.52998734726134.683406538009876-8.534927966953546.553292648730348-4.92050238414231,1.540627455638969-11.64099586849261,3.286178114500217-19.091435678577909,4.761872073209815-20.327147283614977,12.580803305969312-35.613677558541895,23.239525723789484-45.435177588207807,9.530410322899115-8.78169994482414,21.126594671650309-12.9220127841254,34.468329679270028-12.301811475063005,22.757092062189258,1.055477944364611,40.372833782059388,3.238403849651149,52.358125321530679,6.488288336591722,8.984771432369598,2.43624061193259,11.965539905419064,4.74668800453037,12.830167685810011,5.626993644445974.282695262299967.287880066227444.524899674788685.613041341721328.719453270148733.966595591153236l20.345911335960409,36.962343820787282c.342690850709914.622670263319378.530331374149682,1.318791915748079.547120263090619,2.029480398286978l.634027452890223,26.946166748051837c.195294281640599,2.700418717306093.259240196870451,5.477621911968527.191097059399908,8.328276495743921-.05752663416024,2.401675252349378-2.020839058390266,4.318694784284162-4.423131549299796,4.318694784284162ZM813.895306524180342,789.025153850952847c6.687162601900127,0,13.427160824870953.796854986065227,20.078523590051191,2.395379418998345,15.128270307128332,3.636028932551199,27.54365367795981,9.928776092079715,36.901237202959237,18.703316069562788.583166995229476.54662647223995,1.153989219170398,1.102881866076132,1.7104915084401,1.666667570392747l-11.561372093750833-21.003393854285605c-1.043873859358428-.61538684826337-4.06142975082912-2.120214467187907-10.815254117629593-3.766266269543848-11.37126261603953-2.771524599875193-27.598958253289311-4.662002873557867-48.232255864630133-5.619092990829813-10.893766862969642-.505394936164521-20.3340603555298,2.849296658934691-28.062380967110585,9.970131075866448-5.259860146608844,4.846680651891802-9.392395779999788,11.04980477193385-12.635120299599294,17.711413697283206,7.469080414710334-7.269588910845414,16.765433874170412-12.716595790041538,27.645868384161076-16.196586813623071,8.038915056949918-2.571045514301659,16.46150560526803-3.861567903821197,24.970262657108833-3.861567903821197ZM861.47847431495029,791.080681716639447h0Z"/>
        </g>
        <path class="cls-28" d="M768.610849075099395,818.126576391634444s36.879426971570865-7.317968820150782,40.459950211161413-27.859058155541788c0,0-36.3710242995312,4.819340708725576-40.459950211161413,27.859058155541788Z"/>
        <g>
          <ellipse class="cls-24" cx="782.538182261548627" cy="875.156380747885123" rx="4.483159692697427" ry="7.385206878017925"/>
          <path class="cls-24" d="M782.538106102680104,884.943409451110711c-3.860703769840256,0-6.884925837790433-4.298943150237392-6.884925837790433-9.787058117794004,0-5.48799151984349,3.024222067950177-9.786934670082701,6.884925837790433-9.786934670082701,3.860703769829342,0,6.884925837779519,4.298943150239211,6.884925837779519,9.786934670082701,0,5.488114967556612-3.024222067950177,9.787058117794004-6.884925837779519,9.787058117794004ZM782.538106102680104,870.173014063362643c-.60415310640019,0-2.081328437669072,1.746291345143618-2.081328437669072,4.983337269954063,0,3.237169372521748,1.477175331268882,4.983460717665366,2.081328437669072,4.983460717665366.604153106391095,0,2.081328437659977-1.746291345143618,2.081328437659977-4.983460717665366,0-3.237045924810445-1.477175331268882-4.983337269954063-2.081328437659977-4.983337269954063Z"/>
        </g>
        <rect class="cls-4" x="809.070799165691824" y="871.538523853768424" width="9.808510623683105" height="25.509045980621295" rx="4.904250434207801" ry="4.904250434207801"/>
        <path class="cls-28" d="M791.970498941620463,857.308404465684362h-21.124619508249452c-2.373652621539804,0-4.297955568541511-1.924302946988973-4.297955568541511-4.297955568536054s1.924302947001706-4.297955568536054,4.297955568541511-4.297955568536054h21.124619508249452c2.373652621550718,0,4.297955568539692,1.924302946988973,4.297955568539692,4.297955568536054s-1.924302946988973,4.297955568536054-4.297955568539692,4.297955568536054Z"/>
        <path class="cls-28" d="M855.974434592450052,857.308404465684362h-21.124866403670239c-2.373652621548899,0-4.297955568539692-1.924302946988973-4.297955568539692-4.297955568536054s1.924302946990792-4.297955568536054,4.297955568539692-4.297955568536054h21.124866403670239c2.373652621550718,0,4.297955568530597,1.924302946988973,4.297955568530597,4.297955568536054s-1.924302946979878,4.297955568536054-4.297955568530597,4.297955568536054Z"/>
        <g>
          <path class="cls-24" d="M782.146036166850536,898.273416926012942c-12.463774874249793,0-22.603770002910096-10.282083446089018-22.603770002910096-22.920536833931692,0-6.022890459367773,2.325754908990348-10.409604933402079,6.912331230030759-13.0383005295771,3.637263409678781-2.084538078192054,8.769972412108473-3.097796904781717,15.691438772879337-3.097796904781717,6.921219465350077,0,12.05392846777977,1.013258826589663,15.691191877460369,3.097796904781717,4.586576321038592,2.628695596175021,6.912331230019845,7.015410070209327,6.912331230019845,13.0383005295771,0,12.638453387842674-10.139995128660303,22.920536833931692-22.603523107480214,22.920536833931692ZM782.146036166850536,861.997812731482554c-13.709115400879455,0-19.822739929149975,4.118832937276238-19.822739929149975,13.355067360598696,0,11.104985899552048,8.892432543199902,20.139506760171571,19.822739929149975,20.139506760171571,10.930060490529286,0,19.822493033731007-9.034520860619523,19.822493033731007-20.139506760171571,0-9.236234423322458-6.113377632851552-13.355067360598696-19.822493033731007-13.355067360598696Z"/>
          <path class="cls-24" d="M845.804071326439953,897.471253688294382c-12.463527978819911,0-22.603523107489309-10.28208344608538-22.603523107489309-22.920536833931692,0-6.022890459367773,2.325754908990348-10.40960493340026,6.912331230030759-13.038300529575281,3.637263409678781-2.084538078192054,8.769972412108473-3.097796904781717,15.69119187745855-3.097796904781717,6.921466360770864,0,12.054175363200557,1.013258826589663,15.691438772881156,3.097796904781717,4.586576321038592,2.628695596175021,6.91233123002894,7.015410070207508,6.91233123002894,13.038300529575281,0,12.638453387846312-10.139995128669398,22.920536833931692-22.603770002910096,22.920536833931692ZM845.804071326439953,861.195649493765814c-13.709115400890369,0-19.822493033729188,4.118832937276238-19.822493033729188,13.355067360596877,0,11.104985899552048,8.892432543199902,20.13950676017339,19.822493033729188,20.13950676017339,10.930307385950073,0,19.822739929149975-9.034520860621342,19.822739929149975-20.13950676017339,0-9.236234423320639-6.11362452827052-13.355067360596877-19.822739929149975-13.355067360596877Z"/>
          <path class="cls-24" d="M824.590322569551063,879.333821934169464c-.184183987479628,0-.371577615500428-.036910866125254-.551317485320396-.114682925182933-8.759109013381021-3.789721334977003-20.273817871689971.002715849681408-20.38936493086112.041601879209338-.727847714619202.244673366752977-1.51618480849902-.146532435082918-1.76110507068006-.874009806560935-.245167157598189-.727477371478017.145174510240395-1.51569101765017.872281538580864-1.761228518389544.511567321809707-.172579902482539,12.631169972790303-4.178087839418367,22.382304806160391.041231536069972.704886440040355.304915850596444,1.029060133829262,1.123497634112937.724144283240094,1.828384074151472-.227143791540584.524899674788685-.73920490420096.838703760702629-1.276943141119773.838703760702629Z"/>
        </g>
        <path class="cls-24" d="M837.903664603230936,881.147021939645128c-.496259805420777,0-.996716833080427-.153198611573316-1.426314873589945-.470953024298069-1.066341343090244-.788707437021003-1.291509971220876-2.292670921957324-.502679086490389-3.35913571276069,7.635241036139632-10.323438429872112,19.672627510399252-9.525842757528153,20.183454145930227-9.486833280287101,1.322618794840309.101350572203955,2.312422556000456,1.255833582225023,2.211195431520537,2.578328929357667-.101474019920715,1.322495347130825-1.251759807710187,2.314521167119892-2.578575824780273,2.211195431513261-.392563726680237-.026664705961593-9.931368494049821-.58946282857687-15.954135505709928,7.553642097978809-.471076472011191.63686675029021-1.197195918641228.973755558496123-1.932944286880229.973755558496123Z"/>
        <path class="cls-24" d="M854.861676909349626,880.692610908861752c-.354048040288035,0-.713527779927972-.078512745336411-1.053008990109447-.244426471328552h0c-2.519320922639963-1.227810951419087-10.388371926799664-4.033036776885638-13.393089256140229-.925487502794567-.921413728268817.953757029024928-2.442536445279984.979681048711427-3.396046578878668.057650081873362-.95375702902129-.921907519123124-.97943415329064-2.442412997572319-.05752663416024-3.396170026597247,1.825050985898997-1.888009319425692,5.417873218979366-3.831570109610766,12.166265886418842-2.365628520215978,3.672569455529811.797348776917715,6.666670281570987,2.25353799700315,6.792340053190856,2.315138405685502,1.191023533008774.583907681502751,1.683333011618743,2.022814221794761,1.09942533011963,3.213837754803535-.417006373809272.850801636557662-1.27077075546913,1.345086278573945-2.158359810440743,1.345086278573945Z"/>
        <g>
          <path class="cls-19" d="M815.372849189079716,930.395425003091077c-18.694311599689172.381358016849845-27.495383904779374-11.359534551756951-30.31488558879937-16.510213252380709-.878769408029257-1.605340013933528.600550646940974-3.399127019400112,2.804550626729906-3.399127019400112h55.020668579429184c2.203999979781656,0,3.683320034750068,1.793787005466584,2.804550626720811,3.399127019400112-2.819501684009083,5.150678700623757-9.8843224120792,15.386347809200743-28.974933243140185,16.445205813548455-.446735355799319.024778112730928-.892127652319687.065007438832254-1.339951000940346.065007438832254"/>
          <path class="cls-19" d="M814.487361754730955,932.806309759071155c-20.219500878070903,0-29.231924598099795-13.55838574356676-31.536199605059664-17.767829302030805-.757722061111053-1.384095755814997-.729575982590177-3.020765532000951.074809313959122-4.378196581850716.941659153169894-1.588895511335068,2.794856217589768-2.575983422813806,4.83643449172996-2.575983422813806h55.020892486429148c2.041578274151107,0,3.89477533857098.987087911478739,4.836434491740874,2.575983422813806.804385296551118,1.357431049849765.832531375059261,2.994100826035719.074809313950027,4.378196581850716-5.98375753440996,10.931048072230624-16.396572108349574,16.882832649029297-30.948588492170529,17.690057242971307-.116040850019999.006419281064154-.231834804619211.01407303925771-.347628759220243.021603349738143-.331827451978825.021603349739962-.706861603439393.045922549157694-1.099178434689748.047033578573974-.305656536869719.006048937926607-.611066178309557.009135130747381-.911784806668948.009135130747381ZM787.314545005991022,913.00097595742227c2.236872555769878,3.953413002136585,10.246900847940196,15.358623739197355,28.009298450610004,14.993095061623535l.04888529425989-.000493790850669c.245907843889654,0,.521690034260246-.017899918355397.813520427300318-.036910866125254.131101470979047-.00851789218359.262202941969008-.017035784365362.393551308368842-.024319199419551,12.660056737589912-.70229403806843,21.692725882519881-5.725875262391128,26.852099590911166-14.931124309801817-.1162877454517-.05752663416024-.296521406120519-.113325000342229-.548601635651721-.113325000342229h-55.020892486429148c-.251586438669619,0-.431820099349352.055551470755745-.547860949369351.113078104915985Z"/>
        </g>
        <path class="cls-18" d="M745.349691722540229,1090.637693512930127l-.000000030320734-62.231401500279389c-.000000018879291-38.754237295988787,31.708012298749964-70.462249623042226,70.462249594731475-70.462249615675319h.000140945459862c14.532838381379406.000000002763045,28.074801457949434,4.458938876990942,39.325365443810369,12.076292836547509,18.750941168589634,12.695590739755062,31.136884053639733,34.164557832136779,31.136884053588801,58.385956674397676l-.000000000140062,62.231401618610107c-.000000000029104,12.64617721671857-10.251752196640155,22.89792941064843-22.897929413360544,22.897929407359698l-95.128781192288443-.000000024700057c-12.646177207750952-.000000003279638-22.897929395319807-10.251752188520186-22.897929401480724-22.897929396260224Z"/>
        <path class="cls-24" d="M869.723081607469794,983.164865595344963s-80.812831365909005,86.658818881935076-124.373389895479704,93.028506634864243l-.000000006490154-14.607384083808938c43.560558529570699-6.369687752930986,113.890991606500393-88.566778836671801,113.890991606500393-88.566778836671801l10.482398295469466,10.145656285616496Z"/>
        <g>
          <rect class="cls-24" x="764.536351832684659" y="1036.08430794121864" width="20.040030806338677" height="6.618177760696426" rx="2.654214245146144" ry="2.654214245146144" transform="translate(-205.587394763528778 191.104292096311269) rotate(-12.43116449702719)"/>
          <rect class="cls-24" x="772.745520811618121" y="1037.889826989489848" width="4.756061592109972" height="8.153196731849448" transform="translate(-206.127984239720035 191.286711701699801) rotate(-12.431164497036704)"/>
          <rect class="cls-24" x="752.084907657439203" y="1042.965400527769134" width="53.797765980351642" height="33.025952598757385" rx="12.057286931718753" ry="12.057286931718753" transform="translate(-209.807219252708705 192.528253811807986) rotate(-12.431164497049176)"/>
          <path class="cls-22" d="M778.981330601731315,1072.802065002160816c-6.114365214540157,0-11.638156571090803-4.244132365760379-13.007438601371177-10.455774377991474-1.581118305430209-7.173670037998818,2.968670597199889-14.296356170620129,10.142217187491042-15.877721371478401,7.173793485719216-1.581488648571394,14.29623272291974,2.968423701779102,15.877597923779831,10.141970292068436v.000123447711303c1.581118305430209,7.173670038009732-2.968670597199889,14.29623272291974-10.142217187500137,15.877474476059433-.961904578070971.212083170579717-1.923068469859572.313927533630704-2.870159322399559.313927533630704ZM778.985774719400069,1047.67181410926969c-.839444446979542,0-1.69049297895981.090116830329862-2.543269778929243.278127696910815-6.356569627039789,1.401254987898938-10.388371926799664,7.712889647478733-8.987240386621124,14.069829617659707,1.401378435610241,6.356816522469671,7.713753781470587,10.388371926799664,14.069829617659707,8.986993491200337,6.356569627041608-1.401131540180359,10.388371926801483-7.712766199771067,8.987240386621124-14.069706169950223-1.213244121310709-5.503916274790754-6.108686619751097-9.265244635820636-11.526559838730464-9.265244635820636Z"/>
          <path class="cls-22" d="M778.96429481737141,1069.307754043889872c-1.852950168991811,0-3.670594292130772-.526998285899026-5.269982859050288-1.548651556959157-2.211936117801088-1.412859072901483-3.741206383851022-3.602451154671144-4.306103117580278-6.165472567639881-1.166333990460771-5.2910924179414,2.189468634060177-10.544533283491546,7.480437604290273-11.710867273941403,2.562033831269218-.564649838299374,5.192704590839639-.098140931670059,7.404640708638908,1.314841588940908,2.211936117790174,1.412859072899664,3.741206383851022,3.602451154680239,4.306103117580278,6.165472567648976v.000123447711303c.564896733729256,2.563021412968737.098017483949661,5.192704590839639-1.314718141229605,7.404640708638908-1.412982520600053,2.211936117790174-3.602451154669325,3.741206383840108-6.165719463060668,4.306103117580278-.709577453129896.156408252099936-1.424833501039757.233809968020068-2.134657849588621.233809968020068ZM779.000341549510267,1051.166371962959602c-.600449675019263,0-1.20484967684024.065427287780039-1.805299351859503.197763235890307-4.473992006980552.986223777490522-7.311561133199575,5.428736617699542-6.325460803420356,9.902852072389578.47774264849977,2.167371493480459,1.770980887700716,4.01908718534105,3.64121373648959,5.213814149730752,1.870726639639543,1.1948504121101,4.094513737849411,1.589018959050009,6.261761783620386,1.111770101399088,2.167248045749147-.47774264849977,4.018963737629747-1.770857439989413,5.213690702021267-3.641337184199074,1.19448006895982-1.870232848779779,1.589265854468977-4.094266842430443,1.111770101389993-6.261514888190504h0c-.477742648490675-2.167371493469545-1.770980887700716-4.019087185339231-3.641213736480495-5.213814149730752-1.352493141341256-.863763646408188-2.889664061020085-1.309533337289395-4.456462431760883-1.309533337289395Z"/>
          <g>
            <rect class="cls-22" x="791.712043231927623" y="1042.179208325389482" width="5.560804142180814" height="2.030468792984038" rx="1.015231609342159" ry="1.015231609342159" transform="translate(-205.938231878653482 195.484969421501319) rotate(-12.431164080563631)"/>
            <path class="cls-22" d="M792.563788649291382,1045.399758955340076c-.690566505350944,0-1.31471814122051-.479347468759443-1.469521573060774-1.181024268269539l-.11554705916933-.525023122499988c-.086660294380636-.392316831250355-.015060620960867-.795126718090614.201466667269415-1.133990689701022.216280392809495-.338863971610408.55181127618016-.573044282769843.944375002860397-.659581129439175l3.972300502189682-.875614626829702c.811051473039697-.178505392699662,1.614696083310264.335283987938965,1.793695266849682,1.14559477469993l.11554705916933.525023122499988c.086660294389731.392316831250355.015060620971781.795126718088795-.201466667269415,1.133990689699203-.216280392809495.338863971610408-.551811276169246.573044282780756-.944375002849483.659581129450089l-3.972300502189682.875614626820607c-.108633987259964.023948856280185-.217267974519928.035429493569609-.324173693799821.035429493569609ZM796.40918490274089,1042.49663909362971l-3.958227462941068.884873205290205.12468218992035.510703187819672,3.946623377929427-.8822808033201-.113078104908709-.513295589789777ZM796.533867092661239,1043.007342281449382l.163197876308914.740686276751148-.163197876308914-.740686276751148h0Z"/>
          </g>
        </g>
      </g>
      <g>
        <path class="cls-3" d="M1124.354830268879596,908.042331374932473l-8.420046087958326-.000000000034561c-38.7542372513999-.000000000158252-70.462249552170761-25.033228421078093-70.462249557260293-55.629396490934596l-.000000004580215-27.453601261126096c-.000000005091351-30.596168071951979,31.708012289520411-55.629396496022309,70.462249543570579-55.629396497932248l8.420046107388771-.00000000041473c38.754240718630172-.000000001909939,70.462249548090767,26.630026908729633,70.46224954399986,55.629396490199724l-.000000003859896,27.453601281356896c-.0000000043201,30.59616806354461-31.708012297900495,55.629396479042043-70.46224954130048,55.62939647888561Z"/>
        <circle class="cls-6" cx="1044.878889866289683" cy="874.883501049013375" r="20.404307330541769"/>
        <circle class="cls-6" cx="1198.250597662357904" cy="874.788597295399995" r="20.404307330546086"/>
        <rect class="cls-10" x="1049.682487125443686" y="778.389936398437158" width="140.924640112291399" height="175.698245070798748" rx="70.462249542070765" ry="70.462249542070765"/>
        <path class="cls-3" d="M1046.931303854720682,853.473426263923102s10.590130541038889,3.427880910907334,19.691508769859865-4.779179105746152c9.101378228830072-8.207060016655305,48.073946542030171-40.878674171430248,48.073946542030171-40.878674171430248l21.469917873138911,10.034852918966862,56.475218753261288,30.843821252463385-3.267161415480587-37.144775410883085-36.638881587859942-32.763714804659685-27.070766013950561-7.142328198673567-28.004240704100084,3.033792742942751-27.304134686488396,15.635701059785788-15.402332387249771,19.369599820331132-8.023075143160895,43.790903896902819Z"/>
        <g>
          <ellipse class="cls-3" cx="1149.744722196590374" cy="874.081267334589029" rx="4.483159692699701" ry="7.385206878018835"/>
          <path class="cls-3" d="M1149.744617328571621,883.868303320412451c-3.860703769831161,0-6.884925837790433-4.298943150237392-6.884925837790433-9.787058117794004,0-5.48799151984349,3.024222067959272-9.786934670082701,6.884925837790433-9.786934670082701,3.860950665248311,0,6.885172733209401,4.298943150239211,6.885172733209401,9.786934670082701,0,5.488114967556612-3.024222067961091,9.787058117794004-6.885172733209401,9.787058117794004ZM1149.744617328571621,869.097907932664384c-.60415310640019,0-2.081328437659977,1.746291345143618-2.081328437659977,4.983337269954063,0,3.237169372521748,1.477175331259787,4.983460717667185,2.081328437659977,4.983460717667185.604153106398371,0,2.081575333089859-1.746291345145437,2.081575333089859-4.983460717667185,0-3.237045924810445-1.477422226691488-4.983337269954063-2.081575333089859-4.983337269954063Z"/>
        </g>
        <g>
          <ellipse class="cls-3" cx="1086.870977767091972" cy="873.510096481315031" rx="4.483159692692425" ry="7.385206878016561"/>
          <path class="cls-3" d="M1086.870968936060308,883.297110753328525c-3.860703769829342,0-6.884925837790433-4.298943150239211-6.884925837790433-9.787058117794004,0-5.48799151984349,3.024222067961091-9.786934670082701,6.884925837790433-9.786934670082701s6.884925837790433,4.298943150239211,6.884925837790433,9.786934670082701c0,5.488114967554793-3.024222067961091,9.787058117794004-6.884925837790433,9.787058117794004ZM1086.870968936060308,868.526715365580458c-.60415310640019,0-2.081328437659977,1.746291345143618-2.081328437659977,4.983337269954063,0,3.237169372521748,1.477175331259787,4.983460717665366,2.081328437659977,4.983460717665366s2.081328437659977-1.746291345143618,2.081328437659977-4.983460717665366c0-3.237045924810445-1.477175331259787-4.983337269954063-2.081328437659977-4.983337269954063Z"/>
        </g>
        <rect class="cls-4" x="1113.403594656805126" y="877.476867045193899" width="9.808510551975814" height="25.509046030859054" rx="4.90425029765994" ry="4.90425029765994"/>
        <path class="cls-4" d="M1119.16587818392145,930.049722332443707c-8.165325514850338,0-14.734965894171182-2.483397638219685-17.165404463610685-3.544801072797782-2.047256868920158-.89400833603213-2.982249845599654-3.278524356306662-2.088241509571162-5.325904672949036.894008336041225-2.047503764353678,3.278771251742-2.982373293320052,5.326028120660339-2.088118061861678,2.089969777551232.91264894066444,13.077310006819971,5.252082940698529,24.178469027279789,1.045849022766561,5.121351812849753-1.940598045075603,8.421602966611317-5.001854426871432,10.288379279430956-7.228357374773623,1.435450004340964-1.711602537849103,3.986867332310794-1.936153927415944,5.698840213299263-.500580475367315,1.711972880981193,1.435326556622385,1.936153927410487,3.986743884590396.500703923080437,5.698716765577046-3.565169945410162,4.251786123953934-8.275193979239702,7.569937196067258-13.6214675247993,9.595590715256549-4.558924033381118,1.727527292800005-9.03736015801951,2.347605154149278-13.117307065769637,2.347605154149278Z"/>
        <path class="cls-3" d="M1096.303361775000667,857.811083552171112h-21.124866403670239c-1.745303763440461,0-3.160261447450466-1.414957684011824-3.160261447450466-3.160261447454104s1.414957684010005-3.160261447454104,3.160261447450466-3.160261447454104h21.124866403670239c1.745303763440461,0,3.160261447459561,1.414957684011824,3.160261447459561,3.160261447454104s-1.4149576840191,3.160261447454104-3.160261447459561,3.160261447454104Z"/>
        <path class="cls-3" d="M1160.30705053040947,857.811083552171112h-21.124866403679334c-1.745303763440461,0-3.160261447450466-1.414957684011824-3.160261447450466-3.160261447454104s1.414957684010005-3.160261447454104,3.160261447450466-3.160261447454104h21.124866403679334c1.745303763440461,0,3.160261447450466,1.414957684011824,3.160261447450466,3.160261447454104s-1.414957684010005,3.160261447454104-3.160261447450466,3.160261447454104Z"/>
        <path class="cls-3" d="M1046.931303854720682,854.933562719215843c63.32742960825999-.96631241967043,111.637019859979773-76.147805776581663,111.637019859979773-76.147805776581663,0,0-58.267246207999051-4.617305472755106-78.070400084490757,10.108163253646126"/>
        <path class="cls-3" d="M1132.108613749889628,816.778400817072907s5.642257999750655,33.560144771190608,30.355482049391867,34.129470065281566c0,0-2.642600829900402-33.422623351698348-30.355482049391867-34.129470065281566Z"/>
        <path class="cls-3" d="M1124.494751636389992,790.378029884146599s8.022000010310876,67.062814363511279,68.147144156620925,63.999313411542971c0,0-.735768647400619-67.295977062141901-68.147144156620925-63.999313411542971Z"/>
        <path class="cls-3" d="M1127.605450759099767,797.693603437099227s-6.362504417878881,29.130489811377629,8.545875576050094,38.181449911506206c0,0,8.152075730891738-27.976507929310173-8.545875576050094-38.181449911506206Z"/>
        <path class="cls-3" d="M1092.724357543291262,783.043464416921779s49.983421965109301,45.425005043231067,93.413141140479638,3.732349946132672c0,0-44.629979947940228-50.373155292249066-93.413141140479638-3.732349946132672Z"/>
        <path class="cls-3" d="M1040.218636798959778,802.142049891592251s60.259748646110893,30.504692223132224,91.044713849700202-21.232179677966997c0,0-56.41416986295917-36.69783812328933-91.044713849700202,21.232179677966997Z"/>
        <path class="cls-3" d="M1072.391498317310834,765.999640299771272s37.514233067859095,50.808478463459323,81.93612594240949,26.050810029741115c0,0-32.06634515802034-53.697978523770871-81.93612594240949-26.050810029741115Z"/>
        <path class="cls-24" d="M1049.682487228090395,1090.637693512930127l-.000000030320734-62.231401500279389c-.000000018888386-38.754237295988787,31.708012298749964-70.462249623042226,70.46224959474057-70.462249615675319h.000140945450767c38.754237223649397.000000007370545,70.462249497479206,31.708012287295787,70.462249497399171,70.462249510945185l-.000000000140062,62.231401618610107c-.000000000029104,12.64617721671857-10.251752196640155,22.89792941064843-22.897929413360544,22.897929407359698l-95.128781192299357-.000000024700057c-12.646177207740038-.000000003279638-22.897929395308893-10.251752188520186-22.89792940146981-22.897929396260224Z"/>
        <path class="cls-24" d="M1094.663990562301478,977.53205673750017l-8.633046841539908-14.446811176903793c-1.745745980080756-2.921386041323785-.586935513299977-8.147126704121547,1.806629204938872-8.147126704121547h69.043739199629272c2.414802149491152,0,3.562874107161406,5.304486370761879,1.774693748011487,8.199694048556921l-10.522099591671576,17.036124666368778c-.485887081958936.786690225662824-1.118540041828965,1.222490684747754-1.774693747998754,1.222490684747754h-46.219795532289936c-2.034090105549694,0-3.991863200601074-1.381730294922818-5.475426439079456-3.864371518648113Z"/>
        <g>
          <path class="cls-24" d="M1086.550251778229722,890.675333651430265c-5.955611455898179,0-11.571247910769671-1.68209853449298-15.812664426848642-4.736441844370347-4.379184163550235-3.153842166388131-6.791105576059635-7.390814564807442-6.791105576059635-11.930480754987002,0-10.624403953659566,12.900285986668678-11.853079039068689,22.603770002908277-11.853079039068689,9.703237120811536,0,22.603523107480214,1.228675085409122,22.603523107480214,11.853079039068689,0,4.53966619017956-2.4119214125094,8.776638588598871-6.79110557606873,11.930480754987002-4.241416516069876,3.054343309877368-9.857052970939549,4.736441844370347-15.812417531411484,4.736441844370347ZM1086.550251778229722,864.936362086762529c-6.48939936600982,0-11.224606733248947.642792240503695-14.47621948816959,1.965040692208277-3.647633017550106,1.483224269188213-5.34652044098948,3.741576726988569-5.34652044098948,7.10700827310211,0,7.656720938157378,8.892432543199902,13.885892525597228,19.82273992915907,13.885892525597228,10.930060490531105,0,19.822493033720093-6.229171587439851,19.822493033720093-13.885892525597228,0-3.365431546113541-1.698887423430278-5.623784003913897-5.346520440980385-7.10700827310211-3.251612754918824-1.322248451704581-7.986820122157951-1.965040692208277-14.475972592739708-1.965040692208277Z"/>
          <path class="cls-24" d="M1150.208286937810044,890.106116247750833c-5.955611455889084,0-11.571247910760576-1.682098534491161-15.81241753141876-4.736565292083469-4.379431058971022-3.153595270963706-6.791105576059635-7.390567669381198-6.791105576059635-11.930357307275699,0-10.624403953657747,12.900285986668678-11.853079039068689,22.603523107478395-11.853079039068689,9.703237120811536,0,22.603523107491128,1.228675085410941,22.603523107491128,11.853079039068689,0,4.539789637894501-2.411674517090432,8.776762036311993-6.791105576070549,11.930357307275699-4.241169620649089,3.054466757592309-9.856806075520581,4.736565292083469-15.812417531420579,4.736565292083469ZM1150.208286937810044,864.367144683083097c-6.489399365998906,0-11.224359837819065.642792240503695-14.475972592739708,1.965040692208277-3.647633017550106,1.483224269186394-5.346520440980385,3.741576726988569-5.346520440980385,7.107008273100291,0,7.656720938157378,8.892432543199902,13.885892525599047,19.822493033720093,13.885892525599047,10.930060490531105,0,19.822493033731007-6.22917158744167,19.822493033731007-13.885892525599047,0-3.365431546111722-1.698887423441192-5.623784003913897-5.346520440991299-7.107008273100291-3.251612754918824-1.322248451704581-7.986573226729888-1.965040692208277-14.475972592739708-1.965040692208277Z"/>
          <path class="cls-24" d="M1128.995772658061469,877.236939084697951c-.135298693221557,0-.272572549851247-.019875081759892-.408611929340623-.061600408682352-8.890704275219832-2.729305482098425-20.537255290790199-.004937908512147-20.653789931660867.023084722291969-.747352453239728.178752288122269-1.496680069880313-.282201471442022-1.675679253428825-1.029060133827443-.178505392699662-.746611766960996.281707680589534-1.496680069878494,1.028319447548711-1.675555805713884.505641831590765-.121102206248906,12.492414743621339-2.931759731076454,22.117386014511794.022961274580666.734020100258931.225415523555057,1.146582356408544,1.003259561852246.921166832849849,1.73740310982248-.183690196630778.598104168471764-.73402010026075.982767241528563-1.328791180480039.982767241528563Z"/>
        </g>
      </g>
      <g>
        <path class="cls-3" d="M506.091738845530926,1009.914666594400842l-.000162795051438.000000000038199c-44.768592573698697.000011110731066-81.397450425858551-35.506670109527477-81.397461893679065-78.903736045007463l-.000025450719477-96.311779005100107c-.000011467820514-43.397065945904615,36.628827627599094-78.903765360684702,81.397420212049838-78.903776477292922l.000162802600244-.000000000038199c44.768592553400595-.000011116613678,81.397450384380136,35.506670082728306,81.39746184661999,78.903735998525008l.000025438339435,96.311779122397638c.000011462239854,43.397065912835387-36.628827609829386,78.90376529574678-81.397420160159527,78.903776406477846Z"/>
        <ellipse class="cls-14" cx="434.180048445955435" cy="866.298022386114553" rx="19.447103821984701" ry="18.854310262187717"/>
        <ellipse class="cls-14" cx="580.356807933110758" cy="866.210350394565467" rx="19.447103821991067" ry="18.854310262188175"/>
        <path class="cls-7" d="M505.915157349410947,947.798701003604947l-.000134313600938-.000000000021828c-36.93620483417908-.000005680276445-67.156731273709738-29.297331042065707-67.156725421158626-65.10516747064321l.000006611899153-40.453860596680897c.000005852540198-35.807836440370011,30.220541878890799-65.105152518315663,67.156746725238918-65.105146839881854l.000134313600938.000000000021828c36.936204851190269.000005678435627,67.156731297529404,29.297331052204754,67.156725436310808,65.105167497275033l-.000006621690773,40.453860583491405c-.000005861220416,35.807836434818455-30.220541889990272,65.105152506714148-67.15674673059948,65.105146826439523Z"/>
        <path class="cls-3" d="M433.733984736260027,849.221758079580468c55.10413223669093-6.227378773752207,71.734414389780795-53.73926229241988,71.734414389780795-53.73926229241988,0,0,38.141382343679652,49.806192503516286,71.734396810448743,53.739284349576337,0,0,11.008818796010019-69.60966648773865-71.720388700039621-77.247958409760031,0,0-77.684428727079649,1.060860168190629-71.748422500189918,77.247936352603574"/>
        <g>
          <g>
            <path class="cls-25" d="M532.799020017220755,870.40199348664828c-.565418760579632-.000000086929504-1.136850989099912-.158581299201614-1.639879696680509-.489736077543057-1.336649204820787-.87948412532387-1.684830211099325-2.643116169228961-.777544112390387-3.938875401177938,8.609671514290312-12.2981980829245,22.279996621771716-11.339713008603212,22.857141687811236-11.293362922107917,1.609812286140368.130304958189299,2.805745654159182,1.501273943826163,2.671193473670428,3.062015357267228-.134552180450555,1.560449904018242-1.548024102290583,2.716284536596504-3.158287401091002,2.589769200798401-.428311095380195-.031191573780234-10.884874797478915-.665517679084587-17.52978707001057,8.826611029977357-.565719567450287.808064024977284-1.4859345372588,1.24357895682806-2.422836881309195,1.243578812785927Z"/>
            <path class="cls-25" d="M551.751147367560407,869.865327558352874c-.464091388968882-.00000007134804-.934797603649713-.107275610236684-1.373030931959875-.333778496871673-.068253149640441-.034981140881428-2.968560999339388-1.508561704353269-6.377911220430178-2.274357474585486-2.683972550299586-.603133402404637-6.274629688870846-.895226393173289-8.134904348300552,1.137760015182721-1.071905472968865,1.171867703187672-2.920453504479156,1.279725904347288-4.129165601068962.239620108328381-1.208411422039717-1.039231267712239-1.319059416011441-2.8314311982449-.24715394308987-4.003007392013387,6.942579907428808-7.5882806419595,21.045875556310421-.413065612363425,21.642865109139166-.104065535490008,1.42489725041014.738102070241439,1.962954332939262,2.455967164416506,1.201796121120424,3.837430188279541-.526631881559297.95615081629694-1.537650626500181,1.500398747810323-2.582495185410153,1.500398587169911Z"/>
          </g>
          <g>
            <path class="cls-25" d="M477.993239637249644,870.401985060709194c-.936902344048576-.000000144042133-1.857117171439313-.43522384942662-2.422836474499491-1.243579557771227-6.710907247259456-9.585996795618485-17.421691629180714-8.834195648401874-17.529784182628646-8.826616420101345-1.609361316630384.12972144442756-3.023885221331511-1.02902871713377-3.158286553911239-2.589770171920463-.134551669940265-1.56074145481216,1.061382146550386-2.931710072720307,2.67119447532059-3.062014535917115.578798791919326-.045766889939841,14.247620839609226-1.005122289347128,22.857137993500146,11.293369950302804.907285674829836,1.295759510929201.559104091629706,3.059391447770395-.777545400900635,3.938875162097247-.503028815910511.331154623667317-1.074611433639802.489735660214137-1.639879856880725.489735573310099Z"/>
            <path class="cls-25" d="M459.043517860300199,869.863564248797047c-1.046798944409602-.000000160942363-2.059170547259782-.545414441208777-2.585050429059265-1.503022966418939-.758301350369948-1.381171748051202-.221446405181268-3.095830073345496,1.201947713059781-3.833057177425871.597139991268705-.308999893282817,14.700287649930033-7.48391907695077,21.642865075089503.104072190317311,1.071905089680513,1.171576523360272.961256509450322,2.963776419870555-.247155252549419,4.003007316017829-1.208111087309589,1.039230896194567-3.057110095769531.932538164242942-4.129165522690528-.239621377981166-1.860424331738614-2.032986980380883-5.451081565850473-1.740895093680592-8.134903976118949-1.137762516531438-3.433103773211769.771041887814135-6.349949215611559,2.26007155620573-6.378964325929701,2.274938532160377-.437030703351411.224753695551044-.906834928940953.331446071002574-1.369573281801422.331445999861899Z"/>
          </g>
        </g>
        <path class="cls-1" d="M507.070623178749884,891.705168875032541h.000008993811207c2.473294664239802.000000378544428,4.496899840909464-2.679825741766763,4.496900392628959-5.955169156241027l.00000218706009-12.983801059899633c.0000005517104-3.275343512441395-2.023603782699865-5.955170347810053-4.496898520919785-5.955170745268333h-.000009008499546c-2.473294715049633-.000000397454642-4.496899910689535,2.679825762443215-4.496900434740382,5.955169244218268l-.000002077420504,12.983801142869197c-.000000524049028,3.275343437337142,2.02360378657977,5.955170195782557,4.496898468079962,5.955170574321528Z"/>
        <g>
          <path class="cls-13" d="M507.062816356190524,923.874960318020385c-6.611986078069094.371691504225964-9.724834991649914-11.071597549513172-10.722063789420645-16.091718877580206-.310811717288743-1.564648488316379.212408597961257-3.31296728813868.99194076231106-3.31296728813868h19.460245578609829c.779532164349803,0,1.302752479599803,1.7483187998223.991940762320155,3.31296728813868-.997228797779826,5.020121328067034-3.495983354690907,14.996340732461249-10.24813640208049,16.028359221667415-.158005708710334.024150046905561-.315536391139176.063359655912791-.473926911739909.063359655912791"/>
          <path class="cls-13" d="M506.732611138169887,926.22529359499822c-8.281790538019777,0-11.676959800148325-12.532025341812187-12.762848061120167-17.999423246488732-.305041525200068-1.535867041948222-.11764823673002-3.667912790739138.989833687941427-4.968195996563736.619762968610303-.727686946314861,1.462412259119446-1.128347913778271,2.373069180150196-1.128347913778271h19.460358651758725c.910408718000326,0,1.753058008511289.400540648855895,2.372572774089349,1.127986957953908,1.107481924671447,1.300162887213446,1.295371619200523,3.432328954613695.990330094000456,4.968556952388099-2.178974409838702,10.967642789568345-6.298151913628317,16.989468843818031-12.243110914039789,17.898114977839214l-.06775942747845.011791223667387c-.152396661080274.027432642817075-.398365864890366.071589572266021-.696209502180864.079049326013774-.139490103469143.006978479314057-.279228409959615.010467718968357-.416236483120883.010467718968357ZM498.66427520688012,906.811164145674411c-.001489218178904.166280317425844.011417339430409.347359823743318.047406778940058.529040923103821,1.433124301449425,7.216349202892161,4.533428362659834,14.403220346619491,8.211300877190297,14.19783648131488l.042442718320672-.005775293220722c.064780991109728-.011670905059873.130058388278485-.02310117289926.195087582420456-.032967298826406,2.559966062548483-.391276115973596,6.069556922007905-3.16522164296839,8.253495392478726-14.158853252049084.035989439509649-.181801417969837.048895997120781-.363001242896644.047406778930963-.529281560322488h-16.797140128281171Z"/>
        </g>
        <g>
          <path class="cls-3" d="M460.951405780171626,848.89075181876251c-1.450880968430283,0-2.757945351469971-1.005111277545438-3.083230074671519-2.480434893112033-.3757748377393-1.704442570506217.70130645637073-3.39073832723443,2.405749026869671-3.766636612683214,2.566354501221213-.565637420009807,6.705309415679949-1.227564055996481,11.847276996570145-1.169049840131265,3.250254830079939.037281209262801,6.41705900631132.351579086029233,9.412641204900865.934128842689461,1.713330805829173.333185376823167,2.832013979139447,1.992199189024177,2.498828602319918,3.705406547140228-.333308824539927,1.713330805827354-1.992199189029634,2.831767083715022-3.705406547140228,2.498828602318099-2.622770105959717-.510085949254062-5.408120849670013-.785374348777623-8.278527067490359-.818334888092068-4.542011696719783-.048761846552225-8.170633766509127.526751390480058-10.413925603348616,1.021406375633887-.229118954941441.050490114530476-.458114462160665.074685866236905-.683406538009876.074685866236905Z"/>
          <path class="cls-3" d="M531.236731400949793,848.846063746734217c-1.450880968430283,0-2.757945351469971-1.005234725260379-3.0832300746697-2.480434893113852-.3757748377393-1.704442570508036.701306456359816-3.390861774947552,2.40574902687149-3.766636612683214,2.566601396638362-.56576086772111,6.70481562482928-1.228551637697819,11.847400444279629-1.168926392419962,3.249884486938754.037157761549679,6.416812110888714.351332190604808,9.412517757189562.934005394979977,1.713330805829173.333185376821348,2.832013979139447,1.992199189022358,2.498828602309004,3.70540654713659-.333185376819529,1.713207358116051-1.992692979869389,2.831767083716841-3.705406547129314,2.498828602318099-2.622893553680115-.510085949252243-5.408120849670013-.785374348775804-8.278403619779056-.818211440378946-4.541147562729748-.053329411925006-8.170633766501851.526627942766936-10.414049051061738,1.021282927920765-.229242402649106.050490114532295-.45811446216976.074685866240543-.683406538009876.074685866240543Z"/>
        </g>
        <path class="cls-5" d="M436.620789131769925,1090.637693505810603l-.000000030318915-62.231401500281208c-.00000001888111-38.754237295986968,31.708012298749964-70.462249623040407,70.462249594738751-70.4622496156735h.000140945450767c14.53283838139032.000000002763045,28.074801457960348,4.458938876990942,39.325365443810369,12.076292836547509,18.750941168589634,12.695590739756881,31.136884053639733,34.164557832136779,31.13688405359062,58.385956674406771l-.000000000141881,62.231401618599193c-.00000000001819,12.646177216720389-10.251752196640155,22.897929410650249-22.897929413358725,22.897929407370611l-95.128781192301176-.000000024710971c-12.646177207738219-.000000003279638-22.897929395308893-10.251752188518367-22.89792940146981-22.897929396258405Z"/>
      </g>
    </g>
  </g>
</svg>