<?xml version="1.0" encoding="UTF-8"?>
<svg id="Tracy_s_Kitchen" data-name="Tracy&amp;apos;s Kitchen" xmlns="http://www.w3.org/2000/svg" width="659.893405552873446" height="923.090537743674759" viewBox="0 14 659.893405552873446 923.090537743674759">
  <defs>
    <style>
      .cls-1, .cls-2, .cls-3 {
        fill: #000;
      }

      .cls-1, .cls-4, .cls-3, .cls-5, .cls-6, .cls-7, .cls-8, .cls-9, .cls-10, .cls-11, .cls-12, .cls-13, .cls-14, .cls-15, .cls-16, .cls-17 {
        stroke: #000;
      }

      .cls-1, .cls-4, .cls-5, .cls-6, .cls-7, .cls-8, .cls-10, .cls-11, .cls-12, .cls-14, .cls-15, .cls-17 {
        stroke-width: 2px;
      }

      .cls-1, .cls-3, .cls-6, .cls-8, .cls-11, .cls-12, .cls-15, .cls-16 {
        stroke-linejoin: round;
      }

      .cls-1, .cls-5, .cls-6, .cls-8, .cls-11, .cls-15, .cls-16 {
        stroke-linecap: round;
      }

      .cls-2, .cls-18, .cls-19, .cls-20, .cls-21 {
        stroke-width: 0px;
      }

      .cls-4, .cls-5, .cls-7, .cls-9, .cls-10, .cls-13, .cls-14, .cls-17 {
        stroke-miterlimit: 10;
      }

      .cls-4, .cls-18 {
        fill: #ece6b8;
      }

      .cls-5, .cls-9, .cls-15 {
        fill: none;
      }

      .cls-6 {
        fill: #863d27;
      }

      .cls-7 {
        fill: #a52b22;
      }

      .cls-19, .cls-12 {
        fill: #b12f25;
      }

      .cls-8 {
        fill: #1e3829;
      }

      .cls-10 {
        fill: #d8a06e;
      }

      .cls-11, .cls-16 {
        fill: #dbd1a3;
      }

      .cls-13 {
        fill: #3b251c;
        stroke-width: 3px;
      }

      .cls-14 {
        fill: #d59c3f;
      }

      .cls-16 {
        stroke-width: 1.5px;
      }

      .cls-17 {
        fill: #d39c6d;
      }

      .cls-20 {
        fill: #3c6866;
      }

      .cls-21 {
        fill: #e6dfd7;
      }
    </style>
  </defs>
  <path class="cls-18" d="M306.16711440344443,913.863830049052012c-4.384765625,0-9.2255859375-.9765625-13.4345703125-2.6953125-.5244140625-.017578125-1.2724609375-.0322265625-2.3056640625-.0322265625-5.9501953125,0-15.7119140625.490234375-24.32421875.9228515625l-.1875.0087890625c-6.302734375.31640625-12.255859375.615234375-16.63671875.724609375-.4296875.01171875-.841796875.0166015625-1.2421875.0166015625-5.9765625,0-10.8525390625-1.3115234375-14.55078125-3.90625-9.7490234375,3.48828125-20.8857421875,3.89453125-25.52734375,3.89453125-8.4248046875,0-24.517578125-1.1591796875-37.64453125-8.919921875-23.7294921875-14.02734375-32.1240234375-39.6083984375-26.2939453125-55.263671875,1.70703125-4.5859375,4.8779296875-8.6787109375,8.234375-13.01171875,7.31640625-9.4462890625,10.6865234375-15.046875,8.8056640625-19.439453125-3.0908203125-7.2177734375-8.7900390625-14.8359375-14.302734375-22.203125-7.736328125-10.33984375-14.4140625-19.2646484375-16.0205078125-29.21875-2.0166015625-12.4990234375-3.271484375-46.375-3.408203125-50.197265625l-.0048828125-.2138671875c-.0048828125-.22265625-.46484375-19.865234375-4.125-36.0244140625-19.865234375-9.8876953125-36.7685546875-20.716796875-48.0869140625-30.7998046875-3.1103515625.4375-6.2333984375.6591796875-9.3125.6591796875-9.423828125,0-18.2080078125-2.021484375-26.1083984375-6.0087890625-24.47265625-12.3515625-23.85546875-34.224609375-23.55859375-44.7353515625.017578125-.6025390625.033203125-1.1884765625.044921875-1.7568359375.2138671875-10.5029296875,5.7275390625-25.2958984375,30.783203125-36.1279296875,4.244140625-1.833984375,8.6787109375-2.9111328125,13.2177734375-3.2109375-.015625-25.271484375,6.1455078125-46.5439453125,12.4091796875-61.6318359375l-3.94921875-4.91015625c-1.2109375-1.505859375-7.181640625-9.56982421875-5.82421875-20.505859375.2919921875-2.36083984375.9052734375-4.65380859375,1.8291015625-6.85791015625-5.1943359375-4.158203125-10.3037109375-9.96435546875-11.09375-17.06640625-.576171875-5.1826171875-.115234375-10.36181640625-.017578125-11.34765625l.4013671875-4.0126953125c-3.6689453125-2.41796875-6.384765625-5.60400390625-7.943359375-9.3525390625-1.5234375-3.662109375-3.232421875-11.07421875,2.4345703125-19.57568359375.177734375-.2666015625.3603515625-.5302734375.548828125-.791015625-5.833984375-3.912109375-9.52734375-10.15380859375-10.05859375-17.48291015625-.8056640625-11.15283203125,6.3447265625-21.15771484375,17.0029296875-23.7900390625,1.734375-.4287109375,3.6611328125-.77392578125,5.708984375-1.02685546875.6728515625-7.8076171875,5.34375-14.1220703125,12.6279296875-16.81982421875,2.08984375-.77392578125,4.623046875-1.4189453125,7.3642578125-1.8935546875-3.125-1.998046875-6.87109375-4.6142578125-10.8251953125-8.3408203125-12.0517578125-11.35546875-10.138671875-31.62890625-7.4423828125-44.10205078125-.14453125-.1884765625-.27734375-.3583984375-.384765625-.4970703125-.9609375-1.236328125-1.8583984375-2.39208984375-2.666015625-3.77783203125-2.93359375-5.02880859375-2.90625-11.1201171875-2.8740234375-18.17333984375.0029296875-.69921875.0068359375-1.41162109375.00390625-2.009765625-.27734375-.6923828125-.728515625-1.73486328125-.9541015625-2.2568359375-1.287109375-2.97314453125-2.8837890625-6.6611328125-3.818359375-10.931640625-1.97265625-9.0166015625-.6240234375-16.8251953125,1.15625-22.2880859375-3.462890625-8.6083984375-.021484375-14.89990234375,1.328125-17.236328125.02734375-.21826171875.0546875-.4541015625.0791015625-.65234375.4033203125-3.29296875,1.072265625-8.75146484375,5.259765625-13.6357421875,0,0,.33984375-.39697265625.47265625-.55126953125,1.3681640625-6.27783203125,5.4404296875-12.3125,7.861328125-15.47998046875,1.4716796875-1.9228515625,2.95703125-3.34130859375,4.0419921875-4.37646484375.03125-.0302734375.0634765625-.06103515625.0966796875-.09228515625,1.2626953125-4.7783203125,3.1376953125-7.9384765625,7.609375-13.94189453125-5.8271484375-4.53076171875-8.900390625-12.46435546875-8.1083984375-21.8193359375.0234375-11.8505859375.525390625-27.283203125,2.76953125-34.01611328125,3.3896484375-10.16845703125,12.3154296875-16.83740234375,17.6494140625-20.822265625l.111328125-.08349609375c.4423828125-.64794921875,1.236328125-2.0224609375,1.5615234375-2.58447265625,1.896484375-3.283203125,4.2490234375-7.35546875,8.587890625-10.24755859375.1123046875-.07470703125.2255859375-.1484375.33984375-.22119140625-.0126953125-.75-.01953125-1.51708984375-.01953125-2.2978515625,0-16.1923828125,6.1298828125-30.96728515625,16.396484375-39.52294921875,4.474609375-3.728515625,10.087890625-5.69921875,16.2333984375-5.69921875,3.41796875,0,6.521484375.6064453125,8.9453125,1.24365234375,3.8984375-2.08349609375,10.24609375-5.021484375,17.4248046875-5.021484375,12.865234375,0,22.6494140625,10.828125,25.466796875,14.31982421875,1.7451171875,1.98486328125,5.076171875,6.26171875,7.01171875,11.8828125,2.1123046875-.6826171875,4.30859375-1.03271484375,6.537109375-1.03271484375,3.98828125,0,7.865234375,1.095703125,11.521484375,3.25634765625,3.7158203125,2.19580078125,7.853515625,6.7490234375,12.5849609375,13.86181640625,8.4208984375-4.892578125,17.0302734375-7.28076171875,26.1826171875-7.28076171875.1689453125,0,.3349609375.0009765625.498046875.00244140625,4.4130859375-3.90185546875,13.6162109375-10.7802734375,29.0302734375-10.9775390625.2880859375-.00390625.5751953125-.005859375.861328125-.005859375,11.2783203125,0,20.8154296875,2.8427734375,27.294921875,5.5185546875,3.466796875-1.0234375,7.2138671875-1.541015625,11.16796875-1.541015625,8.67578125,0,16.927734375,2.451171875,22.7822265625,4.7646484375,4.25-1.16455078125,8.4892578125-1.75390625,12.626953125-1.75390625,11.0869140625,0,19.505859375,4.3212890625,24.4140625,7.72265625,4.263671875-1.01708984375,8.740234375-1.53173828125,13.341796875-1.53173828125,6.720703125,0,13.6103515625,1.1015625,20.4765625,3.27392578125,18.3671875,5.8095703125,26.9013671875,19.8486328125,30.642578125,29.07958984375,22.2744140625,8.12451171875,29.380859375,30.03271484375,31.412109375,39.18212890625,10.40234375,8.6962890625,13.5146484375,21.57080078125,14.443359375,28.3369140625,2.9091796875,2.95068359375,6.6494140625,6.84912109375,9.857421875,10.53173828125,6.845703125,7.85986328125,7.9609375,19.35009765625,8.7607421875,27.77685546875,5.3623046875,3.9267578125,12.9873046875,9.75830078125,17.392578125,18.9677734375,5.7978515625,12.123046875,2.8076171875,24.48046875,1.1328125,30.8271484375,1.6533203125,3.03466796875,4.0009765625,7.97509765625,4.75390625,15.20263671875,1.00390625,9.63623046875-2.85546875,18.83447265625-6.697265625,25.34375,2.27734375,12.29052734375-.19921875,26.76806640625-.888671875,29.64453125-.068359375,1.0693359375.1787109375,4.85498046875.4638671875,9.21533203125l.0126953125.20166015625c.6962890625,10.67626953125-5.1787109375,19.81396484375-9.8232421875,25.2802734375,3.482421875.22265625,6.921875.95068359375,10.2548828125,2.1728515625l12.0009765625,4.400390625-2.4404296875,12.54638671875c-.8095703125,4.1552734375-8.2080078125,39.03271484375-31.2958984375,55.58642578125,17.427734375,25.87890625,27.333984375,49.486328125,29.4892578125,70.28173828125.517578125.2373046875,1.033203125.474609375,1.5478515625.712890625,22.5859375,10.4697265625,40.2333984375,19.6923828125,52.43359375,30.322265625,4.0009765625-.0791015625,7.5146484375-1.1689453125,7.55078125-1.1806640625l.8076171875-.2607421875.8984375-.185546875c4.9736328125-.97265625,9.8173828125-2.080078125,10.857421875-2.4267578125,2.03125-.6767578125,4.228515625-1.0205078125,6.53125-1.0205078125,11.9052734375,0,24.220703125,8.8125,24.220703125,23.5595703125,0,3.830078125-.248046875,10.6494140625-.4873046875,17.244140625-.1474609375,4.0419921875-.3876953125,10.6083984375-.3720703125,12.1328125.427734375,6.376953125-2.955078125,10.853515625-6.5341796875,15.5908203125-3.9931640625,5.2861328125-5.0595703125,7.1962890625-5.3291015625,7.8798828125-3.67578125,20.9208984375-16.3505859375,25.3203125-26.3564453125,25.3203125-.498046875,0-1.009765625-.01171875-1.533203125-.0361328125-2.2626953125-.1025390625-4.4052734375-.3818359375-6.404296875-.833984375-10.31640625,14.791015625-24.794921875,28.443359375-43.1181640625,40.6552734375,4.11328125,25.4140625,8.392578125,63.6044921875,6.7802734375,106.6005859375-.0537109375,1.337890625-1.4013671875,32.255859375-10.103515625,53.2177734375-.9384765625,15.0009765625-3.220703125,40.7119140625-8.185546875,51.0947265625-5.0478515625,10.5546875-19.6376953125,35.244140625-46.015625,36.5634765625-.7412109375.037109375-1.4765625.0546875-2.21484375.0546875-13.091796875,0-24.15234375-5.599609375-32.73046875-11.17578125-1.2626953125.904296875-2.474609375,1.6767578125-3.5419921875,2.357421875-1.3203125.8408203125-2.6533203125,1.69140625-3.93359375,2.6259765625-4.462890625,3.255859375-9.8974609375,4.837890625-16.6181640625,4.837890625-6.615234375,0-13.38671875-1.54296875-19.361328125-2.904296875-2.6259765625-.5986328125-5.892578125-1.3427734375-7.2265625-1.4384765625-.578125.04296875-2.59375.8115234375-4.2138671875,1.4296875-4.513671875,1.7236328125-11.322265625,4.3232421875-20.3759765625,4.3232421875-.73046875,0-1.4794921875-.0166015625-2.2431640625-.05078125-4.9970703125-.2265625-9.4150390625-1.486328125-13.177734375-3.751953125-5.4111328125,2.4228515625-13.0322265625,4.7998046875-22.09765625,4.7998046875-6.349609375,0-12.6279296875-1.162109375-18.708984375-3.4580078125-5.1025390625,4.1875-11.36328125,6.3828125-18.3017578125,6.3828125Z"/>
  <path class="cls-17" d="M481.547957665694412,409.067467177534127l-1.519411502400544,8.261959772814407c.775756871500562,1.901320182829295,42.420416201939588,51.230410699243293,37.710603539570002,92.131415398784156l-81.802009399089002-11.154819463510648,15.271995256269292,378.7227250911601c.293834502479513,7.237082990384806-5.385656130620191,8.625899774207937-12.631709986049827,13.913560695738852-7.24605385544055,5.287660921530914-25.067429553930197-1.762553640510305-33.292679876309194-2.350071520681013-8.225250322380816-.587517880170708-14.296268417470856,6.266857388482094-27.221661781210059,5.679339508311386-12.925393363750118-.587517880170708-10.385702463840062-13.004350313574832-10.385702463840062-13.004350313574832l-48.632889469339716,6.473889578284798c-5.946143424480397,15.207700831002512-20.100482596390066,9.859728722922227-23.038071997241786,8.293014375802159-2.937589400848083-1.566714347120069-34.467715636648791.783357173559125-48.176466173948938,1.128461055563093s-4.895982334750443-7.395318444043369-4.895982334750443-7.395318444043369c16.646339938150049-8.02941102899058,48.056999000040378-8.500046565606681,48.056999000040378-8.500046565606681L120.983802705884955,506.636030015445613l33.4953564580901-178.050516771262664h299.929135845290148l27.139662656429209,80.481953933351178Z"/>
  <path class="cls-7" d="M141.247771663594904,713.37768994974158s-.777217003280384-40.036543569820424-10.972351528091167-57.135238700406262c-10.195134524799869-17.098695130585838-13.137615103280041-166.87012677598068-13.137615103280041-166.87012677598068l81.79271276819054-31.966376445700007h70.148533555789982s129.694285809609937-33.679739856758715,142.153853419889856-40.995021092844581c12.459567610270824-7.315281236085866,80.017049989561201-69.886979754491222,80.017049989561201-69.886979754491222,0,0,5.610704301179794,17.695298180642567,5.179111662630021,23.737595120374863,0,0,10.358223325249128-9.495038048149581,23.306002481818723-4.747519024074791,0,0-9.495038048149581,48.81854225132065-39.706522746810151,51.815403673729634l-5.179111662630021-2.757346387074904s-6.473889578279341,6.032483589472577-12.516186518008908,5.677549380200617c0,0-20.124132779979846,40.398621358821401-13.083214859860163,75.481497628741636s79.116888558350183,146.209194629365811,79.116888558350183,146.209194629365811c0,0,13.379371795119368,56.763218037383922,10.789815963809815,125.81804020574782,0,0-1.294777915660234,31.787733955670774-9.926630686701174,50.20548174274154,0,0-2.157963192768875,38.271009160473113-6.905482216840028,48.197639847176106-4.747519024078429,9.926630686702993-15.968927626439836,27.190336228795786-33.232633168528992,28.053521505898971s-32.36944789142035-13.81096443367278-42.296078578119705-20.284854011957577c0,0-6.096284003220717,4.315926385523198-15.56432851963109,2.157963192761599-9.468044516399459-2.157963192761599-22.754713973348771-6.042296939731386-32.296103190588838,0,0,0-12.032309295980667-4.747519024074791-12.29742349154003-12.947779156567776,0,0-14.93926390632987,1.726370554210007-20.981560846070352,24.169187758927364,0,0-21.148039289060762,17.695298180642567-46.612004963639265.431592638551592,0,0,3.021148469859327-16.832112903537563-9.926630686701174-18.990076096299163-12.947779156569595-2.157963192761599-17.263705542089156,8.200260132491167-18.126890819199616,12.516186518014365,0,0-16.832112903539382-5.610704301179794-30.643077337210343-2.589555831313191l-2.589555831309553-5.179111662626383s-16.464781666250929,9.06344540959617-23.76972582101007,16.832112903537563-39.592308966690325,10.358223325254585-57.11285236779986,0-23.086088721480337-28.485114144450563-19.871723422740615-37.116966915495141c3.214365298730627-8.631852771044578,24.720328757150128-25.032373036032368,16.772699178529365-43.590856493779938-7.947629578618944-18.55848345774757-27.352932049288938-35.822188999838545-29.30328205486876-47.906782879301318-1.950350005570726-12.084593879462773-3.225681157389772-48.338375517856548-3.225681157389772-48.338375517856548Z"/>
  <g>
    <path class="cls-11" d="M158.942641518204255,392.402470474701659s12.937653428660269-36.830259041882528,33.707362751569235-44.382676299561354c20.769709322921699-7.552417257678826,25.398610222790012,0,25.398610222790012,0,0,0,2.583541657220849,7.065164531377377,7.382429907380356,7.065164531377377,4.798888250161326,0,2.572105686669602,7.79604362083046,4.172749694720551,10.963186341792607s9.813806530301008,9.501428162885531,4.489093453419628,14.373955425904569c0,0,15.046484788161251,2.10503294843511,16.189511742160903,15.670098263273758,0,0,13.563854129070023,6.960037788821865,13.931352346609856,14.282386543820394.367498217528919,7.322348754998529,2.889409883498956,9.757038468149403,6.988234039839881,11.463209969385389,4.098824156339106,1.706171501235985,8.484098693050328,6.784310755508159,9.214977782508868,11.432218841325266.730879089451264,4.647908085816198,5.603406352471211,15.663599808245635,14.130329062751116,17.58635802313438s23.631757225639376,11.180560014625371,32.88955902537964,11.66781274092682c9.25780179972935.487252726301449,13.474228925830175-3.898021810417049,21.841948978270011-4.141648173566864s20.061785483689164,0,20.061785483689164,0c0,0,8.526922710281724-10.484665377788588,17.297471783711444-10.358486315063601,0,0,5.359779989319577-8.926010745756685,7.308790894529011-14.754036275430735,1.949010905211253-5.828025529674051-2.192637268359249-9.969673703240005,0-15.085827329409767,2.192637268361068-5.116153626169762,10.232307252339524-13.69961614406111,9.745054526039894-20.980137134784854s.48725272629963-16.830776858790159,2.679889994660698-23.62790117442637c2.192637268359249-6.79712431563712,0-22.570982435006954,0-22.570982435006954,0,0,3.410769084110143-8.236873448948245,11.450439068090418-6.342001735552913s21.195493594128493-1.515897370717539,24.11900995194992,4.57476170805603c2.923516357810513,6.090659078773569,9.014175436579535,17.297471783714172,7.308790894519916,27.529779036054606,0,0,8.526922710289,11.150272897337345,3.654395447269053,20.4363446008756s-4.872527263019947,18.787499866424696-4.872527263019947,18.787499866424696c0,0-.243626363149815,10.194292880446483-6.821538168229381,17.278464597769926-6.577911805070471,7.084171717323443-14.617581789050746,14.292546393202429-19.246482688920878,22.86967721280962-4.628900899868313,8.577130819607191-4.628900899868313,23.631188005314471-4.628900899868313,23.631188005314471l-12.424944520691497,7.105430764346238-135.943510638229782,2.496014398864645s-15.592087241650006-27.091765980425407-15.348460878500191-30.502535064539188c0,0-11.825414983439259,1.705384542055981-13.221498386248641-1.218131815754532-1.3960834028112-2.923516357810513-2.614215218560275-7.452788786839847-4.563226123771528-8.598921656438506-1.949010905209434-1.146132869598659-3.410769084119238-4.313275590561716-2.923516357808694-6.505912858920055,0,0-8.039669983980275-7.3468052664266-20.951867230980497-9.276808985682692,0,0-3.654395447270872-15.22157790089932-6.334285441929751-16.859087157209615-2.679889994660698-1.637509256310295-10.232307252339524-6.03634165350104-10.232307252339524-6.03634165350104l-36.44872120132095-17.972114806607351Z"/>
    <path class="cls-15" d="M234.092887548084036,380.422100474214858s-2.870168767009091,1.830491452403294-4.911555994589435,4.668929168595241-9.101490208209725,2.23020106272179-12.464787457220154,2.23020106272179-6.201734965199648,3.852165471975241-6.201734965199648,3.852165471975241"/>
    <line class="cls-15" x1="221.292807259134861" y1="400.296945979553129" x2="225.853506941113665" y2="400.296945979553129"/>
    <path class="cls-15" d="M223.573157100125172,436.734171071306264s5.047812393630011-1.863199685241852,6.030636994539236-5.97175156332014"/>
    <path class="cls-15" d="M232.909822644774977,442.546823077702356s7.611328057470018-10.013334464253603,12.274475734069711-10.621571117721942,14.945913684159677,0,19.029453258010108-2.635692165034015c4.083539573839516-2.635692165037653,6.084966052920208-6.966595907791998,4.078800419309118-9.039929851472152"/>
    <path class="cls-15" d="M253.61806351260384,458.86978940881545s7.323130755030434-7.937633396049023,10.595688124250955-8.013417293661405,6.988234039839881-7.119876281101824,6.988234039839881-7.119876281101824"/>
    <path class="cls-15" d="M386.638057793004918,448.0240503674504l9.591676197500419,7.014194424379639s12.367478620548354,3.04118326734897,15.003170785588736,2.230201062722699"/>
    <path class="cls-15" d="M407.380739304115195,433.748295289646194s1.621964409248903,7.503252023537243,6.487857637008347,6.48952426775395c4.865893227761262-1.013727755783293,6.082366534701578-3.763368153683587,8.312567597420639-3.50364848609388,2.23020106272088.259719667588797,9.050419936589606,7.002324762745957,9.050419936589606,7.002324762745957"/>
    <path class="cls-15" d="M403.436071287143932,400.296945979553129s7.594087937819495-1.419218858098247,12.257235614421006,3.041183267347151c4.663147676599692,4.460402125445398,9.991017826860116,7.907076495107503,15.538277573568848,6.89334873932512,5.547259746710552-1.013727755784203,13.145725284910441-5.928676264934438,17.354941786501513.178217910459352"/>
    <path class="cls-15" d="M429.480004380215178,372.92629657341331s.410166111949366,7.682816907070446,19.770028742579598,3.841408453536133"/>
  </g>
  <path id="Head" class="cls-10" d="M201.062307532674822,348.826209056427615s26.664527020519017,36.360718664341221,71.751818164299038,43.632862397210374c45.087291143790935,7.272143732869154,88.578135618910892,14.657668994263076,138.342126754550918-47.212243499381657,49.763991135649121-61.869912493642914,0-180.648260130493327,0-180.648260130493327l-136.887698007980362-18.019082933743448-84.698382304199185,6.941240222839042-3.536961654601328,150.218192799786266,15.029097047930918,45.08729114378275Z"/>
  <path id="Hair" class="cls-13" d="M90.382114715624994,149.188693862858599s14.304968738089883,2.809810260486302,5.788826990859889,13.932934175230002c-8.5161417472209,11.123123914743701-9.211336991889766,12.165916781749729-10.080331047731306,16.163289438611173-.868994055839721,3.997372656861444-4.17117146802957,5.561561957370941-6.430556013208843,8.516141747225447-2.259384545190187,2.954579789854506-4.866366712700255,7.299550069052202-5.213964335040146,10.080331047736763s-1.564189300510407,4.17117146802866-3.649775034529739,6.604354824378788c-2.085585734010238,2.433183356350128-1.390390489339552,6.765773303298374-2.606982167510068,9.813442664861213-1.216591678179611,3.04766936156102-2.954579789860873,3.569065795065399-1.216591678179611,7.045042018421555,1.737988111679442,3.475976223358884,2.259384545179273,3.649775034525192.521396433508926,8.168544124890104-1.737988111679442,4.518769090365822-2.510100096978931,10.080331047736763-1.255050048490375,15.815691816274921,1.255050048490375,5.735360768539977,4.904825083011019,11.296922725911827,5.078623894180055,14.599100138099857.173798811170855,3.302177412189849-.34759762233989,12.339715592920584.86899405584154,14.42530132693355,1.216591678168697,2.085585734013875,6.604354824379698,7.473348880219419,5.735360768539977,10.949325103575575,0,0-6.951952446721407,25.548425241671794,2.085585734008419,34.064566988897241s17.379881116790784,10.080331047737673,17.727478739119761,14.599100138101676c.347597622341709,4.518769090364003,5.213964335041965,20.160662095469888,12.513514404090529,26.417419297513334,7.299550069050383,6.256757202043445,15.468094193940487,21.724851395981204,15.468094193940487,21.724851395981204l47.96847188233005,2.954579789853597,36.845347967589987-35.107359855911454s9.385135803069716-6.430556013209753,7.473348880219419-18.944070417295734-7.820946502550214-14.251502515765424-7.99474531371925-15.81569181627674c-.173798811170855-1.564189300510407,4.344970279189511-12.861112026422234,1.216591678170516-20.334460906640743-3.128378601020813-7.4733488802176-6.256757202041626-10.601727481239323-6.430556013210662-13.03491083759036-.173798811170855-2.433183356349218,6.231428439410593-18.974270625596546-.186463192480005-26.953915835169028-6.417891631899693-7.979645209571572,4.705232282849465-47.60577415584612,4.705232282849465-47.60577415584612l1.911786922841202-15.641893005107704s-4.019388257731407-11.41921492448364,3.551867828509785-18.657618894248117c7.571256086239373-7.238403969763567,20.258569301489842-15.059350472319238,22.69175265783997-14.711752849982986s8.516141747229995,12.165916781750639,17.901277550288796,13.382508459926612c9.385135803071535,1.216591678175973,17.901277550290615-2.19679170753534,20.160662095480802-2.228088126358671,2.259384545179273-.031296418823331,7.820946502550214,6.071734530894901,18.596472794959482,4.063011923042723,0,0,11.992117970579784,15.023560886598716,27.807809786860162,6.507419139374178,0,0,9.558934614229656,13.903904893429171,27.112614542189476,12.687313215254107,17.553679927950725-1.216591678174154,29.198200276201533-10.427928670073015,29.198200276201533-10.427928670073015,0,0,5.213964335029232,2.606982167519163,10.949325103569208,1.216591678176883,0,0,3.997372656860534,9.558934614230566,6.951952446719588,12.339715592916946,2.954579789849959,2.78078097868638-2.259384545179273,6.778153635547824-2.259384545179273,13.382508459926612s1.564189300510407,22.246247829485583,11.470721537079953,30.067194332039435c0,0-.868994055839721,14.946697760437019,2.433183356350128,17.901277550290615,0,0-8.342342936060959,12.861112026421324-8.689940558400849,22.767644262989961s5.735360768539977,15.989490627443956,5.387763146200086,18.422673983794994c-.347597622328976,2.433183356349218-5.561561957369122,12.339715592916946-4.344970279189511,22.246247829485583,1.216591678170516,9.906532236568637,6.778153635539638,23.462839507661556,15.641893005109523,28.155407409194595,8.86373936956079,4.692567901532129,20.160662095469888,7.125751257882257,20.160662095469888,7.125751257882257l11.013821441330947,38.430880430462821s16.718952964998607,3.059638539193656,21.628032767819604-3.28125620611263c4.909079802819178-6.340894745306286,1.84090492606083-9.409069622067364,6.545439737090419-13.499969457748193s4.909079802819178-6.545439737090419,5.727259769950251-9.818159605636538c0,0,17.795414285219522-3.681809852115293,18.61359425235969-24.340854022307212,0,0,10.63633957276943-8.999979638500918,10.022704597418851-18.409049260568281-.613634975348759-9.409069622067364-.767048185629392-11.65906453169282.025565890760845-14.318149424885632.792614076379323-2.659084893192812,3.042608985999323-20.454499178406877-1.048290849679688-28.227208866202091,0,0,9.204524630289598-11.454519539912326,8.181799671368935-21.272679145547954-1.022724958918843-9.818159605634719-6.136349753518516-11.863609523476043-5.318169786380167-16.56814433450927.818179967131073-4.704534811035046,5.318169786380167-15.136329392023981.818179967131073-24.545399014090435-4.499989819250914-9.409069622068273-16.363599342730595-14.93178440023803-17.795414285219522-17.590869293431751-1.431814942481651-2.659084893192812-.613634975350578-19.431774219489853-6.136349753531249-25.77266896479523-5.522714778169757-6.340894745307196-13.090879474179019-13.704514449534145-13.090879474179019-13.704514449534145,0,0,.204544991778675-19.636319211272166-13.704514449531416-26.181758948362585,0,0-2.249994909629095-31.704473726533251-29.454478816909614-35.590828570429949,0,0-3.272719868538843-20.863589161976051-23.318129063380184-27.204483907282338-20.045409194839522-6.340894745306286-32.727198685459371,1.022724958920662-32.727198685459371,1.022724958920662,0,0-11.863609523479681-16.159054350943734-34.363558619730611-6.954529720660503,0,0-20.863589161979689-10.987097329317294-33.545378652588624-2.83446377146538,0,0-11.659064531690092-7.188240825954381-27.613573890850603-6.983695834169339-15.954509359160511.204544991783223-21.068134153760184,10.227249589202984-23.931764038730762,11.045429556339514-2.863629884979673.81817996713562-16.735295546470297-4.267685091645944-35.981221664089389,14.025211805119397l-94.10939311058064,16.247446978932203-36.003585778438719,49.651173307584031Z"/>
  <g id="Face">
    <line class="cls-5" x1="244.955364857223685" y1="213.177872130571814" x2="235.718347126643494" y2="220.509085907646295"/>
    <path class="cls-5" d="M337.726655567785201,216.843479019108599s6.837256894279562,6.385234709721772,7.197112520289011,9.780761193381295"/>
    <g>
      <g>
        <path class="cls-20" d="M346.502114715623975,249.288693862858963h.010000000000218c2.260000000000218,12.699999999999818-.510000000000218,27.329999999999927-.510000000000218,27.329999999999927l-23.769999999998618-1.239999999999782c-2.540000000000873-28.399999999999636,11.719999999999345-32.220000000000255,16.75-32.5600000000004,4.889999999999418-.319999999999709,7.3799999999992,6.079999999999927,7.519999999998618,6.470000000000255Z"/>
        <path class="cls-21" d="M346.512114715624193,249.288693862858963h-.010000000000218c-.139999999999418-.390000000000327-2.6299999999992-6.789999999999964-7.519999999998618-6.470000000000255-5.030000000000655.340000000000146-19.290000000000873,4.160000000000764-16.75,32.5600000000004l-10.770000000000437-.5600000000004s-6.300000000001091-44.839999999999236,18.349999999998545-43.829999999999927c10.540000000000873.430000000000291,15.020000000000437,8.829999999999927,16.700000000000728,18.300000000000182Z"/>
        <path class="cls-20" d="M271.202114715624703,242.818693862858709c3.039999999999054,8.279999999999745,3.469999999999345,19.700000000000728,2.469999999999345,30.200000000000728l-23.389999999999418-.770000000000437c-.180000000000291-28.840000000000146,20.920000000000073-29.430000000000291,20.920000000000073-29.430000000000291Z"/>
        <path class="cls-21" d="M253.882114715624994,231.278693862858745c8.949999999998909-1.600000000000364,14.369999999998981,3.490000000000691,17.319999999999709,11.539999999999964,0,0-21.100000000000364.590000000000146-20.920000000000073,29.430000000000291l-10.799999999999272-.360000000000582s-3.770000000000437-37.369999999998981,14.399999999999636-40.609999999999673Z"/>
      </g>
      <g>
        <path class="cls-15" d="M250.28211471562463,272.248693862859l-10.799999999999272-.360000000000582s-3.770000000000437-37.369999999998981,14.399999999999636-40.609999999999673c8.949999999998909-1.600000000000364,14.369999999998981,3.490000000000691,17.319999999999709,11.539999999999964,3.039999999999054,8.279999999999745,3.469999999999345,19.700000000000728,2.469999999999345,30.200000000000728l-23.389999999999418-.770000000000437Z"/>
        <path class="cls-15" d="M322.232114715625357,275.378693862859109l-10.770000000000437-.5600000000004s-6.300000000001091-44.839999999999236,18.349999999998545-43.829999999999927c10.540000000000873.430000000000291,15.020000000000437,8.829999999999927,16.700000000000728,18.300000000000182,2.260000000000218,12.699999999999818-.510000000000218,27.329999999999927-.510000000000218,27.329999999999927l-23.769999999998618-1.239999999999782Z"/>
        <path class="cls-15" d="M271.202114715624703,242.818693862858709s-21.100000000000364.590000000000146-20.920000000000073,29.430000000000291"/>
        <path class="cls-15" d="M346.512114715624193,249.3086938628594s0-.010000000000218-.010000000000218-.020000000000437c-.139999999999418-.390000000000327-2.6299999999992-6.789999999999964-7.519999999998618-6.470000000000255-5.030000000000655.340000000000146-19.290000000000873,4.160000000000764-16.75,32.5600000000004"/>
      </g>
    </g>
    <path class="cls-15" d="M282.667174027554211,281.869043749601587s3.465234437830077-7.060740872830138,10.599540633380457-6.486011574568693c7.134306195539466.574729298262355,7.745818155159213,6.893686214314585,7.745818155159213,7.912872813677495"/>
    <circle class="cls-1" cx="227.306187976716501" cy="282.765668300934976" r="1.875143576900655"/>
    <circle class="cls-1" cx="239.530503367804613" cy="283.765053709423455" r="1.875143576904634"/>
    <circle class="cls-1" cx="227.728650517887218" cy="294.23475399205995" r="1.875143576901451"/>
    <circle class="cls-1" cx="240.396565126354744" cy="293.502557849507184" r="1.875143576905089"/>
    <circle class="cls-1" cx="338.310713700851466" cy="288.419735892167637" r="1.87514357690327"/>
    <circle class="cls-1" cx="347.403656948831667" cy="289.469011514053818" r="1.87514357690361"/>
    <circle class="cls-1" cx="343.653369795154049" cy="299.241491601587768" r="1.875143576904748"/>
    <path class="cls-15" d="M251.560638722394287,312.870906338247551s1.083343021189648-6.770893882456221,3.791700574171045-5.281297228314543c2.708357552979578,1.489596654139859,14.760548663758527,21.396024668558312,34.937812433468935,20.989771035610829,0,0,23.942190885749369-.077557897936458,31.04089567624942-21.203883175411647,0,0,3.128242789030992-9.579729101309567,6.015851517369811-8.134005368544422,2.887608728340638,1.445723732765146,1.564121394520043,3.731747309366256-2.887608728338819,5.295868703883571"/>
  </g>
  <g id="Flower">
    <g>
      <path class="cls-19" d="M173.473667450005451,76.099338394108599c.4599609375-.11505126953125,1.17529296875-.43572998046875,2.060546875-.89947509765625-.00048828125.000183105469659-.8251953125.3232421875-2.149169921880457.91802978515625.029541015630457-.00701904296875.05908203125-.01116943359375.088623046880457-.0185546875Z"/>
      <path class="cls-12" d="M138.778110809374994,148.222507339422009c-3.365600585941138-4.908264160157159-10.798095703119543-3.225402832032159-14.023559570310681-3.085144042969659-3.225463867189319.14019775390625-7.011840820308862-3.2254638671875-6.030151367189319-5.46923828125.981689453130457-2.2437744140625,4.627807617189319-1.68280029296875,6.17041015625-.420715332030341,1.542602539058862,1.262145996092841,3.36572265625,2.384033203125,7.292236328130457,3.225463867186591,3.926635742178405.84136962890625,5.749755859369543,2.52423095703125,8.554443359369543,4.2158203125,2.8046875,1.691528320313409,6.450805664058862.55218505859375,7.712890625-1.83184814453125,1.26220703125-2.38397216796875-1.682861328119543-2.9449462890625-7.993408203119543-6.4508056640625-6.310546875-3.50592041015625-9.395751953130457-3.646179199217841-12.48095703125-4.06689453125-3.085205078130457-.420654296875-5.46923828125-3.6461181640625-4.06689453125-5.889892578125s5.46923828125-.5609130859375,6.79736328125,1.5426025390625,4.421508789058862,3.6461181640625,8.207885742178405,5.889892578125c3.786376953130457,2.2437744140625,6.591186523441138,3.2254638671875,12.30615234375,5.88995361328125,5.714965820321595,2.66448974609375,9.991333007821595,6.450805664063409,13.637573242191138,7.57269287109375,3.646118164058862,1.12188720703125,5.609375-5.7496337890625,6.731201171880457-8.8348388671875,1.121948242178405-3.085205078125-4.627685546880457-7.4324951171875-4.627685546880457-7.4324951171875-6.450927734369543-.8414306640625-18.51123046875-9.395812988280341-20.194091796869543-11.4993896484375-1.682739257821595-2.103515625-7.432373046880457-4.3472900390625-12.48095703125-7.01177978515625-5.048461914071595-2.66448974609375-3.926513671880457-5.60943603515625-1.682861328130457-6.17041015625,2.243896484380457-.560913085936591,6.87158203125,6.17041015625,8.514892578130457,6.87158203125,1.64306640625.701171875,2.14306640625-1.40234375,2.84423828125-5.328979492186591.701171875-3.926574707032159-1.822998046880457-5.609436035157159-3.620849609380457-8.97509765625s-2.97021484375-29.589782714844659-1.56787109375-31.553100585938409,2.8046875.140258789063409,3.085205078130457,2.80474853515625c.280517578119543,2.66448974609375-.701171875,7.292236328125-.701171875,7.292236328125,0,0,.140258789058862,13.0419921875.981689453119543,18.7916259765625.84130859375,5.749694824219659,4.76806640625,6.17041015625,4.76806640625,6.17041015625,0,0,.14013671875,2.52423095703125,6.591064453130457-13.462646484375,6.444580078119543-15.9713134765625,17.763793945308862-24.0096435546875,17.786010742178405-24.025390625,3.818115234380457-4.18890380859375,9.068603515630457-9.49652099609375,9.068603515630457-13.0086669921875,0-5.4088134765625-4.975463867189319-10.78350830078125-4.975463867189319-10.78350830078125,0,0-7-9-14-9s-14,6-16,6-11-5-17,0-11,15-11,28,2,16,2,16c0,0-6-3-9-1s-5,9-9,12-11,8-13,14-2,30-2,30c0,0-1,9,4,10s17,1,23,1,10,0,14,2c.990478515630457.49530029296875,1.734130859380457.92901611328125,2.234130859380457,1.33203125,6.17822265625-1.637817382811591,9.161865234369543-5.298217773436591,9.161865234369543-5.298217773436591Z"/>
      <path class="cls-12" d="M166.544956512505451,169.678623062077349c3.225341796869543-2.9449462890625.280395507808862-7.993408203125-.420776367191138-11.35906982421875-.701171875-3.36572265625-2.243774414058862-3.64617919921875-4.066772460939319-2.80474853515625-1.823120117191138.8414306640625-7.011962890619543,1.12188720703125-11.359130859369543,1.40234375-4.347412109380457.280517578125-4.207153320321595,3.365661621094659-7.152099609380457,6.0301513671875-2.944946289060681,2.66448974609375-1.822998046869543,8.694641113282159-.701171875,10.096984863282159,1.121826171880457,1.402404785155341.981689453130457,4.76806640625-.841430664060681,4.576782226561591-1.823120117189319-.191284179686591-2.524291992189319-1.491577148436591-2.664428710939319-5.8388671875-.140258789060681-4.34735107421875-1.542724609369543-6.87158203125-1.542724609369543-6.87158203125-4.487548828130457,0-8.133544921880457,5.328979492188409-8.27392578125,7.85321044921875-.14013671875,2.52423095703125-1.261962890630457,5.749694824219659-4.20703125,4.6278076171875-2.944946289071595-1.12188720703125-1.40234375-4.347351074217841,1.542602539058862-8.69464111328125,2.944946289060681-4.34735107421875,7.853271484369543-6.030151367186591,11.359130859369543-6.59112548828125,3.505981445321595-.5609130859375,5.46923828125-3.36566162109375,6.935302734380457-4.76800537109375,1.466064453119543-1.40234375,4.003051757810681-2.384033203125,7.509033203119543-2.38818359375,3.505859375-.00421142578125,10.517700195321595-1.53839111328125,9.536010742191138-3.92242431640625-.981689453119543-2.384033203125-6.731323242191138-3.786376953125-9.255615234369543-4.33856201171875-2.524169921880457-.55224609375-2.8046875,1.113159179688409-4.20703125,2.23504638671875s-5.609375,1.682800292969659-8.834838867191138,3.505859375c-1.885375976558862,1.065673828125-6.452270507808862,2.274353027344659-9.923217773439319,3.0953369140625-.464111328119543.496643066407159-1.326904296869543,1.029846191407159-2.5947265625,1.66375732421875-4,2-25,12-26,19s6,13,5,23-1,19,5,22,12,5,17,11,8,10,13,9,5-3,5-10c0-4.74224853515625-.455322265619543-11.316162109375.181396484380457-16.620849609375,0-.000244140625-.001586914071595-.005493164061591-.001586914071595-.005493164061591-2.734008789058862-18.362731933594659,16.757446289071595-41.938781738282159,19.983032226571595-44.883728027344659Z"/>
      <path class="cls-12" d="M170.892124481255451,169.678623062077349c-4.34716796875,1.5426025390625-9.956665039071595,11.77984619140625-17.108642578130457,23.41943359375-7.14013671875,11.6202392578125-.38427734375,23.70538330078125-.36181640625,23.74542236328125,4.110595703130457,6.96533203125,9.88232421875,16.519409179688409,13.96044921875,22.34521484375,7,10,18,20,27,20s16-10,17-14,6-12,11-16,7-9,6-16-1-7-1-12-.311767578119543-11.17559814453125-4.409301757810681-13.634155273436591c-4.097534179689319-2.458618164063409-10.65380859375.49169921875-13.931884765630457.49169921875-3.174072265619543,0-16.643432617178405-.308044433594659-26.720092773428405-14.313415527344659l-.000366210941138.00006103515625s-7.080932617189319-5.59686279296875-11.428344726558862-4.05426025390625Z"/>
      <path class="cls-12" d="M233.462681121874994,104.290927749577349c-6.228271484369543-10.325988769530341-18.193359375-29.338928222655341-18.193359375-29.338928222655341,0,0-7.375732421869543-12.292846679688409-10.981689453119543-14.423583984375-3.605834960941138-2.130798339844659-6.719970703130457-1.147338867188409-9.178588867191138,1.311218261717841-2.113525390630457,2.11346435546875-14.152465820308862,10.519836425782159-19.57470703125,13.360168457032159h0l-.000122070308862.000061035155341c-.88525390625.4637451171875-1.6005859375.784423828125-2.060546875.89947509765625-.029541015630457.00738525390625-.05908203125.01153564453125-.088623046880457.0185546875-2.848510742191138,1.27960205078125-8.022705078119543,3.82489013671875-12.375610351560681,7.17535400390625-6.376831054689319,4.908264160157159-13.676879882808862,28.608154296875-14.378051757808862,33.796875s10.657958984369543,8.27392578125,14.378051757808862,11.4993896484375c3.720092773441138,3.22540283203125,7.639038085941138.701171875,7.639038085941138.701171875-.140258789071595-3.6461181640625,1.822998046869543-15.7064208984375,5.46923828125-23.69989013671875,3.64599609375-7.99346923828125,10.237060546869543-17.2490234375,11.639526367178405-19.91351318359375,1.40234375-2.664489746092841,3.646118164071595-3.786376953125,5.188720703130457-2.664489746092841,1.542602539060681,1.121887207030341.140258789060681,2.944946289061591-1.823120117189319,3.646118164061591-1.963256835941138.701171875-2.384033203119543,4.34735107421875-11.07861328125,18.090454101563409-8.694580078119543,13.7431640625-6.17041015625,28.047180175780341-5.188720703119543,30.851928710936591.981689453119543,2.80474853515625,2.66455078125,2.243774414063409,7.01171875.56097412109375,4.347412109369543-1.682861328125,13.322509765619543-2.384033203125,15.987060546869543-2.2437744140625,2.664428710939319.140197753907159,3.64599609375,1.68280029296875,2.524169921880457,3.926574707032159-1.121826171880457,2.243774414061591-11.07861328125.560974121092841-18.370849609380457,1.542602539061591-7.292358398441138.98162841796875-9.255615234369543,9.39581298828125-9.255615234369543,9.39581298828125-2.8046875,6.17034912109375.84130859375,14.864990234375,2.664428710928405,18.0904541015625,1.823120117191138,3.22540283203125,14.860229492191138,5.2391357421875,14.860229492191138,5.2391357421875l-.000244140619543.000061035157159c7.99072265625-.1669921875,20.756225585928405-.230041503907159,26.501220703119543.853881835936591,8.686889648439319,1.639038085938409,12.948486328130457-.81951904296875,13.1123046875-5.736694335936591.163940429689319-4.917114257813409-1.957641601560681-17.70166015625.7421875-30.158447265625,2.699829101558862-12.456726074219659,11.058959960939319-22.454956054688409,4.83056640625-32.780944824219659Z"/>
    </g>
    <path class="cls-3" d="M173.416416473433856,166.873935562077349c-1.823120117178405-3.2254638671875-5.469116210928405-11.92010498046875-2.664428710928405-18.0904541015625,0,0,1.963256835928405-8.4141845703125,9.255615234369543-9.39581298828125,7.292236328130457-.98162841796875,17.2490234375.701171875,18.370849609380457-1.542602539061591,1.121826171869543-2.243774414063409.140258789058862-3.786376953125-2.524169921880457-3.926574707032159-2.66455078125-.1402587890625-11.6396484375.5609130859375-15.987060546869543,2.2437744140625-4.34716796875,1.682800292969659-6.030029296880457,2.2437744140625-7.01171875-.56097412109375-.981689453130457-2.80474853515625-3.505859375-17.108764648436591,5.188720703119543-30.851928710936591,8.694580078130457-13.743103027344659,9.115356445308862-17.389282226563409,11.07861328125-18.090454101563409,1.96337890625-.701171875,3.36572265625-2.52423095703125,1.823120117189319-3.646118164061591-1.542602539058862-1.121887207032159-3.786376953130457,0-5.188720703130457,2.664489746092841-1.402465820308862,2.66448974609375-7.993530273428405,11.9200439453125-11.639526367178405,19.91351318359375-3.646240234380457,7.99346923828125-5.609497070321595,20.05377197265625-5.46923828125,23.69989013671875,0,0-3.9189453125,2.52423095703125-7.639038085941138-.701171875-3.720092773439319-3.2254638671875-15.079223632808862-6.3106689453125-14.378051757808862-11.4993896484375s8.001220703119543-28.888610839842841,14.378051757808862-33.796875c4.352905273441138-3.3504638671875,9.527099609369543-5.895751953125,12.375610351560681-7.17535400390625-3.248291015619543.77410888671875-6.463134765619543-.539794921875-5.975830078119543-3.788330078125.17236328125-1.149536132811591,1.817749023428405-3.08642578125,3.879760742178405-5.34869384765625-.022216796869543.0157470703125-11.341430664058862,8.0540771484375-17.786010742178405,24.025390625-6.450927734380457,15.98687744140625-6.591064453130457,13.462646484375-6.591064453130457,13.462646484375,0,0-3.9267578125-.420715332030341-4.76806640625-6.17041015625-.841430664060681-5.7496337890625-.981689453119543-18.7916259765625-.981689453119543-18.7916259765625,0,0,.981689453119543-4.62774658203125.701171875-7.292236328125-.280517578130457-2.664489746092841-1.682861328130457-4.76806640625-3.085205078130457-2.80474853515625s-.22998046875,28.18743896484375,1.56787109375,31.553100585938409,4.322021484380457,5.048522949217841,3.620849609380457,8.97509765625c-.701171875,3.926635742186591-1.201171875,6.030151367186591-2.84423828125,5.328979492186591-1.643310546880457-.701171875-6.27099609375-7.432495117186591-8.514892578130457-6.87158203125-2.24365234375.56097412109375-3.365600585941138,3.50592041015625,1.682861328130457,6.17041015625,5.048583984369543,2.66448974609375,10.798217773428405,4.90826416015625,12.48095703125,7.01177978515625,1.682861328119543,2.103576660157159,13.7431640625,10.657958984375,20.194091796869543,11.4993896484375,0,0,5.749633789058862,4.3472900390625,4.627685546880457,7.4324951171875-1.121826171880457,3.085205078125-3.085083007821595,9.95672607421875-6.731201171880457,8.8348388671875-3.646240234369543-1.121887207030341-7.922607421869543-4.908203125-13.637573242191138-7.57269287109375-5.714965820308862-2.66448974609375-8.519775390619543-3.64617919921875-12.30615234375-5.88995361328125-3.786376953119543-2.2437744140625-6.879760742178405-3.786376953125-8.207885742178405-5.889892578125s-5.39501953125-3.786376953125-6.79736328125-1.5426025390625.981689453119543,5.46923828125,4.06689453125,5.889892578125c3.085205078119543.420715332032159,6.17041015625.56097412109375,12.48095703125,4.06689453125,6.310546875,3.505859375,9.255615234369543,4.06683349609375,7.993408203119543,6.4508056640625-1.262084960941138,2.384033203125-4.908203125,3.523376464844659-7.712890625,1.83184814453125-2.8046875-1.69158935546875-4.627807617191138-3.37445068359375-8.554443359369543-4.2158203125-3.926513671880457-.841430664061591-5.749633789071595-1.96331787109375-7.292236328130457-3.225463867186591-1.542602539060681-1.262084960938409-5.188720703119543-1.823059082032159-6.17041015625.420715332030341-.981689453119543,2.2437744140625,2.8046875,5.60943603515625,6.030151367189319,5.46923828125,3.225463867191138-.1402587890625,10.657958984369543-1.8231201171875,14.023559570310681,3.085144042969659,0,0-2.983642578119543,3.660400390625-9.161865234369543,5.298217773436591.879028320308862.70849609375.998291015619543,1.321899414063409.360595703119543,2.00421142578125,3.470947265630457-.820983886717841,8.037841796880457-2.0296630859375,9.923217773439319-3.0953369140625,3.225463867191138-1.823059082030341,7.432495117191138-2.38397216796875,8.834838867191138-3.505859375s1.682861328119543-2.78729248046875,4.20703125-2.23504638671875c2.524291992178405.55218505859375,8.27392578125,1.95452880859375,9.255615234369543,4.33856201171875.981689453130457,2.384033203125-6.030151367191138,3.918212890625-9.536010742191138,3.92242431640625-3.505981445308862.004150390625-6.04296875.98583984375-7.509033203119543,2.38818359375-1.466064453130457,1.40234375-3.429321289058862,4.20709228515625-6.935302734380457,4.76800537109375-3.505859375.560974121094659-8.414184570308862,2.2437744140625-11.359130859369543,6.59112548828125-2.944946289058862,4.347290039063409-4.487548828130457,7.57275390625-1.542602539058862,8.69464111328125,2.945068359369543,1.121887207032159,4.06689453125-2.10357666015625,4.20703125-4.6278076171875.140380859369543-2.524230957030341,3.786376953119543-7.85321044921875,8.27392578125-7.85321044921875,0,0,1.402465820308862,2.52423095703125,1.542724609369543,6.87158203125.14013671875,4.347290039063409.84130859375,5.647583007813409,2.664428710939319,5.8388671875,1.823120117191138.191284179688409,1.963256835941138-3.17437744140625.841430664060681-4.576782226561591-1.121826171869543-1.40234375-2.243774414060681-7.432495117188409.701171875-10.096984863282159,2.944946289058862-2.664489746092841,2.8046875-5.7496337890625,7.152099609380457-6.0301513671875,4.34716796875-.28045654296875,9.536010742178405-.5609130859375,11.359130859369543-1.40234375,1.822998046880457-.8414306640625,3.365600585939319-.56097412109375,4.066772460939319,2.80474853515625.701171875,3.36566162109375,3.646118164060681,8.41412353515625.420776367191138,11.35906982421875-3.2255859375,2.9449462890625-22.717041015630457,26.52099609375-19.983032226571595,44.883728027344659,0,0,.001586914071595.005249023436591.001586914071595.005493164061591.30322265625-2.52545166015625.85107421875-4.766479492186591,1.818603515619543-6.379150390625,0,0,2.09423828125,3.66412353515625,5.03955078125,8.65478515625-.0224609375-.0400390625-6.7783203125-12.12518310546875.36181640625-23.74542236328125,7.151977539058862-11.63958740234375,12.761474609380457-21.8768310546875,17.108642578130457-23.41943359375,4.347412109369543-1.5426025390625,11.428344726558862,4.05426025390625,11.428344726558862,4.05426025390625l.000366210941138-.00006103515625c-.330322265630457-.45916748046875-.6572265625-.932373046875-.979736328130457-1.421447753905341,0,0,2.843139648439319-.112731933594659,6.935302734380457-.1982421875l.000244140619543-.000061035157159s-13.037109375-2.01373291015625-14.860229492191138-5.2391357421875Z"/>
  </g>
  <path class="cls-11" d="M187.977217348565318,763.746637105185982s-2.477660643011404,8.75738118123445-17.809606175400404,2.922633546093493c-15.331945532390819-5.834747635140957-8.422443388570173-9.627333597982215-9.543295406430843-13.419919560823473-1.120852017849757-3.792585962841258-3.010215405309282-6.418222398655416-.606846802798827-9.335596216224076,2.403368602519549-2.917373817568659-1.228640894840282-5.543010253380999-1.163060436700107-9.919070979736716.065580458138356-4.376060726355718,8.933355968309115-1.750424290543378,8.292054176068632-6.418222398655416-.641301792249578-4.667798108112038-1.777472646699607-18.962929814202653,10.897714123440892-13.711656942577974s12.675186770140499,6.418222398651778,15.592560587709158.58347476351264c2.917373817570478-5.834747635139138,9.523754797570291,1.458686908787058,12.784655397101233,4.084323344599397,3.260900599540037,2.625636435812339,16.199941285578461.58347476351264,18.774279777029733,2.04216167229788,2.574338491440358,1.458686908785239,10.344719353019173,6.666763999519389,7.772347140138663,16.169826797067799-2.572372212889604,9.503062797548409-38.747807550758807,19.422133777286945-38.747807550758807,19.422133777286945l-6.242994829399322,7.579912197159501Z"/>
  <path class="cls-14" d="M65.620243534403926,582.672353620365357l127.029760735369564-90.120627597580096s59.514584052740247-13.964232470827483,145.660709431080249-15.991329675991437c86.146125378330908-2.027097205163955,138.949810842861552,8.540056009409454,189.58348183625094,32.00917114479671s69.078793998120091,37.44627331515585,64.015426898778969,71.86880371629195c-5.063367099339303,34.4225304011361-49.910332836339876,97.35295006434535-208.683058308459294,120.861440168418994s-279.556704919919866-42.635907797137406-304.880286806250297-71.22828673490767c0,0-20.020285006039558-37.272436822349846-12.726033786770131-47.399171021028451Z"/>
  <path class="cls-17" d="M607.544845742853795,551.868311457125856s.623173013331325,1.661794702215047-12.463460266619222,9.763043875518633-20.772433777699916-3.73903807998613-22.434228479920421-10.593941226627066c-1.66179470220959-6.854903146640936,3.946762417770515-11.21711423996021,11.632562915519884-10.801665564405994,7.685800497751188.415448675554217,14.540703644390305-1.869519039992156,14.540703644390305-1.869519039992156,0,0,9.555319537739706-1.869519039995794,12.671184604399969-2.908140728879516,3.115865066649349-1.038621688883723,11.009389902179464,1.038621688887361,11.009389902179464,8.308973511082513s-1.038621688889179,28.250509937672177-.830897351110252,30.32775331544326c.207724337780746,2.077243377771083-10.386216888848139,12.46346026662286-11.63256291550897,19.733812088818013-1.246346026669926,7.270351822195153-3.32358940443919,13.502081955506583-12.463460266621041,13.086633279952366-9.139870862189127-.415448675554217-12.002448681978422-4.883573342644013-9.451378936939363-12.676327883158592,0,0,6.055226832469998-15.704056481203224,4.59432221437055-27.898435449285898l-.421151523900335-2.768844083042495s12.186489645790061-7.1936956655627,15.248976459759433-11.703342095423068Z"/>
  <path class="cls-16" d="M317.615930468535225,733.736001491100069s.009194192649375-9.660388576343394,7.594366118330072-10.535600721614173c7.585171925678878-.87521214527078,9.627333597978577-.583474763514459,13.128182179059877-3.500848581084938,3.500848581088576-2.917373817570478,9.043858834469575,5.284327849991314,8.460384070958753,7.018224651350465-.583474763519916,1.733896801359151.291737381759958,7.568644436501927,5.834747635140957,3.48432109190253,5.54301025337918-4.084323344599397,8.0947190632196-9.919070979740354,14.841642656620024-8.752121452711435,6.746923593398606,1.166949527028919,12.289933846779604,12.252970033794554,19.583368390698524,8.168646689196976,7.293434543931653-4.084323344597578,12.836444797310833-13.419919560823473,21.005091486511446-12.252970033794554,8.1686466891897,1.166949527028919,11.669495270280095,9.985180936464531,10.794283125009315,16.37034835675513h15.462081233119534s-4.959535489870177-20.781260808236766,2.917373817570478-21.493178400065517,14.003394324330657-3.955880516283287,17.79598028718101,0c3.792585962839439,3.955880516283287,1.75042429053974,20.067546469643275,4.376060726348442,21.493178400065517,2.62563643581052,1.425631930422242,11.377757888520136-2.950428795933476,11.377757888520136-2.950428795933476,0,0,1.458686908790696-12.836444797309014,0-16.337293378392133-1.458686908779782-3.500848581083119,9.62733359799131-4.667798108113857,5.543010253390094-13.128182179065334-4.084323344599397-8.460384070951477-10.794283125009315-18.087717668933692-2.917373817568659-18.962929814204472,7.876909307438837-.87521214527078,16.045555996628536-4.084323344597578,23.922465304069192,4.376060726355718s4.959535489870177,19.797485046667134,1.75042429053974,19.526076121313963c-3.209111199319523-.271408925353171-14.586869087850573,1.187277983433887-10.502545743249357,7.605500382087484,4.084323344599397,6.418222398653597,11.086020506769273,12.252970033792735.291737381759958,21.588566250016811l-5.251272871630135,84.895578091289281s.291737381759958,13.711656942579793-3.500848581079481,18.671192432448152c-3.792585962841258,4.959535489868358-19.54640457772075,16.629030760150272-33.258061520300544,7.001697162168057s-16.388692628041099-9.999634496462022-14.904306094429558-16.961049900268335c1.484386533609722-6.961415403806313-2.891674192749633-8.711839694347873-2.891674192749633-8.711839694347873l-82.853416418991401,4.376060726353899s.291737381759958,24.214202685832788-7.29343454391892,28.298526030430367c-7.585171925680697,4.084323344597578-17.874619460530084,4.084323344599397-19.877461546149789-2.625636435812339-2.002842085630618-6.709959780411737-6.087165430231835-28.006788648674046-6.087165430231835-28.006788648674046l4.658603915471758-88.655109075765722Z"/>
  <polygon class="cls-4" points="187.21552039598464 738.370744620849109 190.236668865843967 839.020141327016063 494.7097153876839 826.475433911465188 490.917129424844461 727.576461495839794 187.21552039598464 738.370744620849109"/>
  <g>
    <path class="cls-2" d="M243.84387221594443,815.607970674052012c.0224609375.865234375-.5654296875,1.486328125-1.5166015625,1.5107421875-1.125.0283203125-3.8115234375-.162109375-6.490234375-.09375-2.6796875.0693359375-4.833984375.384765625-6.5634765625.4287109375-1.3828125.0361328125-2.08984375-.5517578125-2.12109375-1.7626953125-.0595703125-2.333984375,3.5-1.8193359375,3.423828125-4.7578125-.0224609375-.865234375-.212890625-1.552734375-.66796875-2.40625l-10.646484375-23.859375-6.3408203125,9.072265625.400390625,15.5595703125c.1484375,5.7919921875,3.9912109375,3.876953125,4.0693359375,6.90234375.01953125.7783203125-.5654296875,1.572265625-1.7744140625,1.603515625-1.2978515625.033203125-3.119140625-.1796875-5.8857421875-.1083984375-2.6796875.068359375-4.48828125.375-5.87109375.41015625-1.2099609375.03125-1.75-.7333984375-1.76953125-1.51171875-.078125-3.025390625,3.7724609375-1.3076171875,3.6240234375-7.099609375l-1.14453125-44.517578125c-.1494140625-5.7919921875-3.904296875-3.79296875-3.9814453125-6.818359375-.0224609375-.8642578125.6494140625-1.6591796875,1.7734375-1.6884765625,1.46875-.0380859375,3.1181640625.177734375,5.7978515625.1083984375,2.7666015625-.0703125,4.57421875-.375,5.8720703125-.408203125,1.1240234375-.029296875,1.8349609375.73046875,1.857421875,1.5947265625.0771484375,3.025390625-3.861328125,1.2236328125-3.7119140625,7.015625l.5458984375,21.263671875,14.3486328125-20.609375c1.083984375-1.583984375,1.6552734375-2.8974609375,1.630859375-3.84765625-.0625-2.4208984375-3.15625-1.6494140625-3.2119140625-3.8095703125-.0302734375-1.2109375.818359375-1.8369140625,2.1142578125-1.87109375,1.556640625-.0390625,4.0693359375.1552734375,5.7978515625.1103515625,1.81640625-.046875,4.6630859375-.37890625,5.8720703125-.41015625.7783203125-.01953125,1.486328125.5673828125,1.5107421875,1.5185546875.064453125,2.5068359375-3.33203125,1.6416015625-6.2529296875,5.783203125l-10.263671875,14.6220703125,14.029296875,30.953125c2.5673828125,5.6435546875,5.470703125,4.1845703125,5.5458984375,7.123046875Z"/>
    <path class="cls-2" d="M247.03918471594443,815.439025361552012c-.078125-3.025390625,3.7724609375-1.3076171875,3.6240234375-7.099609375l-1.14453125-44.517578125c-.1494140625-5.7919921875-3.904296875-3.79296875-3.9814453125-6.818359375-.0224609375-.8642578125.6494140625-1.6591796875,1.7734375-1.6875,1.46875-.0380859375,3.1181640625.177734375,5.7978515625.1083984375,2.7666015625-.0712890625,4.57421875-.375,5.8720703125-.4091796875,1.123046875-.0283203125,1.8349609375.7314453125,1.857421875,1.595703125.0771484375,3.025390625-3.8623046875,1.2236328125-3.712890625,7.015625l1.14453125,44.517578125c.1484375,5.7919921875,3.9921875,3.876953125,4.0703125,6.90234375.01953125.7783203125-.5654296875,1.572265625-1.7744140625,1.6025390625-1.2978515625.0341796875-3.119140625-.1796875-5.8857421875-.1083984375-2.6796875.0693359375-4.48828125.3759765625-5.87109375.4111328125-1.2099609375.03125-1.75-.734375-1.76953125-1.5126953125Z"/>
    <path class="cls-2" d="M278.84777846594443,814.534728486552012c-.091796875-3.5439453125,4.4638671875-1.32421875,4.314453125-7.1162109375l-1.1552734375-44.9501953125c-.048828125-1.90234375-.3486328125-3.451171875-2.6826171875-3.3916015625l-1.1240234375.029296875c-3.37109375.0859375-5.39453125,2.126953125-9.5166015625,10.01953125-.66015625,1.2265625-1.25,1.84765625-2.201171875,1.8720703125-.9501953125.0244140625-1.6591796875-.6494140625-1.6865234375-1.6865234375-.0283203125-1.1240234375.2861328125-2.34375,1.1513671875-5.65234375l1.65625-6.2705078125c.705078125-2.8720703125,1.1025390625-4.1806640625,2.486328125-4.2158203125,1.728515625-.044921875,1.9462890625,1.6796875,3.8486328125,1.630859375l23.33984375-.6005859375c1.9013671875-.048828125,2.029296875-1.78125,3.671875-1.8232421875,1.46875-.0380859375,1.935546875,1.2470703125,2.787109375,4.080078125l1.9736328125,6.1767578125c1.037109375,3.259765625,1.416015625,4.5478515625,1.4423828125,5.5859375.02734375,1.037109375-.6474609375,1.74609375-1.5986328125,1.7705078125s-1.484375-.5673828125-2.2939453125-1.7568359375c-4.6044921875-7.494140625-6.5615234375-9.60546875-10.01953125-9.5166015625l-1.208984375.0302734375c-2.2490234375.05859375-2.4697265625,1.5341796875-2.4189453125,3.5224609375l1.1552734375,44.9501953125c.1494140625,5.7919921875,4.498046875,3.34375,4.58984375,6.8876953125.021484375.865234375-.650390625,1.662109375-1.7734375,1.6904296875-1.642578125.0419921875-3.46484375-.1708984375-6.4033203125-.0947265625-2.8525390625.0732421875-4.8349609375.3837890625-6.390625.423828125-1.2099609375.03125-1.921875-.7294921875-1.943359375-1.5947265625Z"/>
    <path class="cls-2" d="M309.85852065344443,785.972228486552012c-.4755859375-18.4990234375,7.7841796875-33.6767578125,17.810546875-33.9345703125,3.9775390625-.1015625,6.5283203125,1.5625,7.4794921875,1.5380859375,1.0380859375-.02734375,1.07421875-2.017578125,2.7158203125-2.0595703125,1.1240234375-.029296875,1.845703125,1.1640625,2.4228515625,3.3974609375l2.01953125,7.9072265625c.583984375,2.5791015625,1.4228515625,4.8935546875,1.451171875,6.0166015625.033203125,1.296875-.9892578125,1.8427734375-1.681640625,1.8603515625-1.037109375.0263671875-1.7451171875-.560546875-2.3818359375-1.8427734375-4.1865234375-8.0224609375-6.708984375-11.9365234375-11.1181640625-11.8232421875-6.828125.17578125-10.8369140625,12.474609375-10.4365234375,28.0341796875.3798828125,14.7822265625,4.12890625,26.0166015625,12.859375,25.79296875,5.705078125-.1474609375,9.5576171875-5.0888671875,10.3056640625-12.98046875.0595703125-1.0390625.447265625-2.779296875,2.0908203125-2.8212890625,1.3828125-.0361328125,2.015625,1.072265625,2.060546875,2.80078125.271484375,10.5458984375-6.1962890625,18.0654296875-15.6181640625,18.3076171875-12.3623046875.3173828125-19.53515625-12.9052734375-19.9794921875-30.193359375Z"/>
    <path class="cls-2" d="M394.42297377844443,811.649962861552012c.01953125.779296875-.5634765625,1.572265625-1.6884765625,1.6015625-1.3828125.03515625-3.205078125-.177734375-5.970703125-.1064453125-2.6796875.0693359375-4.4013671875.373046875-5.87109375.4111328125-1.2109375.03125-1.7490234375-.734375-1.7685546875-1.5126953125-.078125-3.025390625,3.857421875-1.3095703125,3.708984375-7.1015625l-.482421875-18.7578125c-.0400390625-1.556640625-.826171875-1.8818359375-1.86328125-1.8544921875l-17.2021484375.4423828125c-1.1240234375.0283203125-1.8076171875.390625-1.767578125,1.947265625l.482421875,18.7578125c.1484375,5.7919921875,3.9921875,3.876953125,4.0703125,6.90234375.01953125.7783203125-.5654296875,1.572265625-1.7744140625,1.603515625-1.2978515625.033203125-3.119140625-.1796875-5.8857421875-.109375-2.6796875.0693359375-4.48828125.3759765625-5.87109375.4111328125-1.2099609375.03125-1.75-.7333984375-1.76953125-1.51171875-.078125-3.025390625,3.7724609375-1.3076171875,3.6240234375-7.099609375l-1.1474609375-44.6044921875c-.1484375-5.791015625-3.9033203125-3.7919921875-3.978515625-6.7314453125-.0244140625-.951171875.560546875-1.744140625,1.771484375-1.775390625,1.46875-.0380859375,3.1181640625.1787109375,5.7978515625.109375,2.7666015625-.0703125,4.57421875-.3759765625,5.8720703125-.4091796875,1.123046875-.029296875,1.8349609375.73046875,1.8564453125,1.595703125.078125,3.025390625-3.861328125,1.2236328125-3.712890625,7.0146484375l.4560546875,17.720703125c.0419921875,1.642578125.7412109375,1.8837890625,1.865234375,1.85546875l17.2021484375-.4423828125c1.037109375-.02734375,1.8076171875-.3056640625,1.765625-1.9482421875l-.4560546875-17.720703125c-.1484375-5.791015625-3.98828125-3.7900390625-4.06640625-6.8154296875-.01953125-.7783203125.5615234375-1.658203125,1.6865234375-1.6865234375,1.4697265625-.0380859375,3.205078125.1767578125,5.884765625.107421875,2.765625-.0712890625,4.57421875-.376953125,5.95703125-.412109375,1.125-.029296875,1.7490234375.732421875,1.7705078125,1.59765625.078125,3.025390625-3.7734375,1.22265625-3.625,7.013671875l1.1474609375,44.6044921875c.1484375,5.7919921875,3.904296875,3.8779296875,3.982421875,6.9033203125Z"/>
    <path class="cls-2" d="M437.98059096594443,796.690001924052012c.033203125,1.296875-.357421875,2.951171875-1.4794921875,6.4404296875l-2.322265625,7.23828125c-.642578125,1.919921875-1.2099609375,3.404296875-2.419921875,3.435546875-1.728515625.0439453125-1.94921875-1.765625-4.109375-1.7099609375l-19.1904296875.4931640625c-2.6796875.068359375-4.6611328125.3798828125-5.6982421875.40625-1.3828125.03515625-1.919921875-.6435546875-1.9443359375-1.5947265625-.076171875-2.9384765625,3.7744140625-1.220703125,3.6259765625-7.0126953125l-1.1474609375-44.6044921875c-.1484375-5.791015625-3.9033203125-3.7919921875-3.978515625-6.7314453125-.0244140625-.951171875.560546875-1.744140625,1.857421875-1.77734375,1.037109375-.0263671875,3.0322265625.1806640625,5.7119140625.1123046875l17.2890625-.4443359375c1.9013671875-.048828125,2.02734375-1.869140625,3.669921875-1.9111328125,1.2958984375-.033203125,1.578125.8251953125,2.8759765625,4.1650390625l2.3193359375,6.16796875c1.203125,2.998046875,1.8515625,4.7109375,1.8779296875,5.748046875s-.8212890625,1.6640625-1.599609375,1.6845703125c-.951171875.0244140625-1.4873046875-.654296875-2.2958984375-1.84375-5.9423828125-9.103515625-8.1181640625-9.56640625-11.4892578125-9.4794921875l-4.322265625.111328125c-3.025390625.0771484375-4.3984375.544921875-4.30078125,4.3486328125l.44921875,17.4619140625c.0400390625,1.5556640625.7392578125,1.796875,1.7763671875,1.76953125l5.013671875-.12890625c3.544921875-.0908203125,2.9453125-6.5634765625,5.365234375-6.625,1.0380859375-.02734375,1.57421875.65234375,1.6171875,2.2939453125.05078125,1.9892578125-.06640625,4.1533203125-.0107421875,6.314453125.0576171875,2.248046875.2880859375,4.4921875.3369140625,6.3935546875.044921875,1.7294921875-.4560546875,2.4326171875-1.494140625,2.4599609375-2.419921875.0615234375-2.072265625-6.6064453125-5.703125-6.513671875l-5.013671875.12890625c-1.037109375.02734375-1.720703125.3896484375-1.6806640625,1.9462890625l.4755859375,18.4990234375c.0732421875,2.8525390625.455078125,4.2265625,4.517578125,4.1220703125l6.1376953125-.158203125c4.75390625-.1220703125,7.4296875-3.73828125,11.31640625-10.6708984375.830078125-1.40625,1.5029296875-2.115234375,2.4541015625-2.1396484375s1.48828125.6533203125,1.5126953125,1.6044921875Z"/>
    <path class="cls-2" d="M482.55773940344443,750.824767549052012c.078125,3.025390625-3.861328125,1.2236328125-3.712890625,7.0146484375l1.306640625,50.828125c.0517578125,1.98828125-1.0537109375,2.7099609375-2.2646484375,2.7412109375-1.3818359375.03515625-2.177734375-.6376953125-2.994140625-2.0869140625l-24.71484375-46.1611328125,1.029296875,40.0234375c.14453125,5.619140625,4.9345703125,3.5048828125,5.021484375,6.876953125.0224609375.8642578125-.73828125,1.5771484375-1.94921875,1.6083984375-1.46875.037109375-3.3779296875-.1728515625-5.193359375-.126953125-1.296875.033203125-3.19140625.3427734375-4.66015625.3798828125-1.2109375.03125-1.8369140625-.7314453125-1.8583984375-1.5966796875-.076171875-2.9384765625,3.947265625-1.2255859375,3.798828125-7.017578125l-1.1474609375-44.6044921875c-.1484375-5.791015625-4.076171875-3.787109375-4.1513671875-6.7265625-.0244140625-.951171875.6474609375-1.74609375,1.943359375-1.779296875,1.1240234375-.029296875,2.427734375.1962890625,3.810546875.1611328125,1.556640625-.0400390625,2.3291015625-.232421875,3.1064453125-.251953125,1.2978515625-.0341796875,2.0888671875.4638671875,2.8154296875,1.830078125l22.1201171875,42.767578125-.9453125-36.73828125c-.146484375-5.705078125-4.8447265625-3.421875-4.931640625-6.79296875-.021484375-.865234375.8212890625-1.6650390625,1.9453125-1.693359375,1.556640625-.0400390625,3.033203125.1806640625,5.0205078125.1298828125,1.7294921875-.044921875,3.2783203125-.34375,4.748046875-.3818359375,1.2099609375-.0302734375,1.8359375.7314453125,1.857421875,1.5966796875Z"/>
  </g>
  <g>
    <path class="cls-6" d="M95.775177421513945,479.770879310143755s-29.837188458719538,42.834078331736237-19.478965133468591,100.451695578463841c10.358223325260042,57.617617246727605,56.975493861869836,77.255082300855065,87.831734731869801,75.960304385198469,30.85624087000906-1.294777915656596,77.036653195098552-38.411744831151736,69.052189381878634-100.345288463402539-7.984463813209004-61.933543632250803-40.530132132020299-88.452136903773862-40.530132132020299-88.452136903773862l-72.978731807219447-11.245762601800379-23.896095041040098,23.631188005314471Z"/>
    <path class="cls-8" d="M158.88313053026468,468.740497017960479c1.726370554210007,12.084593879464592,27.837725186629541,11.005612283082883,27.837725186629541,11.005612283082883l-3.884333746978882-14.674149710777783c.863185277108641,11.005612283082883,17.047909222819726,11.437204921634475,17.047909222819726,11.437204921634475,0,0,13.163575475839025-10.142427005977879,14.026760752949485-18.990076096299163.863185277099547-8.847649090321283-17.479501861369499-9.495038048150491-17.479501861369499-9.495038048150491,5.179111662630021-7.552871174665597,20.284854011959396-13.595168114396074,20.284854011959396-13.595168114396074,0,0-1.294777915660234-2.373759512037395-5.826500620460138-6.90548221683639s-24.856832991070405-2.373759512037395-24.856832991070405-2.373759512037395c0,0,12.77223911161127-11.221408602359588,19.246128689890611-16.184723945710175,6.473889578290255-4.963315343350587,3.668537427700358-8.416056451769691,3.668537427700358-8.416056451769691-7.984463813219918-6.689685897560594-24.816576716761119.863185277105003-24.816576716761119.863185277105003,23.090206162551112-17.047909222814269,17.047909222821545-29.779892060106249,17.047909222821545-29.779892060106249-18.342687138470865-2.805352150590807-25.248169355310893,5.394907981902179-31.506262614320804,8.631852771044578s-6.042296939729567,13.379371795120278-6.042296939729567,13.379371795120278c1.294777915660234-21.363835608337467,20.069057692679053-39.922319066085038,20.069057692679053-39.922319066085038-29.779892060108978-4.963315343351496-36.68537427693991,11.437204921635384-36.68537427693991,11.437204921635384-.647388957830117-23.737595120374863-18.558483457749389-45.964616005817334-18.558483457749389-45.964616005817334-16.184723945709266,15.753131307157673-8.416056451769691,49.201560794959732-8.416056451769691,49.201560794959732-10.57401964453129-20.069057692679962-35.822188999840364-15.968927626434379-41.648689620291407-13.81096443367278-5.826500620460138,2.157963192761599-2.373759512040124,13.379371795121187,5.39490798190127,15.753131307157673,7.768667493939574,2.373759512037395,23.521798801099067,16.832112903538473,23.521798801099067,16.832112903538473-17.479501861369499-17.479501861366771-41.001300662470385-16.184723945710175-48.864688294728694-14.242557072225281-7.863387632260128,1.942166873484894-8.105539994170613,14.889946030053579,2.900072288908632,15.968927626435288,11.005612283081064,1.07898159637989,25.463965674591236,13.163575475843572,25.463965674591236,13.163575475843572-5.394907981910364-2.589555831313191-21.795428246899974-1.0789815963808-26.9745399095209,6.689685897559684-5.179111662630021,7.768667493940484,5.787623551879733,9.926630686702083,5.787623551879733,9.926630686702083,9.67195729884952.431592638551592,9.965507755279759,4.315926385523198,19.676342122700589,7.121278536113095,10.088557742679768,2.9144722367746,15.321538668609719,5.82650062045559,15.321538668609719,5.82650062045559-7.337074855389801-4.315926385522289-12.516186518019822,1.294777915656596-16.184723945709266,3.236944789142399-3.668537427700358,1.942166873485803-17.047909222821545,0-17.047909222821545,0,0,0-.431592638549773,4.315926385522289,0,8.200260132492986.431592638560687,3.884333746971606,8.847649090321283,9.926630686702083,12.300390198741297,11.413227552827266s21.19530201445923.239773688083915,21.19530201445923.239773688083915c0,0-6.736948622959972-2.157963192761599-18.174153544588989,6.473889578284798-11.437204921639932,8.631852771046397-3.452741108420014,18.55848345774757-3.452741108420014,18.55848345774757h23.306002481818723l4.121081437540852-2.187576914819147s6.452938206990439,7.798281215997122,10.984660911790343,6.719299619617232,12.300390198739478-5.179111662626383,14.026760752949485-10.142427005977879c0,0,3.236944789150584-2.58955583131501,4.747519024080248-1.078981596381709s9.063445409588894,7.337074855389801,15.753131307150397,4.531722704799904c6.689685897559684-2.805352150589897,6.689685897559684-8.847649090321283,6.689685897559684-8.847649090321283"/>
    <path class="cls-15" d="M95.775177421513945,469.843587778214896s8.919378206050169-7.735035963431073,18.438115018590906-3.04525763374113"/>
    <path class="cls-15" d="M131.692794301474351,474.135404999863567s.763142863619578-10.33815249356303,10.793521199739189-13.499902186469626"/>
    <path class="cls-15" d="M108.470249839594544,443.082340725181894s5.233240871019007-8.504016415402475,22.241273701829414,7.522783752088799c0,0,8.831093969849462-12.756024623109624,14.936541652699816-11.88381781127282,6.105447682861268.872206811836804,9.594274930201209,7.522783752088799,9.594274930201209,7.522783752088799"/>
    <path class="cls-15" d="M131.856294981964311,449.052735936622412s-1.689900697929261-10.658506825064251-8.994632747060678-15.782721844602747"/>
    <path class="cls-15" d="M86.807159892045092,402.059434361633976s21.336012393119745,16.274038077684054,24.824839640459686,28.702985146352148"/>
    <path class="cls-15" d="M109.771839042365173,426.346163551040263s-5.215180554660037-10.992544498042662,5.251301187379795-8.70300161697196"/>
    <path class="cls-15" d="M104.00018992893456,398.381741618561136s3.270775544389835,18.692298540997399,19.297575711880199,23.792074591538949c0,0,5.669344276939228-2.641059404507359,6.977654494688977,8.588603297886038"/>
    <path class="cls-15" d="M127.836352358564909,423.489719759994841s3.856403846179091.774333410296094,1.566860965109299-26.285670132169798c0,0,6.004029009391161-6.127040058392595,5.34607031151063-16.920599354867591-.657958697889626-10.793559296474996-1.966268915650289-17.117058682289098-4.473863499681102-18.970498157441398"/>
    <path class="cls-15" d="M104.00018992893456,369.053787570561326s13.519205583479561,5.015189168057987,15.481670910110552,9.70330078167899c0,0,2.969303918189325-4.478907724914279.557932221519877-10.361879797683287"/>
    <path class="cls-15" d="M134.092734736794228,387.889224856264264s14.280976744330474,9.72933580193876,14.8261060017212,22.485360425044746c0,0-.10902585148142-20.169782523717004,8.285964712449641-28.564773087641697"/>
    <path class="cls-15" d="M147.067679201963983,439.040750150760687s-.002277938599946-16.782347058181585-8.397268502520092-27.902983909095383"/>
    <path class="cls-15" d="M154.479159163975055,418.660549993754103s7.086680346170397-10.357455890555684,19.29757571187838-10.248430039076993v27.096533886478028"/>
    <path class="cls-15" d="M161.456813658664032,446.353116269558996s6.868628643209377-10.466481742023461,18.425368900039757-13.083102177539331l2.398568732551212,20.932963484066022"/>
    <path class="cls-15" d="M196.431690084315051,448.0240503674504s-4.264578121590603,2.081712028019865-7.563371629070389,5.6646434954082"/>
    <path class="cls-15" d="M104.00018992893456,491.314491346839532c-2.723303377040793.215796319276706-4.829567797620257,5.179111662626383-4.780610216659625,4.315926385523198.048957580949718-.863185277103184,0-6.258093259008092,0-6.258093259008092"/>
    <polyline class="cls-15" points="104.00018992893456 501.456918352817411 108.472547282925007 506.636030015445613 114.213292440104851 501.456918352817411"/>
    <path class="cls-15" d="M86.807159892045092,517.210049659975084s9.456906566629186,9.710834367426287,8.968017529468852,11.868797560187886c-.488889037169429,2.157963192761599,6.416593179670599-6.042296939733205,7.063982137500716-11.868797560187886"/>
    <path class="cls-15" d="M118.808087185443583,517.210049659975084l5.610704301181613,9.926630686702993s6.892951310548597-7.98446381321628,6.899216763689765-11.653001240911181"/>
    <path class="cls-15" d="M104.00018992893456,535.768533117722654s4.279244457440655,9.710834367426287,4.472357353990446,13.81096443367278c0,0,4.27622022604919-8.200260132491167,6.550592946819961-9.279241728872876"/>
    <path class="cls-15" d="M82.985898185605038,552.816442340538742s6.042296939729567,7.121278536111276,6.905482216840028,11.868797560186067c0,0,8.977819094499864-7.924891837685209,11.718086242999561-8.494168623641599"/>
    <polyline class="cls-15" points="95.775177421513945 572.238111075389497 104.994234930814855 580.438371207882483 111.747843756334987 572.238111075389497"/>
    <polyline class="cls-15" points="111.747843756334987 584.754297593405681 121.61343933603348 593.386150364452078 130.275420135503737 585.617482870510685"/>
    <polyline class="cls-15" points="101.609466645444627 607.197114798124858 103.761510588923556 609.786670629438049 114.213292440104851 603.096984731878365"/>
    <line class="cls-15" x1="81.456064298405181" y1="599.21985305801627" x2="90.538769360275182" y2="591.443983490965365"/>
    <line class="cls-15" x1="76.296212288045353" y1="580.222574888607596" x2="80.396342354293665" y2="576.33824114163599"/>
    <polyline class="cls-15" points="114.213292440104851 616.692152846274439 122.861662234903633 627.050376171529024 131.856294981964311 618.634319719759333"/>
    <path class="cls-15" d="M131.318008250314961,636.113821581127013l5.771546651028984,11.653001240911181s10.419442747830544-10.358223325254585,14.087980175519988-10.358223325254585"/>
    <path class="cls-15" d="M154.102168830173468,619.929097635415928l4.780961700091211,11.437204921636294s2.652627871859295-11.437204921636294,8.263332173039089-14.674149710777783"/>
    <path class="cls-15" d="M170.167611173164914,635.250636304022009s8.200260132489348,1.726370554208188,9.710834367429925,3.884333746969787c0,0,5.03196667273005-8.200260132494805,8.989872914649823-9.063445409597989"/>
    <path class="cls-15" d="M131.318008250314961,601.370614177668358l7.352402449128931,10.57401964453129s10.564957503940605-6.473889578282979,12.507124377420041-8.847649090321283"/>
    <path class="cls-15" d="M148.156386606993692,580.438371207882483s12.390042436951262,7.337074855387982,10.726743923270988,17.263705542090975c0,0,.710460998370763-8.416056451767872,6.968554257380674-11.868797560186067"/>
    <path class="cls-15" d="M131.856294981964311,568.35377732841971s6.823177858070267,7.121278536109457,6.814115717479581,9.926630686701174c0,0,8.603339013141522-6.905482216834571,8.397268502520092-11.221408602357769"/>
    <path class="cls-15" d="M114.213292440104851,556.191071277083211s9.126517450138635,5.041427515223404,9.773906407968752,8.494168623641599c0,0,1.713839647920395-8.416056451769691,7.330809402241357-11.005612283082883"/>
    <path class="cls-15" d="M127.358978608433972,532.531588328581165s11.320494231600605,5.610704301177975,11.31143209100992,10.142427005977879c0,0-.060979823489106-7.768667493939574,6.978359394430299-10.142427005977879"/>
    <path class="cls-15" d="M148.156386606993692,549.579497551395434s9.279241728880152,6.90548221683639,8.847649090330378,8.200260132492986c0,0,2.379025084999739-6.042296939729567,7.123911322591084-9.926630686701174"/>
    <path class="cls-15" d="M165.851684787645354,564.68523990072481s9.710834367429925.863185277105003,10.142427005979698,9.710834367426287l6.286639497629949-9.710834367426287"/>
    <path class="cls-15" d="M170.167611173164914,603.096984731878365s4.100130066250131,6.473889578282979,7.768667493939574,4.531722704798085c3.668537427700358-1.942166873484894,4.747519024080248-9.049041263378967,7.984463813219918-8.40885437866018"/>
    <path class="cls-15" d="M187.21552039598464,611.944633822199648l9.21616968833041,9.926630686702993s5.242183703168848-7.337074855389801,9.989702727240001-7.337074855389801"/>
    <line class="cls-15" x1="207.716170727213466" y1="628.129357767908914" x2="212.657096491055199" y2="629.404922326216365"/>
    <path class="cls-15" d="M205.126614895903913,597.702076749973457s7.939684654191296,3.884333746971606,7.530481595151286,8.73975093068475c0,0,2.180352772269543-8.73975093068475,5.417297561409214-10.034528846341345"/>
    <path class="cls-15" d="M190.236668865843967,580.438371207882483s8.631852771050035,9.4950380481514,8.416056451769691,12.947779156569595c0,0,1.942166873490351-8.200260132494805,6.473889578290255-9.4950380481514"/>
    <path class="cls-15" d="M232.968019728723448,584.754297593405681s-4.966994989548766,1.726370554210007-7.772347140138663,1.078981596381709c0,0,6.252481416559021,7.587807010342658,4.828003929229453,11.868797560186067"/>
    <path class="cls-15" d="M206.421392811555052,564.68523990072481s7.768667493939574,5.179111662626383,7.337074855389801,11.653001240911181c0,0,.435272284748862-10.57401964453129,15.323378491710173-11.653001240911181"/>
    <path class="cls-15" d="M222.174524118714544,553.679627617641927s10.896191901008933,1.07898159637989,11.814087369150002,20.71644665050917"/>
    <path class="cls-15" d="M179.517964814203879,544.831978527320643s10.502907732359745,5.826500620454681,10.718704051640088,8.847649090321283c0,0,3.884333746969787-5.39490798190127,8.416056451769691-5.826500620454681"/>
    <path class="cls-15" d="M160.624315766734071,532.531588328581165s7.699248242040994,4.382031538552837,11.244466708230902,5.07121350298803,4.420295700649149,1.349709187135886,6.175394351779687-5.07121350298803"/>
    <path class="cls-15" d="M196.431690084315051,529.432010265983081s8.197869735609856,4.474698993304628,8.694924811588862,10.808984435228922c0,0,4.087974498841504-10.898408891816871,7.530481595151286-10.808984435228922"/>
    <path class="cls-15" d="M215.368724497913718,515.483679105766896s6.88611198747094,3.177587786245567,11.848165522440468,11.653001240911181"/>
    <path class="cls-15" d="M182.280751291255001,515.483679105766896s.972218763779892,9.652481080083817,3.752459193488903,10.870612895840168c0,0,5.337193514191313-6.636391276322684,6.616793785029586-10.870612895840168"/>
    <path class="cls-15" d="M145.648770093874191,515.483679105766896l7.10797907424967,10.870612895840168s6.892982734971156-6.392764913172869,6.126381362140819-10.870612895840168"/>
    <path class="cls-15" d="M132.782251583505058,498.337260239251009l5.888159115938834,8.298769776194604s2.148646674280826-6.837011597288438,5.803042121540784-8.298769776194604"/>
    <polyline class="cls-15" points="164.127947019915155 497.362754786646292 170.167611173164914 508.569567491590533 176.875759120064686 502.486645127347401"/>
    <polyline class="cls-15" points="152.29570580604377 484.380295675627167 154.102168830173468 489.372324473354638 160.624315766734071 484.380295675627167"/>
    <polyline class="cls-15" points="178.044176826744661 486.876310074489993 182.280751291255001 493.708359339382696 184.915429104044961 492.55172602278526"/>
    <path class="cls-15" d="M192.65000426977349,497.362754786646292s4.203116628661519,9.50142816288826,10.05014934429164,2.923516357812332"/>
  </g>
  <path class="cls-9" d="M449.250033122794775,407.112248666053347s-1.031577611460307,9.669540285410221,13.083214859860163,13.1373812774209"/>
  <path class="cls-9" d="M468.024172388233637,391.649131299592227s8.569736756611746,4.344424400226671,8.861474138369886,8.433179729199765c0,0,1.908192274140674,9.720439888626061-2.036212025939676,14.489769534481638"/>
  <path class="cls-9" d="M476.885646526603523,400.082311028791992s18.95696046212106-7.862584178701582,19.543419901681773-29.820768728098301"/>
  <path class="cls-17" d="M75.377922569214206,574.396074268151096s-10.807918008169509-7.229536064638523-23.53747207852939-1.726370554210007c-12.729554070350787,5.503165510428516-21.542322272900492,12.991280416239533-21.738161566290728,22.662214560550638s-1.762553640510305,24.197979313337783,15.275464884420217,32.797439493417187c17.038018524939616,8.599460180079404,35.018588545479361,1.942166873484894,35.018588545479361,1.942166873484894,0,0-5.251015950188958-30.117743201381018-21.897355888349921-33.664225807076946,0,0-5.359319581968521-5.980318611887924.19583929340115-4.963315343351496,5.555158875358757,1.017003268536428,12.877093610948577,4.621733236608634,17.601386528700459,1.942166873486713,0,0,4.797806661199502-6.708048994536512-.918289718831147-18.990076096300982Z"/>
  <g>
    <path class="cls-2" d="M265.85070815344443,563.283751924052012l29.814453125-.3720703125.220703125,17.6630859375-2.3173828125.6259765625-5.966796875-15.1337890625-2.72265625.0341796875.251953125,20.185546875c.2041015625,16.4013671875.923828125,20.8408203125,4.576171875,20.7958984375l.0302734375,2.390625-16.7998046875.208984375-.0302734375-2.390625c3.71875-.0458984375,4.2607421875-4.501953125,4.056640625-20.9033203125l-.251953125-20.185546875-2.65625.033203125-5.5869140625,15.2783203125-2.3974609375-.5673828125-.220703125-17.6630859375Z"/>
    <path class="cls-2" d="M333.97863784094443,599.822814424052012c.015625,6.5078125-2.998046875,9.7998046875-6.916015625,9.8486328125-4.1171875.0517578125-6.46875-2.177734375-8.0869140625-9.4619140625-2.60546875-11.85546875-3.6298828125-14.1005859375-6.2197265625-14.068359375l-1.26171875.015625.0390625,3.12109375c.171875,13.7451171875.68359375,17.5234375,3.73828125,17.4853515625l.0302734375,2.390625-15.2724609375.1904296875-.0302734375-2.390625c2.98828125-.037109375,3.4072265625-3.7607421875,3.193359375-20.892578125-.2138671875-17.130859375-.724609375-20.84375-3.712890625-20.806640625l-.0302734375-2.390625,14.8076171875-.1845703125c11.2880859375-.140625,14.8671875,4.5966796875,14.9462890625,10.904296875.072265625,5.84375-2.8583984375,10.4619140625-11.2158203125,11.296875,3.669921875,1.416015625,5.9765625,5.3056640625,9.197265625,13.234375,1.111328125,3.904296875,1.9169921875,4.625,2.7802734375,4.6142578125.796875-.009765625,1.3857421875-.681640625,1.5517578125-3.40625l2.4619140625.5ZM311.45520034094443,583.035705049052012l2.5234375-.03125c4.515625-.056640625,6.0009765625-3.4609375,5.9345703125-8.83984375-.0634765625-5.0458984375-1.634765625-8.546875-6.150390625-8.490234375l-2.5234375.03125.2158203125,17.330078125Z"/>
    <path class="cls-2" d="M353.56652846594443,562.122619111552012c11.5791015625,39.171875,13.0927734375,43.4033203125,15.2255859375,43.9736328125l.0302734375,2.390625-14.8076171875.1845703125-.0302734375-2.390625c2.18359375-.6240234375,2.6220703125-2.7548828125.38671875-11.560546875l-10.490234375.130859375c-1.16796875,7.5859375-.2626953125,10.8955078125,2.931640625,11.5185546875l.0302734375,2.390625-12.2177734375.15234375-.0302734375-2.390625c2.1171875-.6884765625,3.19921875-4.421875,14.1904296875-44.33984375l4.78125-.0595703125ZM353.60266127844443,591.609923799052012c-1.1826171875-4.236328125-2.845703125-9.794921875-4.9931640625-16.873046875-1.9052734375,6.99609375-3.294921875,12.5927734375-4.169921875,16.9873046875l9.1630859375-.1142578125Z"/>
    <path class="cls-2" d="M396.15539565344443,590.348205049052012l3.1259765625.359375c-.91796875,11.5673828125-4.6865234375,18.1884765625-12.7880859375,18.2890625-10.6904296875.1337890625-16.982421875-9.1513671875-17.1640625-23.759765625-.181640625-14.5419921875,5.8759765625-24.0478515625,16.234375-24.1767578125,4.515625-.056640625,5.93359375,1.8515625,7.59375,1.8310546875.99609375-.0126953125,1.853515625-.421875,2.30078125-1.822265625l2.2666015625.6357421875.2197265625,17.5966796875-2.3837890625.6279296875c-2.2314453125-8.6064453125-5.5751953125-15.802734375-10.0244140625-15.748046875-5.0458984375.0634765625-7.025390625,6.462890625-6.8447265625,20.9384765625.1806640625,14.5419921875,2.6484375,20.62109375,8.423828125,20.548828125,6.17578125-.0771484375,8.0927734375-6.0771484375,9.0400390625-15.3203125Z"/>
    <path class="cls-2" d="M422.09387221594443,561.334533174052012l12.1513671875-.1513671875.0302734375,2.390625c-1.986328125.5556640625-3.404296875,3.9609375-12.5390625,22.337890625.2529296875,15.005859375.9072265625,19.5126953125,3.6962890625,19.478515625l.0302734375,2.3896484375-14.8740234375.185546875-.0302734375-2.3896484375c2.85546875-.0361328125,3.396484375-4.55859375,3.2109375-19.4990234375-9.060546875-18.2822265625-10.962890625-21.6455078125-13.0927734375-22.083984375l-.0302734375-2.390625,14.7412109375-.18359375.0302734375,2.390625c-2.578125,1.0283203125-1.6005859375,4.8671875,5.0009765625,17.6689453125,5.1767578125-10.9560546875,5.5009765625-16.8701171875,1.705078125-17.7529296875l-.0302734375-2.390625Z"/>
    <path class="cls-2" d="M447.33996596594443,567.462462861552012c.0693359375,5.5107421875-3.64453125,11.3349609375-9.17578125,15.0556640625l-1.55078125-1.83984375c2.1650390625-2.1513671875,3.857421875-4.9619140625,4.6171875-7.8935546875-2.9892578125-.095703125-5.0810546875-2.66015625-5.1240234375-6.1123046875-.044921875-3.65234375,2.2470703125-6.271484375,5.5673828125-6.3125,3.2529296875-.0400390625,5.6103515625,2.5869140625,5.666015625,7.1025390625Z"/>
    <path class="cls-2" d="M478.49816909094443,594.898986299052012c.1025390625,8.234375-5.1513671875,13.0146484375-12.853515625,13.1103515625-5.1796875.0654296875-6.798828125-1.9736328125-8.658203125-1.9501953125-1.0625.0126953125-1.9189453125.48828125-2.2998046875,1.9541015625l-2.33203125-.634765625-.2119140625-16.931640625,2.44921875-.6943359375c1.958984375,8.0107421875,5.50390625,15.337890625,10.81640625,15.271484375,3.5185546875-.0439453125,5.279296875-2.6552734375,5.2373046875-5.9755859375-.15625-12.5498046875-18.0126953125-11.9287109375-18.201171875-27.068359375-.095703125-7.6357421875,5.3642578125-11.8212890625,11.5400390625-11.8984375,4.3154296875-.0537109375,6.06640625,1.9169921875,7.59375,1.8984375,1.0625-.013671875,1.919921875-.4892578125,2.30078125-1.888671875l2.3330078125.634765625.1865234375,14.9404296875-2.44921875.6953125c-2.013671875-7.015625-5.3466796875-13.3486328125-9.662109375-13.294921875-2.65625.033203125-4.49609375,1.6494140625-4.451171875,5.234375.140625,11.2890625,18.474609375,11.591796875,18.662109375,26.59765625Z"/>
  </g>
  <path class="cls-15" d="M170.999987329283613,196.218741329502336s-12.210895365709803,2.616620435509503-13.519205583468647,3.706878950304599"/>
  <line class="cls-15" x1="163.110062079575073" y1="198.072180804654636" x2="166.202849864184827" y2="207.775481586334536"/>
  <path class="cls-15" d="M160.635480653214472,209.919011470235091s8.896154730380658-4.619157263847228,15.055031082170899-4.619157263847228"/>
  <path class="cls-15" d="M163.110062079575073,214.367088835420873l15.146648135729265-.427699746652252s-6.329956250459873,8.04075523706797-10.093714021000778,9.152774578364188"/>
  <line class="cls-15" x1="168.16299619430356" y1="214.224407852713739" x2="172.098964144985075" y2="220.540007120283917"/>
  <path class="cls-15" d="M180.138589100573881,218.515776377950715s-3.250518074559295,7.142585769098332-5.303476858489375,7.741365414411121l7.270895693089187-1.625259037279648v5.987796453135161l6.586576098450678-.769859543975144"/>
  <polyline class="cls-15" points="179.283189607274835 237.633955053318459 193.055121449484432 233.955737232106912 184.843286313755016 246.615649733021201"/>
  <line class="cls-15" x1="184.574745702204382" y1="236.220682307465722" x2="187.903197632324009" y2="241.898286450225896"/>
  <line class="cls-15" x1="199.128457851944404" y1="240.285693482564056" x2="188.264884286974848" y2="250.12278765557221"/>
  <line class="cls-15" x1="203.234375419813659" y1="244.477150999759033" x2="195.022540284084243" y2="252.004666540843573"/>
</svg>