<?xml version="1.0" encoding="UTF-8"?>
<svg id="Tracy_s_Kitchen" data-name="Tracy&amp;apos;s Kitchen" xmlns="http://www.w3.org/2000/svg" width="542.663499855707414" height="1080" xmlns:xlink="http://www.w3.org/1999/xlink" viewBox="0 0 542.663499855707414 1080">
  <defs>
    <style>
      .cls-1 {
        fill: #f69183;
      }

      .cls-1, .cls-2, .cls-3, .cls-4, .cls-5, .cls-6, .cls-7, .cls-8, .cls-9, .cls-10 {
        stroke-width: 0px;
      }

      .cls-2 {
        fill: #f8af97;
      }

      .cls-3 {
        fill: #d17954;
      }

      .cls-4 {
        fill: #fabda0;
      }

      .cls-5 {
        fill: none;
      }

      .cls-11 {
        clip-path: url(#clippath-1);
      }

      .cls-6 {
        fill: #006838;
      }

      .cls-7 {
        fill: #f1f1f2;
      }

      .cls-12 {
        clip-path: url(#clippath);
      }

      .cls-8 {
        fill: #404041;
      }

      .cls-9 {
        fill: #231f20;
      }

      .cls-10 {
        fill: #3b2314;
      }
    </style>
    <clipPath id="clippath">
      <rect class="cls-5" x=".000000000000909" y="-1114.14002734666974" width="542.663499855707414" height="1080"/>
    </clipPath>
    <clipPath id="clippath-1">
      <rect class="cls-5" x=".000000000001819" width="542.663499855705595" height="1080"/>
    </clipPath>
  </defs>
  <g class="cls-12">
    <rect class="cls-3" x="178.636313475461066" y="-194.857700120633183" width="181.728727669938962" height="238.188138070865648" rx="90.864272970136412" ry="90.864272970136412"/>
  </g>
  <g class="cls-11">
    <g>
      <path class="cls-10" d="M183.105492023763873,414.293233499487542s91.211742977255199-14.357117020856094,84.893069130848744-95.030817534739981c0,0-91.789070386985259,4.573366182106838-84.893069130848744,95.030817534739981Z"/>
      <path class="cls-10" d="M225.893897090323662,414.293233499487542s91.211742977237009-14.357117020856094,84.89306913085602-95.030817534739981c0,0-91.789070386992535,4.573366182106838-84.89306913085602,95.030817534739981Z"/>
      <path class="cls-10" d="M277.589180432756621,654.659345224690696l-18.883949711762398-.000000000090949c-86.915565512128524-.000000000334694-158.028300940495683-56.142950013367226-158.028300951908022-124.762111140085835l-.000000010273652-61.571209967974937c-.00000001141234-68.619161131386136,71.11273540311231-124.762111151483623,158.028300921207119-124.762111155767343l18.883949755338108-.000000000942237c86.915573288239102-.00000000428372,158.028300931349804,59.724149216555816,158.028300922174822,124.762111138452383l-.000000008654752,61.571210013347809c-.000000009691576,68.619161112521397-71.112735421935213,124.762111113399442-158.028300916121225,124.76211111306111Z"/>
      <circle class="cls-2" cx="99.345540649862414" cy="580.292806391724298" r="45.761496969038028"/>
      <circle class="cls-2" cx="443.317959205849547" cy="580.079962222938775" r="45.761496969041218"/>
      <path class="cls-10" d="M219.726925926721378,383.88992353472895s112.099674627756031,101.876343897876723,209.501116892595746,8.370679679559544c0,0-100.093311624394119-112.973744018074285-209.501116892595746-8.370679679559544Z"/>
      <path class="cls-10" d="M89.399616101070933,426.723029660503016s135.146773686155939,68.414004851845675,204.189357148312411-47.618196993369565c0,0-126.522151493514684-82.303602903271894-204.189357148312411,47.618196993369565Z"/>
      <path class="cls-10" d="M145.107037618896356,349.650204125953678s84.134562130497216,113.950059442951897,183.761189156197361,58.42511803537127c0,0-71.916381820054085-120.430448417151638-183.761189156197361-58.42511803537127Z"/>
      <rect class="cls-4" x="110.118746740196457" y="363.883109479037614" width="316.056917725064523" height="394.044971959933662" rx="158.028300899335335" ry="158.028300899335335"/>
      <g>
        <path class="cls-10" d="M424.639054167864742,544.484755032255634c2.340846860337479-97.972003031763961-69.079733546655916-131.943866244562741-118.07854322464118-143.720531679200576-31.606268130781245-7.596438522872631-64.729446347319026-6.811073491608113-95.690769227505371,3.0913781692052-103.172831217409112,32.998072394751944-101.237816769596975,136.228789414546554-101.237816769596975,136.228789414546554,0,0,6.618394038661791-186.976414407203265,127.945819371198013-181.349455243369448,121.327425332561688,5.626959163852007,139.580448718130356,24.212108391233414,139.580448718130356,24.212108391233414l45.630504408654815,82.896849128626855,1.850356723760342,78.640861818958001Z"/>
        <path class="cls-10" d="M424.639304998143416,554.407533846168008h-.001661164591496c-5.388817927963828-.001107443053115-9.791457811348664-4.302139425726637-9.918260041667963-9.689296189093511l-.411415096648852-17.492063126177527c-2.452432655445591-32.645206510538628-14.604959069823963-59.396601057958833-36.243289011119487-79.686619074193004-22.974459992696211-21.543366698911996-52.82614138540157-32.080964271672201-73.823261795190774-37.127305433437868-30.367749858483876-7.299434066510003-61.609272290992521-6.298028679890194-90.349080851894541,2.89457929699347-21.849851565671997,6.988242566763802-40.362977192806284,17.905416248178881-55.024969580215839,32.447804785162589-11.733912937874265,11.63811911321136-21.104542386561661,25.66776151360682-27.851639227097621,41.699937826477253-5.753720416094438,13.670553988324173-8.621444218897523,26.542364669920062-10.049492044243379,36.114825616225062-1.147311009717669,10.206195237158681-1.408667571795377,16.61303019764091-1.417527116271231,16.866080936752041-.189372763168649,5.343966484053453-4.577615886788408,9.571353503266437-9.914937712474057,9.571630364027442-.028239798037248,0-.05592587452702,0-.084165672535164-.000276860761005-5.375528611235495-.044851443906737-9.737746822953341-4.361664490181283-9.838524141385278-9.736362519137401-.011074430592998-.580577023982187-.107421976772457-7.916833572222458,1.532701194464607-19.141599563437921,1.240889948265249-11.035393228043176,3.455222345924994-26.107693269037554,7.370033561557648-42.817071012854285,10.679627145145787-45.588447269476092,28.215434272176935-79.872115786649374,52.120146434925118-101.899158241867553,21.374204771567747-19.695044232468717,47.381397582936188-28.980677426339753,77.303401609951834-27.589728943508817,51.038174565674126,2.367159539862769,90.54565199494391,7.262888445546196,117.425509937267634,14.551524942222386,20.150480190746748,5.463847195234848,26.835560219933541,10.645573271049216,28.774693017272511,12.619867385545149.634011151629238.645639303715143,1.177211972346413,1.374890558474362,1.613544537827693,2.16781978913059l45.630530105729122,82.896819643163326c.768565483358543,1.396485698141987,1.189393845997984,2.957703551379382,1.22704691002582,4.551590974890132l1.421956888494606,60.433167761710138c.43799373008369,6.056329232127609.581407606307039,12.284865860010541.428580464067636,18.678134643028898-.12901711644372,5.38632618106567-4.53221072136148,9.685696999140418-9.919921206248546,9.685696999140418ZM263.848539733511643,385.743955870926584c14.997547634480725,0,30.113591676319629,1.787136237417144,45.030849688955641,5.372206282063416,33.928733016597107,8.154656969274583,61.773173863810371,22.267634459902183,82.759773564546776,41.946620768028879,1.307890253377991,1.225939466967247,2.588094430251658,2.473474073576654,3.836182758419454,3.737897186867485l-25.92911807568089-47.105090539580488c-2.341134627960855-1.3801509130044-9.108719165109505-4.755083637111966-24.255771612613898-8.44674507622949-25.502752497712208-6.215801032716627-61.897207486490515-10.455646786338548-108.172269452898036-12.602148296586165-24.431855059105146-1.133467971498249-45.603951472294284,6.390223314579998-62.936542797917355,22.360382816148558-11.796483470738167,10.86983049061746-21.064674436416681,24.781807065917747-28.33725300873266,39.722044522057331,16.751183719316032-16.303776723265401,37.600460480669426-28.519981113562608,62.002414577167656-36.324686076006401,18.029173010068916-5.766179150527023,36.918829277467012-8.660481586763126,56.001734358753311-8.660481586763126ZM370.565075284570412,390.3539644672328h0Z"/>
      </g>
      <path class="cls-10" d="M162.287407138786875,451.010795750225952s82.710858949540125-16.412280140553776,90.74103124217072-62.480543185956776c0,0-81.570645417232299,10.808514185882814-90.74103124217072,62.480543185956776Z"/>
      <g>
        <ellipse class="cls-9" cx="193.522753924831704" cy="578.913653559413888" rx="10.054548550251639" ry="16.563077427188091"/>
        <path class="cls-9" d="M193.522583120515264,600.863385892058432c-8.658543561414263,0-15.441078579846362-9.641399276752054-15.441078579846362-21.949798301786359,0-12.308122164276938,6.7825350184321-21.949521441030811,15.441078579846362-21.949521441030811,8.658543561381521,0,15.441078579809982,9.641399276753873,15.441078579809982,21.949521441030811,0,12.308399025034305-6.782535018428462,21.949798301786359-15.441078579809982,21.949798301786359ZM193.522583120515264,567.73727223289643c-1.354956583407329,0-4.667872496189375,3.916472380244159-4.667872496189375,11.176315357375643,0,7.260119837887032,3.312915912782046,11.176592218113001,4.667872496189375,11.176592218113001,1.354956583381863,0,4.667872496163909-3.916472380225969,4.667872496163909-11.176592218113001,0-7.259842977131484-3.312915912782046-11.176315357375643-4.667872496163909-11.176315357375643Z"/>
      </g>
      <rect class="cls-1" x="253.028438396479032" y="570.799751699270814" width="21.997910151982069" height="57.210083737307968" rx="10.998944159840441" ry="10.998944159840441"/>
      <path class="cls-10" d="M214.676960444745418,538.885335062232116h-47.376967810705537c-5.323478787420754,0-9.639184390664013-4.315705603214155-9.639184390664013-9.639184390658556s4.315705603243259-9.639184390660375,9.639184390664013-9.639184390660375h47.376967810705537c5.32347878744622,0,9.639184390667651,4.315705603215974,9.639184390667651,9.639184390660375s-4.315705603221431,9.639184390658556-9.639184390667651,9.639184390658556Z"/>
      <path class="cls-10" d="M358.220961220891695,538.885335062232116h-47.377521532227547c-5.323478787435306,0-9.639184390656737-4.315705603214155-9.639184390656737-9.639184390658556s4.315705603221431-9.639184390660375,9.639184390656737-9.639184390660375h47.377521532227547c5.32347878744622,0,9.639184390642185,4.315705603215974,9.639184390642185,9.639184390660375s-4.315705603195966,9.639184390658556-9.639184390642185,9.639184390658556Z"/>
      <g>
        <path class="cls-9" d="M192.64327333118672,630.759088146392969c-27.952970267069759,0-50.694313495692768-23.060009969016392-50.694313495692768-51.404738218410785,0-13.507759858544887,5.216056810673763-23.346007139170979,15.502541669644415-29.241480266880899,8.157425576930109-4.675070876066457,19.668742459809437-6.947544034343082,35.191771826048353-6.947544034343082,15.522475644720544,0,27.033792527603509,2.272473158276625,35.191218104533618,6.947544034343082,10.286484858974291,5.89547312770992,15.502541669626225,15.733720408336012,15.502541669626225,29.241480266880899,0,28.344728249394393-22.741343228630285,51.404738218410785-50.693759774159844,51.404738218410785ZM192.64327333118672,549.402444938359622c-30.745941663328267,0-44.457194184094988,9.237459420795858-44.457194184094988,29.951904989622562,0,24.905563827849619,19.943388338600926,45.167618906814823,44.457194184094988,45.167618906814823,24.513252123982966,0,44.456640462580253-20.262055078965204,44.456640462580253-45.167618906814823,0-20.714445568826704-13.71069879924471-29.951904989622562-44.456640462580253-29.951904989622562Z"/>
        <path class="cls-9" d="M335.411510244093733,628.960046896108906c-27.952416545529559,0-50.693759774178034-23.0600099690364-50.693759774178034-51.404738218434431,0-13.507759858544887,5.216056810662849-23.346007139172798,15.502541669648053-29.241480266877261,8.157425576930109-4.675070876048267,19.668742459809437-6.947544034326711,35.19121810452998-6.947544034326711,15.523029366235278,0,27.034346249118244,2.272473158278444,35.191771826044715,6.947544034326711,10.286484858974291,5.895473127704463,15.502541669648053,15.733720408332374,15.502541669648053,29.241480266877261,0,28.344728249398031-22.741343228648475,51.404738218434431-50.694313495692768,51.404738218434431ZM335.411510244093733,547.603403688075559c-30.745941663361009,0-44.456640462576615,9.237459420770392-44.456640462576615,29.951904989598916,0,24.905563827849619,19.943388338597288,45.167618906833013,44.456640462576615,45.167618906833013,24.513805845494062,0,44.45719418409135-20.262055078983394,44.45719418409135-45.167618906833013,0-20.714445568828523-13.711252520763082-29.951904989598916-44.45719418409135-29.951904989598916Z"/>
        <path class="cls-9" d="M287.834648961119456,588.282555874377067c-.413076261214883,0-.833350902339589-.08278136869194-1.236460176016408-.257203650580777-19.644378712499019-8.499348621584431-45.468843419028417.006090936823966-45.727985094974429.093302077766566-1.632371069834335.548738036026407-3.400403914456547-.32863372794418-3.949695672024973-1.960174215464576-.549845479072246-1.631540487540406.325588259522192-3.399296471407069,1.956298164761392-3.949972532780521,1.147311009739497-.387051349343892,28.328393464264082-9.370352587948219,50.197625283464731.092471495468999,1.580874967563432.683846089284998,2.307911336189136,2.519709821321158,1.624065246905957,4.100584788890046-.509423807423445,1.177211972348232-1.657842260225152,1.880992036700263-2.863847752116271,1.880992036700263Z"/>
      </g>
      <path class="cls-9" d="M317.692975012205352,592.349086789196008c-1.112980274880101,0-2.235373815779894-.343584209253095-3.198849277618137-1.056223818086437-2.391523287176824-1.768863426923417-2.896517322344152-5.141858125674844-1.127377034670644-7.533658273614492,17.123838308893028-23.152758325270042,44.120531493990711-21.363960923277773,45.266181339138711-21.276472921572349,2.966286235092412.227302687973861,5.186155848037743,2.816504561307738,4.959130020844896,5.78251393564824-.227579548762151,2.966009374335044-2.807368156074517,5.190862481049408-5.783067657168431,4.959130020821249-.880417232379841-.059801925208376-22.273448535965144-1.322010152363873-35.780931533776311,16.940833343289341-1.056500678838347,1.428324686103224-2.684995697945851,2.183877713514448-4.335085856750084,2.183877713514448Z"/>
      <path class="cls-9" d="M355.725338286107217,591.329962313595388c-.794036673731171,0-1.600255221095722-.176083446460325-2.361622324569908-.548184314506216h0c-5.65017449001607-2.753657167640995-23.298387087612355-9.045041189163385-30.037178105209023-2.075625154417139-2.066488749191194,2.139026269605893-5.477967094240739,2.197167030219134-7.616439642308251.129293977197449-2.139026269582246-2.067596192238852-2.1966133087044-5.477690233479734-.129017116447358-7.616716503063799,4.09310954823377-4.234308538338155,12.150865249812341-8.593204420865732,27.285735823665163-5.30548283772805,8.236607755668956,1.788243680473897,14.951588747495407,5.054093263188406,15.233433006156702,5.192246784887175,2.671152659720974,1.309551417960392,3.775273390125221,4.536640493592131,2.465721972170286,7.207793153316743-.935235663826461,1.908124391680758-2.850004713840463,3.016674894313837-4.840633613457612,3.016674894313837Z"/>
      <g>
        <path class="cls-7" d="M267.162279479050994,702.800307259891269c-41.926426109395834.855285771262061-61.664917452879308-25.476449532863626-67.988318471958337-37.028067724504581-1.970848750239384-3.600355600985495,1.346877213942207-7.623348260533021,6.289869728268968-7.623348260533021h123.396894471548876c4.942992514312209,0,8.2607184784938,4.022992659547526,6.289869728250778,7.623348260533021-6.323401019057201,11.551618191640955-22.167936542715324,34.507533004136349-64.983157639439014,36.882273129926034-1.00190995455705.055570792585058-2.000807780248579.145794594578547-3.005157816671272.145794594578547"/>
        <path class="cls-7" d="M265.176363961965762,708.20728793638591c-45.347024682490883,0-65.55952168456497-30.407894669389862-70.727404722125357-39.848569891619263-1.699371374936163-3.104162896015623-1.636247120532062-6.774782917033008.167777623541042-9.819143887836617,2.111893914632674-3.563474904976829,6.268127717266907-5.777253581100013,10.846851047135715-5.777253581100013h123.397396636082703c4.578723329890636,0,8.734957132528507,2.213778676123184,10.846851047157543,5.777253581100013,1.804024744076742,3.044360970803609,1.867148998455377,6.714980991820994.167777623522852,9.819143887836617-13.419994996082096,24.515467010096472-36.773200515151984,37.863755068072351-69.40954748121294,39.674147609730426-.260249118990032.014396759788724-.51994451646533.031562127202051-.779639913951542.048450633861648-.744201736026298.048450633859829-1.585304739786807.102992204545444-2.465168250630086.105483951443603-.685507253885589.013566177463872-1.370460786227341.020487696583587-2.044893609519931.020487696583587ZM204.234879835896209,663.789131120136517c5.016717059919756,8.866465995834005,22.981104651036731,34.445355203895815,62.817492669008061,33.625570479049202l.109636862889602-.001107443056753c.551506643692846,0,1.170013592458417-.040144810925995,1.824512440682156-.082781368719225.294026132309227-.019103392773104.58805226464392-.038206785544389.882632118475158-.054541570685615,28.393178883256041-1.57506089150047,48.651081050775247-12.841632858209778,60.222199858868407-33.486586375049228-.260802840537508-.129017116440082-.665019557269261-.254158182171523-1.230369239219726-.254158182171523h-123.397396636082703c-.564242238862789,0-.968458955627284.12458734419306-1.228708074620954.253604460633142Z"/>
      </g>
      <path class="cls-6" d="M110.1187466475767,1062.181587199187561l-.000000068004738-139.568672682720717c-.000000042338797-86.915565612134742,71.112735423834238-158.028301099440796,158.028301035945333-158.02830108290982h.000316103618388c32.593335748555546.000000006188202,62.964398693464318,10.000227628361245,88.196455895831605,27.083949927051435,42.053431344305864,28.472872308093429,69.831844921933225,76.622121219657856,69.831844921827724,130.944350920975921l-.000000000316504,139.568672948103995c-.000000000065484,28.362050766932953-22.991984950731421,51.354035711581673-51.354035717660736,51.354035704202033l-213.348846480228531-.000000055395503c-28.362050746811292-.000000007354174-51.354035677199136-22.99198493251788-51.354035691012541-51.354035679307344Z"/>
      <path class="cls-9" d="M389.055561901719557,821.148289212997042s-181.241934739675344,194.352947804798532-278.936815277804271,208.638482818434568l-.000000014555553-32.760522160744586c97.694880538128928-14.285535013634217,255.427551779728674-198.632000373037954,255.427551779728674-198.632000373037954l23.509263512631151,22.754039715347972Z"/>
      <g>
        <rect class="cls-9" x="153.149381025545182" y="939.832685663388702" width="44.944520494995174" height="14.842832772046222" rx="5.95270474839592" ry="5.95270474839592" transform="translate(-199.794712892043208 60.013517000311595) rotate(-12.431164497019447)"/>
        <rect class="cls-9" x="171.560388822190703" y="943.881990210541176" width="10.666595763637105" height="18.285476761761515" transform="translate(-201.007112963740951 60.422636216009323) rotate(-12.431164497021781)"/>
        <rect class="cls-9" x="125.224065274553425" y="955.265167268475238" width="120.654245447768858" height="74.068529025018393" rx="27.041324679266197" ry="27.041324679266197" transform="translate(-209.258669812453604 63.20708876235858) rotate(-12.431164497052427)"/>
        <path class="cls-8" d="M185.54567076227795,1022.18096150704514c-13.712913685336389,0-26.101325471412565-9.518473097159585-29.172265075649193-23.449553065256623-3.546032676804316-16.088655908914006,6.657947674237221-32.062968321932203,22.746326722390222-35.609554720273081,16.088932769700477-3.546863259100064,32.062691461196664,6.657393952718849,35.609277859544818,22.745773000875488v.000276860757367c3.546032676800678,16.088655908937653-6.657947674240859,32.062691461194845-22.746326722419326,35.609000998756528-2.157299080085068.475646794102431-4.312936995564087.704056925140321-6.437012783866521.704056925140321ZM185.555637749830566,965.820415596972452c-1.882653201293579,0-3.791331314492709.202108358362239-5.70388547841867.623767303297427-14.256114506068116,3.142646542362854-23.298387087612355,17.297983729997213-20.156017406032333,31.554928818368353,3.142923403120221,14.256668227610135,17.29992175535881,23.298387087608717,31.554928818371991,20.155463684512142,14.256114506075392-3.14236968158184,23.298387087612355-17.297706869247122,20.156017406028695-31.554651957614624-2.720987597404019-12.343837202924988-13.700178090148256-20.779507848563298-25.851043339949683-20.779507848563298Z"/>
        <path class="cls-8" d="M185.507463976731742,1014.344140695859096c-4.155680081097671,0-8.232177983441943-1.181918605330793-11.819186053438898-3.473218295619517-4.960791185443668-3.16867145426113-8.390542340977845-8.079350841222549-9.657457201137731-13.827534042011393-2.615780506766896-11.866529244245612,4.910402526202233-23.648615955227797,16.776654909695935-26.264396461967408,5.745968314677157-1.266361138626962,11.645871214604995-.220104308096779,16.606662400052301,2.94884400691808,4.960791185418202,3.168671454255673,8.390542340966931,8.079350841242558,9.657457201130455,13.827534042036859v.000276860755548c1.266914860159886,5.748183200794301.219827447312127,11.645871214610452-2.948567146158894,16.606662400052301-3.168948314993031,4.96079118542184-8.07935084122073,8.390542340948741-13.828087763529766,9.657457201135912-1.591395676645334.350782589108348-3.195526948456973.524374288699619-4.787476346613403.524374288699619ZM185.588307320094827,973.657790129671412c-1.346650760471675,0-2.702161065393739.146736205399066-4.048811825861776.443530945363818-10.03398784140154,2.211840650767044-16.397909383329534,12.175228997102749-14.186345593323495,22.209493699265295,1.071451160143624,4.860844449307478,3.97184453321097,9.013755922745986,8.166285121409601,11.693214405413528,4.19554803124629,2.679735343448556,9.182917850081139,3.563751765757843,14.04348543863307,2.493408048665515,4.860567588504637-1.071451160141805,9.013479061992257-3.971567672448145,11.692937544659799-8.16656198216333,2.678904761127342-4.194440588173165,3.564305487274396-9.182364128570043,2.493408048645506-14.042931717098327h0c-1.071451160125434-4.860844449285651-3.97184453321097-9.013755922745986-8.166285121380497-11.693214405411709-3.033286540216068-1.937194772008297-6.480756784723781-2.93693899403479-9.994673612782208-2.93693899403479Z"/>
        <g>
          <rect class="cls-8" x="214.097312292419048" y="953.501944760888705" width="12.471421588444571" height="4.553807987625305" rx="2.276896379634968" ry="2.276896379634968" transform="translate(-200.581557059546071 69.838238437215409) rotate(-12.431164168622196)"/>
          <path class="cls-8" d="M216.007553280835054,960.724793219023923c-1.548759118824819,0-2.948567146144342-1.075050350076708-3.295750545323244-2.648726937761239l-.259141675938736-1.177488833105599c-.194356256954052-.879863510843279-.033777013315557-1.783260186708503.451836768301291-2.543242986341284.485060060102114-.759982799640056,1.237567619104084-1.285187670642699,2.117984851483925-1.479267066841203l8.908825692840765-1.963773405419488c1.818975225378381-.400340666052216,3.621338804859988.751953837458132,4.022786913941673,2.569267898241378l.259141675935098,1.17748883310378c.194356256979518.879863510843279.033777013341023,1.783260186703046-.451836768297653,2.543242986344922-.485060060094838.759982799638237-1.237567619078618,1.28518767065907-2.117984851451183,1.479267066857574l-8.90882569284804,1.963773405399479c-.243637473118724.053710988386229-.487274946241087.07945903952168-.727036368643894.07945903952168ZM224.63176610739356,954.213858610941315l-8.877263565675094,1.984537962787726.279629372551426,1.145372984385176,8.851238653744076-1.978723886722946-.253604460620409-1.151187060449956ZM224.91139547993771,955.359231595330129l.366009931192821,1.661164589386317-.366009931192821-1.661164589386317h0Z"/>
        </g>
      </g>
    </g>
  </g>
</svg>