<?xml version="1.0" encoding="UTF-8"?>
<svg id="Tracy_s_Kitchen" data-name="Tracy&amp;apos;s Kitchen" xmlns="http://www.w3.org/2000/svg" width="1080" height="1080" viewBox="0 0 1080 1080">
  <defs>
    <style>
      .cls-1 {
        fill: #ff8b7e;
      }

      .cls-1, .cls-2, .cls-3, .cls-4, .cls-5, .cls-6, .cls-7, .cls-8, .cls-9, .cls-10, .cls-11, .cls-12, .cls-13, .cls-14 {
        stroke-width: 0px;
      }

      .cls-15 {
        fill: none;
        stroke: #241f20;
        stroke-linecap: round;
        stroke-miterlimit: 10;
        stroke-width: 17px;
      }

      .cls-2 {
        fill: #42210b;
      }

      .cls-3 {
        fill: #000;
      }

      .cls-4 {
        fill: #ffcab4;
      }

      .cls-5 {
        fill: #1a1a1a;
      }

      .cls-6 {
        fill: #ffc2b0;
      }

      .cls-7 {
        fill: #b2b2b2;
      }

      .cls-8 {
        fill: #ff97b2;
      }

      .cls-9 {
        fill: #fdd133;
      }

      .cls-10 {
        fill: #f0f2e9;
      }

      .cls-11 {
        fill: #381b0a;
      }

      .cls-12 {
        fill: #e8808d;
      }

      .cls-13 {
        fill: #241f20;
      }

      .cls-14 {
        fill: #f7dcc4;
      }
    </style>
  </defs>
  <path class="cls-5" d="M540.755511632429261,501.995598523693843h-34.317504411419577c-75.13703335694845,0-113.396971098516588,49.871259651701621-131.301756008810116,124.678149129260419,0,0-63.929154745381311,244.352387996801554-73.111205050374338,327.366081699248753-7.275739474849615,65.778991419429076,61.475754564786257,120.162853596302739,136.612787921751078,120.162853596302739h146.044804139239204c75.137033356955726,0,142.610282239993467-54.28416050404303,136.612787921741983-120.162853596302739-7.460327045957456-81.946988150073594-62.666747186032808-322.116475420123606-62.666747186032808-322.116475420123606-16.412719501106039-66.932480058863803-42.736133969134244-129.927755408385565-117.873167326095427-129.927755408385565Z"/>
  <rect class="cls-4" x="623.951199998141419" y="546.16626066700951" width="101.165004500482496" height="315.046845430812482" rx="50.582451467790762" ry="50.582451467790762" transform="translate(-182.305535728544442 238.930168976445657) rotate(-17.735981224889333)"/>
  <g>
    <path class="cls-4" d="M755.289461009684601,790.138743458086537l-30.273187010354377-94.653800514126488c-8.008679449743795,20.988755747175674-36.442424794293402,90.578689155807297-69.678087548543772,114.231934821840696l3.594764416397084,11.239963239973804c8.474903105161502,26.498079089435123,37.089302356147527,41.244187003043407,63.587381445568099,32.769128696931148h0c26.49807908942239-8.474903105163321,41.244342203992346-37.08914715519677,32.769128696932967-63.58722624461916Z"/>
    <path class="cls-3" d="M702.862579917411495,626.218137914347608l-12.728029953745136-39.795696531651629c-8.474903105172416-26.497923888473451-37.089302356147527-41.24403180209265-63.587381445569918-32.769128696929329-26.498079089429666,8.474903105161502-41.244342203994165,37.089302356147527-32.769439098830844,63.587226244620979l48.686538184263554,152.2246619110756c.000620803799393-.000620803799393,65.177570384797946-100.685064653041991,60.398312313882343-143.247062927115621Z"/>
    <g>
      <path class="cls-10" d="M702.862579917411495,626.218137914347608c4.779258070915603,42.56199827407363-60.39769151008295,143.246442123316228-60.398312313882343,143.247062927115621l3.38617433886975,10.586722439158621c15.464533113670768-24.065614591620033,61.717520393476661-99.052971457171225,62.633826805453282-136.256656913867118l-5.621688830440689-17.577128452407123Z"/>
      <path class="cls-10" d="M711.383732905833313,652.861174691573979c-6.968522679228045,42.178186323382761-51.30291580845369,112.418877317637453-64.023185714682768,131.913047911113608l7.977639259635907,24.942655163113159c33.23566275425037-23.653245666033399,61.669408098799977-93.243179074665022,69.678087548543772-114.231934821840696l-13.632541093496911-42.623768252386071Z"/>
      <path class="cls-3" d="M708.484268747852184,643.795266366754731c-.91630641197662,37.203685456695894-47.169293691782514,112.191042322247085-62.633826805453282,136.256656913867118l1.510105248751643,4.722299322065737c12.720269906229078-19.494170593476156,57.054663035454723-89.734861587730848,64.023185714682768-131.913047911113608l-2.899464157981129-9.065908324819247Z"/>
    </g>
  </g>
  <path class="cls-4" d="M684.658329169686112,845.796164391340426l.000084741041064.000055256807173c23.303762310459206,15.195606310442599,54.803245781104124,8.561660527138883,69.998852156995781-14.742101740655926l114.076571307778067-171.869868238845811c6.361589593447206-9.756041836284567,3.609842422640213-22.821963693573707-6.146199351929681-29.183553381628371l-46.239189129646547-30.151034153790533c-11.507942113821628-7.503945511261918-26.920122208908651-4.258064860261584-34.424067611676946,7.249877324296904l-112.008153811319062,168.697772928702761c-15.195606393521302,23.303762281053423-8.561660629071412,54.803245683346177,14.742101698757324,69.998852005113804Z"/>
  <g>
    <rect class="cls-10" x="468.670598332275404" y="527.777963244099737" width="11.442655681381439" height="546.424719704406016"/>
    <rect class="cls-10" x="558.64865980948889" y="527.777963244099737" width="11.442655681392353" height="546.424719704406016"/>
  </g>
  <g>
    <circle class="cls-6" cx="335.226876986214847" cy="275.276615070398293" r="47.796538757422695"/>
    <circle class="cls-6" cx="694.495959597688397" cy="275.054305591115281" r="47.796538757419967"/>
    <rect class="cls-4" x="346.479174230725334" y="49.243046431125435" width="330.112162429087903" height="432.671281026307724" rx="165.055916197212809" ry="165.055916197212809"/>
    <path class="cls-11" d="M568.28561960292609,78.659714309220362c20.751540872401165-29.634013127084472,47.821721581693055-61.187221793345088,83.904507794150049-71.568718908691153,38.370818161611169-11.039794313912353,77.24344682582705,10.914515809216027,97.409955333791004,43.446890917968631,18.782020373349951,30.299005897366442,21.388376384507865,65.218566477051354,22.814739266672404,99.868662778124417.309878840706006,7.527769970809459-1.173124651291801,57.728278984490316,12.482231816069543,55.452386239923726l-94.212727720248949.044409961461497h-25.711516283623496l-96.687190206810556-127.243630988787118Z"/>
    <path class="cls-11" d="M471.557551332876756,78.659714309220362c-20.751540872397527-29.634013127084472-47.821721581691236-61.187221793345088-83.90450779414823-71.568718908691153-38.370818161612988-11.039794313912353-77.243446825836145,10.914515809216027-97.409955333800099,43.446890917968631-18.782020373340856,30.299005897366442-21.388376384507865,65.218566477051354-22.814739266672404,99.868662778124417-.309878840695092,7.527769970809459,1.173124651291801,57.728278984490316-12.482231816060448,55.452386239923726l94.212727720250768.044409961461497,122.398706490430413-127.243630988787118Z"/>
    <path class="cls-2" d="M335.028463024271332,231.143774914484311c135.433366714660224-15.786711457547426,176.306782176454362-136.231515465946359,176.306782176454362-136.231515465946359,0,0,93.742824921731881,126.260960861187414,176.306782176454362,136.231515465946359,0,0,27.057133796817652-176.463692216942945-176.272362891424564-195.827079309501642,0,0-190.930579390967978,2.689359318415882-176.341201461484161,195.827079309501642"/>
    <path class="cls-15" d="M396.992647644081444,234.87725938411495c5.114190647800569-2.938299835102953,15.851492676025373-8.171910087008655,30.31192360573732-8.395211441104038,10.879220495366098-.167949198799761,19.477328003300499,2.567688966426431,24.569215747162161,4.643890493527579"/>
    <path class="cls-15" d="M564.369442794239148,227.482658918155721c5.11419064778238-2.938299835106591,15.851492676025373-8.171910087010474,30.311923605733682-8.395211441107676,10.879220495369736-.167949198796123,19.477328003285947,2.567688966439164,24.569215747154885,4.643890493520303"/>
    <path class="cls-1" d="M514.552006917183462,349.419644523331954h.000019898681785c5.472131539319889.000000863859896,9.949331070198241-6.115493454864918,9.949332290862003-13.589987374916745l.00000483882468-29.629669259278671c.000001220671038-7.474494143618358-4.477196446701782-13.589990094131281-9.949328149697976-13.5899910011467h-.000019931185307c-5.472131651744348-.000000907011781-9.949331224574053,6.115493502040408-9.949332384039735,13.589987575673149l-.00000459624971,29.629669448628192c-.000001159454769,7.474493972227719,4.477196455303783,13.58998974719907,9.94932803280426,13.589990611040776Z"/>
    <g>
      <g>
        <g>
          <ellipse class="cls-13" cx="601.200278189751316" cy="274.645073343689546" rx="13.324718624043726" ry="21.950100013203155"/>
          <path class="cls-13" d="M601.200368633062681,303.734094641231422c-11.474672987351369,0-20.463179057691377-12.77719550141228-20.463179057691377-29.089180270597353,0-16.311250953682247,8.988506070340009-29.088446455094527,20.463179057691377-29.088446455094527,11.474672987342274,0,20.463179057687739,12.77719550141228,20.463179057687739,29.088446455094527,0,16.311984769185074-8.988506070345466,29.089180270597353-20.463179057687739,29.089180270597353ZM601.200368633062681,259.833582300760099c-1.795646530663362,0-6.186064672459906,5.190277037756459-6.186064672459906,14.81133206987397,0,9.621788847611242,4.390418141796545,14.812065885374977,6.186064672459906,14.812065885374977,1.795646530654267,0,6.186064672458087-5.190277037763735,6.186064672458087-14.812065885374977,0-9.621055032117511-4.390418141803821-14.81133206987397-6.186064672458087-14.81133206987397Z"/>
        </g>
        <g>
          <path class="cls-13" d="M605.313549492298989,253.675303758918744s10.023046763448292,5.130831708445839,18.422894642955725-3.477921895126201"/>
          <path class="cls-13" d="M612.217140747849044,260.058863659540293c-3.794559955065779,0-7.092326816054992-.992852372706693-9.129398646511618-2.035604199467343-2.40104431889813-1.229140963989266-3.351335392546389-4.172474938026426-2.122194428558942-6.573519256931831,1.222536624487475-2.388569455375546,4.141654686998663-3.34032816002582,6.535360850879442-2.141273631579679.747757995408392.360303410934648,7.157636395646477,3.197967952859472,12.739770910890002-2.522123876542537,1.883704390755156-1.930668582826911,4.976736726988747-1.9688269888793,6.906671494325565-.085122598102316,1.93066858282873,1.883704390771527,1.968826988870205,4.976002911509568.085122598091402,6.906671494329203-4.789613774262762,4.909225700928801-10.288093322407803,6.450972068294504-15.015332779115852,6.450972068294504Z"/>
        </g>
        <g>
          <path class="cls-13" d="M601.200278189755409,255.192564797163868s11.067996774707353-2.070349689704017,12.448998786199809-14.018609665528857"/>
          <path class="cls-13" d="M601.194498109060078,260.077209047052747c-2.304914488287977,0-4.355928813263745-1.638610013478683-4.79548429829083-3.986819616306093-.493124016602451-2.637332910187979,1.233543856991673-5.176334543244593,3.861337165646546-5.691473024866355.813067574998058-.171712827210285,7.619206345709244-1.844812169229044,8.537209537307717-9.785429704308626.309670141381503-2.679160393727216,2.736398002809437-4.59735411305337,5.412623134530804-4.291353049184181,2.679894209231861.309670141370589,4.601023190565684,2.73346274080177,4.291353049184181,5.412623134527166-1.419199178721101,12.281136222829446-11.350658167693837,17.313642927896581-16.402977891284536,18.258797293035968-.303799617380719.056503793572119-.606131603743052.08365496710212-.904060697093882.08365496710212Z"/>
        </g>
      </g>
      <g>
        <g>
          <ellipse class="cls-13" cx="425.056167218399423" cy="280.405582443105686" rx="13.324718624038724" ry="21.950100013216343"/>
          <path class="cls-13" d="M425.056029616009255,309.494546323181567c-11.474672987353188,0-20.463179057689558-12.77719550141228-20.463179057689558-29.089180270593715,0-16.311250953684066,8.988506070336371-29.088446455116355,20.463179057689558-29.088446455116355,11.474672987351369,0,20.463179057698653,12.777195501432288,20.463179057698653,29.088446455116355,0,16.311984769181436-8.988506070347285,29.089180270593715-20.463179057698653,29.089180270593715ZM425.056029616009255,265.594033982713881c-1.795646530672457,0-6.186064672458087,5.190277037765554-6.186064672458087,14.81133206987397,0,9.621788847607604,4.390418141785631,14.812065885371339,6.186064672458087,14.812065885371339,1.795646530654267,0,6.186064672476277-5.190277037763735,6.186064672476277-14.812065885371339,0-9.621055032108416-4.390418141822011-14.81133206987397-6.186064672476277-14.81133206987397Z"/>
        </g>
        <g>
          <path class="cls-13" d="M420.94289591584311,259.435812858349891s-10.023046763444654,5.13083170844402-18.422894642942993-3.477921895135296"/>
          <path class="cls-13" d="M414.039257501213797,265.819315341483161c-4.727973272205418,0-10.224985189342988-1.541012551866515-15.015332779115852-6.450972068278134-1.883704390778803-1.93066858282873-1.845545984726414-5.022967103566771.085122598102316-6.906671494345574,1.931402398344289-1.885172021768085,5.025168550053422-1.844812169216311,6.90667149433466.085122598111411,5.59974608725679,5.738437216925377,12.030905137022273,2.864815715463919,12.74637525037906,2.51845479903568,2.402511949892869-1.22840714848644,5.321630012425885-.267842657824076,6.550770976406056,2.133935476573242,1.229874779488455,2.401044318894492.256835425303507,5.355385525463134-2.144208893585528,6.584526489445125-2.03707183046572,1.04275182676065-5.335572506932294,2.035604199458248-9.129398646520713,2.035604199458248Z"/>
        </g>
        <g>
          <path class="cls-13" d="M425.056167218395785,260.953073896591377s-11.067996774692801-2.070349689704017-12.448998786187076-14.018609665537952"/>
          <path class="cls-13" d="M425.064101586516699,265.838394544503899c-.299396724367398,0-.601728710711541-.027151173530001-.906262143578715-.084388782594033-5.053053539111716-.945154365148483-14.98377871259072-5.97766107021198-16.402977891302726-18.25879729303233-.309670141385141-2.679160393736311,1.611458839950501-5.102952993167492,4.291353049184181-5.412623134548994,2.676958947216917-.312605403360067,5.102952993156578,1.611458839950501,5.41262313451989,4.291353049193276.920938453606141,7.965567262106561,7.767437076883652,9.625457925105366,8.544547692308697,9.788364966316294,2.652009220211767.49605927859011,4.374274200768923,3.042399066664075,3.878214922186089,5.69440828686129-.438821669533354,2.346741971838128-2.508915197522583,3.981682907804498-4.817498763317417,3.981682907804498Z"/>
        </g>
      </g>
    </g>
    <g>
      <path class="cls-12" d="M537.211592667470541,425.376217919854753s-32.608257229352603-29.065554587567021-13.864139112019984-42.214792629967633c19.241136149641534-13.497902534227251,31.068282176171124,25.214411988237771,32.614692884193573,26.497416673875705,1.546410708033363,1.283004685643391-18.750553772173589,15.717375956091928-18.750553772173589,15.717375956091928Z"/>
      <path class="cls-13" d="M512.432686112933879,439.067646565870746c-9.998954906361178,0-19.351219823965948-2.194373324868138-27.614352936636351-6.5393936052551-10.844139598095353-5.701688424078384-19.501960728821359-15.135652610730176-23.754350147837613-25.882558571720438-1.915330046789677-4.840969364295233.456250143328361-10.318272471984528,5.297219507623595-12.233602518781481,4.840969364304328-1.917056087690071,10.318272471993623.456250143317448,12.233602518792395,5.297219507621776,4.007866958840168,10.128407973501453,18.358170962210352,25.521240677626338,46.724502382232458,18.961709928582422,12.219794191623805-2.824953598599677,20.318953419251557-9.064016088081189,25.487295206696217-19.634290530788348,2.288154880172442-4.677570826213923,7.934034648640591-6.613038016781502,12.609304086996417-4.32775987142486,4.676995479241668,2.287004186247941,6.614188710716917,7.932308607742016,4.327759871432136,12.609304086983684-7.751649660709518,15.852534929234025-20.239555538069908,25.574172598424411-38.177147868798784,29.721273522818592-5.858182798589041,1.354366755833325-11.596118081470195,2.028098051963752-17.133832620500471,2.028098051963752Z"/>
    </g>
  </g>
  <path class="cls-10" d="M517.718661518772933,499.996046929083604h-10.788949277710344c-31.342521559565284,0-56.22371714626388,8.737658314435976-75.86408703514644,24.372757272736635,19.910419542813543,17.818000327650225,61.594911642534498,20.301370737235629,61.594911642534498,20.301370737235629l25.058124670322286-44.674128009972264Z"/>
  <path class="cls-10" d="M519.041594421714763,499.996046927133648l10.788949277710344.000000000489308c32.537568878176899-.857423510302397,54.665537602168115,3.968547111853695,77.507789552064423,23.98524434027604-19.910419543624812,17.81800032675892-63.238614161462465,20.688883670329233-63.238614161462465,20.688883670329233l-25.058124668312303-44.674128011094581Z"/>
  <circle class="cls-10" cx="517.718661518771569" cy="561.56349875490605" r="7.535889028068596"/>
  <circle class="cls-10" cx="517.718661518771569" cy="617.121233745881909" r="7.535889028068823"/>
  <circle class="cls-10" cx="517.718661518771569" cy="672.678968736854586" r="7.535889028066094"/>
  <circle class="cls-10" cx="517.718661518771569" cy="728.2367037278309" r="7.535889028066094"/>
  <circle class="cls-10" cx="517.718661518771569" cy="783.794438718808578" r="7.535889028066321"/>
  <circle class="cls-10" cx="517.718661518771569" cy="839.352173709781709" r="7.535889028068822"/>
  <g>
    <rect class="cls-9" x="667.768529732544152" y="534.772912387267411" width="11.256454318389274" height="163.037031901799992" transform="translate(-239.250708483461608 597.505242465766059) rotate(-41.28546509909264)"/>
    <rect class="cls-7" x="612.108492739431654" y="550.063491521866354" width="11.256454318388137" height="5.678044206606955" transform="translate(-211.261330871515156 545.023649274825857) rotate(-41.285465099052594)"/>
    <path class="cls-8" d="M610.032111461552518,540.993027555471599h4.378420562048859c1.898045084550972,0,3.439016878170946,1.540971793619974,3.439016878170946,3.439016878170946v7.817437440212984h-11.256454318394276v-7.81743744020946c0-1.898045084552905,1.540971793621566-3.439016878174471,3.439016878174471-3.439016878174471Z" transform="translate(-208.487840769648756 539.82320568991554) rotate(-41.285465099042163)"/>
    <polygon class="cls-3" points="733.401091052395714 684.627729617468503 732.884170465991701 681.821529291171828 730.685067588974562 683.752500156348106 733.401091052395714 684.627729617468503"/>
    <polygon class="cls-14" points="722.95445754038883 681.260448134287799 730.685067588974562 683.752500156348106 732.884170465991701 681.821529291171828 731.412811899135704 673.833403222088236 722.95445754038883 681.260448134287799"/>
  </g>
  <circle class="cls-10" cx="517.718661518771569" cy="894.909908700757114" r="7.535889028069278"/>
  <circle class="cls-10" cx="517.718661518771569" cy="950.467643691735248" r="7.535889028069278"/>
  <circle class="cls-10" cx="517.71866151876975" cy="1006.025378682713381" r="7.535889028069278"/>
  <g>
    <path class="cls-4" d="M416.929764118460298,839.510793159230161l.000067469769419.000075380288763c18.55416880562916,20.729558820601596,50.695400542448624,22.509423425915884,71.424959415151534,3.95525467848347l154.821648910428848-136.319377780400828c8.678360227238954-7.767640454665525,9.416644538052424-21.099758169013512,1.649004167564271-29.778118471571361l-36.815073211188064-41.131470389063907c-9.162481855864826-10.236740505248235-24.888658814466908-11.107599133634722-35.125399233338612-1.945117181257956l-151.999952838918034,133.793794505907499c-20.729558893177455,18.554168755654246-22.5094234989283,50.695400421556769-3.955254679469363,71.424959257614319Z"/>
    <g>
      <path class="cls-4" d="M500.883590941200964,788.747560475667342l-33.517695177386486-93.55411222136172c-7.280487262691167,21.252325038947674-33.298734696265456,91.780954024785387-65.699376962169481,116.56570114895294l3.980043814601231,11.109381444495739c9.383194513031412,26.190224107516769,38.488855470075578,39.941298369119977,64.67907422818098,30.557948747356932h0c26.190224107516769-9.383194513029594,39.941458827268434-38.488705710753493,30.557954096773756-64.67891911944389Z"/>
      <path class="cls-5" d="M442.837899638137969,626.73138688785366l-14.09213211849783-39.333344903501711c-9.383189163612769-26.190068998790593-38.488850120658753-39.94114326039562-64.679074228177342-30.557948747364208-26.190224107516769,9.38319451303505-39.941453477855248,38.488860819494221-30.55826431424066,64.678929818275719l53.904438915315041,150.456100439747388c.000599037266511-.000641832597466,61.668463015359521-102.87175800372097,55.425031745600791-145.243736607157189Z"/>
      <path class="cls-10" d="M442.837899638137969,626.73138688785366c6.24343126975873,42.371978603436219-55.42443270833428,145.243094774559722-55.425031745600791,145.243736607157189l3.749061989268739,10.463718404924293c14.625858597835759-24.584341568812306,58.26672339173092-101.121374709824522,57.900160941562717-138.334537179183826l-6.224191185230666-17.372917832897656Z"/>
      <path class="cls-10" d="M452.272312907314699,653.064888425467871c-5.510598209326417,42.393313355243663-47.397615375290115,114.120371558021361-59.438408399964828,134.041397057517315l8.832614294295126,24.652863920273376c32.400642265904025-24.784747124167552,58.418889699478314-95.313376110005265,65.699376962169481-116.56570114895294l-15.093582856499779-42.128559828837751Z"/>
      <path class="cls-5" d="M449.062090823368635,644.104304720751315c.366562450168203,37.213162469359304-43.274302343726958,113.75019561037152-57.900160941562717,138.334537179183826l1.671974625543953,4.667443583050044c12.040793024674713-19.921025499495954,53.927810190638411-91.648083702273652,59.438408399964828-134.041397057517315l-3.210222083946064-8.960583704716555Z"/>
    </g>
    <path class="cls-4" d="M644.221491606329437,651.739769594709287l-11.295214061014121-12.334877782186595c-15.974561756787807-17.444934272994942-14.93794155064279-44.049588325915465,2.303600458051733-59.121453450954505l.000062696581153-.000054806820117c17.241542008689066-15.071865125049953,44.418354180425013-13.130263094886686,60.392915937185535,4.314671178088247l11.295214061030492,12.334877782208423c15.97456175676416,17.444934272993123,14.937941550637333,44.049588325922741-2.30360045807538,59.121453450936315l-.000062696566602.000054806838307c-17.241542008694523,15.071865125029944-44.418354180428651,13.130263094884867-60.392915937192811-4.314671178110075Z"/>
  </g>
  <path class="cls-10" d="M752.041561026366253,586.711390595588455s60.688703263322168,13.185126487007437,76.362890196356602,30.409843150289817c0,0,92.164219166208568-51.04380739213957,90.283316734250548-126.315370156969948l-83.308902181770463-35.772611693586441s-7.347097956158905,105.987440592931307-83.337304748836686,131.678138700266572Z"/>
  <path class="cls-4" d="M855.344171282291427,605.409330356693317l-14.112649825272456-8.975755427554759c-19.959196432017052-12.694204697349051-25.872040089952861-38.654183098809881-13.139652573227067-57.688840892131338l.000046299641326-.000069216992415c12.73238751671488-19.034657793323277,39.480047111130261-24.222301235466148,59.439243543120028-11.528096538117097l14.11264982528337,8.975755427558397c19.959196431998862,12.694204697365421,25.872040089952861,38.654183098826252,13.139652573210697,57.688840892129519l-.000046299624955.00006921700151c-12.732387516723975,19.034657793323277-39.480047111141175,24.222301235466148-59.439243543130942,11.528096538106183Z"/>
</svg>