<?xml version="1.0" encoding="UTF-8"?>
<svg id="Tracy_s_Kitchen" data-name="Tracy&amp;apos;s Kitchen" xmlns="http://www.w3.org/2000/svg" width="542.663499855707414" height="1080" xmlns:xlink="http://www.w3.org/1999/xlink" viewBox="0 0 542.663499855707414 1080">
  <defs>
    <style>
      .cls-1 {
        fill: #a67c52;
      }

      .cls-1, .cls-2, .cls-3, .cls-4, .cls-5, .cls-6, .cls-7, .cls-8, .cls-9, .cls-10, .cls-11 {
        stroke-width: 0px;
      }

      .cls-2 {
        fill: #ffcab4;
      }

      .cls-3 {
        fill: #ec1c24;
      }

      .cls-4 {
        fill: none;
      }

      .cls-5 {
        fill: #f8af94;
      }

      .cls-12 {
        clip-path: url(#clippath-1);
      }

      .cls-6 {
        fill: #f59182;
      }

      .cls-7 {
        fill: #f1f1f2;
      }

      .cls-13 {
        clip-path: url(#clippath);
      }

      .cls-8 {
        fill: #fdd133;
      }

      .cls-9 {
        fill: #231f20;
      }

      .cls-10 {
        fill: #f7a991;
      }

      .cls-11 {
        fill: #be1e2d;
      }
    </style>
    <clipPath id="clippath">
      <rect class="cls-4" x="1.973334762152263" y="-1114.14002734666974" width="542.663499855707414" height="1080"/>
    </clipPath>
    <clipPath id="clippath-1">
      <rect class="cls-4" x="1.973334762152263" width="540.690165093556061" height="1080"/>
    </clipPath>
  </defs>
  <g class="cls-13">
    <rect class="cls-2" x="175.314114520507701" y="-195.218832784094161" width="181.72872767327226" height="238.188138095833665" rx="90.864273038235169" ry="90.864273038235169"/>
  </g>
  <g class="cls-12">
    <g>
      <rect class="cls-1" x="88.862079389291011" y="322.285730684813473" width="358.631954439863875" height="577.508672238884628" rx="179.315797911721745" ry="179.315797911721745"/>
      <circle class="cls-10" cx="99.345540649855138" cy="565.491414028889267" r="45.761496969035306"/>
      <circle class="cls-10" cx="443.317959205837724" cy="565.27856986011102" r="45.761496969039847"/>
      <rect class="cls-5" x="110.118746481554126" y="349.081717083037574" width="316.056918043497262" height="394.044971957363487" rx="158.028300952696128" ry="158.028300952696128"/>
      <path class="cls-1" d="M110.11874673352213,522.890498164610108c121.392529376640596-14.150049436531845,158.028458967182814-122.107931334701789,158.028458967182814-122.107931334701789,0,0,84.024187718343455,113.17105800635909,158.02845896719009,122.107931334701789,0,0,24.252028794322541-158.169101610565122-157.997608046392997-175.525020565273735,0,0-171.136157431912579,2.410544299262256-158.059309887979907,175.525020565273735"/>
      <path class="cls-3" d="M428.860796693530574,522.793635775451548l-19.036946194319171-3.04103864163153,9.518473097163223,1.520519320818494-9.521241704813292-1.501969649561943c.03820678554257-.246682941531617,3.748694756701298-25.008556032375054-4.27196160236781-54.021626168218063-4.623574773770088-16.723774503627283-12.211774618073832-31.626358895715384-22.554185351575143-44.293569472063609-12.934381214439782-15.842249828165222-30.340617503508838-28.328947185773359-51.735309971696552-37.113739255946712-43.192494210037694-17.735146877783336-91.659462852156139-16.875217342010728-132.972626190061419,2.359130577677206-22.83962880018953,10.633391397397645-40.557333449774887,25.445996040914906-52.660578648014052,44.026121973141926-15.461289415670763,23.734996513845545-21.870339262266498,53.944382014829898-19.049128067967104,89.789268385284231l-19.219120577628928,1.512767219393936c-7.169586367774173-91.098819803242804,41.065372953347833-133.378504071428324,82.791889413259923-152.805270222717809,46.175945812581631-21.497961533488706,100.278138463399955-22.487738767997143,148.431977580410603-2.715727242879439,24.570285441539454,10.088806272846341,44.64490578269033,24.606277340993984,59.666817164456006,43.149303930729729,12.04510443763138,14.868807378799829,20.824913014039339,32.275597389410905,26.095788256148808,51.737524857835524,8.907164528260182,32.892166312822155,4.699434623351408,60.249885935343627,4.516152797004906,61.398304388138058Z"/>
      <g>
        <path class="cls-7" d="M268.147207208632608,688.60518405183393c-41.9264261094213.855285771278432-61.664917452882946-25.476449532861807-67.988318471958337-37.028067724482753-1.970848750250298-3.600355601010961,1.346877213938569-7.62334826053484,6.289869728239864-7.62334826053484h123.39689447157798c4.942992514308571,0,8.260718478490162,4.022992659523879,6.28986972824714,7.62334826053484-6.323401019075391,11.551618191620946-22.167936542711686,34.507533004136349-64.983157639435376,36.882273129900568-1.001909954560688.055570792610524-2.000807780248579.145794594582185-3.005157816671272.145794594582185"/>
        <path class="cls-7" d="M266.162183897977229,694.012084889151083c-45.347855264764803,0-65.560352266835253-30.407894669386224-70.728235304399277-39.848569891619263-1.699371374932525-3.104162896017442-1.636523981313076-6.774782917007542.167500762763666-9.819143887834798,2.111893914629036-3.563474904976829,6.268404578047921-5.777253581100013,10.847404768672277-5.777253581100013h123.396566053808783c4.579277051383542,0,8.735510854032327,2.213778676123184,10.847404768675915,5.777530441881026,1.804024744073104,3.044084110046242,1.867148998451739,6.714704131036342.167777623519214,9.818867027053784-13.419994996082096,24.515743870875667-36.77264679361906,37.864031928855184-69.410101202727674,39.674147609752254-.26024911901186.014396759765077-.521051959553006.031562127205689-.7815779393095.048450633839821-.743094293000468.048450633861648-1.583089853680576.103269065326458-2.462676503757393.105760812199151-.685507253885589.013566177487519-1.36963020395342.020210835828038-2.044063027246011.020210835828038ZM205.219592328874569,649.593928072923518c5.016993920704408,8.866465995810358,23.011282474402833,34.446739507711754,62.817769529767247,33.625847339781103l.10991372366334-.001107443053115c.550122339838708,0,1.167244984793797-.040144810900529,1.820913250710873-.082781368695578.295133575389627-.019380253552299.589990290005517-.038483646323584.885400726147054-.05481843146481,28.394286326325528-1.574784030723094,48.652188493815629-12.841355997457867,60.222753580394055-33.486586375052866-.260802840537508-.129017116436444-.665573278816737-.254158182167885-1.230922960734461-.254158182167885h-123.396566053808783c-.564242238862789,0-.968458955601818.124587344191241-1.229261796139326.25360446065315Z"/>
      </g>
      <g>
        <ellipse class="cls-9" cx="338.402029318137465" cy="566.131907059296282" rx="10.054548550232539" ry="16.563077427188546"/>
        <path class="cls-9" d="M338.402078978720965,588.081557049621551c-8.658543561381521,0-15.44107857981362-9.641399276752054-15.44107857981362-21.949521441025354,0-12.308399025014296,6.7825350184321-21.94979830178454,15.44107857981362-21.94979830178454,8.658543561410625,0,15.441078579842724,9.641399276770244,15.441078579842724,21.94979830178454,0,12.3081221642733-6.7825350184321,21.949521441025354-15.441078579842724,21.949521441025354ZM338.402078978720965,554.955443390483197c-1.354956583407329,0-4.667872496167547,3.91647238022415-4.667872496167547,11.176592218113001,0,7.259842977131484,3.312915912760218,11.176315357375643,4.667872496167547,11.176315357375643,1.354956583403691,0,4.667872496163909-3.916472380244159,4.667872496163909-11.176315357375643,0-7.260119837888851-3.312915912760218-11.176592218113001-4.667872496163909-11.176592218113001Z"/>
      </g>
      <g>
        <ellipse class="cls-9" cx="197.392750319703737" cy="564.850920998477704" rx="10.054548550232539" ry="16.563077427204007"/>
        <path class="cls-9" d="M197.392738505226589,586.800522290457593c-8.658543561388797,0-15.441078579835448-9.641399276775701-15.441078579835448-21.949521441028992,0-12.308399025034305,6.782535018446652-21.949798301808187,15.441078579835448-21.949798301808187s15.441078579835448,9.641399276773882,15.441078579835448,21.949798301808187c0,12.308122164253291-6.782535018446652,21.949521441028992-15.441078579835448,21.949521441028992ZM197.392738505226589,553.674408631295591c-1.354679722648143,0-4.667872496163909,3.916472380245978-4.667872496163909,11.17659221813301,0,7.259842977129665,3.313192773515766,11.176315357355634,4.667872496163909,11.176315357355634s4.667872496163909-3.916472380225969,4.667872496163909-11.176315357355634c0-7.260119837887032-3.313192773515766-11.17659221813301-4.667872496163909-11.17659221813301Z"/>
      </g>
      <rect class="cls-6" x="256.898434799088136" y="569.601667252280208" width="21.99791003745122" height="57.210083712715686" rx="10.998944049486905" ry="10.998944049486905"/>
      <path class="cls-1" d="M174.230013192427577,529.438294132984083c-2.560962075309362,0-5.03360556660482-1.392332786672341-6.295536933001131-3.822062859399011-1.80430160483229-3.473772017157899-.451006186027371-7.752378277888056,3.022765831137804-9.556679882723984,5.609752818356355-2.913959550545769,14.67528170413425-6.318516376477419,25.988920000887447-6.017568725023011,7.154082164928695.192971953121742,14.106886553803633,1.814545453131359,20.665718074207689,4.819315334549174,3.558768271992449,1.63043304448729,5.121924150582345,5.837055506333854,3.491491106113244,9.395823778302656-1.6307099052392,3.558491411233263-5.837886088629602,5.121370429063973-9.395823778319027,3.491491106115063-4.813501258482574-2.205472853154788-9.908569914896361-3.395143559933786-15.14373011833959-3.536342550025438-8.282566642654274-.2214886119109-14.946328392961732,2.283824449648819-19.072661232989049,4.426726769943343-1.0440419444094.542370238437798-2.160621409246232.799297028261208-3.261142949697387.799297028261208Z"/>
      <path class="cls-1" d="M316.501285032318265,529.225388204771662c-2.560962075309362,0-5.033882427364006-1.39233278667416-6.295813793756679-3.822062859399011-1.804578465591476-3.47349515640235-.451283046786557-7.752378277893513,3.022765831159631-9.556679882723984,5.60975281833089-2.913682689770212,14.679157754817425-6.321008123355568,25.988366279347247-6.01756872502483,7.15463588644343.193248813900937,14.107717136073916,1.814822313908735,20.665994934963237,4.81931533457464,3.558768271996087,1.630433044463643,5.121924150582345,5.837055506308388,3.491767966876068,9.39554691754347-1.631263626779401,3.558768271966983-5.837886088607775,5.121370429060335-9.395546917541651,3.491767966874249-4.813501258504402-2.205195992402878-9.908846775677375-3.395143559937424-15.144283839876152-3.536342550049085-8.290872465593566-.220104308073132-14.947158975232014,2.283824449648819-19.072384372208035,4.426726769941524-1.04376508367568.542370238439617-2.160621409246232.799297028263027-3.260866088963667.799297028263027Z"/>
      <path class="cls-11" d="M409.86690987323891,430.574392937285666c-7.681546366704424,2.521489070913958-16.354463600870076,3.816105841111494-24.475096001246129,4.741593621694847-.037836517520191.005106530141347-.077248153349501.009481805880569-.114402322466049.013118560804287-.021200213417615-.030727989178558-.043293196744344-.063657007947768-.063811061758315-.095854772323946-4.53386798181964-6.800385587983328-9.142198199962877-14.26086977144405-12.17355639712332-21.755863732510988-2.971961762985302-7.345443834341495-3.920637841558346-15.887655168924539.02022210607538-22.445603286019832,3.254968148623448-5.414588653035025,9.88910318840135-8.809132033382411,16.565198637581489-8.107163588940239,3.681789496404235.386869720965478,7.242616336003266,2.067858322880056,9.980696526672546,4.551690741614948,2.292595628379786,2.080110384333238,3.438526183497743,4.49033818326825,4.606694761976541,7.065937771967583,2.721248525718693-.769923558254959,5.301972850989841-1.4500382808219,8.3704048481668-1.041272100184869,3.662900537710811.487846154979707,7.245010149141308,2.122991768324937,9.91814792241712,4.686420135434673,4.844769794377498,4.646635128594426,6.53175969028598,11.904291011474925,4.496458141442417,17.885114317503394-2.464599077040475,7.243307593194913-9.60355539829834,12.030806183831373-17.130957161738479,14.501882330960143Z"/>
      <path class="cls-3" d="M343.222191328481131,425.388348014099392l-.079548032881576.160387041745707c-.027667249636579-.044382021049387-.053292726712243-.087816141769508-.079929631076084-.13441752151266.051757704062766-.007508699382015.106689614611241-.016241462159087.159477663957659-.025969520233048Z"/>
      <path class="cls-3" d="M343.062713664523471,425.41431753433244c-.05278804934278.009728058104884-.102503980797337.018184657765232-.154261684820085.025693357150885l.071176765228302-.164273432979826c.026636904367479.046601379743151.055417669940653.094198054808658.083084919591784.138580075828941Z"/>
      <path class="cls-8" d="M100.913399483430112,610.481572593813326c-2.303380040681077,2.308000411900139-5.158979109532083,4.325352864159868-7.879821382633963,6.105550450476585-.012546767247841.008595664456152-.025770866392122.017191328890476-.038317633639963.025109661448369-.012546767244203-.007918332557892-.025770866384846-.016513996992217-.038317633625411-.025109661448369-2.720842273112794-1.780197586316717-5.5764413419638-3.797550038576446-7.879821382633963-6.105550450476585-2.257805279477907-2.261756382258682-3.996387270843115-5.333359821852355-3.679299176339555-8.513287985810166.262224209949636-2.625725520931155,2.0516706022172-5.080368290842671,4.528770150267519-5.989299330085487,1.366049442163785-.50136269075665,2.901851161950617-.49079953837645,4.278447629531001-.031044379098603,1.152689891267073.385103506880114,1.953941284136818,1.097188992187512,2.790220412800409,1.868057210926054.836246874787321-.770868218738542,1.637530521547887-1.48295370404594,2.790188158902311-1.868057210926054,1.37595138958568-.459755159277847,2.911753109372512-.470318311658048,4.278447629541915.031044379098603,2.477099548046681.908931039242816,4.265900862304989,3.363573809154332,4.528157326167275,5.989299330085487.317733172501903,3.179928163957811-1.421526150792488,6.251531603551484-3.678654098337574,8.513287985810166Z"/>
      <path class="cls-8" d="M450.978980671967292,610.481572593813326c-2.303380040681077,2.308000411900139-5.158979109524807,4.325352864159868-7.879821382637601,6.105550450476585-.012546767218737.008595664456152-.025770866388484.017191328890476-.038317633629049.025109661448369-.012546767244203-.007918332557892-.025770866388484-.016513996992217-.038317633632687-.025109661448369-2.720842273112794-1.780197586316717-5.576441341927421-3.797550038576446-7.879821382612135-6.105550450476585-2.257805279477907-2.261756382258682-3.996387270864943-5.333359821852355-3.679299176365021-8.513287985810166.26222420996055-2.625725520931155,2.051670602220838-5.080368290842671,4.528770150271157-5.989299330085487,1.366049442163785-.50136269075665,2.901851161972445-.49079953837645,4.278447629556467-.031044379098603,1.152689891241607.385103506880114,1.953941284122266,1.097188992187512,2.790220412782219,1.868057210926054.836246874780045-.770868218738542,1.637530521562439-1.48295370404594,2.790188158902311-1.868057210926054,1.375951389578404-.459755159277847,2.911753109361598-.470318311658048,4.278447629531001.031044379098603,2.477099548072147.908931039242816,4.265900862315902,3.363573809154332,4.528157326192741,5.989299330085487.317733172505541,3.179928163957811-1.421526150810678,6.251531603551484-3.678654098359402,8.513287985810166Z"/>
      <path class="cls-3" d="M110.298021293066995,1056.499575811758405l-.000000067997462-139.568672682700708c-.000000042346073-86.915565612129285,71.112735423863342-158.028301099440796,158.028301035970799-158.028301082929829h.000316103611112c32.593335748551908.000000006208211,62.964398693464318,10.000227628384891,88.196455895835243,27.083949927071444,42.053431344302226,28.472872308093429,69.831844921936863,76.622121219657856,69.83184492179862,130.94435092097774l-.000000000294676,139.568672948083986c-.000000000061846,28.362050766951143-22.991984950742335,51.354035711601682-51.354035717675288,51.354035704220223l-213.348846480235807-.000000055393684c-28.362050746785826-.000000007381459-51.354035677177308-22.991984932519699-51.354035691012541-51.354035679329172Z"/>
    </g>
  </g>
</svg>