<?xml version="1.0" encoding="UTF-8"?>
<svg id="Tracy_s_Kitchen" data-name="Tracy&amp;apos;s Kitchen" xmlns="http://www.w3.org/2000/svg" width="440.018069580579322" height="768.669595674380616" xmlns:xlink="http://www.w3.org/1999/xlink" viewBox="0 0 440.018069580579322 768.669595674380616">
  <defs>
    <style>
      .cls-1 {
        fill: #000;
      }

      .cls-1, .cls-2, .cls-3, .cls-4, .cls-5, .cls-6, .cls-7 {
        stroke-width: 0px;
      }

      .cls-2 {
        fill: #f69183;
      }

      .cls-3 {
        fill: #f8af97;
      }

      .cls-4 {
        fill: #fabda0;
      }

      .cls-5 {
        fill: none;
      }

      .cls-8 {
        clip-path: url(#clippath);
      }

      .cls-6 {
        fill: #f1f1f1;
      }

      .cls-7 {
        fill: #231f20;
      }
    </style>
    <clipPath id="clippath">
      <rect class="cls-5" x="-51.417414754250785" y="-311.330404325619384" width="542.663499855709233" height="1080"/>
    </clipPath>
  </defs>
  <g class="cls-8">
    <g>
      <path class="cls-6" d="M226.171765678498559,341.337790643330663l-18.883949711760579-.000000000069122c-86.915565512128524-.00000000036016-158.028300940488407-56.142950013390873-158.028300951908022-124.76211114006037l-.000000010270014-61.571209968000403c-.000000011421434-68.619161131389774,71.112735403128681-124.762111151479985,158.028300921208938-124.762111155769162l18.883949755339927-.000000000940418c86.915573288209998-.000000004290996,158.02830093133889,59.72414921653035,158.028300922171184,124.762111138428736l-.000000008651114,61.571210013371456c-.000000009698851,68.619161112519578-71.112735421938851,124.762111113399442-158.02830091613032,124.762111113039282Z"/>
      <circle class="cls-3" cx="47.928125895605262" cy="266.971251810373815" r="45.7614969690419"/>
      <circle class="cls-3" cx="391.900544451591486" cy="266.758407641598296" r="45.761496969052352"/>
      <rect class="cls-4" x="58.70133189800481" y="50.561554893429673" width="316.056917821629213" height="394.044971958898827" rx="158.028300907057627" ry="158.028300907057627"/>
      <path class="cls-6" d="M52.531150883878581,218.954082861031566s23.750878616210684,7.687835679678756,44.162877194999965-10.71844226902067c20.411998578811108-18.406277948719435,107.81722326245108-91.680119000859122,107.81722326245108-91.680119000859122l48.1513812628491,22.505536894599572,126.659068104439939,69.17458210625955-7.327384105219608-83.305965737750739-82.171378894199734-73.480398596209852-60.712611157490755-16.018364403220403-62.80614947327922,6.803999526291591-61.2359957364406,35.066766789230314-34.54338221029866,43.440920052349611-17.993648247811507,98.211484638330148Z"/>
      <g>
        <ellipse class="cls-1" cx="283.114618169018286" cy="265.172052499350684" rx="10.05454855024982" ry="16.56307742719946"/>
        <path class="cls-1" d="M283.114382977619243,287.121801164941644c-8.658543561390616,0-15.441078579840905-9.641399276750235-15.441078579840905-21.949798301780902,0-12.308122164249653,6.782535018450289-21.949521441030811,15.441078579840905-21.949521441030811,8.659097282910807,0,15.441632301350182,9.641399276781158,15.441632301350182,21.949521441030811,0,12.308399025030667-6.782535018439376,21.949798301780902-15.441632301350182,21.949798301780902ZM283.114382977619243,253.99568750580147c-1.354956583410967,0-4.667872496171185,3.916472380229607-4.667872496171185,11.176315357359272,0,7.26011983789067,3.312915912760218,11.176592218140286,4.667872496171185,11.176592218140286,1.354956583409148,0,4.668426217709566-3.916472380249616,4.668426217709566-11.176592218140286,0-7.259842977129665-3.313469634300418-11.176315357359272-4.668426217709566-11.176315357359272Z"/>
      </g>
      <g>
        <ellipse class="cls-1" cx="142.105339170564548" cy="263.891066438546204" rx="10.054548550237087" ry="16.563077427184453"/>
        <path class="cls-1" d="M142.105319364878596,285.840766405781324c-8.658543561379702,0-15.441078579840905-9.641399276781158-15.441078579840905-21.949798301789997,0-12.308122164269662,6.782535018461203-21.94952144105082,15.441078579840905-21.94952144105082,8.658543561390616,0,15.441078579840905,9.641399276781158,15.441078579840905,21.94952144105082,0,12.308399025008839-6.782535018450289,21.949798301789997-15.441078579840905,21.949798301789997ZM142.105319364878596,252.714652746610227c-1.354956583400053,0-4.667872496160271,3.916472380251435-4.667872496160271,11.1763153573811,0,7.260119837888851,3.312915912760218,11.176592218109363,4.667872496160271,11.176592218109363,1.354956583409148,0,4.667872496169366-3.916472380220512,4.667872496169366-11.176592218109363,0-7.259842977129665-3.312915912760218-11.1763153573811-4.667872496169366-11.1763153573811Z"/>
      </g>
      <rect class="cls-2" x="201.6110237205055" y="272.787490005853329" width="21.997909991314827" height="57.210083722492755" rx="10.998944051782502" ry="10.998944051782502"/>
      <path class="cls-2" d="M214.534310348039071,390.694582730629918c-18.312678433339897,0-33.046654619620313-5.569608007428542-38.49748935892967-7.950056864019643-4.59145892504057-2.005025659380408-6.68840235836069-7.352868194138864-4.683376698991196-11.944603979949534,2.005025659400417-4.592012646600779,7.353421915680883-6.688679219150799,11.944880840710539-4.683099838230191,4.687252749699837,2.046831634870614,29.32896826860997,11.779041242540188,54.225949412739283,2.345564400189687,11.485845692499424-4.352251224159772,18.887441381260942-11.217844472088473,23.074129868020464-16.211305227769117,3.219336974229009-3.838674505301242,8.941495263130491-4.342284236650812,12.781000350731119-1.122670401660798,3.839505087569705,3.219060113449814,4.342284236628984,8.941218402351296,1.122947262418165,12.78072348994101-7.995738890229404,9.535638464580188-18.559084514097776,16.977378964260424-30.549370520267985,21.52038725545026-10.224468047650589,3.874389543969301-20.268422876581099,5.265061166048326-29.418671156430719,5.265061166048326Z"/>
      <path class="cls-1" d="M163.259696689117845,228.682307771261549h-47.377521532229366c-3.914257494108824,0-7.087635581350696-3.173378087240053-7.087635581350696-7.087635581350696s3.173378087241872-7.0876355813798,7.087635581350696-7.0876355813798h47.377521532229366c3.914257494110643,0,7.087635581381619,3.173378087269157,7.087635581381619,7.0876355813798s-3.173378087270976,7.087635581350696-7.087635581381619,7.087635581350696Z"/>
      <path class="cls-1" d="M306.803143743738474,228.682307771261549h-47.377521532249375c-3.914257494110643,0-7.087635581350696-3.173378087240053-7.087635581350696-7.087635581350696s3.173378087240053-7.0876355813798,7.087635581350696-7.0876355813798h47.377521532249375c3.914257494110643,0,7.087635581350696,3.173378087269157,7.087635581350696,7.0876355813798s-3.173378087240053,7.087635581350696-7.087635581350696,7.087635581350696Z"/>
      <path class="cls-6" d="M52.531150883878581,222.228785054601758c142.026775578779052-2.167184709951471,250.372485730411427-170.779508796551454,250.372485730411427-170.779508796551454,0,0-130.678114554300919-10.355402267468889-175.091382371530926,22.669952701680813"/>
      <path class="cls-6" d="M243.56146352595897,136.656788051550393s12.654101321430062,75.266581626570769,68.079365660099938,76.543428583330751c0,0-5.926658911230334-74.95815723755004-68.079365660099938-76.543428583330751Z"/>
      <path class="cls-6" d="M226.485572519948619,77.447696811301284s17.991237007488962,150.404261537329148,152.836128188670045,143.533634308620094c0,0-1.650135639620203-150.927184170970577-152.836128188670045-143.533634308620094Z"/>
      <path class="cls-6" d="M233.462052837039664,93.854604997250135s-14.269424681640885,65.332030125551682,19.166152172478178,85.63095409682137c0,0,18.282962651330308-62.743952150491168-19.166152172478178-85.63095409682137Z"/>
      <path class="cls-6" d="M155.232931131809892,60.998194754671204s112.099674627748755,101.876343897880361,209.501116892599384,8.370679679570458c0,0-100.093311624401395-112.973744018090656-209.501116892599384-8.370679679570458Z"/>
      <path class="cls-6" d="M37.476403464608666,103.831300880441631s135.1467736861905,68.414004851869322,204.189357148319687-47.618196993371384c0,0-126.522151493489218-82.303602903270075-204.189357148319687,47.618196993371384Z"/>
      <path class="cls-6" d="M109.63167347730996,22.773378148891425s84.134562130468112,113.950059442939164,183.761189156168257,58.425118035380365c0,0-71.916381820039533-120.430448417180742-183.761189156168257-58.425118035380365Z"/>
      <path class="cls-7" d="M58.701331893318638,750.851182873571815l-.000000067999281-139.568672682720717c-.000000042360625-86.915565612140199,71.1127354238306-158.028301099440796,158.02830103596898-158.02830108290982h.00031610358019c86.915565449909991.000000016520062,158.028300817850322,71.112735398130098,158.028300817670242,158.028300848020081l-.000000000309228,139.568672948109452c-.000000000070941,28.362050766931134-22.991984950740516,51.354035711579854-51.354035717660736,51.354035704200214l-213.348846480261273-.00000005540096c-28.36205074677855-.000000007348717-51.354035677170032-22.991984932508785-51.354035690988894-51.354035679298249Z"/>
      <path class="cls-7" d="M159.583018056229776,497.184975507021591l-19.361654403301145-32.400399345800906c-3.915249269770356-6.551900846719946-1.316342048659862-18.271863285399377,4.051794336690364-18.271863285399377h154.84695515175008c5.415766360240013,0,7.990589928609552,11.896568359099547,3.980171502760641,18.389758018789507l-23.59830308238088,38.207548761889484c-1.08971698320056,1.764339352201205-2.508591245210482,2.741725208239586-3.980171502729718,2.741725208239586h-103.658850011279355c-4.561929336381581,0-8.952699682271486-3.098857789118483-12.279941991509986-8.666769357718294Z"/>
      <g>
        <path class="cls-7" d="M141.386035097679269,302.388180602141802c-13.356870741690727,0-25.951266936859611-3.77250478248061-35.463649097189773-10.622593827571109-9.821358773951943-7.073238821589257-15.230664398501176-16.57565399439045-15.230664398501176-26.756931762709428,0-23.827744870070092,28.931949931720737-26.583340063090873,50.694313495690949-26.583340063090873,21.761809842428192,0,50.693759774159844,2.755595193020781,50.693759774159844,26.583340063090873,0,10.181277768318978-5.409305624551052,19.683692941120171-15.230664398521185,26.756931762709428-9.512382160308334,6.850089045090499-22.106778355479037,10.622593827571109-35.463095375638659,10.622593827571109ZM141.386035097679269,244.662434260349983c-14.55401668911145,0-25.173841909030671,1.441614002831557-32.466354456410045,4.407069655630039-8.180681881180135,3.326482090251375-11.990839727699495,8.391372923269955-11.990839727699495,15.939151095881243,0,17.172012081979119,19.943388338590012,31.142406278679118,44.457194184109539,31.142406278679118,24.513252123990242,0,44.456640462549331-13.970394196699999,44.456640462549331-31.142406278679118,0-7.547778172611288-3.810157846510265-12.612669005629868-11.990839727679486-15.939151095881243-7.292512547381193-2.965455652798482-17.912337767291319-4.407069655630039-32.465800734869845-4.407069655630039Z"/>
        <path class="cls-7" d="M284.154272010558998,301.111575615201218c-13.356870741679813,0-25.951266936839602-3.772504782489705-35.463095375651392-10.622870688330295-9.821912495468496-7.072685100049057-15.230664398499357-16.57510027285025-15.230664398499357-26.756654901950242,0-23.827744870079187,28.931949931720737-26.583340063109063,50.693759774150749-26.583340063109063,21.761809842440925,0,50.693759774179853,2.755595193029876,50.693759774179853,26.583340063109063,0,10.181554629099992-5.408751903029042,19.683969801901185-15.230664398510271,26.756654901950242-9.511828438800876,6.85036590584059-22.106224633960665,10.622870688330295-35.463095375669582,10.622870688330295ZM284.154272010558998,243.385829273411218c-14.554016689091441,0-25.173288187479557,1.441614002829738-32.46580073487894,4.407069655630039-8.180681881160126,3.326482090240461-11.990839727670391,8.391372923269955-11.990839727670391,15.939151095879424,0,17.172012081980938,19.943388338599107,31.142406278680937,44.456640462549331,31.142406278680937,24.513252123979328,0,44.456640462578434-13.970394196699999,44.456640462578434-31.142406278680937,0-7.547778172609469-3.810157846528455-12.612669005638963-11.990839727699495-15.939151095879424-7.292512547388469-2.965455652800301-17.911784045758395-4.407069655630039-32.46580073487894-4.407069655630039Z"/>
        <path class="cls-7" d="M236.580179335269349,272.249394596221464c-.303439398330738,0-.611308568910317-.044574583151189-.916409131810724-.138153521680579-19.939512287890466-6.12111465109956-46.059664291329682-.01107443058936-46.321020853391019.051772963041003-1.676115070678861.400894387559674-3.356659913610201-.632903708561571-3.758108022719171-2.307911336190955-.400340666039483-1.674453906100098.631796265499361-3.356659913619296,2.306250171599459-3.757831161939976,1.134021693011164-.271600410369501,28.017201964521519-6.575166305550738,49.603482081991388.051496102269084,1.646214108088316.505547756691158,2.57148278438035,2.250047436311434,2.065935027669184,3.896538405151659-.411968818159949,1.341390405928905-1.646214108090135,2.204088549349763-2.980129273339116,2.204088549349763Z"/>
      </g>
    </g>
  </g>
</svg>