<?xml version="1.0" encoding="UTF-8"?>
<svg id="Tracy_s_Kitchen" data-name="Tracy&amp;apos;s Kitchen" xmlns="http://www.w3.org/2000/svg" width="542.663499855707414" height="1080" xmlns:xlink="http://www.w3.org/1999/xlink" viewBox="0 0 542.663499855707414 1080">
  <defs>
    <style>
      .cls-1 {
        fill: #000;
      }

      .cls-1, .cls-2, .cls-3, .cls-4, .cls-5, .cls-6, .cls-7, .cls-8 {
        stroke-width: 0px;
      }

      .cls-2 {
        fill: #f69183;
      }

      .cls-3 {
        fill: #f8af97;
      }

      .cls-4 {
        fill: #fabda0;
      }

      .cls-5 {
        fill: #ffcd00;
      }

      .cls-6 {
        fill: none;
      }

      .cls-9 {
        clip-path: url(#clippath-1);
      }

      .cls-7 {
        fill: #ffaa97;
      }

      .cls-10 {
        clip-path: url(#clippath);
      }

      .cls-8 {
        fill: #231f20;
      }
    </style>
    <clipPath id="clippath">
      <rect class="cls-6" y="-1114.14002734666974" width="542.663499855707414" height="1080"/>
    </clipPath>
    <clipPath id="clippath-1">
      <rect class="cls-6" width="542.663499855707414" height="1080"/>
    </clipPath>
  </defs>
  <g class="cls-10">
    <g>
      <path class="cls-5" d="M248.565045062596255,142.19464088937093l-87.534136399059207-7.723600270501265s-45.697968267162651-27.676234302649391-39.904981837789819-58.572161849870099c4.002429807809676-21.344163562049289,20.134308795528341-35.939944661738991,25.069073508650035-56.655883896799423,1.801370377426792-7.562066159169262,1.918594134949672-15.409541776529295,2.026927789818728-23.182446485399851.276678964408347-19.85162579523967.552185296950483-39.740007400199829-1.080152256250585-59.526342500930696-1.804752702148107-21.876270087819648-5.939730613918073-43.627252964530271-5.516291342089971-65.573755862382313.337482550781715-17.491462789659636,3.834069557378825-35.609440035414082,13.177309567301563-50.639853053447951,10.647648384339846-17.128806786249697,28.510169533758017-16.303176882980551,46.777016045169148-15.389834678660918,4.487729472199135-9.791145686791424,11.589568060509919-19.683329802443041,20.351212564008165-26.016711242587917,22.080623911220755-15.956296552303684,55.917992028560548-8.936676938526944,80.089447359030601-1.806421928817144,40.74273340344007,12.018560533311756,63.054348524390662,54.3777977603404,68.220426828680502,94.198899328235711,2.037545796079939,15.70580096068079-1.619662560668075,31.156852109241299-3.464021975109063,46.629950685721269-2.033966443061217,17.063805726800638,2.098575239047932,34.476396327700058,5.185513971468026,51.234287669469268,2.19733065301989,11.928526055420662,4.977614386592904,23.848751316631024,9.595199394079827,35.098065498101278,4.462355052892235,10.871144526359785,10.579100728329649,16.83642580311971,17.943844043940771,25.44341767566948,11.774515770372091,13.760582982400592,26.514020535050804,35.348236337620619,21.557352112769877,54.555388883400155-5.149066846999631,19.952634032149945-9.654500338117941,49.55976840241965-25.745334235019982,49.55976840241965-16.090833896880213,0-146.748405139598617,8.367233626380767-146.748405139598617,8.367233626380767Z"/>
      <rect class="cls-7" x="172.867587415089702" y="-189.170768921073972" width="174.813902040848461" height="229.125017435126381" rx="87.406863628215902" ry="87.406863628215902"/>
    </g>
  </g>
  <g class="cls-9">
    <g>
      <path class="cls-1" d="M277.589180432754802,652.668194968950047l-18.883949711762398-.000000000069122c-86.915565512128524-.000000000358341-158.028300940492045-56.142950013392692-158.028300951915298-124.762111140062188l-.000000010262738-61.571209968000403c-.000000011423253-68.619161131384317,71.112735403126862-124.762111151481804,158.028300921203481-124.762111155767343l18.883949755339927-.000000000940418c86.915573288211817-.000000004285539,158.028300931344347,59.72414921653035,158.028300922176641,124.762111138426917l-.00000000865839,61.571210013371456c-.000000009691576,68.619161112519578-71.112735421935213,124.762111113401261-158.028300916121225,124.762111113041101Z"/>
      <circle class="cls-3" cx="99.345540649857867" cy="578.301656135992289" r="45.761496969042355"/>
      <circle class="cls-3" cx="443.317959205841362" cy="578.088811967219954" r="45.761496969050768"/>
      <rect class="cls-4" x="110.118746413840654" y="361.891959219049227" width="316.056918298464552" height="394.044971958899396" rx="158.028301085871135" ry="158.028301085871135"/>
      <path class="cls-1" d="M103.948565638131186,530.28448718664913s23.750878616205227,7.687835679680575,44.162877194996327-10.718442269018851c20.411998578816565-18.406277948724892,107.817223262456537-91.680119000860941,107.817223262456537-91.680119000860941l48.151381262841824,22.505536894597753,126.659068104445396,69.174582106263188-7.32738410521597-83.305965737750739-82.171378894208829-73.48039859621349-60.712611157483479-16.018364403211308-62.806149473286496,6.803999526286134-61.235995736435143,35.066766789232133-34.543382210296841,43.440920052342335-17.993648247813326,98.211484638333786Z"/>
      <g>
        <ellipse class="cls-1" cx="334.53203292327089" cy="576.502456824968249" rx="10.054548550251639" ry="16.563077427203098"/>
        <path class="cls-1" d="M334.531797731870029,598.452205490564666c-8.658543561386978,0-15.441078579842724-9.641399276750235-15.441078579842724-21.94979830178454,0-12.308122164253291,6.782535018455746-21.949521441025354,15.441078579842724-21.949521441025354,8.659097282907169,0,15.44163230135382,9.641399276772063,15.44163230135382,21.949521441025354,0,12.308399025034305-6.782535018446652,21.94979830178454-15.44163230135382,21.94979830178454ZM334.531797731870029,565.326091831424492c-1.354956583407329,0-4.667872496165728,3.91647238022415-4.667872496165728,11.176315357355634,0,7.260119837888851,3.312915912758399,11.176592218136648,4.667872496165728,11.176592218136648s4.668426217705928-3.916472380247797,4.668426217705928-11.176592218136648c0-7.259842977131484-3.313469634298599-11.176315357355634-4.668426217705928-11.176315357355634Z"/>
      </g>
      <g>
        <ellipse class="cls-1" cx="193.522753924817152" cy="575.221470764164224" rx="10.054548550238906" ry="16.563077427185817"/>
        <path class="cls-1" d="M193.522734119134839,597.171170731398888c-8.658543561388797,0-15.441078579842724-9.64139927677752-15.441078579842724-21.949798301788178,0-12.3081221642733,6.782535018453927-21.949521441049001,15.441078579842724-21.949521441049001,8.658543561381521,0,15.441078579837267,9.641399276775701,15.441078579837267,21.949521441049001,0,12.308399025010658-6.782535018455746,21.949798301788178-15.441078579837267,21.949798301788178ZM193.522734119134839,564.045057072235068c-1.354956583407329,0-4.667872496167547,3.916472380244159-4.667872496167547,11.176315357375643,0,7.260119837887032,3.312915912760218,11.176592218113001,4.667872496167547,11.176592218113001s4.667872496167547-3.916472380225969,4.667872496167547-11.176592218113001c0-7.259842977131484-3.312915912760218-11.176315357375643-4.667872496167547-11.176315357375643Z"/>
      </g>
      <rect class="cls-2" x="253.028438713323794" y="584.117894331469529" width="21.997909514330786" height="57.210083722497757" rx="10.998943813370744" ry="10.998943813370744"/>
      <path class="cls-2" d="M265.951725102286218,702.02498705625294c-18.312678433330802,0-33.046654619618494-5.569608007435818-38.497489358924213-7.9500568640251-4.591458925036932-2.00502565937677-6.688402358364328-7.352868194138864-4.683376698989377-11.944603979951353,2.005025659402236-4.592012646597141,7.353421915680883-6.688679219141704,11.944880840712358-4.683099838226553,4.687252749692561,2.046831634870614,29.328968268602694,11.779041242543826,54.225949412733826,2.345564400191506,11.4858456925067-4.352251224165229,18.887441381262761-11.217844472090292,23.074129868022283-16.211305227770936,3.219336974234466-3.838674505295785,8.941495263130491-4.342284236650812,12.781000350725662-1.122670401660798,3.839505087576981,3.219060113449814,4.342284236628984,8.941218402347658,1.122947262421803,12.780723489942829-7.995738890229404,9.53563846457655-18.559084514101414,16.977378964256786-30.549370520264347,21.52038725545026-10.224468047650589,3.87438954397112-20.268422876586556,5.265061166050145-29.418671156437995,5.265061166050145Z"/>
      <path class="cls-1" d="M214.677111443368631,540.01271209688457h-47.377521532223909c-3.914257494110643,0-7.087635581354334-3.17337808724551-7.087635581354334-7.087635581356153,0-3.914257494112462,3.173378087243691-7.0876355813798,7.087635581354334-7.0876355813798h47.377521532223909c3.914257494108824,0,7.0876355813798,3.173378087267338,7.0876355813798,7.0876355813798,0,3.914257494110643-3.173378087270976,7.087635581356153-7.0876355813798,7.087635581356153Z"/>
      <path class="cls-1" d="M358.220558497989259,540.01271209688457h-47.377521532245737c-3.914257494110643,0-7.087635581356153-3.17337808724551-7.087635581356153-7.087635581356153,0-3.914257494112462,3.17337808724551-7.0876355813798,7.087635581356153-7.0876355813798h47.377521532245737c3.914257494112462,0,7.087635581356153,3.173378087267338,7.087635581356153,7.0876355813798,0,3.914257494110643-3.173378087243691,7.087635581356153-7.087635581356153,7.087635581356153Z"/>
      <path class="cls-1" d="M103.948565638131186,533.559189380219323c142.026775578784509-2.167184709946014,250.37248573040597-170.779508796553273,250.37248573040597-170.779508796553273,0,0-130.678114554295462-10.35540226746707-175.091382371527288,22.669952701682632"/>
      <path class="cls-1" d="M294.978878280211575,447.987192377171596s12.654101321428243,75.26658162656895,68.0793656600963,76.543428583330751c0,0-5.926658911223058-74.958157237553678-68.0793656600963-76.543428583330751Z"/>
      <path class="cls-1" d="M277.902987274195766,388.778101136915211s17.9912370074926,150.404261537332786,152.836128188675502,143.533634308621913c0,0-1.650135639618384-150.927184170963301-152.836128188675502-143.533634308621913Z"/>
      <path class="cls-1" d="M284.879467591290449,405.1850093228677s-14.269424681639066,65.332030125553501,19.166152172483635,85.63095409682137c0,0,18.282962651324851-62.743952150491168-19.166152172483635-85.63095409682137Z"/>
      <path class="cls-1" d="M206.650345886057039,372.32859908028513s112.09967462775785,101.87634389788218,209.50111689260666,8.370679679579553c0,0-100.093311624401395-112.973744018092475-209.50111689260666-8.370679679579553Z"/>
      <path class="cls-1" d="M88.893818218864908,415.161705206062834s135.146773686181405,68.414004851863865,204.18935714831423-47.618196993371384c0,0-126.522151493491037-82.303602903273713-204.18935714831423,47.618196993371384Z"/>
      <path class="cls-1" d="M161.049088231564383,334.103782474512627s84.134562130462655,113.950059442933707,183.761189156164619,58.425118035374908c0,0-71.916381820043171-120.430448417177104-183.761189156164619-58.425118035374908Z"/>
      <path class="cls-8" d="M110.118746647574881,1062.181587199187561l-.000000068006557-139.568672682720717c-.000000042362444-86.915565612134742,71.112735423836057-158.028301099440796,158.028301035970799-158.02830108290982h.000316103585646c86.915565449902715.000000016525519,158.028300817850322,71.112735398133736,158.028300817668423,158.028300848027357l-.000000000316504,139.568672948103995c-.000000000069122,28.362050766932953-22.991984950731421,51.354035711581673-51.354035717660736,51.354035704202033l-213.348846480253997-.000000055395503c-28.362050746785826-.000000007354174-51.35403567717367-22.99198493251788-51.354035690987075-51.354035679307344Z"/>
      <path class="cls-8" d="M211.000432810476923,808.515379832640974l-19.361654403297507-32.400399345799087c-3.915249269770356-6.551900846718127-1.316342048656225-18.271863285401196,4.051794336695821-18.271863285401196h154.846955151744623c5.415766360238194,0,7.990589928615009,11.896568359097728,3.980171502757003,18.389758018793145l-23.59830308238088,38.207548761889484c-1.089716983191465,1.764339352197567-2.508591245208663,2.741725208241405-3.980171502727899,2.741725208241405h-103.658850011273898c-4.561929336385219,0-8.952699682271486-3.098857789125759-12.279941991517262-8.666769357723751Z"/>
      <g>
        <path class="cls-8" d="M192.803449851931873,613.718584927757547c-13.356870741694365,0-25.95126693686143-3.77250478248061-35.46364909719523-10.622593827567471-9.821358773950124-7.073238821591076-15.230664398495719-16.575653994388631-15.230664398495719-26.75693176270579,0-23.827744870077368,28.931949931722556-26.583340063098149,50.694313495690949-26.583340063098149,21.761809842433649,0,50.693759774158025,2.755595193020781,50.693759774158025,26.583340063098149,0,10.181277768317159-5.409305624549233,19.683692941114714-15.230664398521185,26.75693176270579-9.512382160311972,6.850089045086861-22.106778355475399,10.622593827567471-35.46309537563684,10.622593827567471ZM192.803449851931873,555.992838585967547c-14.55401668911145,0-25.173841909027033,1.441614002829738-32.466354456415502,4.407069655631858-8.18068188117104,3.326482090245918-11.990839727695857,8.391372923269955-11.990839727695857,15.939151095884881,0,17.172012081973662,19.943388338590012,31.142406278671842,44.457194184111358,31.142406278671842,24.513252123988423,0,44.456640462552969-13.97039419669818,44.456640462552969-31.142406278671842,0-7.547778172614926-3.810157846510265-12.612669005638963-11.990839727679486-15.939151095884881-7.292512547383012-2.96545565280212-17.912337767294957-4.407069655631858-32.465800734873483-4.407069655631858Z"/>
        <path class="cls-8" d="M335.571686764811602,612.441979940816964c-13.356870741676175,0-25.951266936841421-3.772504782482429-35.46309537565503-10.622870688323019-9.82191249546122-7.072685100052695-15.230664398497538-16.575100272852069-15.230664398497538-26.756654901952061,0-23.827744870079187,28.931949931724375-26.583340063116339,50.693759774152568-26.583340063116339,21.761809842435468,0,50.693759774178034,2.755595193037152,50.693759774178034,26.583340063116339,0,10.181554629099992-5.408751903025404,19.683969801899366-15.230664398513909,26.756654901952061-9.511828438797238,6.85036590584059-22.106224633958846,10.622870688323019-35.463095375664125,10.622870688323019ZM335.571686764811602,554.716233599025145c-14.554016689095079,0-25.173288187485014,1.441614002833376-32.465800734877121,4.407069655630039-8.180681881165583,3.326482090247737-11.990839727675848,8.391372923271774-11.990839727675848,15.9391510958867,0,17.1720120819773,19.943388338599107,31.142406278673661,44.456640462552969,31.142406278673661,24.513252123981147,0,44.456640462580253-13.970394196696361,44.456640462580253-31.142406278673661,0-7.547778172614926-3.810157846535731-12.612669005638963-11.990839727704952-15.9391510958867-7.292512547388469-2.965455652796663-17.911784045752938-4.407069655630039-32.465800734875302-4.407069655630039Z"/>
        <path class="cls-8" d="M287.997594089518316,583.579798921839028c-.303439398332557,0-.611308568908498-.04457458314937-.916409131810724-.13815352167876-19.939512287886828-6.121114651105017-46.059664291327863-.01107443058936-46.321020853381924.051772963035546-1.676115070687956.400894387565131-3.356659913613839-.632903708552476-3.758108022722809-2.307911336189136-.400340666043121-1.674453906094641.631796265499361-3.35665991361202,2.30625017159764-3.757831161938157,1.134021693012983-.271600410365863,28.017201964523338-6.575166305545281,49.603482081993207.051496102274541,1.646214108084678.505547756685701,2.571482784378532,2.250047436309615,2.065935027667365,3.896538405151659-.411968818163587,1.341390405921629-1.646214108086497,2.204088549344306-2.980129273342754,2.204088549344306Z"/>
      </g>
    </g>
  </g>
</svg>