<?xml version="1.0" encoding="UTF-8"?>
<svg id="Tracy_s_Kitchen" data-name="Tracy&amp;apos;s Kitchen" xmlns="http://www.w3.org/2000/svg" width="1080" height="1080" xmlns:xlink="http://www.w3.org/1999/xlink" viewBox="0 0 1080 1080">
  <defs>
    <style>
      .cls-1 {
        fill: none;
        stroke: #241f20;
        stroke-linecap: round;
        stroke-miterlimit: 10;
        stroke-width: 17px;
      }

      .cls-2 {
        fill: #faa768;
      }

      .cls-2, .cls-3, .cls-4, .cls-5, .cls-6, .cls-7, .cls-8, .cls-9, .cls-10, .cls-11 {
        stroke-width: 0px;
      }

      .cls-3 {
        fill: #a6887d;
      }

      .cls-4 {
        fill: #f0f0f1;
      }

      .cls-5 {
        filter: url(#drop-shadow-1);
      }

      .cls-5, .cls-6 {
        fill: #f1f1f1;
      }

      .cls-7 {
        fill: #241f20;
      }

      .cls-8 {
        fill: #e6835c;
      }

      .cls-9 {
        fill: #d37b53;
      }

      .cls-10 {
        fill: #cbcbcb;
      }

      .cls-11 {
        fill: #b55331;
      }
    </style>
    <filter id="drop-shadow-1" filterUnits="userSpaceOnUse">
      <feOffset dx="0" dy="0"/>
      <feGaussianBlur result="blur" stdDeviation="14"/>
      <feFlood flood-color="#000" flood-opacity=".1"/>
      <feComposite in2="blur" operator="in"/>
      <feComposite in="SourceGraphic"/>
    </filter>
  </defs>
  <circle class="cls-9" cx="362.041938594600197" cy="373.460056907157423" r="37.294499199501956"/>
  <circle class="cls-9" cx="639.44904376590739" cy="362.698511968528692" r="37.29449919950298"/>
  <rect class="cls-8" x="370.8218377057417" y="197.091454415460021" width="257.578646993759776" height="337.603080959932186" rx="128.789194718810847" ry="128.789194718810847"/>
  <path class="cls-3" d="M364.984864022289912,342.216675914216466c103.298532735099798-12.214402451018032,134.473744187760531-105.404254767679049,134.473744187760531-105.404254767679049,0,0,71.500077888929809,97.68989532492742,134.473744187758712,105.404254767679049,0,0,20.637175970961835-136.532460261207234-134.447491708568123-151.514187354893693,0,0-145.627692671201658,2.08079542968062-134.49999666695112,151.514187354893693"/>
  <path class="cls-3" d="M492.581383444670792,199.640275115291843c-15.986705790890483-4.641687931691195-33.105003431970545-16.842028349637076-38.809324244301024-33.584022484690649-5.501405505548973-16.149361212056647,3.225329939570656-43.386995727714748,22.523970639051186-45.673152250033127,32.765124235669646-3.881423640549656,57.969004303859037-7.187911398094002,90.302435639358009,3.580864840235336,15.146247599541312,5.044513540034131,37.093945579101273,10.377386285023022,45.278681362340649,25.592683612023393,8.398029653561025,15.611947648293608-4.606976347009549,69.554390940308622-26.765613242148902,72.349061138676916-10.913410134849983,1.376410197676705-92.106106389441265-22.142321267593616-92.530150154299918-22.265434856211868Z"/>
  <path class="cls-2" d="M723.431864198919357,459.335274149466386l9.424952693610976,13.159572034273879c7.940435802380307,11.086818130518623,8.453069104600218,25.252759039153716,2.520253585760656,36.558994334027375-.165793088861392.265344521850238-.322061780741933.544701304808768-.454154504481266.827832446759203-3.153622997309867,6.970376406789001,3.595289275550385,18.031081606146472,3.595289275550385,18.031081606146472l82.626012125228954,115.366409612767711c2.326820279920867,3.248818315245444,1.579393194220756,7.768766456574667-1.669425121028326,10.095586736495534l-.000011765019735.00000842616646c-3.248818315241806,2.326820279920867-7.768766456571029,1.579393194218937-10.095586736490077-1.669425121026507l-82.626012125241687-115.36640961276953s-8.299289351789412-9.950317212479604-15.913825900548545-9.208482723513043c-.310582510221138.033915122829058-.625374334480512.091934288804623-.929965921701296.163481675787807-12.614263023990134,1.977277139214493-25.861074583108348-3.068380225961846-33.801510385490474-14.155198356480469l-9.913141225459185-13.841204261819257c-11.469085615299264-16.013688606597498-7.44960532685036-38.439172423137279,9.106400316459258-49.423005946604462,15.767710497040753-10.460850936935458,37.112870543161989-5.922899863326165,48.130725688850362,9.460759149788828ZM715.847029664850197,504.196875603082844l-30.859244060990022-43.087159831512508c-.980353634820858-1.368816866405723-2.884732596890899-1.683728536447234-4.25354946329935-.70337490161819l-.000004956931662.000003550178008c-1.368816866399357.980353634827225-1.683728536449053,2.884732596899084-.7033749016191,4.253549463304807l30.859244060990022,43.08715983150978c.980353634829953,1.368816866408451,2.884732596899994,1.683728536447234,4.25354946329935.703374901620009l.000004956929843-.00000355017346c1.36881686641027-.980353634833591,1.683728536450872-2.884732596902722.703374901620919-4.253549463308445ZM721.783065948638978,488.119189863085012l-19.662528470358666-27.45376745611884c-.980353626890064-1.36881686084962-2.884732578750118-1.68372853135952-4.253549438000846-.70337490224847l-.000004970648661.000003560004188c-1.368816918180528.980353671317971-1.683728598620291,2.884732705932947-.703374924290983,4.253549621954335l19.662528426100835,27.453767172103653c.980353653349084,1.368816886735658,2.884732646389239,1.683728559308292,4.25354953428905.703374907574471l.000004956929843-.000003550179827c1.368816829599382-.980353609983467,1.683728492349474-2.884732520891703.703374885979429-4.253549353089511ZM698.332977233709244,504.914263238434614l-19.662528470358666-27.45376745611793c-.980353626890064-1.36881686084871-2.884732578750118-1.683728531357701-4.253549438000846-.703374902245741l-.000004970639566.00000356000146c-1.368816918180528.980353671316152-1.683728598631205,2.884732705934766-.703374924300078,4.253549621956154l19.662528426099016,27.453767172103653c.980353653361817,1.368816886734749,2.884732646391058,1.683728559305564,4.253549534290869.703374907577199l.000004956929843-.000003550182555c1.368816829610296-.980353609983467,1.683728492349474-2.884732520888974.703374885979429-4.253549353092239Z"/>
  <g>
    <path class="cls-1" d="M411.098368152110197,334.797202768901116c3.876351306289507-2.227113376967282,12.014795413970205-6.193979951507572,22.975221839998994-6.363233418040181,8.246012611360129-.127298753797731,14.763033106941293,1.946205209118489,18.622479706940794,3.519882659945324"/>
    <path class="cls-1" d="M537.963262952649529,329.192392320926047c3.876351306280412-2.227113376963644,12.014795413970205-6.193979951506662,22.975221840000813-6.363233418042,8.246012611360129-.127298753795003,14.76303310692856,1.946205209128493,18.62247970692988,3.519882659943505"/>
    <path class="cls-11" d="M501.029959738119942,422.417719199931526h.000017453650798c4.799748653658753.000000757712769,8.726816609909292-5.364058094272877,8.726817680588283-11.920130782174965l.000004244260708-25.988952223391607c.00000107068081-6.556072884000059-3.927065251049498-11.920133167274798-8.726814048270171-11.920133962842556h-.000017482159819c-4.799748752269807-.000000795567757-8.72681674532032,5.364058135657615-8.726817762319115,11.920130958271329l-.000004031491699,25.988952389471706c-.0000010169897,6.556072733665133,3.927065258591028,11.920132862965147,8.726813945741014,11.920133620666093Z"/>
    <rect class="cls-6" x="588.579284780918442" y="585.642318955474479" width="79.569381993726779" height="247.794016364008144" rx="39.784648136577687" ry="39.784648136577687" transform="translate(-186.281915263677774 225.143399182636244) rotate(-17.735977066875275)"/>
    <path class="cls-6" d="M636.327305701770456,821.310437319090852l.000066651429734.000043461175665c18.329124517429591,11.951810890934212,43.104435348210245,6.734008860345057,55.056246290620038-11.595115623535094l89.724725654428767-135.180928031106305c5.00358552553007-7.673426429268147,2.839251892950415-17.950175113315709-4.834174487779819-22.953760713255178l-36.368541862528218-23.714714043673666c-9.051349783501792-5.902083526920251-21.173502605201065-3.349098741533453-27.075586046790704,5.702251097609405l-88.097851789960259,132.685977681621807c-11.951810956279587,18.329124494301141-6.734008940509739,43.104435271316106,11.595115590580463,55.056246171163366Z"/>
    <path class="cls-6" d="M340.614362461197288,583.654869032761098h49.057819458672043c7.74042580203394,0,14.02466948445624,6.284243682422357,14.02466948445624,14.02466948445624v285.92243800822439c0,17.372534397240997-14.104293785083371,31.476828182324311-31.476828182324368,31.476828182324311h-16.615725700212522c-17.372534397353377,0-31.476828182528038-14.104293785174605-31.476828182528038-31.476828182528038v-283.460214370540257c0-9.099364021223664,7.387529100712982-16.486893121936646,16.486893121936646-16.486893121936646Z" transform="translate(482.247136400267493 1573.975562336924213) rotate(-162.264018414671142)"/>
    <path class="cls-8" d="M770.576960833219346,632.238812116564077l-11.100032366968662-7.05970721284757c-15.69852077088035-9.984381725484127-20.349153840961662-30.402701748282198-10.334740155771215-45.374044495107228l.000036416089642-.000054441294196c10.014413685181353-14.971342746828668,31.052269149220592-19.051583582460808,46.750789920080933-9.067201856982138l11.100032366979576,7.059707212851208c15.698520770860341,9.984381725491403,20.349153840959843,30.402701748291292,10.334740155760301,45.37404449510359l-.000036416080547.000054441301472c-10.014413685188629,14.971342746823211-31.052269149229687,19.05158358245717-46.750789920090028,9.067201856974862Z"/>
    <path class="cls-8" d="M293.563068803650822,974.283778786890252l-12.574287315841502-3.864904006282813c-17.783525676359204-5.466044946007969-27.680065363629183-23.921252415018898-21.992310416158944-41.011572153358429l.0000206827699-.000062146678829c5.68775494745023-17.090319738335893,24.891530003309526-26.601090022957578,42.675055679659636-21.135045076949609l12.574287315839683,3.864904006282813c17.783525676361023,5.466044946018883,27.680065363631002,23.921252415029812,21.992310416160763,41.011572153358429l-.000020682760805.00006214667701c-5.687754947470239,17.090319738337712-24.891530003329535,26.601090022963035-42.675055679668731,21.135045076951428Z"/>
    <g>
      <g>
        <g>
          <ellipse class="cls-7" cx="565.879558360720239" cy="364.939610083505386" rx="10.099602068310105" ry="16.637295071506969"/>
          <path class="cls-7" d="M565.879626913119864,386.987921042336893c-8.697341708000749,0-15.510268649300997-9.684601510494758-15.510268649300997-22.048431454031743,0-12.363273740825207,6.812926941300248-22.047875251320875,15.510268649300997-22.047875251320875s15.510268649310092,9.684601510495668,15.510268649310092,22.047875251320875c0,12.363829943536985-6.812926941309343,22.048431454031743-15.510268649310092,22.048431454031743ZM565.879626913119864,353.713094177794119c-1.361028020679441,0-4.688788808489335,3.934021736947216-4.688788808489335,11.226395410511032,0,7.292929876270136,3.327760787809893,11.2269516132219,4.688788808489335,11.2269516132219,1.36102802068126,0,4.688788808489335-3.934021736951763,4.688788808489335-11.2269516132219,0-7.292373673563816-3.327760787808074-11.226395410511032-4.688788808489335-11.226395410511032Z"/>
        </g>
        <g>
          <path class="cls-7" d="M568.997252964780273,349.045366141405793s7.597067276170492,3.88896456254497,13.963814928480133-2.636125246362099"/>
          <path class="cls-7" d="M574.229898132800372,353.883848408428094c-2.876124190830524,0-5.375699149950378-.75254226072866-6.919717860790115-1.542906305438919-1.819895252830975-.931639531935616-2.540177756631238-3.162568584226392-1.608538224691074-4.982463837066462.926633707591463-1.810439806835348,3.139208070600944-2.531834716040066,4.953541296370531-1.622999495033582.566770557041309.273095528463273,5.425201190759253,2.423931391152109,9.65623517252061-1.911668699267466,1.427772345350604-1.463369318519653,3.77216674959891-1.492291859216493,5.234979865419518-.064519513850428,1.463369318520563,1.427772345361518,1.492291859209217,3.771610546902593.064519513849518,5.234979865423156-3.630335059659046,3.720996100689263-7.797961932988983,4.8895779852337-11.381019762678989,4.8895779852337Z"/>
        </g>
        <g>
          <path class="cls-7" d="M565.879558360720694,350.195389128937677s8.389097456529271-1.569241992889147,9.435841569120385-10.625543635681424"/>
          <path class="cls-7" d="M565.875177291480213,353.897753476064281c-1.74703269840029,0-3.301619260650114-1.242000641682353-3.634784681320525-3.021849299705536-.37376821818907-1.998992524053392.934976748170811-3.923453885544404,2.926738637039307-4.313908184897628.616272597850184-.130151433119863,5.775052692601093-1.398293601968362,6.470862277350534-7.416963079630477.234717541779901-2.030696078264555,2.07407988930936-3.484609950797676,4.102551156749541-3.25267342254574,2.03125228097997.234717541773534,3.487390964332008,2.071855078485896,3.252673422550288,4.10255115675227-1.075696032699852,9.308608481492229-8.603343450738976,13.12304663672785-12.432799079029792,13.839435721583868-.230267920138431.042827608333937-.459423434858763.063407108443243-.685241733339353.063407108443243Z"/>
        </g>
      </g>
      <g>
        <g>
          <ellipse class="cls-7" cx="432.369389952562415" cy="369.305844842868737" rx="10.099602068306922" ry="16.637295071513563"/>
          <path class="cls-7" d="M432.369285655469866,391.354112281565904c-8.697341708000749,0-15.510268649300997-9.684601510497487-15.510268649300997-22.048431454033562,0-12.363273740825207,6.812926941300248-22.04787525132997,15.510268649300997-22.04787525132997s15.510268649310092,9.684601510504763,15.510268649310092,22.04787525132997c0,12.363829943536075-6.812926941309343,22.048431454033562-15.510268649310092,22.048431454033562ZM432.369285655469866,358.079285417020401c-1.361028020690355,0-4.688788808489335,3.934021736949035-4.688788808489335,11.226395410511941,0,7.292929876271046,3.327760787798979,11.226951613223719,4.688788808489335,11.226951613223719,1.36102802068126,0,4.688788808500249-3.934021736952673,4.688788808500249-11.226951613223719,0-7.292373673562906-3.327760787818988-11.226395410511941-4.688788808500249-11.226395410511941Z"/>
        </g>
        <g>
          <path class="cls-7" d="M429.251695348499197,353.41160090077301s-7.597067276168673,3.88896456254588-13.963814928480133-2.63612524636028"/>
          <path class="cls-7" d="M424.019014435789359,358.2500396476471c-3.583614032399055,0-7.750128500309074-1.16802568183175-11.381019762678989-4.889577985225515-1.427772345370613-1.463369318521472-1.398849804671045-3.807207520060729.064519513849518-5.234979865431342,1.463925521240526-1.428884750766883,3.808876128179691-1.398293601960177,5.234979865430432.064519513858613,4.244382846689405,4.349505158056672,9.118943358869728,2.171415362797234,9.661240996860215,1.908887685735863,1.821007658239978-.931083329232933,4.033582021260372-.203013987558734,4.965221553189622,1.617437467984018.932195734649213,1.819895252830065.194670946970291,4.059167345712922-1.625224305860684,4.990806877647628-1.544018710839737.79036404470844-4.044149872659546,1.542906305430733-6.919717860790115,1.542906305430733Z"/>
        </g>
        <g>
          <path class="cls-7" d="M432.369389952560596,354.561623888306713s-8.389097456520176-1.569241992887328-9.435841569109471-10.625543635682334"/>
          <path class="cls-7" d="M432.375403885229389,358.264500917994155c-.226930703900507,0-.456086218609926-.020579500108397-.686910341448311-.063963311144107-3.830011831001684-.716389084857838-11.357103046340853-4.530827240094368-12.432799079040706-13.839435721585687-.234717541779901-2.030696078268193,1.221421141579413-3.867833614979645,3.252673422550288-4.102551156759546,2.029027470149231-.236942352591541,3.867833614978736,1.221421141574865,4.102551156749541,3.252673422554835.698034395569266,6.037580369650641,5.887405639139615,7.295710889791735,6.476424304399188,7.419187890450303,2.01011657817071.375993029004349,3.315524328279935,2.306016417559476,2.939531299280134,4.316132995717453-.332609217970457,1.778736252616909-1.901657050559152,3.017955880766749-3.651470762490135,3.017955880766749Z"/>
        </g>
      </g>
    </g>
    <g>
      <path class="cls-4" d="M500.832885388910654,490.908614538592701c-23.692683051969652.483323206337445-34.846932596261468-14.396777881720482-38.420295509771677-20.924613758726082-1.113729433109256-2.034566073101814.761122230091132-4.307964949362031,3.55441433336091-4.307964949362031h69.731760648550335c2.793292103269778,0,4.668143766459252,2.273398876260217,3.554414333359091,4.307964949362031-3.573362913510209,6.5278358770056-12.52713248326836,19.500256001755588-36.722074847228214,20.842225025873631-.566180740961499.031403133969434-1.130659323600412.082388732852451-1.698218958270445.082388732852451"/>
      <path class="cls-4" d="M499.71118396311067,493.964051207422926c-25.626293990449994,0-37.048404806881081-17.183544545377117-39.96878286484025-22.518483546685275-.960317182030849-1.754166869490291-.924645576049443-3.82843946632056.094811373788616-5.548655728363883,1.193434256190812-2.013881193725865,3.542127892000281-3.264890673605805,6.129883869651167-3.264890673605805h69.731731513640625c2.58744306880908,0,4.936136704629462,1.25100947987994,6.129570960820274,3.264734219193997,1.019769858668951,1.720216262043323,1.055128555819465,3.7946453132854.094811373788616,5.548812182775691-7.583658267729334,13.853881745120816-20.78027502724035,21.39701832009996-39.223434045170507,22.419917267002347-.147067147459893.008135629434946-.294447203739765.017835802990703-.441514351199658.02737952213738-.419923642319191.027379522131014-.894606328909504.058357495747259-1.391818450849314.059765585453533-.38738112459032.007666266198612-.774136431529769.011421172092014-1.15525937962957.011421172092014ZM465.272438751580921,468.863287587519153c2.835266857728129,5.010296096013008,12.991035661878414,19.461207878057394,35.498567399718013,19.002014178277022l.061955947230672-.000625817648142c.311031371429635,0,.659924710620544-.022685889767672,1.02947003222107-.046779869246166.166467494569588-.010951808852042.332934989139176-.021747163296823.499715392528742-.030977973615336,16.046590331990956-.889912696542524,27.493733854371385-7.255416910957138,34.031963739840648-18.923317608940124-.147380056279871-.072907756084533-.375803498080131-.143625150391017-.695283407769239-.143625150391017h-69.731731513640625c-.318854092050969,0-.547277533851229.070404485484687-.694657590129282.143312241563763Z"/>
    </g>
  </g>
  <path class="cls-5" d="M523.212814838250779,549.470375050977964h-26.816887616460008c-58.714682606620045,0-88.612324297810119,38.971131156207775-102.603743923780712,97.427827890518529,0,0-49.956457721089464,190.945426834245154-57.131630139389017,255.815204891448957-5.685515050410686,51.401984225643901,48.039285769058552,93.899419431365459,106.75396837568951,93.899419431365459h114.12447282346875c58.714682606620045,0,111.440618348380667-42.419524862260005,106.753968375680415-93.899419431365459-5.829758177489566-64.036217359582224-48.969968690900714-251.712980559213975-48.969968690900714-251.712980559213975-12.825467990478501-52.303360235962828-33.395496597679085-101.530052222753511-92.110179204308224-101.530052222753511Z"/>
  <circle class="cls-10" cx="470.41177478848067" cy="612.498212480807979" r="11.204948876412345"/>
  <circle class="cls-10" cx="532.038993608756755" cy="612.498212480807979" r="11.204948876415756"/>
  <circle class="cls-10" cx="470.41177478848067" cy="671.324194081983023" r="11.2049488764128"/>
  <circle class="cls-10" cx="532.038993608756755" cy="671.324194081983023" r="11.204948876416209"/>
  <circle class="cls-10" cx="470.41177478848067" cy="730.150175683157158" r="11.2049488764128"/>
  <circle class="cls-10" cx="532.038993608756755" cy="730.150175683157158" r="11.204948876416209"/>
  <circle class="cls-10" cx="470.41177478848067" cy="788.976157284332203" r="11.204948876412345"/>
  <circle class="cls-10" cx="532.038993608756755" cy="788.976157284332203" r="11.204948876415756"/>
  <circle class="cls-10" cx="470.41177478848067" cy="847.802138885506338" r="11.204948876412345"/>
  <circle class="cls-10" cx="532.038993608756755" cy="847.802138885506338" r="11.204948876415756"/>
</svg>