<?xml version="1.0" encoding="UTF-8"?>
<svg id="Tracy_s_Kitchen" data-name="Tracy&amp;apos;s Kitchen" xmlns="http://www.w3.org/2000/svg" width="1920" height="1080" xmlns:xlink="http://www.w3.org/1999/xlink" viewBox="0 0 1920 1080">
  <defs>
    <style>
      .cls-1 {
        fill: #ff8b7e;
      }

      .cls-1, .cls-2, .cls-3, .cls-4, .cls-5, .cls-6, .cls-7, .cls-8, .cls-9, .cls-10, .cls-11, .cls-12, .cls-13, .cls-14, .cls-15, .cls-16, .cls-17 {
        stroke-width: 0px;
      }

      .cls-2 {
        fill: #ffa393;
      }

      .cls-3 {
        fill: #ffcab4;
      }

      .cls-4 {
        fill: #d17954;
      }

      .cls-5 {
        fill: #ffcd00;
      }

      .cls-6 {
        fill: none;
      }

      .cls-7 {
        fill: #ffc2b0;
      }

      .cls-8 {
        fill: #2d3196;
      }

      .cls-9 {
        fill: #bc6d4a;
      }

      .cls-10 {
        fill: #66321d;
      }

      .cls-11 {
        fill: #ffaa97;
      }

      .cls-12 {
        fill: #81482e;
      }

      .cls-13 {
        fill: #945538;
      }

      .cls-18 {
        clip-path: url(#clippath);
      }

      .cls-14 {
        fill: #f0f2e9;
      }

      .cls-15 {
        fill: #241f20;
      }

      .cls-16 {
        fill: #aa5537;
      }

      .cls-17 {
        fill: #e5e6e7;
      }
    </style>
    <clipPath id="clippath">
      <rect class="cls-6" width="1920" height="1080"/>
    </clipPath>
  </defs>
  <g class="cls-18">
    <g>
      <path class="cls-14" d="M286.677308666325189,528.916820014552286c0,28.095435506143986-22.778012506672894,50.873516591545922-50.87348230218231,50.873516591545922v468.206343532012397h-118.895898089369439v-468.206343532012397c-28.098212944565603,0-50.873482302184129-22.778081085401936-50.873482302184129-50.873516591545922,0-28.098281523291007,22.775269357618527-50.876328319329332,50.873482302184129-50.876328319329332,4.432654560616356,0,8.733089336701596.567420382366436,12.831491184766492,1.632002241882219,7.842663152920068-17.988714279331361,25.783680928030662-30.561732244239465,46.657262202134007-30.561732244239465,20.870700967596349,0,38.80321498063131,12.564582781559693,46.651501589116378,30.542084439121027,4.075908025801255-1.053369237746665,8.351105830566667-1.612354436763781,12.755643113352562-1.612354436763781,28.095469795509416,0,50.87348230218231,22.778046796038325,50.87348230218231,50.876328319329332Z"/>
      <g>
        <path class="cls-8" d="M68.209942571244028,1134.633729370760193l.000000006250048-129.314860352309552c.000000002812158-58.267904250707943,47.67373984659389-105.94164409233781,105.941644097296376-105.941644092516071h.000211883496377c58.2679042327145-.000000000185537,105.941644062415435,47.673739826430392,105.941644066013396,105.941644059144892l.000000007967174,129.314860405580475-211.883500061023369-.000000019899744Z"/>
        <circle class="cls-12" cx="82.995566131630767" cy="1045.13530982353268" r="24.840989375755044"/>
        <circle class="cls-12" cx="269.716188507284187" cy="1045.019770339783008" r="24.84098937575709"/>
        <rect class="cls-13" x="88.843650558684089" y="927.660328929685306" width="171.567082852589238" height="224.869477459324685" rx="85.783455633614935" ry="85.783455633614935"/>
        <path class="cls-8" d="M80.680913128973771,1020.178780964030011c71.719972811231855-8.359996830760792,93.364862226097102-72.142639751657043,93.364862226097102-72.142639751657043,0,0,49.642366705686072,66.86264175328688,93.36486222610074,72.142639751657043,0,0,14.328351626569201-93.447955367098984-93.346635180236262-103.702013355168674,0,0-101.109027228148989,1.424174720565134-93.38308927196158,103.702013355168674"/>
      </g>
      <g>
        <path class="cls-15" d="M213.50482177734375,1038.547217247489243c-5.33843994140625,0-9.52020263671875,5.944458007810681-9.52020263671875,13.533203125,0,2.3291015625.40386962890625,4.61669921875,1.16790771484375,6.615234375.53118896484375,1.389892578121362,1.773193359375,2.393310546871362,3.2415771484375,2.619140625.20892333984375.031982421871362.4178466796875.0478515625.62579345703125.0478515625,1.25360107421875,0,2.4600830078125-.572021484378638,3.25250244140625-1.572265625v-.000122070308862c1.67791748046875-2.117553710941138,4.1787109375-3.4228515625,6.8603515625-3.581665039069776,2.18084716796875-.12890625,3.89056396484375-1.9375,3.89227294921875-4.128173828121362,0-7.588745117189319-4.1817626953125-13.533203125-9.52020263671875-13.533203125Z"/>
        <path class="cls-15" d="M130.92333984375,1038.547217247489243c-5.33843994140625,0-9.52020263671875,5.944458007810681-9.52020263671875,13.5439453125.001708984375,2.179931640621362,1.71142578125,3.988525390621362,3.89227294921875,4.117431640621362,2.681640625.158813476569776,5.18243408203125,1.464111328128638,6.8603515625,3.581665039069776v.000122070308862c.792724609375,1.000244140621362,1.9989013671875,1.572265625,3.25250244140625,1.572265625.20794677734375,0,.4168701171875-.015869140628638.62579345703125-.0478515625,1.4683837890625-.225830078128638,2.71038818359375-1.229248046878638,3.2415771484375-2.618896484378638.7640380859375-1.998779296871362,1.16790771484375-4.286376953121362,1.16790771484375-6.615478515621362,0-7.588745117189319-4.1817626953125-13.533203125-9.52020263671875-13.533203125Z"/>
      </g>
      <g>
        <path class="cls-15" d="M144.892686103770757,1033.522228230349356h-26.212185009424502c-2.945296034789862,0-5.333026146621705-2.387730111830024-5.333026146621705-5.333026146619886s2.387730111831843-5.333026146619886,5.333026146621705-5.333026146619886h26.212185009424502c2.945296034789862,0,5.333026146621705,2.387730111830024,5.333026146621705,5.333026146619886s-2.387730111831843,5.333026146619886-5.333026146621705,5.333026146619886Z"/>
        <path class="cls-15" d="M224.310446133993537,1033.522228230349356h-26.212338186876877c-2.945296034788043,0-5.333026146621705-2.387730111830024-5.333026146621705-5.333026146619886s2.387730111833662-5.333026146619886,5.333026146621705-5.333026146619886h26.212338186876877c2.945296034789862,0,5.333026146621705,2.387730111830024,5.333026146621705,5.333026146619886s-2.387730111831843,5.333026146619886-5.333026146621705,5.333026146619886Z"/>
      </g>
      <rect class="cls-10" x="164.696087100028649" y="1050.534941557544244" width="15.089602953433541" height="39.24361205634068" rx="7.544793919731769" ry="7.544793919731769"/>
    </g>
    <g>
      <path class="cls-14" d="M628.663589380226767,311.637449569636374c0,28.095435506143986-22.778012506674713,50.873516591545922-50.873482302180491,50.873516591545922v681.799594266138229h-118.895898089373077V362.510966161182296c-28.098212944563784,0-50.87348230218231-22.778081085401936-50.87348230218231-50.873516591545922,0-28.098281523291007,22.775269357618527-50.876328319329332,50.87348230218231-50.876328319329332,4.432654560616356,0,8.733089336703415.567420382365526,12.83149118477013,1.632002241882219,7.842663152918249-17.988714279332271,25.783680928027024-30.561732244239465,46.657262202132188-30.561732244239465,20.870700967596349,0,38.803214980629491,12.564582781558784,46.651501589114559,30.542084439121936,4.075908025803074-1.053369237747575,8.351105830566667-1.61235443676469,12.7556431133562-1.61235443676469,28.095469795505778,0,50.873482302180491,22.778046796038325,50.873482302180491,50.876328319329332Z"/>
      <g>
        <path class="cls-17" d="M417.017638323181018,1049.207796838130889l-.00000000763248-58.174360521048584c-.000000006755727-51.493181511868897,44.016144568922755-93.623966384991945,97.81365461261521-93.623966384728192h.000195627515495c53.797510050746496.000000000271029,97.813654632926045,42.130784879362182,97.813654627048891,93.623966397983168l-.000000006633854,58.174360502092895"/>
        <circle class="cls-9" cx="419.452264482561532" cy="1043.715163919651786" r="26.312281566015145"/>
        <circle class="cls-9" cx="617.232051584153851" cy="1043.592781216518233" r="26.312281566011734"/>
        <rect class="cls-4" x="425.646721611570229" y="919.282327226036614" width="181.728727550731492" height="238.188138070865534" rx="90.864272881571864" ry="90.864272881571864"/>
        <path class="cls-17" d="M421.288396178000767,1017.138985316189064s13.649439333848932,4.418137468261193,25.380051105583334-6.159802753769327c11.730611771723488-10.57794022203052,61.9616929481017-52.687828633368554,61.9616929481017-52.687828633368554l27.672212384595696,12.933751440628839,72.789949968171641,39.754077192739715-4.210988841137805-47.875269957788987-47.2232320041403-42.228595374226643-34.891050397967774-9.205625471047824-36.094190066860392,3.910203923911467-35.191835315181379,20.15258945399728-19.85180453677458,24.965148129580484-10.34080524439014,56.44135204934355Z"/>
        <path class="cls-17" d="M421.288396178000767,1018.274763780580543c87.888308930556377-1.236079364711259,154.934267034584991-97.406107458094993,154.934267034584991-97.406107458094993,0,0-80.865586475556483-5.906325841689977-108.349185864659376,12.930074951565985"/>
        <path class="cls-17" d="M521.258606263480033,935.816400878375134s10.339419523923425,86.43612207280421,87.833696320973104,82.48762774300485c0,0-.948319709319549-86.736641513762152-87.833696320973104-82.48762774300485Z"/>
      </g>
      <g>
        <path class="cls-15" d="M475.493471967467485,1067.917240612920068c-2.723195568025403,0-5.375715875434253-.808876666920696-7.578146365252906-2.37878048220955-6.085173754694551-4.338243628730197-7.526746175715743-12.02460091931971-3.353524208130693-17.879319218949604,3.529705120949075-4.951664311760396,10.429842407113028-6.107999496760385,15.381168559728394-2.578632534950884,4.178632513849152,2.978843879129272,5.154897955904744,8.802113378589638,2.176054076768196,12.980914972009487-2.538222517521717,3.560984841560639-7.500369762667106,4.392518170971016-11.06084736550838,1.854464733030909-1.558575484046742-1.111190939600419-2.520300083009715-2.831913732079556-2.637979464314412-4.721039777119586-.115988585603191-1.859875279300468.608010136755183-3.653809525951146,1.986684957420948-4.922244466430129.985057579739077-.906604658870492,2.518609287300933-.842354421951313,3.424875787028213.142534078218887.90626649972728.985226659309774.842692581089068,2.518609287300933-.142703157793221,3.425044866600729-.408158084021125.375694806420142-.445017430463849.821050396019928-.430476587374869,1.053027567219033.026376413057733.424051563681132.2502377648525.815978008889942.613758842171592,1.075007911431385,1.384085366933505.986917455018556,3.312945111125373.66329915642018,4.299017168292266-.720617130940809,1.427369737066329-2.002240277939563.959695644112799-4.792222276450048-1.042544633828584-6.219422933949318-2.774595757560746-1.978230978880674-6.64144554277118-1.329810824690867-8.6193383625141,1.444954012438757-2.569333158549853,3.604269211691644-1.614709901563401,8.383979599901068,2.220014765189262,11.11782718088034,2.186198851019071,1.558406404479683,5.122772837448792,1.909753752690449,7.855436861433191.939406095611048,2.750248299362283-.976603601200623,4.822149360490585-3.117827286370812,5.542090173148608-5.727908621491224.356081576197539-1.290415284689516,1.69113386758363-2.04873715993017,2.981210993126297-1.691979265438931,1.290753443827271.356081576190263,2.048229921212624,1.6907957084386,1.692148345013265,2.981380072689717-1.140610784914315,4.134164586719635-4.353122630962389,7.501384240089465-8.59363826774279,9.006868738890262-1.545387277517875.548832286958714-3.141160267150553.818514202459482-4.713262116860278.818514202459482Z"/>
        <path class="cls-15" d="M553.833785845139573,1067.917240612920068c-2.723195568019946,0-5.375715875428796-.808876666920696-7.578146365252906-2.37878048220955-6.085173754689094-4.338243628730197-7.526746175712105-12.02460091931971-3.353524208130693-17.879319218949604,3.529705120954532-4.951664311760396,10.429504247977093-6.107999496760385,15.381168559726575-2.578632534950884,4.178632513856428,2.978843879129272,5.154897955908382,8.802113378589638,2.176054076768196,12.980914972009487-2.538560676655834,3.560984841560639-7.500031603520256,4.392518170971016-11.060847365501104,1.854464733030909-1.558575484046742-1.111190939600419-2.520300083011534-2.831913732079556-2.637979464316231-4.721039777119586-.115988585601372-1.859875279300468.608010136757002-3.653809525951146,1.986684957420948-4.922244466430129.984719420599504-.906604658870492,2.518609287299114-.842354421951313,3.424875787028213.142534078218887.906266499721823.985226659309774.84269258108543,2.518609287300933-.14270315779504,3.425044866600729-.408158084017487.375694806420142-.445017430465668.821050396019928-.430476587371231,1.053027567219033.026376413055914.424051563681132.2502377648525.815978008889942.613758842166135,1.075007911431385,1.384085366931686.986917455018556,3.31294511113083.66329915642018,4.299017168294085-.720617130940809,1.427369737069967-2.002240277939563.959695644114618-4.792222276450048-1.042544633826765-6.219422933949318-2.774595757560746-1.978230978880674-6.641445542772999-1.329810824690867-8.619338362510462,1.444954012438757-2.569333158557129,3.604269211691644-1.614709901567039,8.383979599901068,2.220014765185624,11.11782718088034,2.186198851019071,1.558406404479683,5.123110996590185,1.909753752690449,7.85543686143501.939406095611048,2.750248299356826-.976603601200623,4.822149360488766-3.117827286370812,5.542090173141332-5.727908621491224.355743417057965-1.290415284689516,1.689781231023517-2.04873715993017,2.981210993129935-1.691979265438931,1.29075344382909.356081576190263,2.048229921216262,1.6907957084386,1.692148345016903,2.981380072689717-1.140610784921591,4.134164586719635-4.353122630964208,7.501384240089465-8.593638267744609,9.006868738890262-1.545387277519694.548832286958714-3.141160267150553.818514202459482-4.713262116863916.818514202459482Z"/>
      </g>
      <g>
        <path class="cls-15" d="M458.29353533790345,1038.992034509210498c-1.552211878311937,0-3.050557809277961-.843732035040375-3.815588506922722-2.31640354251067-1.093764002467651-2.105302727059097-.273860517339926-4.69858730732085,1.831610016406557-5.79268692317055,3.399763530225755-1.765997600788978,8.888552538623117-3.839081443449686,15.752349561169467-3.647110590609373,4.335957051209334.116793455919833,8.550422059184712,1.099469429909732,12.525762534556634,2.920843238251109,2.156819380748857.988381401439256,3.104255949932849,3.538036242418457,2.115874548500869,5.695023429849243-.988213594744593,2.156987187448976-3.538036242413,3.10308130311023-5.694855623161857,2.11604235519917-2.917319297777794-1.336748088939203-6.005465805512358-2.057981240610388-9.178522498161328-2.143562652279797-5.027656225520332-.130889217849472-9.059379748579886,1.384405188760866-11.559699422832637,2.683228965859598-.63263121959244.328565498130047-1.309899018604483.48462571941127-1.976930609554984.48462571941127Z"/>
        <path class="cls-15" d="M544.524526702181902,1038.862823358260357c-1.552379685002961,0-3.050893422656372-.844067648420605-3.815756313613747-2.3167391558909-1.093596195778446-2.105638340439327-.27335709727231-4.69892292069926,1.832113436475993-5.79235130979032,3.399931336913141-1.766333214169208,8.891740865723477-3.841766350489706,15.751678334410826-3.647110590609373,4.33578924451831.116793455919833,8.549918639117095,1.099805043289962,12.525594727865609,2.920843238251109,2.156987187439881.988045788059026,3.104591563313079,3.537365015659816,2.116713581948716,5.694352203099697-.988213594742774,2.157322800809197-3.53770062903277,3.105766210130241-5.694687816472651,2.116713581939621-2.918158331223822-1.336748088930108-6.006640452338615-2.057645627219244-9.179361531607356-2.143562652270703-5.021950798076432-.138272712189064-9.05887632851227,1.384069575380636-11.559699422834456,2.683228965859598-.632631219590621.328565498130047-1.309731211913459.48462571941127-1.976594996172935.48462571941127Z"/>
      </g>
      <path class="cls-16" d="M513.149747520255914,1092.949899161709254c-4.707772100966395,0-7.966998940093617-3.983499470039533-9.053407886472996-7.966998940089979-1.448545261835534-7.242726309179488,3.259226839129042-12.3126347255984,7.242726309177669-17.744679457489838,1.086408946375741-2.172817892749663.724272630919586-4.345635785508421,0-6.518453678259903-.362136315459793-1.81068157728987.724272630919586-3.259226839129042,2.172817892753301-3.621363154588835,5.794181047342136-1.448545261830077,11.226225779226297,3.983499470048628,11.58836209468609,9.777680517388944,0,6.156317362811023-3.983499470048628,10.501953148310349-7.604862624637462,15.571861564740175-1.08640894637756,2.172817892749663-.724272630919586,4.345635785499326,0,6.518453678259903.362136315457974,1.086408946370284,0,1.81068157728987-.724272630919586,2.897090523671068-.724272630915948,1.448545261830077-2.172817892751482,1.086408946368465-3.621363154587016,1.086408946368465h0Z"/>
    </g>
    <g>
      <path class="cls-14" d="M1535.303042371750053,473.28489695481494c0,28.095435506143986-22.778012506671075,50.873516591545922-50.873482302180491,50.873516591545922v555.841586453639138h-118.895898089369439v-555.841586453639138c-28.098212944569241,0-50.873482302189586-22.778081085401936-50.873482302189586-50.873516591545922,0-28.098281523291007,22.775269357620346-50.876328319329332,50.873482302189586-50.876328319329332,4.43265456060908,0,8.733089336699777.567420382365526,12.831491184759216,1.632002241882219,7.842663152920068-17.988714279331361,25.783680928030662-30.561732244239465,46.657262202141283-30.561732244239465,20.870700967589073,0,38.803214980629491,12.564582781558784,46.651501589109102,30.542084439121027,4.075908025799436-1.053369237746665,8.351105830570305-1.612354436763781,12.755643113359838-1.612354436763781,28.095469795509416,0,50.873482302180491,22.778046796038325,50.873482302180491,50.876328319329332Z"/>
      <g>
        <path class="cls-15" d="M1441.745627149559368,938.697724597592241s-87.149350504909307,88.321183351947184-104.383355844838661,80.540850300298189"/>
        <path class="cls-5" d="M1413.059729008529757,1256.33466823604067l-87.534136399059207-7.723600270501265s-45.697968267160832-27.676234302649391-39.904981837789819-58.572161849870099c4.002429807809676-21.344163562049289,20.13430879553016-35.939944661738991,25.069073508650035-56.655883896799423,1.801370377428611-7.562066159169262,1.918594134949672-15.409541776529295,2.026927789818728-23.182446485399851.276678964410166-19.85162579523967.552185296950483-39.740007400199829-1.080152256248766-59.526342500930696-1.804752702151745-21.876270087819648-5.939730613921711-43.627252964530271-5.516291342089971-65.573755862382313.337482550779896-17.491462789659636,3.834069557378825-35.609440035414082,13.177309567299744-50.639853053447951,10.647648384339846-17.128806786249697,28.510169533759836-16.303176882980551,46.777016045169148-15.389834678660918,4.487729472200954-9.791145686791424,11.589568060509919-19.683329802443041,20.351212564009984-26.016711242587917,22.080623911220755-15.956296552303684,55.917992028560548-8.936676938526944,80.089447359030601-1.806421928817144,40.74273340344007,12.018560533311756,63.054348524390662,54.3777977603404,68.220426828680502,94.198899328235711,2.037545796079939,15.70580096068079-1.619662560671713,31.156852109241299-3.464021975110882,46.629950685721269-2.033966443059398,17.063805726800638,2.098575239049751,34.476396327700058,5.185513971469845,51.234287669469268,2.19733065301989,11.928526055420662,4.977614386591085,23.848751316631024,9.595199394079827,35.098065498101278,4.462355052890416,10.871144526359785,10.579100728329649,16.83642580311971,17.943844043940771,25.44341767566948,11.774515770370272,13.760582982400592,26.514020535048985,35.348236337620619,21.557352112769877,54.555388883400155-5.149066846999631,19.952634032149945-9.65450033811976,49.55976840241965-25.745334235019982,49.55976840241965-16.090833896880213,0-146.748405139600436,8.367233626380767-146.748405139600436,8.367233626380767Z"/>
        <circle class="cls-2" cx="1331.403514858520793" cy="1044.667393316692596" r="25.311092409059935"/>
        <circle class="cls-2" cx="1521.657729621829276" cy="1044.549667307239361" r="25.311092409059707"/>
        <rect class="cls-11" x="1337.362271234537502" y="924.96925842559574" width="174.813902279266131" height="229.125017435126324" rx="87.406863743635782" ry="87.406863743635782"/>
        <path class="cls-5" d="M1331.614269004050584,954.017398183757905c8.955050870268678-14.943305818309454,70.974068942499798-48.196861584299768,105.935405646539948-38.194994252229662s86.473850324939121,36.811640484052987,86.806943561588923,64.030136303741529c.333093236660716,27.218495819690361-15.472085840468935,54.245460298259786-15.472085840468935,54.245460298259786-.739073954240666-9.021379706819062-22.554877901889995-32.209428558799118-49.425394636060446-36.062687907618965-26.870516734170451-3.853259348825304-87.336103271549291-47.336583475347652-87.336103271549291-47.336583475347652,0,0-39.454820139389994,50.912447542837981-31.708391390910037,76.009953281196431,0,0-26.441778296721168-43.25304852424415-8.800374069140162-72.691284248001466Z"/>
      </g>
      <g>
        <g>
          <g>
            <ellipse class="cls-15" cx="1462.016974289862446" cy="1055.309239405519747" rx="10.045359325860465" ry="6.097994378793367" transform="translate(369.03507494744872 2489.380992002365929) rotate(-88.509463703076165)"/>
            <path class="cls-15" d="M1461.670734382900264,1068.617188859969247c-5.249552888210019-.136596706148339-9.209606062100647-6.089042056488324-9.015425069510457-13.551618711338961.19417225711004-7.462240941300479,4.458429798529323-13.20068449414066,9.707982686739342-13.064087787990502,5.249552888210019.136596706161072,9.209606062100647,6.089042056490143,9.015433804990607,13.551282997790622-.194180992590191,7.462576654848817-4.458438534009474,13.201020207688998-9.707991422219493,13.06442350153884ZM1462.193334494539158,1048.533125322399428c-.821491073569632-.021375720409196-2.891851336589752,2.300861888170402-3.006382219389707,6.702402331820849-.1145396182892,4.401876157198785,1.832248539771172,6.828642523589224,2.653739613340804,6.850018244000239s2.891851336589752-2.300861888181316,3.006390954869858-6.702738045391015c.114530882809049-4.401540443639533-1.832257275249503-6.828306810029972-2.653748348820955-6.849682530430073Z"/>
          </g>
          <g>
            <path class="cls-15" d="M1464.148384633959722,1045.764736019840711s4.524369403099627,2.466622588608516,8.469699534300162-1.371806257220669"/>
            <path class="cls-15" d="M1467.230720330819167,1048.767335150760118c-1.735974802388228-.045171168860179-3.232852421890129-.538648859930618-4.152380138089939-1.039947517629116-1.083822828390112-.590902699381331-1.483533872818953-1.948762222891673-.892631173428526-3.032585051270871.587732774200049-1.078194317240559,1.934531221289944-1.478865059640157,3.015355068799181-.901813970889634.337802993561127.173736810878836,3.236480810019202,1.548245555968606,5.858346906130464-1.002190820570831.884759749180375-.860838389979108,2.300246636219526-.841475445278775,3.160749312650296.043275568419631.860838389979108.884759749180375.841484180758926,2.299910922651179-.04327556842145,3.160749312641201-2.249642748958649,2.188907214998835-4.783497674519822,2.828786443689751-6.946164407640026,2.772512479299621Z"/>
          </g>
          <g>
            <path class="cls-15" d="M1462.248540679320286,1046.409903229590782s5.088148259030277-.815409580771302,5.862177816550684-6.265184263520496"/>
            <path class="cls-15" d="M1462.187748606609603,1048.644512339420544c-1.054476282019095-.027438143761174-1.97328934576035-.801502183740013-2.146428229189041-1.881018118330758-.194204193840051-1.21242476605039.625954567380177-2.353439087439256,1.834277121610285-2.557828249229715.374014723378423-.068878060070347,3.507674858188693-.75328338944928,4.022179150599186-4.375111702040158.173564359729426-1.222003823289924,1.306603637800436-2.070670827359208,2.527308284259561-1.898819977339372,1.22233953686009.173573095198662,2.072384337070616,1.305304460969637,1.898819977341191,2.527308284259561-.795467017971532,5.601607668178985-5.398922220359964,7.785705249960301-7.721561357840983,8.157960528989861-.13965804451982.022233455010792-.278295242709646.031055838710017-.414594946780198.02750923369058Z"/>
          </g>
        </g>
        <g>
          <g>
            <ellipse class="cls-15" cx="1381.364157945565239" cy="1055.847763842787572" rx="10.04535932586281" ry="6.097994378796178" transform="translate(289.941843874439201 2409.27998217368895) rotate(-88.50946370307264)"/>
            <path class="cls-15" d="M1381.017814393389926,1069.155684314599057c-5.249552888210019-.136596706159253-9.209606062100647-6.089042056488324-9.015425069510457-13.551618711349875.19417225711004-7.462240941289565,4.458429798531142-13.200684494138841,9.707982686741161-13.064087787988683,5.249552888199105.136596706159253,9.209606062098828,6.089042056490143,9.015433804988788,13.551282997788803-.194180992590191,7.462576654859731-4.458438534009474,13.201020207699912-9.707991422219493,13.064423501549754ZM1381.540414505019726,1049.071620777020144c-.821491073569632-.021375720400101-2.891851336578839,2.300861888179497-3.006382219380612,6.70240233181903-.1145396182892,4.401876157200604,1.832248539771172,6.828642523600138,2.653739613340804,6.850018244000239s2.891851336589752-2.300861888179497,3.006390954869858-6.702738045380102c.114530882810868-4.401540443648628-1.832257275249503-6.828306810029972-2.65374834883005-6.849682530439168Z"/>
          </g>
          <g>
            <path class="cls-15" d="M1379.732003912689834,1046.205330117471021s-4.646526210879529,2.227990049788787-8.386895836860276-1.810425593701439"/>
            <path class="cls-15" d="M1376.497665083819811,1049.043539072550629c-2.163002446690371-.056282699861185-4.659488192199206-.826718652480849-6.792577192220051-3.130003276950447-.838793651610104-.90568634607007-.784525232480519-2.319929029579725.121161113589551-3.158722681200743.906039530600538-.839456343230268,2.320927434790065-.7841633124699,3.158722681211657.12116111360956,2.49351869588827,2.691940464950676,5.4699204490189,1.453843926130503,5.801364313649174,1.303904220640106,1.113749379170258-.533384531488991,2.437783164490611-.059185744779825,2.97151214500991,1.054236656311332.534073429569617,1.113095423019331.053748209329569,2.45309495589936-1.059338478200516,2.98683267189881-.944353951339508.452799270831747-2.465205494208931.86775372907141-4.200844583039725.822591295691382Z"/>
          </g>
          <g>
            <path class="cls-15" d="M1381.59572433502035,1046.948427666859061s-5.038856580129504-1.078920689938968-5.528417384810382-6.56157479786998"/>
            <path class="cls-15" d="M1381.541198439190339,1049.183509481730653c-.136971131190876-.003564075979739-.274961903829535-.019584495490562-.41360166243976-.049395377260225-2.300472253680709-.492551578860002-6.783775894100472-2.913092407130534-7.286848913970971-8.548488913291294-.109777882238632-1.229376568709995.7979735011304-2.315368959389161,2.027685783390552-2.425138106149461,1.228404369960117-.111146942910636,2.315368959389161.7979735011304,2.425138106149461,2.027685783390552.326496874680743,3.655133687259877,3.438944703400921,4.496019784439341,3.792526083450866,4.579799067740169,1.207363609690219.258512390390024,1.964971210769363,1.443940604969612,1.706458820390253,2.651304214659831-.228692773131115,1.068388137500733-1.195203367171416,1.791715152070537-2.251358216970402,1.764233330910429Z"/>
          </g>
        </g>
      </g>
      <g>
        <path class="cls-15" d="M1364.691680665629974,1038.151289540539437c-1.569499768349488,0-3.084703328489923-.853129171369801-3.858424295369332-2.342202681318668-1.105945890820294-2.128750712819965-.276571310530926-4.751257568990695,1.852179402299953-5.857203459810989,3.437968033100333-1.786005898549774,8.997899753008824-3.877088616940455,15.927453324809903-3.688069942129005,4.3840794610187.118094252839001,8.64497439968909,1.112054214239834,12.664929914459208,2.953374374899795,2.181350164521064.999050230919238,3.139338887989652,3.576762715320001,2.140288657070414,5.757773528539474-.998371528319694,2.181350164519245-3.576423364020229,3.14103564449033-5.757773528539474,2.140288657070414-2.950998915790478-1.351636232941019-6.073709590020371-2.080562828050461-9.281597440860423-2.167436761179488-5.082803790330217-.134722466600579-9.1597703237112,1.40016346901939-11.68827686943041,2.713453004909752-.640016554179965.332224923939066-1.324488128830126.490023279018715-1.998779164439838.490023279018715Z"/>
        <path class="cls-15" d="M1451.882907255800092,1038.020639289559767c-1.569839119640164,0-3.085042679789694-.853468522680487-3.858424295360237-2.342881383929125-1.105945890820294-2.128750712819965-.276231959229335-4.750918217690923,1.85251875359063-5.856524757209627,3.4383073844092-1.785666547240908,8.998578455610186-3.88014277864022,15.927453324809903-3.687730590831052,4.384418812329386.118433604140591,8.645313750988862,1.112054214250747,12.664929914459208,2.953374374899795,2.181010813219473.999050230921057,3.13899953668988,3.577102066619773,2.139949305770642,5.758112879839246-.999389582220829,2.181010813221292-3.577780769219316,3.139338887991471-5.758112879839246,2.139949305770642-2.949980861880249-1.351636232930105-6.072691536111961-2.080562828048642-9.281258089560652-2.167436761170393-5.078052872109765-.137097925709895-9.1597703237112,1.399824117710523-11.688616220730182,2.713113653600885-.640016554179965.332224923939066-1.324148777530354.490023279029629-1.998439813140067.490023279029629Z"/>
      </g>
      <rect class="cls-1" x="1413.7132055510192" y="1057.42501938254054" width="14.253212850813725" height="37.068407557022965" rx="7.126599454485151" ry="7.126599454485151"/>
    </g>
    <g>
      <path class="cls-14" d="M1858.031368035139167,742.107182683796054c0,28.095435506143986-22.778012506669256,50.873516591545922-50.873482302178672,50.873516591545922v246.0690475215888h-118.895898089371258v-246.0690475215888c-28.098212944558327,0-50.873482302178672-22.778081085401936-50.873482302178672-50.873516591545922,0-28.098281523292826,22.775269357620346-50.876328319329332,50.873482302178672-50.876328319329332,4.432654560619994,0,8.733089336699777.567420382365526,12.83149118477013,1.6320022418804,7.842663152920068-17.988714279330452,25.783680928030662-30.561732244237646,46.657262202130369-30.561732244237646,20.870700967599987,0,38.803214980629491,12.564582781556965,46.651501589120016,30.542084439119208,4.075908025799436-1.053369237746665,8.351105830570305-1.612354436761962,12.755643113350743-1.612354436761962,28.095469795509416,0,50.873482302178672,22.778046796036506,50.873482302178672,50.876328319329332Z"/>
      <g>
        <g>
          <circle class="cls-7" cx="1649.822739708290101" cy="1043.354031263987963" r="26.312281566255933"/>
          <circle class="cls-7" cx="1847.602526811702774" cy="1043.231648560847589" r="26.312281566252068"/>
          <rect class="cls-3" x="1656.017196965166249" y="918.921194562575465" width="181.728727434858683" height="238.188138095833892" rx="90.864272911248264" ry="90.864272911248264"/>
        </g>
        <path class="cls-15" d="M1668.286632120780268,995.213721480275126c-.246834661160392-2.396680543864932-.447603014130436-4.796334051683516-.537123076730495-7.20328345955204-.592048361950219-15.918559533260122,5.894011641610632-32.707120337818196,23.793244741520539-35.95877286164432,29.797421570779989-5.413123430107589,71.63534912159048-1.56413163614161,71.635580053809463-1.564136203840462,10.096118094190388-.199497701081782,20.217339825740055-.15116579153073,30.307500356790115.232332987701739,16.055952824959604.610241857775691,28.543617099880066,1.353324522589901,35.293024214910474,17.706430002168418,3.020746792570208,7.318952622004872,3.972957295860397,15.611555212211897,3.929433594039438,23.710280054796385-.052948875980292,9.852524955695117-6.021412600859549,28.844679442845518,5.561148830309321,34.795275527125341,6.605970068150782,3.393334544600293,17.366241933201309.130228383530266,22.639888339361278-4.412372732509539,9.905766782168939-8.532606052620395,21.09003866698913-31.634226322235918,8.022359254049661-42.673883741737882,1.036503951369014.87564318467048,7.159141377329433-9.758210407873776,7.668492070999491-10.655599959502069,3.114945010771407-5.48800490764188,4.33034526738993-10.569058423134265,3.861834145011017-16.896720533351981-.905349619881235-12.227557068801616-8.188632391880674-27.023892863879155-22.397649743950751-28.271547147456658.226264781560531.019866883458235-1.539563649170304-12.795239316023071-1.897352497589964-14.21607398391825-1.641006293959435-6.516688943753252-4.29320674381961-13.200792697178258-9.800166267579698-17.594705106892434-5.503741026041098-4.391223024700594-12.910721480500797-5.634913310710544-19.868297666640501-5.193523365080182-2.45788986550906.155928996686271-14.265118449389774,1.980017074889474-11.905967819149737,6.552904745189153.959633409949674,1.860116729543734-.150725587629495-3.359105864548837-.407292911630066-3.973557316714505-3.026756620740343-7.248760176842552-13.652072235499872-5.509939987749021-18.170614107239089-.422582099259671,1.671933508929214-1.882419474170092-6.855258144300024-13.205665810506616-7.910415952610492-14.491714365956796-6.578209252009401-8.017659969895249-16.012562622630867-13.284961331171871-26.444956997740519-14.941755302012098-17.519094743529422-2.78217390187092-46.885017251219324,1.850504142203135-50.480034671520116,22.667498776238062-8.131978139968851-5.952474651383454-21.38835715380992-6.022181933225511-20.464118770569257,7.417130192556215-.286451262791161-4.16527596432752-14.705768089190315-5.298327183492802-17.513441848779621-5.126896251329526-16.149026054461501.986027149518122-37.799454832700576,21.702165935410449-26.174528753001141,37.969876313800341,0,0-41.365091589010262,20.298849378978048-14.372233683609011,56.500443622493549,1.305888341268655,1.964862014196115-4.857406240251294,14.5462826666826-4.991198271480243,17.787795394408022-.617875050271323,14.969873941496189,10.899626974109196,28.767062090586478,26.724787026400008,29.594409976756651,11.441557484778969.598163631650095,16.069747957510117-3.097962593910779,15.546986773179015-14.628091672200753-.253441497719905-5.589807559390465-1.07546779275981-11.141462373259856-1.648886360559118-16.70916149027471Z"/>
      </g>
      <rect class="cls-1" x="1739.75495413725298" y="1057.42501938254054" width="14.25321285083146" height="37.068407557022965" rx="7.126599283080489" ry="7.126599283080489"/>
      <g>
        <path class="cls-15" d="M1785.992808334900474,1066.651276093820343c-8.548973250761264,0-15.50409256535022-6.95495387407027-15.50409256535022-15.50376168431103,0-.821246724019147.06716884970956-1.655728689358511.200183024999205-2.480284223698618.282572402220467-1.754992999260139,1.935323162269924-2.947157361320933,3.689323518439778-2.666404804780541,1.755323880301148.282572402209553,2.948811766491417,1.934495959689229,2.666239364260036,3.689488958949369-.078418804829198.48738776168102-.118124528789849.977588012130582-.118124528789849,1.45720006952979,0,4.999116087739822,4.067189658180723,9.06614030540004,9.066471186441049,9.06614030540004,4.998950647230231,0,9.066140305409135-4.067024217660219,9.066140305409135-9.06614030540004,0-.502111967638484-.044668939470284-1.018451819709298-.13235241322036-1.534626231259608-.298123810769539-1.752511391519874.880474428930029-3.414857701529399,2.633151260970408-3.713146952819443,1.752345951001189-.298454691799634,3.415023142040809.880474428930029,3.713146952821262,2.633151260970408.148565583829622.871871522060246.223675578328766,1.751684188930085.223675578328766,2.614621923108643,0,8.54880781024076-6.955119314579861,15.50376168431103-15.503761684309211,15.50376168431103Z"/>
        <path class="cls-15" d="M1705.841510414429649,1066.651276093820343c-8.548973250759445,0-15.50409256535022-6.95495387407027-15.50409256535022-15.50376168431103,0-.821246724019147.067168849711379-1.655728689358511.200183025001024-2.480284223698618.282572402209553-1.754992999260139,1.935654043309114-2.947157361320933,3.689323518439778-2.666404804780541,1.755323880299329.282572402209553,2.948811766489598,1.934495959689229,2.666239364260036,3.689488958949369-.078418804820103.48738776168102-.118124528789849.977588012130582-.118124528789849,1.45720006952979,0,4.999116087739822,4.067189658178904,9.06614030540004,9.06647118643923,9.06614030540004,4.998950647230231,0,9.066140305410954-4.067024217660219,9.066140305410954-9.06614030540004,0-.502111967638484-.044668939461189-1.018451819709298-.13235241322036-1.534626231259608-.298123810769539-1.752511391519874.880474428930029-3.414857701529399,2.633151260959494-3.713146952819443,1.753007713079569-.298454691799634,3.415023142060818.880474428930029,3.713146952819443,2.633151260970408.148565583840536.871871522060246.223675578341499,1.751684188930085.223675578341499,2.614621923108643,0,8.54880781024076-6.95511931458168,15.50376168431103-15.50376168431103,15.50376168431103Z"/>
      </g>
      <g>
        <path class="cls-15" d="M1718.707205006590812,1038.387582956929691h-26.555658062799921c-2.983872473951124,0-5.402876224930878-2.419003750990669-5.402876224930878-5.402876224929059,0-2.983872473951124,2.419003750979755-5.402876224930878,5.402876224930878-5.402876224930878h26.555658062799921c2.983872473949305,0,5.402876224929059,2.419003750979755,5.402876224929059,5.402876224930878,0,2.983872473938391-2.419003750979755,5.402876224929059-5.402876224929059,5.402876224929059Z"/>
        <path class="cls-15" d="M1799.165305774589797,1038.387582956929691h-26.555658062799921c-2.983872473949305,0-5.402876224929059-2.419003750990669-5.402876224929059-5.402876224929059,0-2.983872473951124,2.419003750979755-5.402876224930878,5.402876224929059-5.402876224930878h26.555658062799921c2.983872473949305,0,5.402876224930878,2.419003750979755,5.402876224930878,5.402876224930878,0,2.983872473938391-2.419003750981574,5.402876224929059-5.402876224930878,5.402876224929059Z"/>
      </g>
    </g>
  </g>
</svg>