<?xml version="1.0" encoding="UTF-8"?>
<svg id="Tracy_s_Kitchen" data-name="Tracy&amp;apos;s Kitchen" xmlns="http://www.w3.org/2000/svg" width="440" height="772" xmlns:xlink="http://www.w3.org/1999/xlink" viewBox="0 0 440.018069580579322 772">
  <defs>
    <style>
      .cls-1 {
        fill: #ff8b7e;
      }

      .cls-1, .cls-2, .cls-3, .cls-4, .cls-5, .cls-6, .cls-7, .cls-8 {
        stroke-width: 0px;
      }

      .cls-2 {
        fill: #000;
      }

      .cls-3 {
        fill: #0071bc;
      }

      .cls-4 {
        fill: #ffcab4;
      }

      .cls-5 {
        fill: none;
      }

      .cls-6 {
        fill: #f0f0f1;
      }

      .cls-7 {
        fill: #ffc2b0;
      }

      .cls-9 {
        clip-path: url(#clippath);
      }

      .cls-8 {
        fill: #241f20;
      }
    </style>
    <clipPath id="clippath">
      <rect class="cls-5" x="-59.773611247780536" y="-307.762690247938735" width="542.663499855711052" height="1080"/>
    </clipPath>
  </defs>
  <g class="cls-9">
    <g>
      <path class="cls-2" d="M208.91913383776955,573.378369977092007l-.000365106499885.00000000008913c-100.404183302171077.000024918450436-182.553081592481249-79.632126211199648-182.553107311790882-176.960335843639768l-.000057079269027-216.001999559539399c-.000025719309633-97.328209655810497,82.14883050456956-176.960401590980837,182.553013830838609-176.960426522620764l.000365123440133-.00000000008913c100.404183256630859-.000024931630833,182.553081499450855,79.632126151100238,182.553107206240384,176.960335739398943l.000057051511249,216.001999822599828c.000025706789529,97.328209581661213-82.148830464720959,176.960401445359821-182.55301371447058,176.960426363801162Z"/>
      <ellipse class="cls-7" cx="47.640118140288905" cy="251.283994403586803" rx="43.614741151940152" ry="42.285261045095091"/>
      <ellipse class="cls-7" cx="375.476159219841065" cy="251.087369175856111" rx="43.614741151961979" ry="42.285261045115092"/>
      <path class="cls-4" d="M208.523107965940653,434.068589690801673l-.000301230091281-.000000000070941c-82.838196768239868-.000012739348676-150.614892475779925-65.706211142749453-150.614879350050614-146.013774229759292l.000014828750864-90.727373837869891c.000013125711121-80.307563113450669,67.776730333969681-146.013740695620072,150.614927129499847-146.013727960389588l.000301230100376.000000000040018c82.838196806389533.000012735248674,150.614892529200006,65.706211165519562,150.614879384020242,146.013774289509456l-.000014850700609,90.727373808289485c-.000013145179764,80.307563101010601-67.776730358860732,146.013740669601248-150.614927141528824,146.013727930250752Z"/>
      <path class="cls-2" d="M46.63971451136058,212.986422981672149c123.584081511868135-13.966373386931082,160.8814322140679-120.523037056580506,160.8814322140679-120.523037056580506,0,0,85.541093076109973,111.702195539739478,160.881392788262019,120.523086524999599,0,0,24.689886297299381-156.116181274450355-160.84997627939083-173.246861918289142,0,0-174.22575009025968,2.379230452908814-160.912848722939088,173.246812449870049"/>
      <g>
        <g>
          <path class="cls-8" d="M268.81654405566951,260.488122631801161c-1.268085629149937-.000000194970198-2.549657885920169-.355656162459127-3.677819028778686-1.09834926836993-2.997752756031332-1.972451673249452-3.77863121495102-5.927814681850577-1.743827024660277-8.833861978870118,19.309229689748463-27.581625054928736,49.968174923109473-25.431995022740011,51.262559572509417-25.328043964369499,3.610385731770293.292239763530233,6.292549860610961,3.36696276513976,5.990784694078684,6.867295430369268-.301765166448604,3.499678886249967-3.471811079758481,6.091912093590508-7.083208314357762,5.808171456801574-.96058918225026-.069954499600499-24.411912493971613-1.492581186961615-39.314703747451858,19.795767989149681-1.26876025987076,1.812275164789753-3.332560508988536,2.789020658328809-5.433786151339518,2.789020335289024Z"/>
          <path class="cls-8" d="M311.321183112990184,259.284522046222264c-1.040834973991878-.000000160000127-2.096505262990831-.240590990561032-3.079347405100634-.748577416790795-.153073870629669-.078453502310367-6.657701875059502-3.383307296000567-14.303978089259545-5.100785877879389-6.019444803290753-1.352669655430873-14.072344767089817-2.007757441329886-18.244451754610054,2.551696592428925-2.404002167670114,2.628191169589627-6.549809411730166,2.870088758440033-9.260632869169058.53740490591008-2.710149123482552-2.330722515449452-2.958303484161661-6.350155783178707-.554301316602505-8.977693173748776,15.57038150056178-17.018518490831411,47.200365828612121-.926397571960479,48.539256444681087-.233391636860688,3.19566992152977,1.655368893580089,4.402390500301408,5.508088666249023,2.69531274270048,8.606347036658917-1.181096856720615,2.144394905120862-3.448546100789827,3.364999930581689-5.791857752639771,3.364999570281725Z"/>
        </g>
        <g>
          <path class="cls-8" d="M145.901587320540784,260.488103734631295c-2.101225642360077-.000000323050699-4.16502557207059-.976092672199229-5.433785238979908-2.789022006079904-15.050800631461243-21.498870615980195-39.072274092392036-19.812778294270174-39.314697271811383-19.795780077800373-3.609374325729732.290931095571068-6.781779560029463-2.307840876808768-7.083206414359665-5.808173634759441-.30176402151119-3.500332758019795,2.380401113139669-6.575054934899526,5.990786940519683-6.867293588300527,1.29809352176926-.102643101839931,31.953667787180166-2.254225044369377,51.262551287129099,25.328059726751235,2.0348032396505,2.906047922699145,1.253923486841813,6.861410691190031-1.743829914437811,8.833861442679336-1.128161385820931.742692759020429-2.410070926041953,1.098348332399837-3.677819388060016,1.098348137509674Z"/>
          <path class="cls-8" d="M103.402343331888915,259.280567406482078c-2.347694824718928-.000000360940248-4.618178173399428-1.223221200010812-5.797588492368959-3.370885362979607-1.700670568439818-3.097605115341139-.496646067669644-6.943132948510538,2.695652723570674-8.596539523030515,1.339228009948783-.693005523329703,32.968880434838866-16.784462937579519,48.539256368319911.233406561888842,2.404001308048464,2.627538129780078,2.155845632540149,6.646971321189994-.554304253371811,8.977693003331296-2.709475551639116,2.330721682230433-6.856294218439871,2.091437934408532-9.260632693389198-.537407753401567-4.172442663159018-4.559455316639287-12.225342841229576-3.904370006888712-18.244450919901283-2.551702202288652-7.699549186709191,1.729244244379515-14.241266663768329,5.068746318769627-14.306339928039961,5.102089037260157-.980144970497349.504063450478498-2.033792335099861.743346398769063-3.071592804819375.743346239220045Z"/>
        </g>
      </g>
      <path class="cls-1" d="M211.114514044600583,308.265544338592008h.00002017074803c5.546949692910857.000000848978743,10.085364090351504-6.010144601950742,10.08536532771177-13.355878779850173l.000004904999514-29.119252284530376c.000001237338438-7.345734397600609-4.538411271119912-13.355881452220274-10.085361129960802-13.35588234359966h-.000020203689928c-5.546949806859629-.000000891401214-10.085364246839163,6.010144648329515-10.085365422150062,13.355878977139582l-.000004659108527,29.119252470609354c-.000001175310899,7.345734229171285,4.538411279829234,13.355881111281633,10.085361011450004,13.355881960231272Z"/>
      <g>
        <path class="cls-6" d="M211.097005394040025,380.413928979382035c-14.828946455720143.833606324818902-21.810248188559854-24.830682536619861-24.046770206550718-36.089494865660527-.697068968240274-3.509095206980419.476376642169271-7.430114635049904,2.224662344700846-7.430114635049904h43.64421465704072c1.748285702527937,0,2.921731312948395,3.921019428069485,2.224662344719036,7.430114635049904-2.236522018019969,11.258812329040666-7.840571556671421,33.632849665420508-22.983875674139199,35.947395814959236-.354365264311127.054162206050023-.707665169551547.14209905070129-1.062893465770685.14209905070129"/>
        <path class="cls-6" d="M210.356441902289589,385.685108607702205c-18.573878861188859,0-26.188350912671012-28.10603812248155-28.623712797689222-40.367974222081102-.684127944401553-3.444545989550534-.263854064800398-8.226164080799208,2.21993673084944-11.14235746184022,1.389965400439905-1.632010508808889,3.279806223210471-2.530587723458666,5.322170281770013-2.530587723458666h43.644468250380669c2.041807404399151,0,3.931648227178812.898307371669944,5.321056973480154,2.529778194430037,2.483790795649838,2.91592353805936,2.90517798352812,7.697811472309695,2.221050039130205,11.143166990868849-4.886866740251207,24.597539340200456-14.125098933131085,38.102912017910057-27.458079017742421,40.140766409849675l-.15196658161949.026444614730281c-.341785645108757.061524205670139-.893429902978824.160556589389671-1.561414877149218.177286855860075-.312839629579685.015650894440114-.626235913279743.023476341641071-.93350900141013.023476341641071ZM192.261285605940429,342.144320304551002c-.003339924860484.372923036220527.025606090668589.779036762371106.106320941729791,1.186499703560912,3.214121034088748,16.184374055239459,10.167287961139664,32.302636573678683,18.415789083948766,31.842014560019379l.095187858831196-.012952464339833c.145286731880333-.026174771719525.291686772048706-.051809857430271.437530158080335-.073936984019383,5.74133085305948-.87752946010005,13.612420465458854-7.098759995849832,18.510420288628666-31.754585425640471.080714851061202-.407732784189648.109660866601189-.814116353360077.106320941720696-1.187039389580605h-37.67156927293945Z"/>
      </g>
      <g>
        <path class="cls-2" d="M107.681234344849145,212.244062961521195c-3.253944569820305,0-6.18534634856951-2.25420034777926-6.914874464058812-5.562963349069832-.842764168352005-3.822616580919203,1.572846005390602-7.604534629419504,5.395462586307985-8.447575658528876,5.755658441452397-1.268576024760478,15.03824616691054-2.753103446151727,26.570327607170839-2.621871443570853,7.289467078970119.083611950989507,14.39177628087964.788499458429214,21.110079601870893,2.095005407969438,3.842550556000788.747247204450105,6.351462807489952,4.467979023900625,5.604215603039847,8.310252719151322-.7475240652293,3.842550555989874-4.467979023920634,6.350909085958847-8.310252719149503,5.604215603048942-5.882183811001596-1.143988680569237-12.128993249381892-1.761388186279873-18.56655975475951-1.835310010519606-10.186538122852653-.109360002130416-18.324583446241377,1.181364883819697-23.355697265942581,2.290745968770352-.513853579657734.113236052839056-1.027430298519903.167500762749114-1.532701194479159.167500762749114Z"/>
        <path class="cls-2" d="M265.312741421248575,212.14383936464219c-3.2539445698294,0-6.185346348567691-2.25447720855118-6.914874464058812-5.56296334909166-.842764168359281-3.822616580928297,1.572846005350584-7.604811490189604,5.39546258630071-8.447575658519781,5.756212162959855-1.268852885528759,15.037138723859243-2.755318332268871,26.570604467928206-2.621594582809848,7.288636496670733.083335090230321,14.391222559361267.787945736879919,21.109802741100793,2.094728547210252,3.842550556009883.747247204450105,6.351462807500866,4.467979023900625,5.604215603028933,8.310252719149503-.747247204450105,3.842273695230688-4.469086466959197,6.350909085960666-8.310252719129494,5.604215603030752-5.882460671778972-1.143988680549228-12.128993249369159-1.761388186259865-18.566282894000324-1.835033149749506-10.184600097489238-.11960385042039-18.32458344621773,1.181088023058692-23.355974126709043,2.290469108020261-.514130440398731.113236052839056-1.027430298530817.167500762760028-1.532701194460969.167500762760028Z"/>
      </g>
      <path class="cls-3" d="M53.11405781816029,754.418896935281737l-.0000000680011-139.568672682720717c-.000000042349711-86.915565612140199,71.112735423841514-158.028301099438977,158.028301035970799-158.02830108290982h.000316103589284c32.593335748581012.000000006190021,62.964398693489784,10.000227628359426,88.1964558958407,27.083949927069625,42.053431344300407,28.472872308069782,69.831844921929587,76.622121219641485,69.831844921829543,130.944350920981378l-.000000000320142,139.568672948080348c-.000000000040018,28.362050766929315-22.991984950729602,51.354035711578035-51.354035717660736,51.354035704218404l-213.348846480259454-.000000055410055c-28.362050746780369-.000000007359631-51.354035677170032-22.991984932519699-51.354035690988894-51.354035679309163Z"/>
    </g>
  </g>
</svg>