<?xml version="1.0" encoding="UTF-8"?>
<svg id="Tracy_s_Kitchen" data-name="Tracy&amp;apos;s Kitchen" xmlns="http://www.w3.org/2000/svg" width="542.663499855707414" height="1080" xmlns:xlink="http://www.w3.org/1999/xlink" viewBox="0 0 542.663499855707414 1080">
  <defs>
    <style>
      .cls-1 {
        fill: #ff8b7e;
      }

      .cls-1, .cls-2, .cls-3, .cls-4, .cls-5, .cls-6, .cls-7, .cls-8, .cls-9, .cls-10 {
        stroke-width: 0px;
      }

      .cls-2 {
        fill: #000;
      }

      .cls-3 {
        fill: #0071bc;
      }

      .cls-4 {
        fill: #ffcab4;
      }

      .cls-5 {
        fill: none;
      }

      .cls-6 {
        fill: #f0f0f1;
      }

      .cls-7 {
        fill: #ffc2b0;
      }

      .cls-8 {
        fill: #2d3196;
      }

      .cls-11 {
        clip-path: url(#clippath-1);
      }

      .cls-9 {
        fill: #945538;
      }

      .cls-12 {
        clip-path: url(#clippath);
      }

      .cls-10 {
        fill: #241f20;
      }
    </style>
    <clipPath id="clippath">
      <rect class="cls-5" x="-.000000000000909" y="-1114.14002734666974" width="542.663499855707414" height="1080"/>
    </clipPath>
    <clipPath id="clippath-1">
      <rect class="cls-5" x="-.000000000000909" width="542.663499855707414" height="1080"/>
    </clipPath>
  </defs>
  <g class="cls-12">
    <g>
      <path class="cls-8" d="M163.185815179633209,20.493702024090453l.000000006250048-129.314860352309552c.000000002819434-58.267904250707943,47.673739846599346-105.94164409233781,105.941644097300014-105.941644092516071h.000211883500015c58.267904232710862-.000000000185537,105.941644062411797,47.673739826430392,105.941644066009758,105.941644059144892l.000000007970812,129.314860405580475-211.883500061030645-.000000019899744Z"/>
      <rect class="cls-9" x="183.819523201598031" y="-186.479698416984405" width="171.567082852577641" height="224.869477459324742" rx="85.7834557148649" ry="85.7834557148649"/>
    </g>
  </g>
  <g class="cls-11">
    <g>
      <path class="cls-2" d="M268.692745085547358,881.14106022503438l-.000365106499885.00000000008913c-100.404183302163801.000024918444979-182.553081592475792-79.632126211206923-182.553107311787244-176.960335843641587l-.000057079269027-216.001999559546675c-.000025719309633-97.328209655803221,82.148830504567741-176.960401590977199,182.553013830842247-176.960426522611669l.000365123432857-.000000000090949c100.404183256636315-.000024931632652,182.553081499452674,79.632126151100238,182.553107206240384,176.960335739398943l.000057051511249,216.001999822594371c.00002570678771,97.328209581661213-82.14883046471914,176.960401445359821-182.55301371447058,176.960426363808438Z"/>
      <ellipse class="cls-7" cx="107.413729388070351" cy="559.046684651523265" rx="43.614741151943782" ry="42.285261045093726"/>
      <ellipse class="cls-7" cx="435.249770467621602" cy="558.850059423795756" rx="43.614741151959244" ry="42.285261045112371"/>
      <path class="cls-4" d="M268.296719213722099,741.831279938738589l-.000301230091281-.000000000065484c-82.838196768239868-.000012739354133-150.614892475779925-65.706211142749453-150.614879350046976-146.013774229764749l.000014828750864-90.727373837868072c.000013125709302-80.307563113454307,67.776730333967862-146.013740695618253,150.614927129499847-146.013727960391407l.000301230091281.000000000045475c82.838196806391352.000012735246855,150.614892529207282,65.706211165514105,150.614879384029337,146.013774289503999l-.000014850706066,90.727373808291304c-.000013145176126,80.307563101008782-67.776730358862551,146.013740669603067-150.614927141527005,146.013727930248933Z"/>
      <path class="cls-2" d="M106.413325759145664,520.749113229614522c123.584081511862678-13.966373386931082,160.8814322140679-120.523037056587782,160.8814322140679-120.523037056587782,0,0,85.541093076104517,111.702195539741297,160.881392788258381,120.523086524999599,0,0,24.689886297303019-156.116181274450355-160.849976279394468-173.246861918283685,0,0-174.225750090254223,2.379230452903357-160.912848722931813,173.246812449871868"/>
      <g>
        <g>
          <path class="cls-10" d="M328.590155303447318,568.250812879736259c-1.268085629146299-.000000194962922-2.549657885914712-.35565616245367-3.677819028778686-1.098349268364473-2.997752756029513-1.972451673251271-3.778631214947382-5.927814681854215-1.74382702465482-8.833861978871937,19.309229689743006-27.581625054934193,49.968174923107654-25.431995022743649,51.262559572505779-25.328043964365861,3.61038573177575.292239763528414,6.292549860609142,3.366962765134303,5.990784694078684,6.86729543036563-.301765166446785,3.499678886246329-3.471811079762119,6.091912093592327-7.083208314359581,5.808171456796117-.96058918225026-.069954499600499-24.411912493964337-1.492581186959796-39.314703747444582,19.795767989156957-1.268760259874398,1.812275164789753-3.332560508992174,2.78902065832699-5.433786151346794,2.789020335283567Z"/>
          <path class="cls-10" d="M371.094794360766173,567.047212294162819c-1.040834973984602-.000000159998308-2.096505262981736-.240590990566488-3.079347405100634-.748577416792614-.153073870624212-.078453502312186-6.657701875052226-3.383307295998748-14.303978089259545-5.10078587787757-6.019444803283477-1.35266965543633-14.072344767087998-2.007757441329886-18.244451754600959,2.551696592428925-2.404002167670114,2.62819116958417-6.549809411735623,2.870088758434576-9.260632869174515.537404905904623-2.710149123480733-2.330722515447633-2.958303484158023-6.350155783176888-.554301316602505-8.977693173748776,15.570381500559961-17.018518490824135,47.200365828608483-.926397571956841,48.539256444682906-.233391636860688,3.195669921526132,1.655368893583727,4.40239050029777,5.508088666256299,2.695312742704118,8.606347036666193-1.181096856726072,2.144394905115405-3.448546100793465,3.364999930572594-5.791857752648866,3.364999570279906Z"/>
        </g>
        <g>
          <path class="cls-10" d="M205.675198568316773,568.250793982568212c-2.101225642354621-.000000323045242-4.165025572065133-.976092672193772-5.433785238978089-2.789022006079904-15.050800631455786-21.498870615978376-39.072274092388398-19.812778294268355-39.314697271809564-19.795780077800373-3.609374325726094.290931095572887-6.781779560027644-2.307840876810587-7.083206414359665-5.80817363476126-.301764021509371-3.500332758017976,2.38040111313785-6.575054934899526,5.990786940519683-6.86729358829507,1.298093521772898-.102643101838112,31.953667787183804-2.254225044374834,51.262551287134556,25.328059726745778,2.034803239643225,2.906047922702783,1.253923486841813,6.861410691197307-1.743829914445087,8.833861442682974-1.128161385815474.742692759024067-2.410070926041953,1.098348332399837-3.677819388061835,1.098348137507855Z"/>
          <path class="cls-10" d="M163.175954579673999,567.043257654422632c-2.347694824718928-.000000360947524-4.618178173399428-1.223221200016269-5.797588492368959-3.370885362979607-1.700670568441637-3.097605115341139-.496646067678739-6.943132948510538,2.695652723570674-8.596539523032334,1.339228009946964-.693005523327884,32.968880434837047-16.784462937575881,48.539256368312635.23340656189248,2.404001308050283,2.627538129781897,2.155845632545606,6.646971321188175-.554304253371811,8.977693003329478-2.709475551633659,2.330721682224976-6.856294218432595,2.091437934404894-9.260632693389198-.537407753401567-4.172442663159018-4.559455316644744-12.225342841229576-3.90437000689235-18.244450919897645-2.551702202294109-7.699549186709191,1.729244244384972-14.241266663770148,5.068746318776903-14.306339928036323,5.102089037267433-.980144970504625.504063450478498-2.033792335103499.743346398763606-3.071592804819375.743346239218226Z"/>
        </g>
      </g>
      <path class="cls-1" d="M270.88812529237839,616.028234586525286h.000020170753487c5.546949692909038.000000848989657,10.085364090347866-6.010144601947104,10.085365327713589-13.355878779846535l.000004904995876-29.119252284532195c.000001237342076-7.345734397595152-4.538411271125369-13.355881452220274-10.085361129957164-13.355882343594203h-.000020203689928c-5.546949806866905-.000000891399395-10.085364246846439,6.010144648324058-10.0853654221537,13.355878977134125l-.000004659108527,29.11925247061663c-.00000117530908,7.345734229164009,4.538411279831053,13.355881111279814,10.085361011446366,13.355881960222177Z"/>
      <g>
        <path class="cls-6" d="M270.87061664182329,688.17661922732259c-14.828946455727419.833606324815264-21.810248188558035-24.830682536619861-24.046770206550718-36.089494865664165-.697068968245731-3.509095206980419.476376642165633-7.430114635049904,2.224662344702665-7.430114635049904h43.644214657031625c1.748285702537032,0,2.921731312950214,3.921019428069485,2.224662344722674,7.430114635049904-2.236522018014512,11.258812329044304-7.840571556671421,33.632849665418689-22.98387567413738,35.947395814964693-.354365264312946.054162206050023-.707665169553366.142099050699471-1.062893465768866.142099050699471"/>
        <path class="cls-6" d="M270.130053150069216,693.44779885564094c-18.57387886118704,0-26.188350912665555-28.106038122485188-28.623712797691041-40.367974222079283-.684127944397915-3.444545989552353-.26385406479676-8.226164080799208,2.21993673084944-11.142357461836582,1.389965400447181-1.632010508812527,3.279806223217747-2.530587723467761,5.322170281770013-2.530587723467761h43.644468250380669c2.041807404406427,0,3.931648227186088.898307371669944,5.32105697348743,2.529778194435494,2.483790795644381,2.915923538053903,2.905177983520844,7.697811472309695,2.221050039126567,11.143166990868849-4.886866740249388,24.597539340194999-14.125098933134723,38.102912017911876-27.45807901774424,40.140766409846037l-.15196658161949.026444614730281c-.341785645108757.061524205671958-.893429902973367.160556589396947-1.561414877143761.177286855860075-.312839629586961.015650894443752-.626235913281562.02347634164289-.933509001415587.02347634164289ZM252.034896853720056,649.907010552489737c-.003339924855027.372923036218708.025606090674046.779036762372925.10632094173161,1.186499703557274,3.21412103408511,16.184374055241278,10.167287961136026,32.302636573682321,18.415789083948766,31.842014560023017l.095187858833015-.012952464341652c.145286731882152-.026174771721344.291686772046887-.051809857428452.437530158074878-.073936984023021,5.74133085305948-.877529460096412,13.612420465462492-7.098759995849832,18.510420288635942-31.754585425638652.080714851055745-.407732784191467.109660866593913-.814116353358258.10632094171342-1.187039389576967h-37.671569272937631Z"/>
      </g>
      <g>
        <path class="cls-2" d="M167.454845592630591,520.006753209456292c-3.253944569816667,0-6.185346348567691-2.25420034777926-6.91487446406245-5.562963349069832-.842764168352005-3.822616580917384,1.57284600539424-7.604534629415866,5.395462586307985-8.447575658528876,5.755658441456035-1.268576024762297,15.038246166915997-2.753103446144451,26.570327607170839-2.621871443570853,7.289467078977395.083611950994964,14.39177628087964.788499458429214,21.110079601869074,2.095005407976714,3.842550556006245.747247204448286,6.35146280749359,4.467979023895168,5.604215603043485,8.310252719149503-.747524065227481,3.842550555982598-4.467979023922453,6.350909085957028-8.310252719145865,5.604215603043485-5.882183811003415-1.143988680567418-12.128993249383711-1.761388186279873-18.566559754764967-1.835310010517787-10.186538122847196-.109360002128597-18.324583446239558,1.181364883817878-23.355697265942581,2.290745968772171-.513853579657734.113236052839056-1.027430298519903.167500762745476-1.532701194475521.167500762745476Z"/>
        <path class="cls-2" d="M325.086352669026383,519.906529612584563c-3.253944569823943,0-6.18534634856951-2.254477208558455-6.914874464060631-5.56296334909166-.842764168353824-3.822616580937392,1.572846005359679-7.604811490193242,5.395462586306166-8.447575658527057,5.756212162963493-1.268852885521483,15.037138723855605-2.755318332263414,26.570604467928206-2.621594582809848,7.288636496672552.08333509023214,14.391222559355811.787945736887195,21.109802741102612,2.09472854721389,3.842550556008064.747247204448286,6.351462807495409,4.467979023896987,5.604215603027114,8.310252719151322-.747247204451924,3.842273695225231-4.469086466957378,6.350909085957028-8.310252719129494,5.604215603025295-5.882460671775334-1.143988680551047-12.128993249374616-1.761388186259865-18.566282893996686-1.83503314974223-10.184600097496514-.11960385042039-18.324583446225006,1.181088023058692-23.355974126712681,2.290469108016623-.514130440402369.113236052837237-1.027430298534455.167500762763666-1.532701194464607.167500762763666Z"/>
      </g>
      <path class="cls-3" d="M112.887669065938098,1062.181587183220472l-.000000067997462-139.568672682720717c-.000000042346073-86.915565612134742,71.112735423837876-158.028301099440796,158.028301035970799-158.02830108290982h.000316103587465c32.593335748577374.000000006190021,62.964398693495241,10.000227628361245,88.1964558958407,27.083949927071444,42.053431344304045,28.47287230807342,69.831844921933225,76.622121219637847,69.831844921827724,130.944350920975921l-.000000000320142,139.568672948085805c-.000000000040018,28.362050766925677-22.991984950727783,51.354035711576216-51.354035717658917,51.354035704220223l-213.348846480253997-.000000055417331c-28.362050746784007-.000000007355993-51.354035677175489-22.991984932516061-51.35403569099617-51.354035679305525Z"/>
    </g>
  </g>
</svg>