<?xml version="1.0" encoding="UTF-8"?>
<svg id="Tracy_s_Kitchen" data-name="Tracy&amp;apos;s Kitchen" xmlns="http://www.w3.org/2000/svg" width="243.231047042905629" height="689.73215885821719" xmlns:xlink="http://www.w3.org/1999/xlink" viewBox="0 0 243.231047042905629 689.73215885821719">
  <defs>
    <style>
      .cls-1 {
        fill: #ff8b7e;
      }

      .cls-1, .cls-2, .cls-3, .cls-4, .cls-5, .cls-6, .cls-7 {
        stroke-width: 0px;
      }

      .cls-2 {
        fill: #ffa393;
      }

      .cls-3 {
        fill: #ffcd00;
      }

      .cls-4 {
        fill: none;
      }

      .cls-5 {
        fill: #ffaa97;
      }

      .cls-8 {
        clip-path: url(#clippath);
      }

      .cls-6 {
        fill: #f0f2e9;
      }

      .cls-7 {
        fill: #241f20;
      }
    </style>
    <clipPath id="clippath">
      <rect class="cls-4" x="-139.115167639920401" y="-390.26784114178281" width="542.663499855709233" height="1080"/>
    </clipPath>
  </defs>
  <g class="cls-8">
    <g>
      <path class="cls-6" d="M231.693190785888874,83.01705581303213c0,28.095435506143986-22.778012506660161,50.873516591545922-50.873482302180491,50.873516591545922v555.841586453639138H61.923810394338943V133.890572404578052c-28.098212944569241,0-50.873482302180491-22.778081085401936-50.873482302180491-50.873516591545922,0-28.098281523291007,22.775269357611251-50.876328319329332,50.873482302180491-50.876328319329332,4.43265456060908,0,8.733089336699777.567420382365526,12.831491184759216,1.632002241882219,7.842663152930982-17.988714279331361,25.783680928030662-30.561732244239465,46.657262202141283-30.561732244239465,20.870700967589073,0,38.803214980638586,12.564582781558784,46.651501589109102,30.542084439121027,4.075908025799436-1.053369237746665,8.351105830570305-1.612354436763781,12.755643113359838-1.612354436763781,28.09546979552033,0,50.873482302180491,22.778046796038325,50.873482302180491,50.876328319329332Z"/>
      <g>
        <path class="cls-7" d="M138.135775563709103,548.429883455809431s-87.149350504920221,88.321183351947184-104.38335584484048,80.540850300298189"/>
        <path class="cls-3" d="M109.449877422679492,866.06682709425786l-87.534136399061026-7.723600270501265s-45.697968267169927-27.676234302649391-39.904981837789819-58.572161849870099c4.002429807809676-21.344163562049289,20.134308795521065-35.939944661738991,25.069073508650035-56.655883896799423,1.801370377419516-7.562066159169262,1.918594134949672-15.409541776529295,2.026927789820547-23.182446485399851.276678964399252-19.85162579523967.552185296948664-39.740007400199829-1.08015225625968-59.526342500930696-1.804752702140831-21.876270087819648-5.939730613910797-43.627252964530271-5.516291342089971-65.573755862382313.337482550788991-17.491462789659636,3.834069557378825-35.609440035414082,13.177309567308839-50.639853053447951,10.647648384339846-17.128806786249697,28.510169533750741-16.303176882980551,46.777016045170967-15.389834678660918,4.48772947219004-9.791145686791424,11.589568060509919-19.683329802443041,20.35121256399907-26.016711242587917,22.080623911220755-15.956296552303684,55.917992028560548-8.936676938526944,80.089447359030601-1.806421928817144,40.74273340344007,12.018560533311756,63.054348524390662,54.3777977603404,68.220426828680502,94.198899328235711,2.037545796079939,15.70580096068079-1.619662560660799,31.156852109241299-3.464021975101787,46.629950685721269-2.033966443068493,17.063805726800638,2.098575239040656,34.476396327700058,5.18551397146075,51.234287669469268,2.19733065301989,11.928526055420662,4.97761438660018,23.848751316631024,9.595199394079827,35.098065498101278,4.462355052899511,10.871144526359785,10.579100728329649,16.83642580311971,17.943844043940771,25.44341767566948,11.774515770379367,13.760582982400592,26.514020535059899,35.348236337620619,21.557352112769877,54.555388883400155-5.149066846999631,19.952634032149945-9.654500338110665,49.55976840241965-25.745334235019982,49.55976840241965-16.090833896880213,0-146.748405139589522,8.367233626380767-146.748405139589522,8.367233626380767Z"/>
        <circle class="cls-2" cx="27.793663272661433" cy="654.399552174909786" r="25.311092409060844"/>
        <circle class="cls-2" cx="218.047878035975373" cy="654.28182616545655" r="25.311092409063345"/>
        <rect class="cls-5" x="33.752419894375635" y="534.70141728381293" width="174.813901802430337" height="229.125017435126324" rx="87.406863480751227" ry="87.406863480751227"/>
        <path class="cls-3" d="M28.004417418189405,563.749557041975095c8.955050870279592-14.943305818309454,70.974068942508893-48.196861584299768,105.935405646549043-38.194994252229662s86.47385032494094,36.811640484052987,86.806943561579828,64.030136303741529c.333093236669811,27.218495819690361-15.472085840468935,54.245460298259786-15.472085840468935,54.245460298259786-.739073954231571-9.021379706819062-22.554877901889995-32.209428558799118-49.425394636051351-36.062687907618965-26.870516734179546-3.853259348825304-87.336103271558386-47.336583475347652-87.336103271558386-47.336583475347652,0,0-39.454820139380899,50.912447542837981-31.708391390900942,76.009953281196431,0,0-26.441778296719349-43.25304852424415-8.800374069149257-72.691284248001466Z"/>
      </g>
      <g>
        <g>
          <g>
            <ellipse class="cls-7" cx="158.407122704005815" cy="665.041398263736937" rx="10.045359325860584" ry="6.097994378788822" transform="translate(-510.529708293469412 806.095976576542853) rotate(-88.509463703076818)"/>
            <path class="cls-7" d="M158.060882797039085,678.349347718186436c-5.249552888210019-.136596706148339-9.209606062100647-6.089042056488324-9.015425069499543-13.551618711338961.194172257108221-7.462240941300479,4.458429798518409-13.20068449414066,9.707982686728428-13.064087787990502,5.249552888210019.136596706161072,9.209606062100647,6.089042056490143,9.015433804990607,13.551282997790622-.194180992579277,7.462576654848817-4.458438534009474,13.201020207688998-9.707991422219493,13.06442350153884ZM158.583482908677979,658.265284180616618c-.821491073569632-.021375720409196-2.891851336589752,2.300861888170402-3.006382219378793,6.702402331820849-.114539618300114,4.401876157198785,1.832248539760258,6.828642523589224,2.65373961332989,6.850018244000239s2.891851336589752-2.300861888181316,3.006390954869858-6.702738045391015c.114530882809049-4.401540443639533-1.832257275240408-6.828306810029972-2.653748348820955-6.849682530430073Z"/>
          </g>
          <g>
            <path class="cls-7" d="M160.538533048109457,655.496894878057901s4.524369403088713,2.466622588608516,8.469699534298343-1.371806257220669"/>
            <path class="cls-7" d="M163.620868744957988,658.499494008977308c-1.735974802388228-.045171168860179-3.232852421879215-.538648859930618-4.152380138089939-1.039947517629116-1.083822828390112-.590902699381331-1.483533872818953-1.948762222891673-.892631173428526-3.032585051270871.587732774209144-1.078194317240559,1.934531221289944-1.478865059640157,3.015355068808276-.901813970889634.337802993552032.173736810878836,3.236480810021021,1.548245555968606,5.858346906130464-1.002190820570831.884759749180375-.860838389979108,2.300246636219526-.841475445278775,3.160749312650296.043275568419631.860838389970013.884759749180375.841484180749831,2.299910922651179-.043275568430545,3.160749312641201-2.249642748949555,2.188907214998835-4.783497674508908,2.828786443689751-6.946164407640026,2.772512479299621Z"/>
          </g>
          <g>
            <path class="cls-7" d="M158.638689093459107,656.142062087807972s5.088148259030277-.815409580771302,5.862177816550684-6.265184263520496"/>
            <path class="cls-7" d="M158.577897020759337,658.376671197637734c-1.054476282030009-.027438143761174-1.973289345771263-.801502183740013-2.14642822919086-1.881018118330758-.194204193849146-1.21242476605039.625954567371082-2.353439087439256,1.83427712160119-2.557828249229715.374014723389337-.068878060070347,3.507674858188693-.75328338944928,4.022179150608281-4.375111702040158.173564359720331-1.222003823289924,1.306603637800436-2.070670827359208,2.527308284250466-1.898819977339372,1.22233953686009.173573095198662,2.072384337079711,1.305304460969637,1.898819977341191,2.527308284259561-.795467017971532,5.601607668178985-5.398922220359964,7.785705249960301-7.721561357840983,8.157960528989861-.139658044510725.022233455010792-.278295242700551.031055838710017-.414594946769284.02750923369058Z"/>
          </g>
        </g>
        <g>
          <g>
            <ellipse class="cls-7" cx="77.754306359711336" cy="665.579922701004762" rx="10.045359325863" ry="6.097994378797996" transform="translate(-589.62293936649246 725.994966746850082) rotate(-88.509463702983695)"/>
            <path class="cls-7" d="M77.407962807537842,678.887843172816247c-5.249552888210019-.136596706159253-9.209606062098828-6.089042056488324-9.015425069519551-13.551618711349875.19417225711004-7.462240941289565,4.458429798531142-13.200684494138841,9.707982686741161-13.064087787988683,5.249552888199105.136596706159253,9.209606062109742,6.089042056490143,9.015433804999702,13.551282997788803-.194180992601105,7.462576654859731-4.458438534011293,13.201020207699912-9.707991422221312,13.064423501549754ZM77.930562919158547,658.803779635237333c-.821491073569632-.021375720400101-2.891851336578839,2.300861888179497-3.006382219380612,6.70240233181903-.114539618280105,4.401876157200604,1.832248539780267,6.828642523600138,2.653739613349899,6.850018244000239.821491073571451.021375720411015,2.891851336591571-2.300861888179497,3.006390954871677-6.702738045380102.114530882799954-4.401540443648628-1.832257275260417-6.828306810029972-2.653748348840963-6.849682530439168Z"/>
          </g>
          <g>
            <path class="cls-7" d="M76.122152326828655,655.937488975688211s-4.646526210879529,2.227990049788787-8.386895836849362-1.810425593701439"/>
            <path class="cls-7" d="M72.887813497969546,658.775697930767819c-2.163002446690371-.056282699861185-4.659488192201025-.826718652480849-6.792577192220051-3.130003276950447-.838793651621017-.90568634607007-.784525232480519-2.319929029579725.121161113578637-3.158722681200743.906039530600538-.839456343230268,2.320927434790065-.7841633124699,3.158722681211657.12116111360956,2.493518695899184,2.691940464950676,5.469920449027995,1.453843926130503,5.801364313658269,1.303904220640106,1.113749379161163-.533384531488991,2.437783164481516-.059185744779825,2.97151214500991,1.054236656311332.534073429560522,1.113095423019331.053748209320474,2.45309495589936-1.059338478198697,2.98683267189881-.944353951350422.452799270831747-2.46520549421075.86775372907141-4.200844583039725.822591295691382Z"/>
          </g>
          <g>
            <path class="cls-7" d="M77.985872749159171,656.680586525076251s-5.038856580129504-1.078920689938968-5.528417384801287-6.56157479786998"/>
            <path class="cls-7" d="M77.93134685332916,658.915668339947842c-.136971131179962-.003564075979739-.274961903829535-.019584495490562-.41360166243976-.049395377260225-2.300472253671614-.492551578860002-6.783775894091377-2.913092407130534-7.286848913960057-8.548488913291294-.109777882249546-1.229376568709995.797973501119486-2.315368959389161,2.027685783379638-2.425138106149461,1.228404369969212-.111146942910636,2.315368959389161.7979735011304,2.425138106160375,2.027685783390552.326496874678924,3.655133687259877,3.438944703399102,4.496019784439341,3.792526083439952,4.579799067740169,1.207363609690219.258512390390024,1.964971210778458,1.443940604969612,1.706458820390253,2.651304214659831-.228692773120201,1.068388137500733-1.195203367160502,1.791715152070537-2.251358216970402,1.764233330910429Z"/>
          </g>
        </g>
      </g>
      <g>
        <path class="cls-7" d="M61.081829079768795,647.883448398756627c-1.569499768349488,0-3.084703328480828-.853129171369801-3.858424295369332-2.342202681318668-1.105945890820294-2.128750712819965-.276571310520012-4.751257568990695,1.852179402299953-5.857203459810989,3.437968033100333-1.786005898549774,8.997899753008824-3.877088616940455,15.927453324809903-3.688069942129005,4.3840794610187.118094252839001,8.64497439968909,1.112054214239834,12.664929914459208,2.953374374899795,2.181350164530159.999050230919238,3.139338888000566,3.576762715320001,2.140288657079509,5.757773528539474-.998371528319694,2.181350164519245-3.576423364029324,3.14103564449033-5.757773528548569,2.140288657070414-2.950998915781383-1.351636232941019-6.073709590011276-2.080562828050461-9.281597440851328-2.167436761179488-5.082803790330217-.134722466600579-9.159770323709381,1.40016346901939-11.688276869428591,2.713453004909752-.640016554190879.332224923939066-1.324488128830126.490023279018715-1.998779164450752.490023279018715Z"/>
        <path class="cls-7" d="M148.273055669938913,647.752798147776957c-1.569839119631069,0-3.085042679780599-.853468522680487-3.858424295351142-2.342881383929125-1.105945890818475-2.128750712819965-.276231959229335-4.750918217690923,1.852518753581535-5.856524757209627,3.438307384420114-1.785666547240908,8.998578455619281-3.88014277864022,15.927453324809903-3.687730590831052,4.384418812329386.118433604140591,8.645313750988862,1.112054214250747,12.664929914459208,2.953374374899795,2.181010813230387.999050230921057,3.138999536700794,3.577102066619773,2.139949305779737,5.758112879839246-.999389582229924,2.181010813221292-3.577780769228411,3.139338887991471-5.758112879848341,2.139949305770642-2.949980861871154-1.351636232930105-6.072691536101047-2.080562828048642-9.281258089551557-2.167436761170393-5.07805287211886-.137097925709895-9.159770323720295,1.399824117710523-11.688616220730182,2.713113653600885-.64001655418906.332224923939066-1.324148777528535.490023279029629-1.998439813149162.490023279029629Z"/>
      </g>
      <rect class="cls-1" x="110.103353977754068" y="667.15717824075773" width="14.253212612414245" height="37.068407557022852" rx="7.126599142972249" ry="7.126599142972249"/>
    </g>
  </g>
</svg>