<?xml version="1.0" encoding="UTF-8"?>
<svg id="Tracy_s_Kitchen" data-name="Tracy&amp;apos;s Kitchen" xmlns="http://www.w3.org/2000/svg" width="542.663499855707414" height="1080" xmlns:xlink="http://www.w3.org/1999/xlink" viewBox="0 0 542.663499855707414 1080">
  <defs>
    <style>
      .cls-1 {
        fill: #ff8b7e;
      }

      .cls-1, .cls-2, .cls-3, .cls-4, .cls-5, .cls-6 {
        stroke-width: 0px;
      }

      .cls-2 {
        fill: #ffcab4;
      }

      .cls-3 {
        fill: none;
      }

      .cls-4 {
        fill: #ffc2b0;
      }

      .cls-7 {
        clip-path: url(#clippath);
      }

      .cls-5 {
        fill: #f0f2e9;
      }

      .cls-6 {
        fill: #241f20;
      }
    </style>
    <clipPath id="clippath">
      <rect class="cls-3" x="1.973334762152263" width="542.663499855707414" height="1080"/>
    </clipPath>
  </defs>
  <g class="cls-7">
    <g>
      <path class="cls-5" d="M377.32828570212223,742.107182683796054c0,28.095435506143986-22.778012506667437,50.873516591545922-50.873482302176853,50.873516591545922v246.0690475215888h-118.895898089373077v-246.0690475215888c-28.098212944558327,0-50.873482302180491-22.778081085401936-50.873482302180491-50.873516591545922,0-28.098281523292826,22.775269357622165-50.876328319329332,50.873482302180491-50.876328319329332,4.432654560619994,0,8.733089336703415.567420382365526,12.83149118477013,1.6320022418804,7.842663152921887-17.988714279330452,25.783680928030662-30.561732244237646,46.657262202130369-30.561732244237646,20.870700967599987,0,38.80321498063131,12.564582781556965,46.651501589120016,30.542084439119208,4.075908025799436-1.053369237746665,8.351105830570305-1.612354436761962,12.755643113352562-1.612354436761962,28.095469795509416,0,50.873482302176853,22.778046796036506,50.873482302176853,50.876328319329332Z"/>
      <g>
        <g>
          <circle class="cls-4" cx="169.119657375274073" cy="1043.354031263987963" r="26.312281566256388"/>
          <circle class="cls-4" cx="366.899444478686746" cy="1043.231648560847589" r="26.312281566252523"/>
          <rect class="cls-2" x="175.314114520507701" y="918.921194562575579" width="181.72872767327226" height="238.188138095833551" rx="90.864273038235169" ry="90.864273038235169"/>
        </g>
        <path class="cls-6" d="M187.583549787763332,995.213721480275126c-.246834661160392-2.396680543864932-.447603014130436-4.796334051683516-.537123076730495-7.20328345955204-.5920483619484-15.918559533260122,5.894011641608813-32.707120337818196,23.79324474151872-35.95877286164432,29.797421570779989-5.413123430107589,71.635349121592299-1.56413163614161,71.635580053811282-1.564136203840462,10.096118094192207-.199497701081782,20.217339825740055-.15116579153073,30.307500356790115.232332987701739,16.055952824961423.610241857775691,28.543617099880066,1.353324522589901,35.293024214908655,17.706430002168418,3.020746792572027,7.318952622004872,3.972957295860397,15.611555212211897,3.929433594043076,23.710280054796385-.052948875982111,9.852524955695117-6.021412600861368,28.844679442845518,5.561148830307502,34.795275527125341,6.605970068150782,3.393334544600293,17.36624193319949.130228383530266,22.639888339359459-4.412372732509539,9.905766782172577-8.532606052620395,21.090038666992768-31.634226322235918,8.022359254049661-42.673883741737882,1.036503951370833.87564318467048,7.159141377331252-9.758210407873776,7.668492071003129-10.655599959502069,3.114945010769588-5.48800490764188,4.33034526738993-10.569058423134265,3.861834145009198-16.896720533351981-.905349619879416-12.227557068801616-8.188632391880674-27.023892863879155-22.397649743950751-28.271547147456658.22626478156235.019866883458235-1.539563649170304-12.795239316023071-1.897352497588145-14.21607398391825-1.641006293961254-6.516688943753252-4.29320674381961-13.200792697178258-9.800166267581517-17.594705106892434-5.50374102603746-4.391223024700594-12.910721480500797-5.634913310710544-19.868297666638682-5.193523365080182-2.457889865512698.155928996686271-14.265118449391593,1.980017074889474-11.905967819151556,6.552904745189153.959633409951493,1.860116729543734-.150725587627676-3.359105864548837-.407292911630066-3.973557316714505-3.026756620740343-7.248760176842552-13.652072235498053-5.509939987749021-18.170614107239089-.422582099259671,1.671933508929214-1.882419474170092-6.855258144300024-13.205665810506616-7.910415952610492-14.491714365956796-6.578209252009401-8.017659969895249-16.012562622629048-13.284961331171871-26.444956997740519-14.941755302012098-17.519094743529422-2.78217390187092-46.885017251217505,1.850504142203135-50.480034671520116,22.667498776238062-8.131978139968851-5.952474651383454-21.38835715380992-6.022181933225511-20.464118770571076,7.417130192556215-.286451262789342-4.16527596432752-14.705768089188496-5.298327183492802-17.513441848779621-5.126896251329526-16.149026054459682.986027149518122-37.799454832696938,21.702165935410449-26.174528752999322,37.969876313800341,0,0-41.365091589010262,20.298849378978048-14.372233683607192,56.500443622493549,1.305888341266837,1.964862014196115-4.857406240251294,14.5462826666826-4.991198271483881,17.787795394408022-.617875050269504,14.969873941496189,10.899626974111015,28.767062090586478,26.724787026403646,29.594409976756651,11.44155748477715.598163631650095,16.069747957510117-3.097962593910779,15.546986773177196-14.628091672200753-.253441497719905-5.589807559390465-1.075467792757991-11.141462373259856-1.648886360559118-16.70916149027471Z"/>
      </g>
      <rect class="cls-1" x="259.051871812444233" y="1057.42501938254054" width="14.25321285083146" height="37.068407557022965" rx="7.126599134171096" ry="7.126599134171096"/>
      <g>
        <path class="cls-6" d="M305.289726001883537,1066.651276093820343c-8.548973250759445,0-15.504092565348401-6.95495387407027-15.504092565348401-15.50376168431103,0-.821246724019147.06716884970956-1.655728689358511.200183024997386-2.480284223698618.282572402222286-1.754992999260139,1.935323162269924-2.947157361320933,3.689323518439778-2.666404804780541,1.755323880301148.282572402209553,2.948811766491417,1.934495959689229,2.666239364261855,3.689488958949369-.078418804831017.48738776168102-.118124528791668.977588012130582-.118124528791668,1.45720006952979,0,4.999116087739822,4.067189658180723,9.06614030540004,9.066471186441049,9.06614030540004,4.998950647230231,0,9.066140305410954-4.067024217660219,9.066140305410954-9.06614030540004,0-.502111967638484-.044668939470284-1.018451819709298-.13235241322036-1.534626231259608-.298123810771358-1.752511391519874.880474428930029-3.414857701529399,2.633151260968589-3.713146952819443,1.752345951001189-.298454691799634,3.415023142042628.880474428930029,3.713146952821262,2.633151260970408.148565583829622.871871522060246.223675578330585,1.751684188930085.223675578330585,2.614621923108643,0,8.54880781024076-6.95511931458168,15.50376168431103-15.50376168431103,15.50376168431103Z"/>
        <path class="cls-6" d="M225.138428081412712,1066.651276093820343c-8.548973250759445,0-15.504092565348401-6.95495387407027-15.504092565348401-15.50376168431103,0-.821246724019147.06716884970956-1.655728689358511.200183025001024-2.480284223698618.282572402207734-1.754992999260139,1.935654043307295-2.947157361320933,3.689323518439778-2.666404804780541,1.75532388029751.282572402209553,2.948811766487779,1.934495959689229,2.666239364258217,3.689488958949369-.078418804820103.48738776168102-.118124528791668.977588012130582-.118124528791668,1.45720006952979,0,4.999116087739822,4.067189658180723,9.06614030540004,9.066471186441049,9.06614030540004,4.998950647230231,0,9.066140305410954-4.067024217660219,9.066140305410954-9.06614030540004,0-.502111967638484-.04466893945937-1.018451819709298-.13235241322036-1.534626231259608-.29812381076772-1.752511391519874.880474428930029-3.414857701529399,2.633151260961313-3.713146952819443,1.753007713079569-.298454691799634,3.41502314205718.880474428930029,3.713146952817624,2.633151260970408.148565583840536.871871522060246.223675578341499,1.751684188930085.223675578341499,2.614621923108643,0,8.54880781024076-6.955119314578042,15.50376168431103-15.50376168431103,15.50376168431103Z"/>
      </g>
      <g>
        <path class="cls-6" d="M238.004122673573875,1038.387582956929691h-26.555658062799921c-2.983872473949305,0-5.402876224929059-2.419003750990669-5.402876224929059-5.402876224929059,0-2.983872473951124,2.419003750979755-5.402876224930878,5.402876224929059-5.402876224930878h26.555658062799921c2.983872473949305,0,5.402876224929059,2.419003750979755,5.402876224929059,5.402876224930878,0,2.983872473938391-2.419003750979755,5.402876224929059-5.402876224929059,5.402876224929059Z"/>
        <path class="cls-6" d="M318.46222344157286,1038.387582956929691h-26.555658062799921c-2.983872473949305,0-5.402876224929059-2.419003750990669-5.402876224929059-5.402876224929059,0-2.983872473951124,2.419003750979755-5.402876224930878,5.402876224929059-5.402876224930878h26.555658062799921c2.983872473952943,0,5.402876224929059,2.419003750979755,5.402876224929059,5.402876224930878,0,2.983872473938391-2.419003750976117,5.402876224929059-5.402876224929059,5.402876224929059Z"/>
      </g>
    </g>
  </g>
</svg>