<?xml version="1.0" encoding="UTF-8"?>
<svg id="Tracy_s_Kitchen" data-name="Tracy&amp;apos;s Kitchen" xmlns="http://www.w3.org/2000/svg" width="542.663499855707414" height="1080" xmlns:xlink="http://www.w3.org/1999/xlink" viewBox="0 0 542.663499855707414 1080">
  <defs>
    <style>
      .cls-1 {
        fill: none;
      }

      .cls-1, .cls-2, .cls-3, .cls-4, .cls-5, .cls-6, .cls-7 {
        stroke-width: 0px;
      }

      .cls-2 {
        fill: #2d3196;
      }

      .cls-3 {
        fill: #66321d;
      }

      .cls-4 {
        fill: #81482e;
      }

      .cls-5 {
        fill: #945538;
      }

      .cls-8 {
        clip-path: url(#clippath);
      }

      .cls-6 {
        fill: #f0f2e9;
      }

      .cls-7 {
        fill: #241f20;
      }
    </style>
    <clipPath id="clippath">
      <rect class="cls-1" x="-.000000000000909" width="542.663499855707414" height="1080"/>
    </clipPath>
  </defs>
  <g class="cls-8">
    <g>
      <path class="cls-6" d="M381.653181274723465,528.916820014552286c0,28.095435506143986-22.778012506678351,50.873516591545922-50.873482302187767,50.873516591545922v468.206343532012397h-118.895898089373077v-468.206343532012397c-28.098212944558327,0-50.873482302176853-22.778081085401936-50.873482302176853-50.873516591545922,0-28.098281523291007,22.775269357618527-50.876328319329332,50.873482302176853-50.876328319329332,4.432654560619994,0,8.733089336699777.567420382366436,12.83149118477013,1.632002241882219,7.842663152921887-17.988714279331361,25.783680928030662-30.561732244239465,46.657262202130369-30.561732244239465,20.870700967599987,0,38.803214980642224,12.564582781559693,46.651501589120016,30.542084439121027,4.075908025799436-1.053369237746665,8.351105830570305-1.612354436763781,12.755643113352562-1.612354436763781,28.095469795509416,0,50.873482302187767,22.778046796038325,50.873482302187767,50.876328319329332Z"/>
      <g>
        <path class="cls-2" d="M163.185815179633209,1134.633729370760193l.000000006250048-129.314860352309552c.000000002819434-58.267904250707943,47.673739846599346-105.94164409233781,105.941644097300014-105.941644092516071h.000211883500015c58.267904232710862-.000000000185537,105.941644062411797,47.673739826430392,105.941644066009758,105.941644059144892l.000000007970812,129.314860405580475-211.883500061030645-.000000019899744Z"/>
        <circle class="cls-4" cx="177.971438740023586" cy="1045.13530982353268" r="24.840989375753225"/>
        <circle class="cls-4" cx="364.692061115682009" cy="1045.019770339783008" r="24.840989375758681"/>
        <rect class="cls-5" x="183.819523201598031" y="927.660328929685306" width="171.567082852577641" height="224.869477459324685" rx="85.7834557148649" ry="85.7834557148649"/>
        <path class="cls-2" d="M175.656785737362952,1020.178780964030011c71.719972811242769-8.359996830760792,93.364862226102559-72.142639751657043,93.364862226102559-72.142639751657043,0,0,49.642366705687891,66.86264175328688,93.364862226098921,72.142639751657043,0,0,14.328351626569201-93.447955367098984-93.346635180230805-103.702013355168674,0,0-101.109027228150808,1.424174720565134-93.383089271970675,103.702013355168674"/>
      </g>
      <g>
        <path class="cls-7" d="M308.480694385732932,1038.547217247489243c-5.338439941398974,0-9.52020263671875,5.944458007810681-9.52020263671875,13.533203125,0,2.3291015625.403869628909888,4.61669921875,1.167907714851026,6.615234375.531188964840112,1.389892578121362,1.773193359367724,2.393310546871362,3.2415771484375,2.619140625.208923339840112.031982421871362.417846679680224.0478515625.62579345703125.0478515625,1.25360107421875,0,2.460083007808862-.572021484378638,3.252502441398974-1.572265625v-.000122070308862c1.677917480472388-2.117553710941138,4.1787109375-3.4228515625,6.8603515625-3.581665039069776,2.180847167972388-.12890625,3.890563964851026-1.9375,3.892272949222388-4.128173828121362,0-7.588745117189319-4.1817626953125-13.533203125-9.520202636722388-13.533203125Z"/>
        <path class="cls-7" d="M225.89921245214282,1038.547217247489243c-5.338439941409888,0-9.52020263671875,5.944458007810681-9.52020263671875,13.5439453125.001708984378638,2.179931640621362,1.71142578125,3.988525390621362,3.89227294921875,4.117431640621362,2.681640625.158813476569776,5.18243408203125,1.464111328128638,6.8603515625,3.581665039069776v.000122070308862c.792724609371362,1.000244140621362,1.998901367191138,1.572265625,3.252502441409888,1.572265625.207946777340112,0,.416870117180224-.015869140628638.62579345703125-.0478515625,1.468383789058862-.225830078128638,2.710388183590112-1.229248046878638,3.241577148430224-2.618896484378638.764038085941138-1.998779296871362,1.167907714851026-4.286376953121362,1.167907714851026-6.615478515621362,0-7.588745117189319-4.1817626953125-13.533203125-9.520202636722388-13.533203125Z"/>
      </g>
      <g>
        <path class="cls-7" d="M239.868558712165395,1033.522228230349356h-26.212185009422683c-2.945296034788043,0-5.333026146628981-2.387730111830024-5.333026146628981-5.333026146619886s2.387730111840938-5.333026146619886,5.333026146628981-5.333026146619886h26.212185009422683c2.945296034788043,0,5.333026146618067,2.387730111830024,5.333026146618067,5.333026146619886s-2.387730111830024,5.333026146619886-5.333026146618067,5.333026146619886Z"/>
        <path class="cls-7" d="M319.286318742382718,1033.522228230349356h-26.212338186869601c-2.945296034788043,0-5.333026146628981-2.387730111830024-5.333026146628981-5.333026146619886s2.387730111840938-5.333026146619886,5.333026146628981-5.333026146619886h26.212338186869601c2.945296034791681,0,5.333026146632619,2.387730111830024,5.333026146632619,5.333026146619886s-2.387730111840938,5.333026146619886-5.333026146632619,5.333026146619886Z"/>
      </g>
      <rect class="cls-3" x="259.671959799620709" y="1050.534941557544698" width="15.089602953625217" height="39.243612056340226" rx="7.544794006005751" ry="7.544794006005751"/>
    </g>
  </g>
</svg>