<?xml version="1.0" encoding="UTF-8"?>
<svg id="Tracy_s_Kitchen" data-name="Tracy&amp;apos;s Kitchen" xmlns="http://www.w3.org/2000/svg" width="542.663499855707414" height="1080" xmlns:xlink="http://www.w3.org/1999/xlink" viewBox="0 0 542.663499855707414 1080">
  <defs>
    <style>
      .cls-1 {
        fill: #ff8b7e;
      }

      .cls-1, .cls-2, .cls-3, .cls-4, .cls-5, .cls-6, .cls-7 {
        stroke-width: 0px;
      }

      .cls-2 {
        fill: #ffa393;
      }

      .cls-3 {
        fill: #ffcd00;
      }

      .cls-4 {
        fill: none;
      }

      .cls-5 {
        fill: #ffaa97;
      }

      .cls-8 {
        clip-path: url(#clippath);
      }

      .cls-6 {
        fill: #f0f2e9;
      }

      .cls-7 {
        fill: #241f20;
      }
    </style>
    <clipPath id="clippath">
      <rect class="cls-4" width="542.663499855707414" height="1080"/>
    </clipPath>
  </defs>
  <g class="cls-8">
    <g>
      <path class="cls-6" d="M370.808358425814731,473.28489695481494c0,28.095435506143986-22.778012506667437,50.873516591545922-50.873482302180491,50.873516591545922v555.841586453639138h-118.895898089369439v-555.841586453639138c-28.098212944569241,0-50.873482302187767-22.778081085401936-50.873482302187767-50.873516591545922,0-28.098281523291007,22.775269357618527-50.876328319329332,50.873482302187767-50.876328319329332,4.43265456060908,0,8.733089336699777.567420382365526,12.831491184759216,1.632002241882219,7.842663152921887-17.988714279331361,25.783680928030662-30.561732244239465,46.657262202141283-30.561732244239465,20.870700967589073,0,38.80321498063131,12.564582781558784,46.651501589109102,30.542084439121027,4.075908025799436-1.053369237746665,8.351105830570305-1.612354436763781,12.755643113359838-1.612354436763781,28.095469795513054,0,50.873482302180491,22.778046796038325,50.873482302180491,50.876328319329332Z"/>
      <g>
        <path class="cls-7" d="M277.250943203625866,938.697724597592241s-87.149350504911126,88.321183351947184-104.383355844838661,80.540850300298189"/>
        <path class="cls-3" d="M248.565045062596255,1256.33466823604067l-87.534136399059207-7.723600270501265s-45.697968267162651-27.676234302649391-39.904981837789819-58.572161849870099c4.002429807809676-21.344163562049289,20.134308795528341-35.939944661738991,25.069073508650035-56.655883896799423,1.801370377426792-7.562066159169262,1.918594134949672-15.409541776529295,2.026927789818728-23.182446485399851.276678964408347-19.85162579523967.552185296950483-39.740007400199829-1.080152256250585-59.526342500930696-1.804752702148107-21.876270087819648-5.939730613918073-43.627252964530271-5.516291342089971-65.573755862382313.337482550781715-17.491462789659636,3.834069557378825-35.609440035414082,13.177309567301563-50.639853053447951,10.647648384339846-17.128806786249697,28.510169533758017-16.303176882980551,46.777016045169148-15.389834678660918,4.487729472199135-9.791145686791424,11.589568060509919-19.683329802443041,20.351212564008165-26.016711242587917,22.080623911220755-15.956296552303684,55.917992028560548-8.936676938526944,80.089447359030601-1.806421928817144,40.74273340344007,12.018560533311756,63.054348524390662,54.3777977603404,68.220426828680502,94.198899328235711,2.037545796079939,15.70580096068079-1.619662560668075,31.156852109241299-3.464021975109063,46.629950685721269-2.033966443061217,17.063805726800638,2.098575239047932,34.476396327700058,5.185513971468026,51.234287669469268,2.19733065301989,11.928526055420662,4.977614386592904,23.848751316631024,9.595199394079827,35.098065498101278,4.462355052892235,10.871144526359785,10.579100728329649,16.83642580311971,17.943844043940771,25.44341767566948,11.774515770372091,13.760582982400592,26.514020535050804,35.348236337620619,21.557352112769877,54.555388883400155-5.149066846999631,19.952634032149945-9.654500338117941,49.55976840241965-25.745334235019982,49.55976840241965-16.090833896880213,0-146.748405139598617,8.367233626380767-146.748405139598617,8.367233626380767Z"/>
        <circle class="cls-2" cx="166.908830912585472" cy="1044.667393316692596" r="25.311092409059935"/>
        <circle class="cls-2" cx="357.163045675895773" cy="1044.549667307239361" r="25.311092409060617"/>
        <rect class="cls-5" x="172.867587415089702" y="924.96925842559574" width="174.813902040848461" height="229.125017435126324" rx="87.406863628215902" ry="87.406863628215902"/>
        <path class="cls-3" d="M167.119585058115263,954.017398183757905c8.955050870270497-14.943305818309454,70.974068942501617-48.196861584299768,105.935405646541767-38.194994252229662s86.473850324939121,36.811640484052987,86.806943561587104,64.030136303741529c.333093236662535,27.218495819690361-15.472085840468935,54.245460298259786-15.472085840468935,54.245460298259786-.739073954238847-9.021379706819062-22.554877901889995-32.209428558799118-49.425394636058627-36.062687907618965-26.87051673417227-3.853259348825304-87.33610327155111-47.336583475347652-87.33610327155111-47.336583475347652,0,0-39.454820139388175,50.912447542837981-31.708391390908218,76.009953281196431,0,0-26.441778296721168-43.25304852424415-8.800374069141981-72.691284248001466Z"/>
      </g>
      <g>
        <g>
          <g>
            <ellipse class="cls-7" cx="297.522290343928034" cy="1055.309239405519747" rx="10.045359325860488" ry="6.097994378792458" transform="translate(-765.168969177943382 1325.280332232087858) rotate(-88.509463703076307)"/>
            <path class="cls-7" d="M297.176050436964942,1068.617188859969247c-5.249552888210019-.136596706148339-9.209606062100647-6.089042056488324-9.015425069508638-13.551618711338961.19417225711004-7.462240941300479,4.458429798527504-13.20068449414066,9.707982686737523-13.064087787990502,5.249552888210019.136596706161072,9.209606062100647,6.089042056490143,9.015433804990607,13.551282997790622-.194180992588372,7.462576654848817-4.458438534009474,13.201020207688998-9.707991422219493,13.06442350153884ZM297.698650548603837,1048.533125322399428c-.821491073569632-.021375720409196-2.891851336589752,2.300861888170402-3.006382219387888,6.702402331820849-.114539618291019,4.401876157198785,1.832248539769353,6.828642523589224,2.653739613338985,6.850018244000239s2.891851336589752-2.300861888181316,3.006390954869858-6.702738045391015c.114530882809049-4.401540443639533-1.832257275247684-6.828306810029972-2.653748348820955-6.849682530430073Z"/>
          </g>
          <g>
            <path class="cls-7" d="M299.65370068802622,1045.764736019840711s4.524369403097808,2.466622588608516,8.469699534300162-1.371806257220669"/>
            <path class="cls-7" d="M302.736036384883846,1048.767335150760118c-1.735974802388228-.045171168860179-3.232852421886491-.538648859930618-4.152380138089939-1.039947517629116-1.083822828390112-.590902699381331-1.483533872818953-1.948762222891673-.892631173428526-3.032585051270871.587732774201868-1.078194317240559,1.934531221289944-1.478865059640157,3.015355068801-.901813970889634.337802993559308.173736810878836,3.236480810021021,1.548245555968606,5.858346906130464-1.002190820570831.884759749180375-.860838389979108,2.300246636219526-.841475445278775,3.160749312650296.043275568419631.860838389977289.884759749180375.841484180757107,2.299910922651179-.043275568423269,3.160749312641201-2.24964274895683,2.188907214998835-4.783497674518003,2.828786443689751-6.946164407640026,2.772512479299621Z"/>
          </g>
          <g>
            <path class="cls-7" d="M297.753856733384964,1046.409903229590782s5.088148259030277-.815409580771302,5.862177816550684-6.265184263520496"/>
            <path class="cls-7" d="M297.6930646606761,1048.644512339420544c-1.054476282020914-.027438143761174-1.973289345762169-.801502183740013-2.146428229189041-1.881018118330758-.19420419384187-1.21242476605039.625954567378358-2.353439087439256,1.834277121608466-2.557828249229715.374014723380242-.068878060070347,3.507674858188693-.75328338944928,4.022179150601005-4.375111702040158.173564359727607-1.222003823289924,1.306603637800436-2.070670827359208,2.527308284257742-1.898819977339372,1.22233953686009.173573095198662,2.072384337072435,1.305304460969637,1.898819977341191,2.527308284259561-.795467017971532,5.601607668178985-5.398922220359964,7.785705249960301-7.721561357840983,8.157960528989861-.139658044518001.022233455010792-.278295242707827.031055838710017-.414594946778379.02750923369058Z"/>
          </g>
        </g>
        <g>
          <g>
            <ellipse class="cls-7" cx="216.869473999630827" cy="1055.847763842787572" rx="10.045359325862833" ry="6.097994378797087" transform="translate(-844.262200250931073 1245.179322403136894) rotate(-88.509463703057946)"/>
            <path class="cls-7" d="M216.523130447456424,1069.155684314599057c-5.249552888210019-.136596706159253-9.209606062100647-6.089042056488324-9.015425069512276-13.551618711349875.19417225711004-7.462240941289565,4.458429798531142-13.200684494138841,9.707982686741161-13.064087787988683,5.249552888199105.136596706159253,9.209606062100647,6.089042056490143,9.015433804990607,13.551282997788803-.19418099259201,7.462576654859731-4.458438534009474,13.201020207699912-9.707991422219493,13.064423501549754ZM217.045730559084404,1049.071620777020144c-.821491073569632-.021375720400101-2.891851336578839,2.300861888179497-3.006382219380612,6.70240233181903-.114539618287381,4.401876157200604,1.832248539772991,6.828642523600138,2.653739613342623,6.850018244000239s2.891851336589752-2.300861888179497,3.006390954869858-6.702738045380102c.114530882809049-4.401540443648628-1.832257275251322-6.828306810029972-2.653748348831868-6.849682530439168Z"/>
          </g>
          <g>
            <path class="cls-7" d="M215.237319966754512,1046.205330117471021s-4.646526210879529,2.227990049788787-8.386895836858457-1.810425593701439"/>
            <path class="cls-7" d="M212.002981137886309,1049.043539072550629c-2.163002446690371-.056282699861185-4.659488192199206-.826718652480849-6.792577192220051-3.130003276950447-.838793651611923-.90568634607007-.784525232480519-2.319929029579725.121161113587732-3.158722681200743.906039530600538-.839456343230268,2.320927434790065-.7841633124699,3.158722681211657.12116111360956,2.493518695890089,2.691940464950676,5.469920449020719,1.453843926130503,5.801364313650993,1.303904220640106,1.113749379168439-.533384531488991,2.437783164488792-.059185744779825,2.97151214500991,1.054236656311332.534073429567798,1.113095423019331.05374820932775,2.45309495589936-1.059338478200516,2.98683267189881-.944353951341327.452799270831747-2.465205494208931.86775372907141-4.200844583039725.822591295691382Z"/>
          </g>
          <g>
            <path class="cls-7" d="M217.101040389085028,1046.948427666859061s-5.038856580129504-1.078920689938968-5.528417384808563-6.56157479786998"/>
            <path class="cls-7" d="M217.046514493255017,1049.183509481730653c-.136971131189057-.003564075979739-.274961903829535-.019584495490562-.41360166243976-.049395377260225-2.30047225367889-.492551578860002-6.783775894098653-2.913092407130534-7.286848913969152-8.548488913291294-.109777882240451-1.229376568709995.797973501128581-2.315368959389161,2.027685783388733-2.425138106149461,1.228404369961936-.111146942910636,2.315368959389161.7979735011304,2.42513810615128,2.027685783390552.326496874680743,3.655133687259877,3.438944703400921,4.496019784439341,3.792526083449047,4.579799067740169,1.207363609690219.258512390390024,1.964971210771182,1.443940604969612,1.706458820390253,2.651304214659831-.228692773129296,1.068388137500733-1.195203367169597,1.791715152070537-2.251358216970402,1.764233330910429Z"/>
          </g>
        </g>
      </g>
      <g>
        <path class="cls-7" d="M200.196996719694653,1038.151289540539437c-1.569499768349488,0-3.084703328488104-.853129171369801-3.858424295369332-2.342202681318668-1.105945890820294-2.128750712819965-.276571310529107-4.751257568990695,1.852179402299953-5.857203459810989,3.437968033100333-1.786005898549774,8.997899753008824-3.877088616940455,15.927453324809903-3.688069942129005,4.3840794610187.118094252839001,8.64497439968909,1.112054214239834,12.664929914459208,2.953374374899795,2.181350164522883.999050230919238,3.139338887991471,3.576762715320001,2.140288657072233,5.757773528539474-.998371528319694,2.181350164519245-3.576423364022048,3.14103564449033-5.757773528541293,2.140288657070414-2.950998915788659-1.351636232941019-6.073709590018552-2.080562828050461-9.281597440858604-2.167436761179488-5.082803790330217-.134722466600579-9.159770323709381,1.40016346901939-11.68827686943041,2.713453004909752-.640016554181784.332224923939066-1.324488128830126.490023279018715-1.998779164441657.490023279018715Z"/>
        <path class="cls-7" d="M287.38822330986477,1038.020639289559767c-1.569839119638345,0-3.085042679787875-.853468522680487-3.858424295358418-2.342881383929125-1.105945890820294-2.128750712819965-.276231959229335-4.750918217690923,1.852518753588811-5.856524757209627,3.438307384411019-1.785666547240908,8.998578455612005-3.88014277864022,15.927453324809903-3.687730590831052,4.384418812329386.118433604140591,8.645313750988862,1.112054214250747,12.664929914459208,2.953374374899795,2.181010813223111.999050230921057,3.138999536691699,3.577102066619773,2.139949305772461,5.758112879839246-.999389582222648,2.181010813221292-3.577780769221135,3.139338887991471-5.758112879841065,2.139949305770642-2.94998086187843-1.351636232930105-6.072691536108323-2.080562828048642-9.281258089558833-2.167436761170393-5.078052872111584-.137097925709895-9.159770323713019,1.399824117710523-11.688616220730182,2.713113653600885-.640016554181784.332224923939066-1.324148777530354.490023279029629-1.998439813141886.490023279029629Z"/>
      </g>
      <rect class="cls-1" x="249.218521498468817" y="1057.42501938254054" width="14.253212850832824" height="37.068407557022965" rx="7.126599335550976" ry="7.126599335550976"/>
    </g>
  </g>
</svg>