<?xml version="1.0" encoding="UTF-8"?>
<svg id="Tracy_s_Kitchen" data-name="Tracy&amp;apos;s Kitchen" xmlns="http://www.w3.org/2000/svg" width="542.663499855707414" height="1080" xmlns:xlink="http://www.w3.org/1999/xlink" viewBox="0 0 542.663499855707414 1080">
  <defs>
    <style>
      .cls-1 {
        fill: #d17954;
      }

      .cls-1, .cls-2, .cls-3, .cls-4, .cls-5, .cls-6, .cls-7 {
        stroke-width: 0px;
      }

      .cls-2 {
        fill: none;
      }

      .cls-3 {
        fill: #bc6d4a;
      }

      .cls-8 {
        clip-path: url(#clippath);
      }

      .cls-4 {
        fill: #f0f2e9;
      }

      .cls-5 {
        fill: #241f20;
      }

      .cls-6 {
        fill: #aa5537;
      }

      .cls-7 {
        fill: #e5e6e7;
      }
    </style>
    <clipPath id="clippath">
      <rect class="cls-2" x=".000000000000909" width="542.663499855707414" height="1080"/>
    </clipPath>
  </defs>
  <g class="cls-8">
    <g>
      <path class="cls-4" d="M381.653181274725284,311.637449569636374c0,28.095435506143986-22.778012506681989,50.873516591545922-50.873482302180491,50.873516591545922v681.799594266138229h-118.895898089380353V362.510966161182296c-28.098212944558327,0-50.873482302180491-22.778081085401936-50.873482302180491-50.873516591545922,0-28.098281523291007,22.775269357622165-50.876328319329332,50.873482302180491-50.876328319329332,4.432654560619994,0,8.733089336710691.567420382365526,12.83149118477013,1.632002241882219,7.842663152921887-17.988714279332271,25.783680928030662-30.561732244239465,46.657262202141283-30.561732244239465,20.870700967589073,0,38.803214980620396,12.564582781558784,46.651501589109102,30.542084439121936,4.075908025799436-1.053369237747575,8.351105830570305-1.61235443676469,12.755643113359838-1.61235443676469,28.095469795498502,0,50.873482302180491,22.778046796038325,50.873482302180491,50.876328319329332Z"/>
      <g>
        <path class="cls-7" d="M170.007230217675897,1049.207796838130889l-.00000000763248-58.174360521048584c-.000000006759365-51.493181511868897,44.016144568922755-93.623966384991945,97.813654612611572-93.623966384728192h.000195627519133c53.797510050750134.000000000271029,97.813654632929683,42.130784879362182,97.81365462705071,93.623966397983168l-.000000006639311,58.174360502092895"/>
        <circle class="cls-3" cx="172.441856377054137" cy="1043.715163919651786" r="26.312281566014008"/>
        <circle class="cls-3" cx="370.221643478646911" cy="1043.592781216518233" r="26.312281566012643"/>
        <rect class="cls-1" x="178.636313475461066" y="919.282327226036614" width="181.728727669938962" height="238.188138070865534" rx="90.864272970136412" ry="90.864272970136412"/>
        <path class="cls-7" d="M174.277988072493827,1017.138985316189064s13.649439333850751,4.418137468261193,25.380051105581515-6.159802753769327,61.961692948108976-52.687828633368554,61.961692948108976-52.687828633368554l27.672212384590239,12.933751440628839,72.789949968169822,39.754077192739715-4.21098884112871-47.875269957788987-47.223232004151214-42.228595374226643-34.891050397960498-9.205625471047824-36.094190066858573,3.910203923911467-35.191835315181379,20.15258945399728-19.851804536778218,24.965148129580484-10.340805244391959,56.44135204934355Z"/>
        <path class="cls-7" d="M174.277988072493827,1018.274763780580543c87.888308930560015-1.236079364711259,154.934267034590448-97.406107458094993,154.934267034590448-97.406107458094993,0,0-80.865586475560121-5.906325841689977-108.349185864659376,12.930074951565985"/>
        <path class="cls-7" d="M274.248198157974912,935.816400878375134s10.339419523919787,86.43612207280421,87.833696320969466,82.48762774300485c0,0-.948319709321368-86.736641513762152-87.833696320969466-82.48762774300485Z"/>
      </g>
      <g>
        <path class="cls-5" d="M228.483063861966002,1067.917240612920068c-2.723195568032679,0-5.375715875441529-.808876666920696-7.578146365260181-2.37878048220955-6.085173754690913-4.338243628730197-7.526746175710286-12.02460091931971-3.353524208130693-17.879319218949604,3.529705120949075-4.951664311760396,10.429842407120304-6.107999496760385,15.381168559728394-2.578632534950884,4.17863251385279,2.978843879129272,5.15489795591202,8.802113378589638,2.176054076771834,12.980914972009487-2.538222517519898,3.560984841560639-7.500369762670744,4.392518170971016-11.060847365512018,1.854464733030909-1.558575484039466-1.111190939600419-2.520300083007896-2.831913732079556-2.637979464307136-4.721039777119586-.115988585610467-1.859875279300468.608010136747907-3.653809525951146,1.98668495741731-4.922244466430129.985057579742715-.906604658870492,2.518609287300933-.842354421951313,3.424875787030032.142534078218887.906266499721823.985226659309774.842692581092706,2.518609287300933-.142703157798678,3.425044866600729-.408158084021125.375694806420142-.445017430458392.821050396019928-.430476587371231,1.053027567219033.026376413061371.424051563681132.2502377648525.815978008889942.613758842169773,1.075007911431385,1.384085366931686.986917455018556,3.31294511113083.66329915642018,4.299017168290447-.720617130940809,1.427369737069967-2.002240277939563.959695644120075-4.792222276450048-1.042544633830403-6.219422933949318-2.774595757557108-1.978230978880674-6.641445542769361-1.329810824690867-8.619338362510462,1.444954012438757-2.569333158549853,3.604269211691644-1.614709901557944,8.383979599901068,2.2200147651929,11.11782718088034,2.186198851017252,1.558406404479683,5.122772837446973,1.909753752690449,7.855436861427734.939406095611048,2.750248299362283-.976603601200623,4.822149360490585-3.117827286370812,5.542090173152246-5.727908621491224.356081576199358-1.290415284689516,1.691133867578174-2.04873715993017,2.981210993129935-1.691979265438931,1.290753443819995.356081576190263,2.048229921208986,1.6907957084386,1.692148345009628,2.981380072689717-1.140610784910677,4.134164586719635-4.35312263096057,7.501384240089465-8.593638267739152,9.006868738890262-1.545387277521513.548832286958714-3.141160267150553.818514202459482-4.713262116860278.818514202459482Z"/>
        <path class="cls-5" d="M306.823377739636271,1067.917240612920068c-2.723195568021765,0-5.375715875430615-.808876666920696-7.578146365252906-2.37878048220955-6.085173754687276-4.338243628730197-7.526746175717562-12.02460091931971-3.353524208127055-17.879319218949604,3.529705120949075-4.951664311760396,10.429504247967998-6.107999496760385,15.38116855971748-2.578632534950884,4.178632513860066,2.978843879129272,5.15489795591202,8.802113378589638,2.176054076771834,12.980914972009487-2.538560676661291,3.560984841560639-7.500031603522075,4.392518170971016-11.060847365501104,1.854464733030909-1.55857548405038-1.111190939600419-2.520300083011534-2.831913732079556-2.63797946431805-4.721039777119586-.115988585603191-1.859875279300468.608010136758821-3.653809525951146,1.98668495741731-4.922244466430129.984719420601323-.906604658870492,2.518609287300933-.842354421951313,3.424875787030032.142534078218887.906266499721823.985226659309774.842692581089068,2.518609287300933-.142703157787764,3.425044866600729-.408158084021125.375694806420142-.445017430472944.821050396019928-.430476587371231,1.053027567219033.026376413050457.424051563681132.250237764848862.815978008889942.613758842158859,1.075007911431385,1.384085366931686.986917455018556,3.31294511113083.66329915642018,4.299017168301361-.720617130940809,1.427369737069967-2.002240277939563.959695644109161-4.792222276450048-1.042544633830403-6.219422933949318-2.774595757560746-1.978230978880674-6.641445542769361-1.329810824690867-8.619338362510462,1.444954012438757-2.569333158560767,3.604269211691644-1.614709901568858,8.383979599901068,2.220014765181986,11.11782718088034,2.186198851017252,1.558406404479683,5.123110996588366,1.909753752690449,7.855436861438648.939406095611048,2.750248299358645-.976603601200623,4.822149360490585-3.117827286370812,5.542090173141332-5.727908621491224.355743417057965-1.290415284689516,1.689781231019879-2.04873715993017,2.981210993129935-1.691979265438931,1.290753443827271.356081576190263,2.0482299212199,1.6907957084386,1.692148345016903,2.981380072689717-1.140610784917953,4.134164586719635-4.353122630967846,7.501384240089465-8.593638267750066,9.006868738890262-1.545387277517875.548832286958714-3.141160267146915.818514202459482-4.71326211685664.818514202459482Z"/>
      </g>
      <g>
        <path class="cls-5" d="M211.283127232394691,1038.992034509210498c-1.552211878308299,0-3.050557809270686-.843732035040375-3.815588506920903-2.31640354251067-1.093764002467651-2.105302727059097-.273860517339926-4.69858730732085,1.831610016412014-5.79268692317055,3.399763530218479-1.765997600788978,8.88855253861766-3.839081443449686,15.752349561167648-3.647110590609373,4.335957051211153.116793455919833,8.550422059182893,1.099469429909732,12.525762534551177,2.920843238251109,2.156819380750676.988381401439256,3.104255949940125,3.538036242418457,2.115874548500869,5.695023429849243-.988213594740955,2.156987187448976-3.538036242411181,3.10308130311023-5.694855623161857,2.11604235519917-2.917319297779613-1.336748088939203-6.00546580550872-2.057981240610388-9.17852249815769-2.143562652279797-5.027656225520332-.130889217849472-9.059379748581705,1.384405188760866-11.559699422832637,2.683228965859598-.632631219588802.328565498130047-1.309899018608121.48462571941127-1.976930609558622.48462571941127Z"/>
        <path class="cls-5" d="M297.514118596673143,1038.862823358260357c-1.552379684999323,0-3.050893422649096-.844067648420605-3.81575631360829-2.3167391558909-1.093596195780265-2.105638340439327-.273357097270491-4.69892292069926,1.832113436470536-5.79235130979032,3.399931336920417-1.766333214169208,8.891740865728934-3.841766350489706,15.751678334410826-3.647110590609373,4.335789244520129.116793455919833,8.549918639117095,1.099805043289962,12.525594727867428,2.920843238251109,2.1569871874417.988045788059026,3.10459156331126,3.537365015659816,2.116713581952354,5.694352203099697-.988213594740955,2.157322800809197-3.53770062903277,3.105766210130241-5.694687816470832,2.116713581939621-2.918158331231098-1.336748088930108-6.006640452342253-2.057645627219244-9.179361531609175-2.143562652270703-5.02195079808007-.138272712189064-9.05887632851227,1.384069575380636-11.559699422839913,2.683228965859598-.63263121959244.328565498130047-1.309731211909821.48462571941127-1.976594996172935.48462571941127Z"/>
      </g>
      <path class="cls-6" d="M266.139339414754431,1092.949899161709254c-4.707772100970033,0-7.966998940100893-3.983499470039533-9.053407886480272-7.966998940089979-1.448545261828258-7.242726309179488,3.259226839130861-12.3126347255984,7.242726309181307-17.744679457489838,1.086408946379379-2.172817892749663.724272630919586-4.345635785508421,0-6.518453678259903-.362136315459793-1.81068157728987.724272630919586-3.259226839129042,2.172817892747844-3.621363154588835,5.79418104735305-1.448545261830077,11.226225779231754,3.983499470048628,11.588362094691547,9.777680517388944,0,6.156317362811023-3.983499470050447,10.501953148310349-7.6048626246411,15.571861564740175-1.086408946379379,2.172817892749663-.724272630919586,4.345635785499326,0,6.518453678259903.362136315459793,1.086408946370284,0,1.81068157728987-.724272630919586,2.897090523671068-.724272630908672,1.448545261830077-2.172817892747844,1.086408946368465-3.62136315457974,1.086408946368465h0Z"/>
    </g>
  </g>
</svg>