<svg xmlns="http://www.w3.org/2000/svg" viewBox="0 0 1300 1300"><defs><style>.cls-1{fill:#25f4ee;}.cls-2{fill:#fe2c55;}.cls-3{fill:#fff;}</style></defs><g id="BG"><rect width="1300" height="1300"/></g><g id="LOGOS"><path class="cls-1" d="M599.66,411.18V386.77A184.88,184.88,0,0,0,574.71,385C472.62,385,389.57,468,389.57,570.11a185,185,0,0,0,79,151.59c-30.82-33.08-49.1-77.4-49.1-126.06A184.28,184.28,0,0,1,599.66,411.18Z"/><path class="cls-1" d="M604,680.71c45.55,0,83.24-36.75,84.93-81.89l.38-402.55,73,0-.11-.6a140.38,140.38,0,0,1-2.37-25.53H659.27l-.16,403.13A84.36,84.36,0,0,1,535.49,645C550.86,666.25,575.82,680.71,604,680.71Z"/><path class="cls-1" d="M899.8,333.72V310.11a139.18,139.18,0,0,1-76.21-22.66C843.13,309.89,869.67,327.27,899.8,333.72Z"/><path class="cls-2" d="M823.59,287.45a139.32,139.32,0,0,1-34.41-91.76H761.77C768.87,234,792.08,266.9,823.59,287.45Z"/><path class="cls-2" d="M574.71,484.79c-46.62,0-85.11,38.7-85.11,85.32,0,32.47,19,60.68,45.89,74.84A84.41,84.41,0,0,1,604,511.08,83,83,0,0,1,629,515V412.3a184.88,184.88,0,0,0-25-1.81c-1.46,0-2.91.08-4.37.11l-.38,0L599,488.35A78.9,78.9,0,0,0,574.71,484.79Z"/><path class="cls-2" d="M899.8,332.52l-.47-.09,0,77.66a240,240,0,0,1-140.07-45.48l0,205.5A184.41,184.41,0,0,1,574.71,754.74c-39.45,0-76-11.93-106.1-33A184.62,184.62,0,0,0,604,780.78c102.09,0,185.15-83,185.15-185.14V391.22a239.25,239.25,0,0,0,139.94,45V335.63A140.3,140.3,0,0,1,899.8,332.52Z"/><path class="cls-3" d="M759.86,570.11V365.69a239.19,239.19,0,0,0,139.94,45V332.52a140,140,0,0,1-76.21-45.07,140.25,140.25,0,0,1-61.36-91.76H688.59l-.16,403.13A84.39,84.39,0,0,1,535.49,645a84.52,84.52,0,0,1,39.22-159.4,83.33,83.33,0,0,1,24.95,3.91V410.6c-100.07,2.34-180.77,84.41-180.77,185A184.4,184.4,0,0,0,468.61,721.7a184.07,184.07,0,0,0,106.1,33.56C676.8,755.26,759.86,672.2,759.86,570.11Z"/><path class="cls-3" d="M172.46,890.89H334.68L319.79,937.3l-42.09,0v171.59H225.26V937.28l-52.76.1Z"/><path class="cls-3" d="M600.41,890.89h166l-14.9,46.41-45.75,0v171.59H653.21V937.28l-52.76.1Z"/><polygon class="cls-3" points="344.57 960.23 396.58 960.23 396.52 1108.87 344.88 1108.87 344.57 960.23"/><path class="cls-3" d="M417.21,890.28h52V991.79l51.48-50.52h62l-65.13,63.19,73,104.4H533.24l-48.68-72.4-15.4,15v57.43h-52Z"/><path class="cls-3" d="M967.66,890.28h52V991.79l51.49-50.52h62L1068,1004.47l72.94,104.4h-57.24l-48.68-72.4-15.4,15v57.43h-52Z"/><circle class="cls-3" cx="370.56" cy="917.06" r="26.18"/><path class="cls-1" d="M760.11,1019.89a89,89,0,0,1,82-88.68c-2.3-.18-5.83-.3-8.18-.3a89,89,0,0,0,0,178c2.35,0,5.88-.12,8.18-.3A89,89,0,0,1,760.11,1019.89Z"/><path class="cls-2" d="M862,930.91c-2.37,0-5.92.12-8.24.3a89,89,0,0,1,0,177.36c2.32.18,5.87.3,8.24.3a89,89,0,0,0,0-178Z"/><path class="cls-3" d="M847.88,930.91a89,89,0,1,0,89,89A89,89,0,0,0,847.88,930.91Zm0,132.23a43.26,43.26,0,1,1,43.26-43.25A43.25,43.25,0,0,1,847.88,1063.14Z"/></g></svg>