<?xml version="1.0" encoding="UTF-8"?>
<svg id="Layer_1" data-name="Layer 1" xmlns="http://www.w3.org/2000/svg" width="1000" height="1000" viewBox="0 0 1000 1000">
  <defs>
    <style>
      .cls-1 {
        fill: #2a403a;
      }

      .cls-1, .cls-2 {
        stroke-width: 0px;
      }

      .cls-2 {
        fill: #d96b62;
      }
    </style>
  </defs>
  <path class="cls-2" d="m839.723150146,208.349341799c-31.3643586008-17.0420443402-66.9173411481-26.0518990533-102.810589485-26.0518990533-118.9013273568,0-215.6350573864,96.7361262675-215.6350573864,215.6374536243,0,58.5904142523,23.9222425702,114.5617404192,65.8986404872,155.1108791039.8419781116.9141647801,1.7315814527,1.7971784667,2.6888785159,2.6334655132,31.9873804693,27.9353420864,50.3329782574,68.2927817346,50.3329782574,110.7157785005,0,81.0168052788-65.9133174447,146.9325189614-146.9301227234,146.9325189614-81.0192015168,0-146.9325189614-65.9157136826-146.9325189614-146.9325189614,0-18.9734121324-15.379055199-34.3524673315-34.3524673315-34.3524673315s-34.3524673315,15.379055199-34.3524673315,34.3524673315c0,118.9013273568,96.7337300296,215.6374536243,215.6374536243,215.6374536243,118.9013273568,0,215.6350573864-96.7361262675,215.6350573864-215.6374536243,0-59.309285639-24.4634928185-115.8143738105-67.3423738554-156.4701450842-.5888754776-.6020547864-1.1738570685-1.2065058107-1.8154497811-1.7726170277-31.625548538-27.9113797068-49.7626736239-68.0867052704-49.7626736239-110.2173610057,0-81.0168052788,65.9133174447-146.9325189614,146.9301227235-146.9325189614,24.4727782405,0,48.6819703059,6.1247842145,70.0108843487,17.7129909678,16.6682312191,9.067364424,37.5274826226,2.8850704985,46.5852620948-13.7831607206s2.8850704985-37.5250863847-13.7855569586-46.5828658568Z"/>
  <path class="cls-1" d="m455.9512641292,197.7388001317c-49.2570674153-26.3676034039-104.8557785801-17.7719983274-147.7412492714,20.0984458526-42.8824753939-37.87044418-98.4775922018-46.4585610129-147.7412492714-20.0984458526-16.728137168,8.9523450021-23.0326392292,29.7660678845-14.0802942271,46.4966012904,8.9547412401,16.730533406,29.7756528363,23.0326392292,46.4966012904,14.0802942271,29.1053052682-15.5863297822,60.5505369-5.2621385505,84.7453515377,27.4489057814v248.142421492c0,18.9734121324,15.379055199,34.3524673315,34.3524673315,34.3524673315s34.3524673315-15.379055199,34.3524673315-34.3524673315v-257.4356313433c22.9775257562-25.2713245392,51.0296844429-32.1551171262,77.1995982155-18.1556959301,16.728137168,8.9475525262,37.5466525263,2.6502391789,46.4966012904-14.0802942271,8.9523450021-16.730533406,2.6478429409-37.5442562883-14.0802942271-46.4966012904Z"/>
</svg>