<?xml version="1.0" encoding="UTF-8"?>
<svg id="Layer_1" data-name="Layer 1" xmlns="http://www.w3.org/2000/svg" width="1000" height="1000" viewBox="0 0 1000 1000">
  <defs>
    <style>
      .cls-1 {
        fill: #2a403a;
      }

      .cls-1, .cls-2 {
        stroke-width: 0px;
      }

      .cls-2 {
        fill: #d96b62;
      }
    </style>
  </defs>
  <path class="cls-2" d="m517.462705657033439,408.054158653694685c-37.423238042080811,0-67.868835107894483,30.448116979494444-67.868835107894483,67.871355021572526,0,34.80441775151121,26.338295264169574,63.558207771302477,60.12766028698843,67.4143056781013v40.427920114696462c0,4.276293512719349,3.466141265022998,7.741174820905144,7.741174820906053,7.741174820905144,4.275033555881237,0,7.741174820906963-3.464881308185795,7.741174820906963-7.741174820905144v-40.427920114696462c33.789365022814309-3.856097906798823,60.127660286983883-32.609887926590091,60.127660286983883-67.4143056781013,0-37.423238042078083-30.445597065812763-67.871355021572526-67.868835107890845-67.871355021572526Zm0,120.257840487654903c-28.885770498712191,0-52.386485466083286-23.500714967369277-52.386485466083286-52.386485466082377,0-28.888290412389324,23.500714967371096-52.38900537976042,52.386485466083286-52.38900537976042,28.885770498707643,0,52.386485466081467,23.500714967371096,52.386485466081467,52.38900537976042,0,28.8857704987131-23.500714967373824,52.386485466082377-52.386485466081467,52.386485466082377Z"/>
  <path class="cls-2" d="m671.918294678057464,408.054158653694685c-37.42323804208263,0-67.868835107894483,30.448116979494444-67.868835107894483,67.871355021572526,0,37.423238042079902,30.445597065811853,67.868835107894483,67.868835107894483,67.868835107894483,37.423238042073535,0,67.868835107886298-30.445597065814582,67.868835107886298-67.868835107894483,0-37.423238042078083-30.445597065812763-67.871355021572526-67.868835107886298-67.871355021572526Zm0,120.257840487654903c-28.885770498711281,0-52.386485466085105-23.500714967369277-52.386485466085105-52.386485466082377,0-28.888290412389324,23.500714967373824-52.38900537976042,52.386485466085105-52.38900537976042,28.885770498709462,0,52.38648546607601,23.500714967371096,52.38648546607601,52.38900537976042,0,28.8857704987131-23.500714967366548,52.386485466082377-52.38648546607601,52.386485466082377Z"/>
  <path class="cls-2" d="m363.005856679166754,408.054158653694685c-37.423238042078083,0-67.868835107892664,30.448116979494444-67.868835107892664,67.871355021572526v85.460352498759676c0,4.276293512721168,3.466141265025726,7.741174820906963,7.741174820907872,7.741174820906963,4.275033555878508,0,7.741174820904234-3.464881308185795,7.741174820904234-7.741174820906963v-42.358488981772098c12.457980743581174,15.11444224472325,31.315754757983086,24.766971590906905,52.386485466080558,24.766971590906905,37.423238042081721,0,67.868835107896302-30.445597065814582,67.868835107896302-67.868835107894483,0-37.423238042078083-30.445597065814582-67.871355021572526-67.868835107896302-67.871355021572526Zm0,120.257840487654903c-28.885770498709462,0-52.386485466080558-23.500714967369277-52.386485466080558-52.386485466082377,0-28.888290412389324,23.500714967371096-52.38900537976042,52.386485466080558-52.38900537976042,28.885770498714919,0,52.386485466084196,23.500714967371096,52.386485466084196,52.38900537976042,0,28.8857704987131-23.500714967369277,52.386485466082377-52.386485466084196,52.386485466082377Z"/>
  <path class="cls-2" d="m872.712576336333768,408.054158653694685c-4.275033555886694,0-7.741174820910601,3.464881308185795-7.741174820910601,7.741174820906963v97.949044690296432l-81.0631031294688-102.744440420825413c-2.043649993403051-2.590471261682978-5.504751431067234-3.603476560512718-8.614324910563482-2.517393765001543-3.114613306845968,1.081042968156908-5.203621746469253,4.016742403813623-5.203621746469253,7.312789495530524v144.113863283721003c0,4.276293512719349,3.466141265023907,7.741174820905144,7.741174820896958,7.741174820905144,4.275033555886694,0,7.741174820910601-3.464881308185795,7.741174820910601-7.741174820905144v-121.80506748636617l81.0631031294688,102.744440420827232c2.042390036569486,2.590471261682978,5.50223151739101,3.600956646832856,8.614324910563482,2.517393765003362,3.114613306844149-1.081042968155089,5.203621746469253-4.016742403815442,5.203621746469253-7.312789495530524v-120.257840487654903c0-4.276293512721168-3.466141265023907-7.741174820906963-7.741174820896958-7.741174820906963Z"/>
  <g>
    <path class="cls-2" d="m270.302786186701269,414.953487507818863c-7.13239473941303-3.875436732119852-15.21730120657412-5.92431779409344-23.379585628736095-5.92431779409344-27.038691035959346,0-49.036371778214743,21.99822565742943-49.036371778214743,49.036916693390594,0,13.323720969774513,5.440024431374695,26.051849652119927,14.985644142353522,35.272904261360964.19146956998793.20788513966545.393769329098177.408686382043015.611462941932587.598861778487844,7.274072685188003,6.352621122474375,11.445943273082776,15.530082517630944,11.445943273082776,25.177260794547692,0,18.423582102495857-14.988981747806065,33.413108765478682-33.412563850301922,33.413108765478682-18.424127017671708,0-33.413108765477773-14.989526662982826-33.413108765477773-33.413108765478682,0-4.314638364021448-3.497265599935417-7.811903963956865-7.811903963956865-7.811903963956865s-7.811903963956865,3.497265599935417-7.811903963956865,7.811903963956865c0,27.038691035961165,21.997680742254488,49.036916693392413,49.036916693391504,49.036916693392413,27.038691035960255,0,49.036371778214743-21.998225657431249,49.036371778214743-49.036916693392413,0-13.487195522591719-5.563107146765105-26.336704060404372-15.313955535927562-35.582007394979883-.133912904516365-.136909937984456-.266940321869697-.274364791144762-.412841360260245-.403101001487812-7.191790493603548-6.347171970714044-11.316253461180168-15.48321981249137-11.316253461180168-25.063918437928805,0-18.423582102495857,14.988981747806065-33.413108765478682,33.412563850301012-33.413108765478682,5.565218693072893,0,11.070496716779417,1.392803190003178,15.920786698865413,4.028012981416396,3.790429964653413,2.061959026199474,8.533916572231647.656077871972229,10.593695937728626-3.134352092682093,2.05977936549607-3.790429964654322.656077871972229-8.533371657056705-3.134897007857944-10.593151022552775Z"/>
    <path class="cls-1" d="m183.031351250077932,412.54060310823661c-11.201276359032818-5.996110368538211-23.844670731500628-4.041431517624005-33.597017637397585,4.570476039181813-9.751665761925324-8.611907556805818-22.394242761629357-10.564883547795034-33.597017637397585-4.570476039181813-3.80405284405515,2.035803097751341-5.23772467226172,6.768936316984764-3.201921574511289,10.573534076214855,2.036348012925373,3.80459775923191,6.77111597768635,5.23772467226263,10.573534076213946,3.201921574513108,6.618675957186497-3.544400762664736,13.769461583790871-1.196633726622167,19.271470116440469,6.242003341734744v56.428691056607931c0,4.314638364021448,3.497265599935417,7.811903963956865,7.811903963956865,7.811903963956865s7.811903963956865-3.497265599935417,7.811903963956865-7.811903963956865v-58.542008338150481c5.225191623212595-5.746811675493518,11.604377360521539-7.312216747512139,17.555532227035656-4.128686060192194,3.804052844056059,2.034713267397819,8.538275893641185.602676184718803,10.573534076214855-3.201921574513108,2.035803097750431-3.804597759230091.602131269543861-8.537730978463514-3.201921574512198-10.573534076214855Z"/>
  </g>
</svg>