<?xml version="1.0" encoding="UTF-8"?>
<svg id="Layer_1" data-name="Layer 1" xmlns="http://www.w3.org/2000/svg" width="1000" height="278.548848288814952" viewBox="100 0 800 200">
  <defs>
    <style>
      .cls-1 {
        fill: #f0f2e9;
      }

      .cls-1, .cls-2 {
        stroke-width: 0px;
      }

      .cls-2 {
        fill: #2a403a;
      }
    </style>
  </defs>
  <path class="cls-1" d="m519.158872818815325,57.081575206516391c-33.53377966539756,0-60.815116000817397,27.283594350346903-60.815116000817397,60.817374015741734,0,31.187137653594618,23.600913132041569,56.952499218101366,53.878494148274513,60.407826558546731v36.226180212735926c0,3.831851329348865,3.105899530653915,6.936621852541066,6.936621852542885,6.936621852541066,3.830722321887151,0,6.936621852542885-3.104770523192201,6.936621852542885-6.936621852541066v-36.226180212735926c30.277581016229306-3.455327340445365,53.878494148269965-29.220688904952112,53.878494148269965-60.407826558546731,0-33.533779665394832-27.281336335418018-60.817374015741734-60.81511600081285-60.817374015741734Zm0,107.759246311474271c-25.883625096253127,0-46.941872295733447-21.058247199478501-46.941872295733447-46.941872295732537,0-25.885883111177463,21.05824719948032-46.944130310657783,46.941872295733447-46.944130310657783,25.883625096248579,0,46.941872295730718,21.05824719948032,46.941872295730718,46.944130310657783,0,25.883625096254036-21.058247199482139,46.941872295732537-46.941872295730718,46.941872295732537Z"/>
  <path class="cls-1" d="m657.561639690459742,57.081575206516391c-33.53377966539847,0-60.815116000816488,27.283594350346903-60.815116000816488,60.817374015741734,0,33.533779665396651,27.281336335418018,60.815116000816488,60.815116000816488,60.815116000816488,33.533779665391194,0,60.815116000809212-27.281336335419837,60.815116000809212-60.815116000816488,0-33.533779665394832-27.281336335418018-60.817374015741734-60.815116000809212-60.817374015741734Zm0,107.759246311474271c-25.883625096252217,0-46.941872295734356-21.058247199478501-46.941872295734356-46.941872295732537,0-25.885883111177463,21.058247199482139-46.944130310657783,46.941872295734356-46.944130310657783,25.883625096250398,0,46.94187229572708,21.05824719948032,46.94187229572708,46.944130310657783,0,25.883625096254036-21.058247199476682,46.941872295732537-46.94187229572708,46.941872295732537Z"/>
  <path class="cls-1" d="m380.754976939703738,57.081575206516391c-33.533779665394832,0-60.815116000814669,27.283594350346903-60.815116000814669,60.817374015741734v76.578318198926354c0,3.831851329350684,3.105899530655734,6.936621852542885,6.936621852543794,6.936621852542885,3.830722321885332,0,6.936621852540156-3.104770523192201,6.936621852540156-6.936621852542885v-37.956101897882036c11.16320241613721,13.543573525892498,28.061057114539835,22.19289969977217,46.941872295730718,22.19289969977217,33.53377966539847,0,60.815116000818307-27.281336335419837,60.815116000818307-60.815116000816488,0-33.533779665394832-27.281336335419837-60.817374015741734-60.815116000818307-60.817374015741734Zm0,107.759246311474271c-25.883625096250398,0-46.941872295730718-21.058247199478501-46.941872295730718-46.941872295732537,0-25.885883111177463,21.05824719948032-46.944130310657783,46.941872295730718-46.944130310657783,25.883625096255855,0,46.941872295734356,21.05824719948032,46.941872295734356,46.944130310657783,0,25.883625096254036-21.058247199478501,46.941872295732537-46.941872295734356,46.941872295732537Z"/>
  <path class="cls-1" d="m837.487043035541319,57.081575206516391c-3.830722321892608,0-6.936621852546523,3.104770523192201-6.936621852546523,6.936621852542885v87.769040171970119l-72.638082153134746-92.066042576067048c-1.831250104945866-2.321239343884372-4.93263360574565-3.228961344120762-7.719024024381724-2.255756911032222-2.79090644848111.968688403238048-4.662800822097779,3.599275791973923-4.662800822097779,6.552759315129151v129.135873615516175c0,3.831851329348865,3.105899530653915,6.936621852541066,6.93662185253379,6.936621852541066,3.830722321892608,0,6.936621852546523-3.104770523192201,6.936621852546523-6.936621852541066v-109.145667476013841l72.638082153134746,92.066042576068867c1.83012109748779,2.321239343884372,4.930375590822223,3.226703329191878,7.719024024381724,2.255756911032222,2.790906448479291-.968688403236229,4.662800822097779-3.599275791975742,4.662800822097779-6.552759315129151v-107.759246311474271c0-3.831851329350684-3.105899530653915-6.936621852542885-6.93662185253379-6.936621852542885Z"/>
  <path class="cls-1" d="m297.686688281610259,63.263845521371877c-6.39111328125-3.47265625-13.6357421875-5.30859375-20.94970703125-5.30859375-24.228515625,0-43.93994140625,19.7119140625-43.93994140625,43.9404296875,0,11.93896484375,4.874633789063409,23.34423828125,13.42816162109375,31.60693359375.171569824219659.186279296875.35284423828125.3662109375.54791259765625.53662109375,6.51806640625,5.6923828125,10.25634765625,13.916015625,10.25634765625,22.560546875,0,16.5087890625-13.43115234375,29.9404296875-29.93994140625,29.9404296875-16.50927734375,0-29.9404296875-13.431640625-29.9404296875-29.9404296875,0-3.8662109375-3.1337890625-7-7-7s-7,3.1337890625-7,7c0,24.228515625,19.71142578125,43.9404296875,43.9404296875,43.9404296875,24.228515625,0,43.93994140625-19.7119140625,43.93994140625-43.9404296875,0-12.08544921875-4.98492431640625-23.5994873046875-13.72235107421875-31.8839111328125-.1199951171875-.1226806640625-.239196777342841-.245849609375-.36993408203125-.3612060546875-6.4443359375-5.6875-10.14013671875-13.8740234375-10.14013671875-22.458984375,0-16.5087890625,13.43115234375-29.9404296875,29.93994140625-29.9404296875,4.98681640625,0,9.919921875,1.248046875,14.26611328125,3.609375,3.396484375,1.84765625,7.64697265625.587890625,9.49267578125-2.80859375s.587890625-7.646484375-2.80908203125-9.4921875Z"/>
  <path class="cls-2" d="m219.485516406610259,61.101736146371877c-10.037109375-5.3729248046875-21.366455078125-3.62139892578125-30.105224609375,4.095458984375-8.738159179686591-7.71685791015625-20.066772460936591-9.46685791015625-30.105224609375-4.095458984375-3.40869140625,1.82421875-4.693359375,6.0654296875-2.869140625,9.474609375,1.82470703125,3.4091796875,6.0673828125,4.693359375,9.474609375,2.869140625,5.930786132813409-3.176025390625,12.33837890625-1.072265625,17.2685546875,5.59326171875v50.56396484375c0,3.8662109375,3.1337890625,7,7,7s7-3.1337890625,7-7v-52.4576416015625c4.68212890625-5.1495361328125,10.398315429688409-6.55224609375,15.73095703125-3.6995849609375,3.40869140625,1.8232421875,7.65087890625.5400390625,9.474609375-2.869140625,1.82421875-3.4091796875.53955078125-7.650390625-2.869140625-9.474609375Z"/>
</svg>