<svg xmlns="http://www.w3.org/2000/svg" viewBox="0 0 1300 1300"><defs><style>.cls-1{fill:#fff;}.cls-2{fill:#0a0000;}</style></defs><g id="BG"><rect class="cls-1" width="1300" height="1300"/></g><g id="LOGOS"><path class="cls-2" d="M831.42,287.81a143.38,143.38,0,0,1-65.24-120.06h-103L663,580.41a86.5,86.5,0,1,1-86.38-89.81,85.3,85.3,0,0,1,25.54,4V389.48a188.85,188.85,0,0,0-25.54-1.85c-104.51,0-189.53,85-189.53,189.52A189.82,189.82,0,0,0,576.66,766.68c104.5,0,189.52-85,189.52-189.53V367.9A244.85,244.85,0,0,0,909.43,414V311A142.41,142.41,0,0,1,831.42,287.81Z"/><path class="cls-2" d="M166.11,882.9H332l-15.23,47.47-43,0v175.49H220.11V930.35l-54,.1Z"/><path class="cls-2" d="M603.79,882.9H773.53L758.3,930.37l-46.8,0v175.49H657.79V930.35l-54,.1Z"/><polygon class="cls-2" points="342.13 953.82 395.32 953.82 395.26 1105.84 342.45 1105.84 342.13 953.82"/><path class="cls-2" d="M416.42,882.28h53.13V986.1l52.65-51.67h63.43L519,999.07l74.6,106.77H535.09l-49.79-74-15.75,15.3v58.74H416.42Z"/><path class="cls-2" d="M956.68,882.28h53.13V986.1l52.66-51.67h63.43l-66.61,64.64,74.6,106.77h-58.54l-49.79-74-15.75,15.3v58.74H956.68Z"/><circle class="cls-2" cx="368.71" cy="909.67" r="26.77"/><path class="cls-2" d="M844.08,923.83a91,91,0,1,0,91,91A91,91,0,0,0,844.08,923.83Zm0,135.24a44.24,44.24,0,1,1,44.24-44.24A44.24,44.24,0,0,1,844.08,1059.07Z"/></g></svg>