<svg xmlns="http://www.w3.org/2000/svg" viewBox="0 0 2400 1000"><defs><style>.cls-1{fill:#3dbabf;}.cls-2{fill:#e5004f;}.cls-3{fill:#0a0000;}</style></defs><g id="LOGOS"><path class="cls-1" d="M428.84,416.29V398.75a137.26,137.26,0,0,0-18.36-1.33c-75.15,0-136.28,61.14-136.28,136.28a136.19,136.19,0,0,0,58.18,111.58,135.76,135.76,0,0,1-36.6-92.79C295.78,478.42,355.18,418,428.84,416.29Z"/><path class="cls-1" d="M432.06,614.73a62.27,62.27,0,0,0,62.12-59.9l.12-296.72h54.2a103,103,0,0,1-1.74-18.79h-74L472.6,536a62.1,62.1,0,0,1-91,52.75A62.12,62.12,0,0,0,432.06,614.73Z"/><path class="cls-1" d="M649.76,358.82v-16.5a102.29,102.29,0,0,1-56.09-16.68A103.06,103.06,0,0,0,649.76,358.82Z"/><path class="cls-2" d="M593.67,325.64a102.5,102.5,0,0,1-25.33-67.53H548.5A103.2,103.2,0,0,0,593.67,325.64Z"/><path class="cls-2" d="M410.48,471.46a62.21,62.21,0,0,0-28.87,117.33,62,62,0,0,1,68.81-95.66V417.54a135.51,135.51,0,0,0-18.36-1.33c-1.08,0-2.14.06-3.22.08v58A61.28,61.28,0,0,0,410.48,471.46Z"/><path class="cls-2" d="M649.76,358.82v57.54a176.06,176.06,0,0,1-103-33.12V533.7c0,75.15-61.14,136.28-136.28,136.28a135.47,135.47,0,0,1-78.1-24.7,135.9,135.9,0,0,0,99.68,43.49c75.14,0,136.28-61.14,136.28-136.28V402a176.09,176.09,0,0,0,103,33.12v-74A103.08,103.08,0,0,1,649.76,358.82Z"/><path class="cls-3" d="M546.76,533.7V383.24a176.06,176.06,0,0,0,103,33.12V358.82a103.06,103.06,0,0,1-56.09-33.18,103.2,103.2,0,0,1-45.17-67.53H494.3l-.12,296.72a62.12,62.12,0,0,1-112.57,34,62.21,62.21,0,0,1,28.87-117.33,61.28,61.28,0,0,1,18.36,2.88v-58c-73.66,1.72-133.06,62.13-133.06,136.2a135.76,135.76,0,0,0,36.6,92.79,135.47,135.47,0,0,0,78.1,24.7C485.62,670,546.76,608.85,546.76,533.7Z"/><path class="cls-3" d="M744.61,359.06H976l-21.25,66.19-60,0V669.93H819.91V425.22l-75.24.14Z"/><path class="cls-3" d="M1354.93,359.06h236.69l-21.24,66.19-65.25,0V669.93h-74.9V425.22l-75.25.14Z"/><polygon class="cls-3" points="990.07 457.94 1064.24 457.94 1064.16 669.93 990.51 669.93 990.07 457.94"/><path class="cls-3" d="M1093.65,358.19h74.09V503l73.43-72h88.44L1236.73,521l104,148.89h-81.63L1189.7,566.68l-22,21.35v81.9h-74.09Z"/><path class="cls-3" d="M1878.69,358.19h74.09V503l73.42-72h88.45L2021.77,521l104,148.89h-81.63l-69.43-103.25-22,21.35v81.9h-74.09Z"/><circle class="cls-3" cx="1027.13" cy="396.38" r="37.34"/><path class="cls-1" d="M1582.14,543a126.89,126.89,0,0,1,117-126.48c-3.28-.25-7.77-.42-11.11-.42a126.9,126.9,0,0,0,0,253.8c3.34,0,7.83-.17,11.11-.43A126.88,126.88,0,0,1,1582.14,543Z"/><path class="cls-2" d="M1727.92,416.13c-3.38,0-7.89.17-11.2.43a126.86,126.86,0,0,1,0,252.94c3.31.26,7.82.43,11.2.43a126.9,126.9,0,0,0,0-253.8Z"/><path class="cls-3" d="M1707.87,604.72A61.69,61.69,0,1,1,1769.56,543,61.69,61.69,0,0,1,1707.87,604.72Zm0-188.59A126.9,126.9,0,1,0,1834.77,543,126.89,126.89,0,0,0,1707.87,416.13Z"/></g></svg>