<?xml version="1.0" encoding="UTF-8"?>
<svg id="Tracy_s_Kitchen" data-name="Tracy&amp;apos;s Kitchen" xmlns="http://www.w3.org/2000/svg" width="440" height="772" xmlns:xlink="http://www.w3.org/1999/xlink" viewBox="0 -5 440 772">
  <defs>
    <style>
      .cls-1 {
        fill: #844928;
      }

      .cls-1, .cls-2, .cls-3, .cls-4, .cls-5, .cls-6, .cls-7, .cls-8, .cls-9, .cls-10 {
        stroke-width: 0px;
      }

      .cls-2 {
        fill: #f69183;
      }

      .cls-3 {
        fill: #f8af97;
      }

      .cls-4 {
        fill: #fabda0;
      }

      .cls-5 {
        fill: none;
      }

      .cls-6 {
        fill: #f1f1f2;
      }

      .cls-7 {
        fill: #772512;
      }

      .cls-11 {
        clip-path: url(#clippath);
      }

      .cls-8 {
        fill: #404041;
      }

      .cls-9 {
        fill: #231f20;
      }

      .cls-10 {
        fill: #3b2314;
      }
    </style>
    <clipPath id="clippath">
      <rect class="cls-5" x="-48.259709150997878" y="-311.330404325619384" width="542.663499855709233" height="1080"/>
    </clipPath>
  </defs>
  <g class="cls-11">
    <g>
      <path class="cls-10" d="M134.845782872760537,102.962829173869977s91.211742977260656-14.357117020859732,84.893069130850563-95.030817534738162c0,0-91.789070386979802,4.573366182099562-84.893069130850563,95.030817534738162Z"/>
      <path class="cls-10" d="M177.634187939320327,102.962829173869977s91.211742977240647-14.357117020859732,84.893069130859658-95.030817534738162c0,0-91.789070386988897,4.573366182099562-84.893069130859658,95.030817534738162Z"/>
      <path class="cls-10" d="M229.329471281760561,343.328940899071313l-18.883949711769674-.000000000090949c-86.915565512121248-.000000000340151-158.028300940490226-56.142950013369045-158.028300951900746-124.762111140089473l-.000000010279109-61.57120996796948c-.000000011410521-68.619161131389774,71.112735403110491-124.762111151479985,158.028300921208938-124.762111155770981l18.883949755341746-.000000000940418c86.915573288239102-.000000004278263,158.028300931349804,59.724149216561273,158.028300922169365,124.762111138450564l-.000000008649295,61.571210013349628c-.000000009691576,68.619161112521397-71.11273542194067,124.762111113401261-158.028300916121225,124.76211111306111Z"/>
      <circle class="cls-3" cx="51.085831498862717" cy="268.96240206610355" r="45.761496969035079"/>
      <circle class="cls-3" cx="395.05825005485076" cy="268.749557897318027" r="45.761496969041438"/>
      <path class="cls-10" d="M171.467216775721681,72.559519209111386s112.099674627759669,101.876343897880361,209.501116892599384,8.370679679559544c0,0-100.093311624401395-112.973744018079742-209.501116892599384-8.370679679559544Z"/>
      <path class="cls-10" d="M41.139906950071236,115.392625334879995s135.146773686159577,68.414004851851132,204.189357148308773-47.618196993369565c0,0-126.522151493509227-82.303602903270075-204.189357148308773,47.618196993369565Z"/>
      <path class="cls-10" d="M96.847328467900297,38.319799800330657s84.13456213048994,113.950059442960992,183.761189156190085,58.425118035369451c0,0-71.916381820050447-120.430448417149819-183.761189156190085-58.425118035369451Z"/>
      <rect class="cls-4" x="61.859037469989744" y="52.552705153416809" width="316.056917963484011" height="394.044971959934628" rx="158.02830099494858" ry="158.02830099494858"/>
      <g>
        <path class="cls-10" d="M376.379345016861407,233.154350706641708c2.340846860339298-97.972003031771237-69.079733546650459-131.943866244571836-118.07854322464118-143.72053167921149-31.606268130779426-7.596438522868993-64.729446347319026-6.811073491599018-95.690769227498095,3.091378169210657C59.437201347311202,125.523269591390999,61.372215795121519,228.753986611191067,61.372215795121519,228.753986611191067c0,0,6.618394038658153-186.976414407210541,127.945819371199832-181.349455243369448,121.327425332559869,5.626959163848369,139.580448718128537,24.212108391229776,139.580448718128537,24.212108391229776l45.630504408651177,82.896849128630492,1.850356723760342,78.64086181895982Z"/>
        <path class="cls-10" d="M376.379595847140081,243.077129520550443h-.001661164587858c-5.38881792796019-.001107443060391-9.791457811352302-4.302139425730275-9.918260041671601-9.689296189098968l-.411415096639757-17.492063126170251c-2.452432655451048-32.645206510540447-14.60495906982942-59.396601057960652-36.243289011119487-79.68661907420028-22.974459992701668-21.543366698910177-52.826141385410665-32.080964271670382-73.823261795199869-37.127305433430593-30.367749858480238-7.299434066510003-61.609272290990702-6.298028679890194-90.349080851890903,2.894579296989832-21.849851565668359,6.988242566760164-40.362977192809922,17.9054162481807-55.024969580219476,32.44780478516077-11.733912937870628,11.638119113209541-21.104542386559842,25.667761513610458-27.851639227090345,41.699937826480891-5.753720416099895,13.670553988318716-8.621444218901161,26.542364669918243-10.049492044250655,36.114825616219605-1.147311009710393,10.206195237158681-1.408667571788101,16.613030197650005-1.417527116269412,16.866080936759317-.189372763170468,5.343966484049815-4.577615886790227,9.57135350326098-9.9149377124686,9.571630364020166-.028239798040886,0-.055925874530658,0-.08416567254244-.000276860759186-5.375528611228219-.04485144390128-9.737746822949703-4.361664490181283-9.838524141378002-9.736362519130125-.011074430600274-.580577023991282-.107421976770638-7.916833572229734,1.53270119445915-19.14159956343974,1.240889948270706-11.035393228050452,3.455222345930451-26.107693269041192,7.370033561559467-42.817071012861561,10.679627145149425-45.588447269468816,28.215434272180573-79.872115786649374,52.120146434930575-101.899158241860277,21.374204771560471-19.695044232468717,47.381397582930731-28.980677426339753,77.303401609950015-27.589728943508817,51.038174565670488,2.367159539859131,90.545651994940272,7.26288844553892,117.425509937260358,14.551524942220567,20.150480190750386,5.463847195229391,26.835560219940817,10.645573271049216,28.774693017279787,12.619867385539692.634011151629238.645639303718781,1.177211972339137,1.374890558479819,1.613544537820417,2.167819789128771l45.630530105729122,82.896819643170602c.768565483360362,1.396485698140168,1.189393846001622,2.957703551379382,1.227046910029458,4.551590974890132l1.421956888490968,60.433167761710138c.437993730090966,6.056329232129428.581407606310677,12.284865860010541.428580464071274,18.678134643028898-.129017116440082,5.386326181060213-4.53221072136148,9.685696999140418-9.919921206252184,9.685696999140418ZM215.588830582511946,74.413551545310838c14.997547634478906,0,30.113591676319629,1.787136237409868,45.030849688959279,5.372206282059778,33.928733016589831,8.154656969270945,61.773173863810371,22.267634459900364,82.759773564539501,41.946620768030698,1.30789025337981,1.225939466969066,2.588094430258934,2.473474073580292,3.836182758419454,3.737897186869304l-25.929118075679071-47.105090539580488c-2.341134627959036-1.380150913009857-9.108719165111324-4.755083637119242-24.25577161261026-8.44674507622949-25.502752497710389-6.215801032720265-61.897207486488696-10.455646786340367-108.172269452899855-12.602148296589803-24.431855059099689-1.133467971500068-45.603951472290646,6.390223314579998-62.936542797920993,22.360382816150377-11.796483470729072,10.869830490619279-21.064674436409405,24.781807065919566-28.337253008729022,39.72204452205915,16.75118371931967-16.303776723269038,37.600460480669426-28.519981113569884,62.002414577171294-36.324686076010039,18.029173010068916-5.766179150528842,36.918829277468831-8.660481586759488,56.001734358749673-8.660481586759488ZM322.305366133570715,79.023560141611597h0Z"/>
      </g>
      <path class="cls-10" d="M114.027697987790816,139.680391424610207s82.710858949540125-16.412280140559233,90.74103124217072-62.480543185958595c0,0-81.57064541723048,10.808514185879176-90.74103124217072,62.480543185958595Z"/>
      <g>
        <ellipse class="cls-9" cx="145.263044773833826" cy="267.583249233796323" rx="10.054548550253458" ry="16.563077427184453"/>
        <path class="cls-9" d="M145.262873969521024,289.532981566440867c-8.658543561419719,0-15.44107857985-9.641399276750235-15.44107857985-21.949798301789997,0-12.308122164269662,6.782535018430281-21.949521441030811,15.44107857985-21.949521441030811,8.658543561379702,0,15.441078579809982,9.641399276761149,15.441078579809982,21.949521441030811,0,12.308399025039762-6.782535018430281,21.949798301789997-15.441078579809982,21.949798301789997ZM145.262873969521024,256.406867907280684c-1.354956583409148,0-4.667872496191194,3.916472380240521-4.667872496191194,11.176315357370186,0,7.26011983789067,3.312915912782046,11.176592218109363,4.667872496191194,11.176592218109363,1.354956583380044,0,4.667872496160271-3.916472380218693,4.667872496160271-11.176592218109363,0-7.259842977129665-3.312915912780227-11.176315357370186-4.667872496160271-11.176315357370186Z"/>
      </g>
      <rect class="cls-2" x="204.768729245483428" y="259.469347373651374" width="21.997910151826545" height="57.210083737308992" rx="10.998944159779507" ry="10.998944159779507"/>
      <path class="cls-10" d="M166.417251293751178,227.554930736610913h-47.376967810710994c-5.323478787418935,0-9.639184390660375-4.315705603210517-9.639184390660375-9.639184390660375,0-5.323478787438944,4.31570560324144-9.639184390660375,9.639184390660375-9.639184390660375h47.376967810710994c5.323478787440763,0,9.639184390658556,4.315705603221431,9.639184390658556,9.639184390660375,0,5.323478787449858-4.315705603217793,9.639184390660375-9.639184390658556,9.639184390660375Z"/>
      <path class="cls-10" d="M309.961252069891998,227.554930736610913h-47.377521532231185c-5.323478787429849,0-9.639184390649461-4.315705603210517-9.639184390649461-9.639184390660375,0-5.323478787438944,4.315705603219612-9.639184390660375,9.639184390649461-9.639184390660375h47.377521532231185c5.323478787449858,0,9.639184390638547,4.315705603221431,9.639184390638547,9.639184390660375,0,5.323478787449858-4.31570560318869,9.639184390660375-9.639184390638547,9.639184390660375Z"/>
      <path class="cls-7" d="M322.343785925620978,236.983425749585876c-8.15771484375-4.675048828125-19.6689453125-6.947509765625-35.19189453125-6.947509765625-15.5224609375,0-27.03369140625,2.2724609375-35.19140625,6.947509765625-10.28662109375,5.8955078125-15.50244140625,15.733642578125-15.50244140625,29.241455078125,0,1.059326171875.0419921875,2.1082763671875.1044921875,3.15185546875-15.916015625-5.12158203125-33.48876953125-1.82177734375-41.52490234375.231201171875.01611328125-.52734375.03955078125-1.052734375.03955078125-1.583984375,0-13.5078125-5.2158203125-23.345947265625-15.50244140625-29.241455078125-8.1572265625-4.675048828125-19.66845703125-6.947509765625-35.19091796875-6.947509765625-15.5234375,0-27.03466796875,2.2724609375-35.19189453125,6.947509765625-10.28662109375,5.8955078125-15.50244140625,15.733642578125-15.50244140625,29.241455078125,0,28.3447265625,22.7412109375,51.40478515625,50.6943359375,51.40478515625,25.1923828125,0,46.1435546875-18.73388671875,50.037109375-43.18310546875,6.111328125-1.7216796875,26.53857421875-6.5601806640625,43.02734375.0911865234375,4.64599609375,23.5184326171875,25.1640625,41.2928466796875,49.70361328125,41.2928466796875,27.95263671875,0,50.6943359375-23.06005859375,50.6943359375-51.40478515625,0-13.5078125-5.21630859375-23.345947265625-15.50244140625-29.241455078125ZM144.383824988120978,313.191555632398376c-24.51416015625,0-44.45751953125-20.2620849609375-44.45751953125-45.1676025390625,0-20.7144775390625,13.71142578125-29.951904296875,44.45751953125-29.951904296875,30.74560546875,0,44.45654296875,9.2374267578125,44.45654296875,29.951904296875,0,24.905517578125-19.943359375,45.1676025390625-44.45654296875,45.1676025390625ZM287.151891394370978,311.392483366773376c-24.51318359375,0-44.45654296875-20.2620849609375-44.45654296875-45.1676025390625,0-20.71435546875,13.71044921875-29.951904296875,44.45654296875-29.951904296875,30.74560546875,0,44.45703125,9.237548828125,44.45703125,29.951904296875,0,24.905517578125-19.943359375,45.1676025390625-44.45703125,45.1676025390625Z"/>
      <path class="cls-9" d="M269.433265861211112,281.018682463580262c-1.112980274880101,0-2.235373815779894-.343584209260371-3.198849277619956-1.056223818090075-2.391523287180462-1.768863426919779-2.896517322351428-5.141858125678482-1.127377034670644-7.533658273619949,17.12383830888939-23.152758325270042,44.120531493990711-21.363960923268678,45.26618133914053-21.276472921568711,2.966286235090593.227302687979318,5.186155848028648,2.816504561309557,4.959130020839439,5.782513935650059-.227579548758513,2.966009374338682-2.80736815606906,5.190862481049408-5.783067657168431,4.95913002081943-.880417232379841-.059801925210195-22.273448535961506-1.322010152360235-35.780931533770854,16.940833343289341-1.056500678840166,1.428324686099586-2.684995697951308,2.183877713519905-4.335085856750084,2.183877713519905Z"/>
      <path class="cls-9" d="M307.465629135111158,279.999557987981461c-.794036673731171,0-1.60025522109936-.176083446471239-2.361622324569908-.548184314509854h0c-5.650174490019708-2.753657167640995-23.298387087619631-9.045041189159747-30.037178105209023-2.075625154420777-2.066488749191194,2.139026269609531-5.477967094240739,2.197167030219134-7.616439642311889.129293977199268-2.139026269578608-2.067596192238852-2.196613308698943-5.477690233479734-.129017116449177-7.616716503060161,4.093109548239227-4.234308538339974,12.150865249810522-8.59320442086937,27.28573582367062-5.30548283772805,8.236607755668956,1.78824368046844,14.951588747488131,5.054093263188406,15.233433006149426,5.19224678487808,2.671152659730069,1.309551417971306,3.775273390128859,4.536640493601226,2.465721972170286,7.207793153320381-.935235663819185,1.908124391680758-2.850004713840463,3.016674894321113-4.840633613450336,3.016674894321113Z"/>
      <g>
        <path class="cls-6" d="M218.902570328051297,391.469902934270067c-41.926426109390377.855285771260242-61.664917452879308-25.476449532859988-67.988318471960156-37.028067724499124-1.970848750241203-3.600355600989133,1.346877213940388-7.623348260540297,6.289869728270787-7.623348260540297h123.396894471548876c4.94299251431039,0,8.260718478490162,4.022992659551164,6.289869728250778,7.623348260540297-6.323401019060839,11.551618191639136-22.167936542711686,34.507533004129073-64.983157639440833,36.882273129920577-1.001909954549774.055570792588696-2.000807780250398.145794594578547-3.005157816669453.145794594578547"/>
        <path class="cls-6" d="M216.916654810969703,396.876883610770165c-45.347024682498159,0-65.559521684568608-30.407894669389862-70.727404722128995-39.848569891619263-1.699371374939801-3.104162896019261-1.636247120528424-6.774782917040284.167777623541042-9.819143887840255,2.111893914629036-3.563474904980467,6.268127717270545-5.777253581100013,10.846851047139353-5.777253581100013h123.397396636079066c4.578723329890636,0,8.734957132532145,2.213778676119546,10.846851047161181,5.777253581100013,1.804024744069466,3.044360970799971,1.86714899844992,6.714980991820994.167777623519214,9.819143887840255-13.419994996078458,24.515467010089196-36.773200515148346,37.863755068070532-69.409547481209302,39.674147609730426-.260249118990032.014396759790543-.519944516468968.031562127200232-.779639913951542.048450633859829-.744201736029936.048450633859829-1.585304739788626.102992204539987-2.465168250630086.105483951439965-.685507253889227.013566177469329-1.370460786227341.020487696589043-2.044893609519931.020487696589043ZM155.975170684900149,352.458726794520771c5.016717059919756,8.866465995830367,22.981104651031274,34.445355203890358,62.817492669000785,33.625570479049202l.109636862889602-.001107443058572c.551506643700122,0,1.170013592460236-.040144810929633,1.824512440689432-.082781368721044.294026132311046-.019103392769466.588052264640282-.038206785538932.88263211847152-.054541570689253,28.393178883259679-1.57506089150047,48.651081050778885-12.841632858209778,60.222199858868407-33.486586375051047-.260802840539327-.129017116440082-.665019557269261-.254158182169704-1.230369239219726-.254158182169704h-123.397396636079066c-.564242238870065,0-.968458955630922.124587344200336-1.228708074620954.253604460640418Z"/>
      </g>
      <path class="cls-1" d="M61.85903749658064,750.851182873571815l-.000000068008376-139.568672682720717c-.000000042342435-86.915565612140199,71.112735423837876-158.028301099440796,158.028301035948971-158.02830108290982h.000316103618388c32.593335748551908.000000006190021,62.96439869346068,10.000227628359426,88.196455895831605,27.083949927049616,42.053431344298588,28.472872308089791,69.831844921929587,76.622121219659675,69.831844921820448,130.944350920970464l-.000000000311047,139.568672948109452c-.000000000070941,28.362050766931134-22.991984950729602,51.354035711579854-51.354035717658917,51.354035704200214l-213.34884648023035-.00000005540096c-28.362050746809473-.000000007348717-51.354035677200955-22.991984932508785-51.354035691010722-51.354035679298249Z"/>
      <path class="cls-9" d="M340.79585275071986,509.817884887381297s-181.241934739678982,194.352947804798532-278.936815277798814,208.638482818429111l-.00000001456101-32.760522160739129c97.694880538130747-14.285535013639674,255.427551779730493-198.632000373039773,255.427551779730493-198.632000373039773l23.509263512629332,22.754039715349791Z"/>
      <g>
        <rect class="cls-9" x="104.889671874542643" y="628.502281337771478" width="44.944520494997249" height="14.842832772041788" rx="5.952704748405495" ry="5.952704748405495" transform="translate(-133.907129822720663 42.325779641977647) rotate(-12.431164497016905)"/>
        <rect class="cls-9" x="123.300679671192341" y="632.55158588492111" width="10.666595763638099" height="18.28547676176288" transform="translate(-135.119529894510322 42.734898857717212) rotate(-12.431164497029229)"/>
        <rect class="cls-9" x="76.964356123552335" y="643.934762942854036" width="120.654245447768005" height="74.068529025021917" rx="27.041324679264328" ry="27.041324679264328" transform="translate(-143.371086742945465 45.519351403951532) rotate(-12.431164497048554)"/>
        <path class="cls-8" d="M137.285961611281891,710.850557181431213c-13.712913685340027,0-26.101325471410746-9.518473097159585-29.172265075651012-23.449553065260261-3.546032676809773-16.088655908919463,6.65794767423904-32.062968321930384,22.746326722390222-35.609554720269443,16.088932769698658-3.546863259100064,32.062691461200302,6.657393952709754,35.609277859539361,22.745773000870031v.000276860759186c3.546032676800678,16.088655908939472-6.65794767423904,32.062691461189388-22.746326722419326,35.609000998749252-2.15729908008143.475646794111526-4.312936995560449.704056925151235-6.437012783859245.704056925151235ZM137.295928598830869,654.49001127135125c-1.882653201289941,0-3.791331314489071.20210835836042-5.70388547841867.623767303299246-14.256114506071754,3.142646542361035-23.298387087612355,17.297983730000851-20.156017406032333,31.554928818370172,3.142923403120221,14.256668227610135,17.299921755362448,23.298387087610536,31.554928818371991,20.155463684510323,14.25611450607903-3.142369681580021,23.298387087608717-17.29770686925076,20.156017406028695-31.554651957610986-2.720987597400381-12.343837202928626-13.700178090148256-20.779507848568755-25.851043339949683-20.779507848568755Z"/>
        <path class="cls-8" d="M137.247754825732045,703.013736370241531c-4.155680081101309,0-8.232177983441943-1.181918605330793-11.819186053440717-3.473218295621336-4.96079118544003-3.168671454259311-8.390542340979664-8.079350841218911-9.657457201130455-13.827534042009574-2.615780506768715-11.86652924424925,4.910402526200414-23.648615955229616,16.776654909690478-26.264396461969227,5.745968314680795-1.2663611386306,11.645871214608633-.220104308100417,16.606662400048663,2.948844006919899,4.96079118542184,3.168671454250216,8.390542340970569,8.07935084123892,9.657457201130455,13.827534042038678v.00027686075191c1.266914860159886,5.748183200797939.219827447319403,11.645871214608633-2.948567146158894,16.606662400048663-3.168948314989393,4.960791185430935-8.07935084122073,8.39054234095056-13.828087763520671,9.657457201141369-1.591395676650791.350782589108348-3.195526948458792.524374288699619-4.78747634661886.524374288699619ZM137.328598169091492,662.327385804050209c-1.346650760471675,0-2.702161065390101.146736205400885-4.048811825861776.443530945371094-10.033987841397902,2.211840650759768-16.397909383329534,12.175228997099111-14.186345593319857,22.209493699259838,1.071451160139986,4.860844449309297,3.97184453321097,9.013755922749624,8.16628512141142,11.69321440540989,4.195548031249928,2.679735343450375,9.18291785007932,3.563751765759662,14.043485438629432,2.493408048670972,4.860567588510094-1.071451160141805,9.013479061990438-3.971567672451783,11.692937544661618-8.166561982161511,2.678904761127342-4.194440588180441,3.564305487278034-9.182364128570043,2.493408048649144-14.042931717100146h0c-1.071451160130891-4.860844449289289-3.97184453321097-9.013755922749624-8.166285121380497-11.69321440540989-3.033286540219706-1.937194772010116-6.480756784731057-2.936938994040247-9.994673612789484-2.936938994040247Z"/>
        <g>
          <rect class="cls-8" x="165.837603141418668" y="642.171540459059202" width="12.471421588442297" height="4.553807940020079" rx="2.276901763934255" ry="2.276901763934255" transform="translate(-134.693974368248746 52.150501057222527) rotate(-12.431164042379041)"/>
          <path class="cls-8" d="M167.747844129840814,649.394388893400901c-1.548759118830276,0-2.948567146149799-1.075050350069432-3.295750545328701-2.64872693775942l-.259141675942374-1.177488833100142c-.194356256948595-.879863510850555-.033777013308281-1.783260186710322.451836768301291-2.543242986339465.48506006010939-.759982799641875,1.237567619109541-1.285187670651794,2.117984851491201-1.479267066850298l8.908825692838946-1.963773405410393c1.8189752253802-.400340666061311,3.621338804859988.751953837449037,4.022786913939854,2.569267898239559l.259141675938736,1.177488833100142c.194356256981337.879863510839641.033777013341023,1.783260186699408-.451836768297653,2.543242986350378-.485060060102114.759982799629142-1.237567619082256,1.285187670649975-2.117984851451183,1.479267066848479l-8.908825692849859,1.963773405401298c-.243637473120543.053710988389867-.487274946239268.079459039519861-.727036368640256.079459039519861ZM176.372056956390225,642.883454285321932l-8.877263565669637,1.984537962789545.279629372549607,1.145372984379719,8.851238653740438-1.978723886721127-.253604460620409-1.151187060448137ZM176.651686328941651,644.028827269710746l.366009931189183,1.661164589389955-.366009931189183-1.661164589389955h0Z"/>
        </g>
      </g>
    </g>
  </g>
</svg>