<?xml version="1.0" encoding="UTF-8"?>
<svg id="Tracy_s_Kitchen" data-name="Tracy&amp;apos;s Kitchen" xmlns="http://www.w3.org/2000/svg" width="1080" height="1080" xmlns:xlink="http://www.w3.org/1999/xlink" viewBox="0 0 1080 1080">
  <defs>
    <style>
      .cls-1 {
        fill: #ff8b7e;
      }

      .cls-1, .cls-2, .cls-3, .cls-4, .cls-5, .cls-6, .cls-7, .cls-8, .cls-9, .cls-10, .cls-11, .cls-12, .cls-13, .cls-14, .cls-15 {
        stroke-width: 0px;
      }

      .cls-16 {
        fill: none;
        stroke: #241f20;
        stroke-linecap: round;
        stroke-miterlimit: 10;
        stroke-width: 17px;
      }

      .cls-2 {
        fill: #42210b;
      }

      .cls-3 {
        fill: #000;
      }

      .cls-4 {
        fill: #ffcab4;
      }

      .cls-5, .cls-13 {
        fill: #1a1a1a;
      }

      .cls-6 {
        fill: #ffc2b0;
      }

      .cls-7 {
        fill: #b2b2b2;
      }

      .cls-8 {
        fill: #ff97b2;
      }

      .cls-9 {
        fill: #fdd133;
      }

      .cls-10 {
        fill: #f0f2e9;
      }

      .cls-11 {
        fill: #381b0a;
      }

      .cls-12 {
        fill: #e8808d;
      }

      .cls-13 {
        filter: url(#drop-shadow-1);
      }

      .cls-14 {
        fill: #241f20;
      }

      .cls-15 {
        fill: #f7dcc4;
      }
    </style>
    <filter id="drop-shadow-1" filterUnits="userSpaceOnUse">
      <feOffset dx="0" dy="0"/>
      <feGaussianBlur result="blur" stdDeviation="14"/>
      <feFlood flood-color="#000" flood-opacity=".1"/>
      <feComposite in2="blur" operator="in"/>
      <feComposite in="SourceGraphic"/>
    </filter>
  </defs>
  <rect class="cls-4" x="643.295048654827269" y="626.9277286536269" width="113.699044155833349" height="354.080201053193719" rx="56.849462059578912" ry="56.849462059578912" transform="translate(-211.636090924363316 251.498178148216766) rotate(-17.735978341681296)"/>
  <g>
    <path class="cls-4" d="M790.905724854506843,901.127667480750461l-34.023943731226609-106.381121404177975c-9.00093072018899,23.58919938908366-40.957531501611811,101.801116018339599-78.31099280167291,128.384927604707627l4.040144904092813,12.632560842943349c9.524918082763179,29.781111305392187,41.684555245688898,46.354217590367625,71.465666551081085,36.829125077725621h0c29.781111305390368-9.52491808276136,46.35439202024827-41.684380815806435,36.829125077725621-71.465492121198622Z"/>
    <path class="cls-3" d="M731.983311047290044,716.897792459591074l-14.304994542124405-44.726263510845456c-9.524918082763179-29.780936875509724-41.684555245688898-46.354043160486981-71.465666551079266-36.829125077725621-29.781111305392187,9.524918082763179-46.354392020250089,41.684555245688898-36.829473937488729,71.465492121198622l54.718653674730376,171.084839187791658c.000697719524396-.000697719524396,73.252875111969843-113.159641010342966,67.881481355962023-160.994942720419203Z"/>
    <g>
      <path class="cls-10" d="M731.983311047290044,716.897792459591074c5.371393756007819,47.835301710076237-67.880783636437627,160.994245000894807-67.881481355962023,160.994942720419203l3.805711144006636,11.898385473745293c17.380542204200538-27.047271780225856,69.364135344600072-111.325336381576562,70.393969362117787-153.138446449573166l-6.3181991501624-19.75488174459133Z"/>
      <path class="cls-10" d="M741.560209234594367,746.841821273852474c-7.83190165762062,47.403936614322447-57.659192608898593,126.347237734678856-71.955465656972592,148.256677369578028l8.966044743985549,28.03297503784961c37.353461300061099-26.583811586368029,69.31006208148392-104.795728215623967,78.31099280167291-128.384927604707627l-15.321571888685867-47.904724802720011Z"/>
      <path class="cls-3" d="M738.301510197452444,736.652674204182404c-1.029834017517715,41.813110067996604-53.013427157917249,126.091174669347311-70.393969362117787,153.138446449573166l1.697202742287118,5.307377989674933c14.296273048073999-21.909439634899172,64.123563999351973-100.852740755255581,71.955465656972592-148.256677369578028l-3.258699037141923-10.189147069670071Z"/>
    </g>
  </g>
  <path class="cls-4" d="M711.523608443201738,963.680875288397147l.000095240200608.000062102959419c26.191028295297656,17.078296179770405,61.593202925991136,9.622424488106844,78.671499179312377-16.568603759251346l128.210315019046902-193.164027429707858c7.149771389924354-10.964786045276924,4.057091029908406-25.649536280430766-6.907694946010452-32.799307776684145l-51.968085440983486-33.886656503536869c-12.933741492393892-8.433661766433943-30.255444296646601-4.785626275815957-38.689105941144589,8.148115296087781l-125.885626822582708,189.598919061514607c-17.07829627314095,26.191028262250256-9.622424602655883,61.5932028161169,16.568603712161348,78.671499008618412Z"/>
  <g>
    <path class="cls-13" d="M468.775648073675256,606.261176541764144h12.860366267550489v473.738823458235856h88.265706111256804v-473.738823458235856h12.860366267552308v473.738823458235856h168.72253530918897c-8.330422257564351-91.50329913279711-69.97463992815392-359.680170841136714-69.97463992815392-359.680170841136714-18.326649878830722-74.737796689059905-47.71982912884414-145.079262656990977-131.619206458508415-145.079262656990977h-38.319453981126571c-83.899028469902987,0-126.620743788111213,55.687088374132145-146.613199030645774,139.217372075565436,0,0-71.384382226526213,272.847755062188298-81.637370632648526,365.542061422562256h185.454896075534634v-473.738823458235856Z"/>
    <rect class="cls-10" x="468.775648073675256" y="606.261176541764144" width="12.860366267550489" height="473.738823458235856"/>
    <rect class="cls-10" x="569.90172045248255" y="606.261176541764144" width="12.860366267552308" height="473.738823458235856"/>
  </g>
  <g>
    <circle class="cls-6" cx="318.798651439272817" cy="322.475671587030774" r="53.718385998610529"/>
    <circle class="cls-6" cx="722.58009166105785" cy="322.225818632623486" r="53.718385998603026"/>
    <rect class="cls-4" x="331.44507434540651" y="68.43722432780811" width="371.012065579392129" height="486.277950054733935" rx="185.505847297363516" ry="185.505847297363516"/>
    <path class="cls-11" d="M580.732670548351962,101.498528816448015c23.322594305556777-33.305578128314664,53.74668889898021-68.768134344594728,94.300023681296807-80.43586769482863,43.12484700092682-12.407591589633739,86.813677314834422,12.26679145540038,109.478755507485403,48.829829888218228,21.109056146711737,34.05296150061622,24.038331820169333,73.298950496626276,25.641416768787167,112.242089401228441.348271896047663,8.460438004793104-1.31847126341745,64.880638936279865,14.028742755259373,62.322769933163727l-105.885401019171695.049912221971681h-28.897095736216215l-108.666441957440838-143.008733749753446Z"/>
    <path class="cls-11" d="M472.020285858707211,101.498528816448015c-23.322594305558596-33.305578128314664-53.74668889898021-68.768134344594728-94.300023681298626-80.43586769482863-43.12484700092682-12.407591589633739-86.813677314836241,12.26679145540038-109.478755507487222,48.829829888218228-21.109056146711737,34.05296150061622-24.038331820169333,73.298950496626276-25.641416768787167,112.242089401228441-.348271896045844,8.460438004793104,1.31847126341745,64.880638936279865-14.028742755257554,62.322769933163727l105.885401019171695.049912221971681,137.563537693658873-143.008733749753446Z"/>
    <path class="cls-2" d="M318.575654584850781,272.874905415614194c152.213153073540525-17.742637474842923,198.150661645056971-153.110190051962491,198.150661645056971-153.110190051962491,0,0,105.357278678751754,141.904313752065718,198.150661645056971,153.110190051962491,0,0,30.409431207774105-198.327012367119096-198.111977914242743-220.089464819120622,0,0-214.586303303578461,3.022562840555111-198.189345375871198,220.089464819120622"/>
    <path class="cls-16" d="M388.217015110751163,277.07095736986048c5.747823470719595-3.302346337728522,17.815444891237348-9.184385141939856,34.067479674144124-9.435352861471983,12.227123158441827-.188757598849406,21.890510298524532,2.885817898304595,27.613267602659107,5.219254543359057"/>
    <path class="cls-16" d="M576.331291224300003,268.760188170608671c5.747823470703224-3.302346337724885,17.815444891235529-9.184385141936218,34.067479674145943-9.435352861470164,12.227123158440008-.188757598845768,21.890510298502704,2.885817898315509,27.613267602640917,5.2192545433536"/>
    <path class="cls-1" d="M520.341625037672202,405.804799151534098h.000022364070901c6.150112160970821.000000970887413,11.182023233297514-6.873184680749546,11.182024605197512-15.27374589250212l.000005438343578-33.30069606836696c.000001371909093-8.400561463020495-5.031907606038658-15.273748948622597-11.182019950962058-15.273749968018819h-.000022400599846c-6.15011228732692-.000001019390766-11.182023406799999,6.873184733771268-11.182024709924008,15.273746118138661l-.000005165711627,33.300696281174169c-.000001303111276,8.400561270391336,5.031907615699311,15.273748558704028,11.182019819585548,15.27374952957507Z"/>
    <g>
      <g>
        <g>
          <ellipse class="cls-14" cx="617.725356231154365" cy="321.765883741896687" rx="14.975611142092021" ry="24.669651315160081"/>
          <path class="cls-14" d="M617.725457880114845,354.458947193910717c-12.896350421327952,0-22.998505330235275-14.360251553112903-22.998505330235275-32.69324212135507,0-18.33216583520516,10.102154908907323-32.692417388316244,22.998505330235275-32.692417388316244,12.896350421329771,0,22.998505330249827,14.360251553111084,22.998505330249827,32.692417388316244,0,18.332990568242167-10.102154908920056,32.69324212135507-22.998505330249827,32.69324212135507ZM617.725457880114845,305.119293554749675c-2.018121729282939,0-6.952499459719547,5.833336735304329-6.952499459719547,16.646411517805973,0,10.813899515529556,4.934377730436609,16.647236250844799,6.952499459719547,16.647236250844799,2.018121729288396,0,6.952499459723185-5.833336735315243,6.952499459723185-16.647236250844799,0-10.813074782501644-4.93437773043479-16.646411517805973-6.952499459723185-16.646411517805973Z"/>
        </g>
        <g>
          <path class="cls-14" d="M622.348249463419052,298.19802284357138s11.264872078994813,5.766526308671018,20.705435819618287-3.908825946245997"/>
          <path class="cls-14" d="M630.107174889471935,305.372486595579176c-4.264694508447064,0-7.971044754240211-1.115863792299933-10.260503651061299-2.287809430770722-2.698526480688088-1.381427828593587-3.766555757127207-4.689432019917149-2.385127928531801-7.38795850061797,1.374005231316914-2.684506019142646,4.654793232593875-3.754184761639408,7.345072382950093-2.406570987357554.840402959605854.404943918705612,8.044445994100897,3.594186553440522,14.318190168502042-2.834607430973847,2.117089693118032-2.169872607180878,5.593339422983263-2.212758724848754,7.762387297136229-.095669031710713,2.169872607179059,2.117089693136222,2.21275872483784,5.592514689968084.095669031707075,7.762387297145324-5.383032499819819,5.517463984051574-11.562757108587903,7.250228084285482-16.875687300702339,7.250228084285482Z"/>
        </g>
        <g>
          <path class="cls-14" d="M617.725356231156184,299.903267956124182s12.43928825040166-2.326859782629981,13.991392253054073-15.755473194387378"/>
          <path class="cls-14" d="M617.718860015866085,305.39310492137156c-2.590486453502308,0-4.895615277935576-1.841628860447599-5.389630364095865-4.480774562829538-.554220597508902-2.96409051700175,1.386376226784705-5.817666807704882,4.339745214352661-6.396629396163917.913804199464721-.192987529488164,8.563203071222233-2.073378842442253,9.594944094251332-10.997814981670672.348037339508664-3.011100299811005,3.07542947631373-5.166952445457355,6.083230843993078-4.823038771113715,3.011925032857107.348037339501388,5.171076110627837,3.072130544189349,4.823038771119172,6.083230844000354-1.595033683885049,13.802732023494173-12.756970538906899,19.458751156920698-18.435257464199822,20.521007302128055-.341439475258085.063504443465717-.681229484436699.094019565649432-1.016071095420557.094019565649432Z"/>
        </g>
      </g>
      <g>
        <g>
          <ellipse class="cls-14" cx="419.757520263724018" cy="328.240102574385674" rx="14.975611142084292" ry="24.669651315174633"/>
          <path class="cls-14" d="M419.757365612807916,360.933101495082155c-12.896350421327952,0-22.998505330235275-14.360251553112903-22.998505330235275-32.693242121356889,0-18.332165835203341,10.102154908907323-32.692417388330796,22.998505330235275-32.692417388330796,12.896350421329771,0,22.998505330248008,14.360251553127455,22.998505330248008,32.692417388330796,0,18.332990568243986-10.102154908918237,32.693242121356889-22.998505330248008,32.693242121356889ZM419.757365612807916,311.593447855921113c-2.01812172929931,0-6.952499459719547,5.833336735309786-6.952499459719547,16.646411517804154,0,10.813899515533194,4.934377730420238,16.647236250848437,6.952499459719547,16.647236250848437,2.018121729286577,0,6.952499459737737-5.833336735315243,6.952499459737737-16.647236250848437,0-10.813074782494368-4.93437773045116-16.646411517804154-6.952499459737737-16.646411517804154Z"/>
        </g>
        <g>
          <path class="cls-14" d="M415.1346270314516,304.672241676065823s-11.264872078987537,5.766526308674656-20.705435819616469-3.908825946242359"/>
          <path class="cls-14" d="M407.375648603454465,311.846640896737881c-5.313754925151443,0-11.491830067845513-1.731939367193263-16.875687300704158-7.250228084272749-2.117089693145317-2.169872607179059-2.074203575473803-5.645297604010921.095669031705256-7.762387297156238,2.170697340234256-2.118739159192046,5.647771803109208-2.073378842433158,7.762387297154419.095669031719808,6.29353776716016,6.449412310208572,13.521498059582882,3.219757756916806,14.325612765773258,2.830483765808822,2.700175946747549-1.380603095563856,5.98096394804088-.30102755668122,7.362391776621735,2.398323657045694,1.382252561634232,2.698526480688088.288656561195239,6.018901667503087-2.409869919489211,7.400329496094855-2.289458896822907,1.171945638470788-5.996633875636689,2.287809430759808-10.260503651061299,2.287809430759808Z"/>
        </g>
        <g>
          <path class="cls-14" d="M419.757520263721744,306.377486788622264s-12.439288250388927-2.3268597826318-13.991392253043159-15.755473194392835"/>
          <path class="cls-14" d="M419.766437676158603,311.86808395557091c-.336491077057872,0-.676281086223753-.030515122185534-1.018545294502474-.094844298675525-5.679111658333568-1.062256145212814-16.840223780332963-6.71827527863752-18.435257464219831-20.521007302129874-.348037339503207-3.011100299816462,1.811113738274798-5.735193504502604,4.823038771119172-6.083230844011268,3.008626100718175-.351336271616674,5.735193504502604,1.811113738269341,6.083230843993078,4.823038771128267,1.035039955153479,8.952477062306571,8.729799143689888,10.81802318067821,9.603191424563192,11.001113913795052,2.980585177647299.557519529624187,4.916233603722503,3.419343150657369,4.358714074103773,6.399928328286478-.493190353132377,2.637496236322477-2.819762236389579,4.47500143160687-5.414372355056912,4.47500143160687Z"/>
        </g>
      </g>
    </g>
    <g>
      <path class="cls-12" d="M545.808665236547313,491.172163293818812s-36.648322119686782-32.666689287330883-15.581864204385056-47.445078332073535c21.625054985333918-15.170252017309394,34.917548794137474,28.338401715371219,36.655555132789232,29.780366818558832,1.738006338660853,1.441965103187613-21.073690928404176,17.664711513514703-21.073690928404176,17.664711513514703Z"/>
      <path class="cls-14" d="M517.959726766852327,506.559918725479292c-11.237795313354582,0-21.748777695458557-2.466249572766174-31.035688121282874-7.349604783452378-12.187695843618712-6.408110452579422-21.918194944561037-17.010914397174929-26.697442609045538-29.089329648813873-2.152633672716547-5.440750892830692.512778162352333-11.596675363925897,5.953529055181207-13.749309036642444,5.440750892841606-2.154573564885141,11.596675363936811.512778162345057,13.749309036651539,5.953529055184845,4.504429607730344,11.383287225744425,20.63269306971597,28.683245555543181,52.513527544335375,21.311008696828139,13.733789899322801-3.174956843804466,22.836410569449072-10.187020390500038,28.645094342964512-22.066920010558533,2.571650380414212-5.257107767863999,8.917037652980071-7.432373515837753,14.171558897955038-4.863956289029375,5.256461137129008,2.570357118971515,7.43366677728045,8.915097760818753,4.863956289027556,14.171558897945943-8.712055714184316,17.816616276481-22.747175529852029,28.742735581952729-42.907181541959289,33.403649824353124-6.583994008902664,1.522168719004185-13.032842196949787,2.279373294184552-19.256662893827524,2.279373294184552Z"/>
    </g>
  </g>
  <path class="cls-10" d="M523.90061860989772,575.03716444404381h-12.125667608710501c-35.225765611425231,0-63.189666416392356,9.820227871321549-85.263418999209534,27.392468514757638,22.37726057578584,20.025596919926102,69.226335738594571,22.816649446063821,69.226335738594571,22.816649446063821l28.162750869325464-50.209117960821459Z"/>
  <path class="cls-10" d="M525.387458916291507,575.037164441853747l12.125667608710501.000000000545697c36.568875694636517-.963655701612879,61.438433118306421,4.460238150095392,87.110771308935,26.956943896735538-22.377260576684421,20.02559691892202-71.073688050573764,23.252174064808059-71.073688050573764,23.252174064808059l-28.162750867071736-50.209117962089294Z"/>
  <circle class="cls-10" cx="523.900618609898174" cy="644.23263817730367" r="8.469562988793996"/>
  <circle class="cls-10" cx="523.900618609898174" cy="706.673809254572461" r="8.469562988794223"/>
  <circle class="cls-10" cx="523.900618609898174" cy="769.114980331839888" r="8.469562988794223"/>
  <circle class="cls-10" cx="523.900618609898174" cy="831.556151409108224" r="8.469562988794676"/>
  <circle class="cls-10" cx="523.900618609898174" cy="893.997322486377016" r="8.469562988793996"/>
  <circle class="cls-10" cx="523.900618609898174" cy="956.438493563644897" r="8.469562988794676"/>
  <g>
    <rect class="cls-9" x="692.54121370938401" y="614.122778822638224" width="12.651095116316355" height="183.236829265341044" transform="translate(-291.939613467094205 636.545023550358337) rotate(-41.285465099090615)"/>
    <rect class="cls-7" x="629.985065719933004" y="631.307814673526423" width="12.651095116318402" height="6.381536787750747" transform="translate(-260.482436242388758 577.561118980576452) rotate(-41.285465099074322)"/>
    <path class="cls-8" d="M627.651427053518546,621.113547532001803h4.920893686669729c2.133207155694095,0,3.865100714824393,1.731893559130299,3.865100714824393,3.865100714824393v8.785994401490484h-12.651095116319425v-8.785994401489575c0-2.133207155694549,1.731893559130754-3.865100714825303,3.865100714825303-3.865100714825303Z" transform="translate(-257.365319067580231 571.716356093124659) rotate(-41.285465099036777)"/>
    <polygon class="cls-3" points="766.305451763329984 782.544156708971059 765.724486272667491 779.390276611453373 763.252921170484115 781.560488952854939 766.305451763329984 782.544156708971059"/>
    <polygon class="cls-15" points="754.564511813012359 778.759679188589871 763.252921170484115 781.560488952854939 765.724486272667491 779.390276611453373 764.070830809498148 770.412445773903528 754.564511813012359 778.759679188589871"/>
  </g>
  <circle class="cls-10" cx="523.900618609898174" cy="1018.879664640913234" r="8.469562988794223"/>
  <g>
    <path class="cls-4" d="M410.624280287529473,956.616765485285214l.000075829071648.00008471968431c20.852974455799995,23.297888743725707,56.976408030599487,25.298273214637447,80.274296832891196,4.445298824248312l174.003585057076634-153.208938242629301c9.753582929666663-8.730027719366262,10.583338443688262-23.713954676779395,1.853310818929458-33.467537691100006l-41.376349935346298-46.227535727293798c-10.297685770441603-11.505041831993367-27.972288704182574-12.483797222363137-39.477330439094658-2.186111343458833l-170.832289338168266,150.370442804727645c-23.297888825298287,20.852974399622326-25.298273296699335,56.976407894730073-4.445298825359714,80.274296655821672Z"/>
    <g>
      <path class="cls-4" d="M504.97973347657171,899.564121115532544l-37.67043669125087-105.145185042998492c-8.182517713681591,23.885424122525365-37.424347665788446,103.152337884677763-73.839331953166038,131.007840552998459l4.473159259696331,12.485800356171239c10.545744061282676,29.435114018146123,43.257508776512623,44.889904977580954,72.692616782467667,34.343986590056375h0c29.435114018147942-10.545744061277219,44.890085316006662-43.257340462459979,34.343992602252911-72.692442456227582Z"/>
      <path class="cls-5" d="M439.742355791153386,717.474631435568881l-15.838104857906728-44.20662790805909c-10.545738049089778-29.434939691915133-43.257502764317906-44.889730651346326-72.692616782465848-34.343986590065469-29.435114018147942,10.545744061284495-44.89007930382104,43.257514788703702-34.344341254729443,72.692454480611559l60.583036595749945,169.097158275131733c.000673256181472-.000721353717381,69.308999905053497-115.617259083237514,62.292026299352074-163.238998257618732Z"/>
      <path class="cls-10" d="M439.742355791153386,717.474631435568881c7.016973605701423,47.621739174381219-62.291353043170602,163.238276903901351-62.292026299352074,163.238998257618732l4.213559481670018,11.760141610031496c16.437958441030787-27.630267468059174,65.485794984371751-113.650008569471538,65.073816550306219-155.473769823467592l-6.995349732624163-19.525370044182637Z"/>
      <path class="cls-10" d="M450.345664458251122,747.070774526006062c-6.193344735571372,47.645717237706776-53.270037210550072,128.259541988416458-66.80264823728794,150.648722566977085l9.926948611191619,27.707279532549364c36.414984287377592-27.855502668320696,65.656814239484447-107.122416430473095,73.839331953166038-131.007840552998459l-16.963632327069718-47.34816154652799Z"/>
      <path class="cls-5" d="M446.737705523777549,737.000001479751518c.411978434065531,41.823761253996054-48.635858109275432,127.843502355408418-65.073816550306219,155.473769823467592l1.879127247491851,5.245725789764037c13.532611026737868-22.389180578560627,60.609303501716568-103.003005329270309,66.80264823728794-150.648722566977085l-3.607958934473572-10.070773046254544Z"/>
    </g>
    <path class="cls-4" d="M666.076768457238359,745.5814774619339l-12.694657074353017-13.863132000256883c-17.953761860551822-19.606309104368847-16.788707532032277-49.50719969034617,2.589009618888667-66.446423524412239l.000070464497185-.000061597227614c19.377717150911849-16.939223834075165,49.921654523906909-14.757063158358505,67.875416384438722,4.849245945990333l12.694657074369388,13.863132000269616c17.953761860526356,19.606309104372485,16.78870753202682,49.507199690358902-2.589009618905038,66.446423524404963l-.000070464486271.000061597242166c-19.377717150919125,16.939223834058794-49.921654523919642,14.757063158353048-67.875416384449636-4.849245946010342Z"/>
  </g>
  <path class="cls-10" d="M787.255419842376796,672.496278099122719s68.207850869706817,14.818723959573617,85.824022370243256,34.177531155450197c0,0,103.583088423150912-57.367981439952928,101.46914784308683-141.965464195780442l-93.630624326853649-40.204730574476343s-8.257381271512713,119.118965364232281-93.662545886476437,147.992663614806588Z"/>
  <path class="cls-4" d="M903.356912474617275,693.510836298899449l-15.861164646765246-10.087824499874841c-22.432080774695351-14.266978438306978-29.077507958832939-43.443320000664244-14.767615964798097-64.836314583022613l.000052036028137-.00007779277621c14.309891994022109-21.392994582358369,44.371506077503-27.223371427475286,66.803586852171065-12.956392989177402l15.861164646779798,10.087824499880298c22.432080774668066,14.266978438317892,29.077507958829301,43.443320000678796,14.767615964781726,64.836314583017156l-.000052036015404.000077792787124c-14.309891994031204,21.392994582352912-44.371506077515733,27.223371427473467-66.803586852181979,12.956392989166488Z"/>
</svg>