<?xml version="1.0" encoding="UTF-8"?>
<svg id="Tracy_s_Kitchen" data-name="Tracy&amp;apos;s Kitchen" xmlns="http://www.w3.org/2000/svg" width="440.018069580579322" height="772" xmlns:xlink="http://www.w3.org/1999/xlink" viewBox="0 -10 442 772">
  <defs>
    <style>
      .cls-1 {
        fill: #a67c52;
      }

      .cls-1, .cls-2, .cls-3, .cls-4, .cls-5, .cls-6, .cls-7, .cls-8, .cls-9, .cls-10 {
        stroke-width: 0px;
      }

      .cls-2 {
        fill: #ec1c24;
      }

      .cls-3 {
        fill: none;
      }

      .cls-4 {
        fill: #f8af94;
      }

      .cls-5 {
        fill: #f59182;
      }

      .cls-6 {
        fill: #f1f1f2;
      }

      .cls-11 {
        clip-path: url(#clippath);
      }

      .cls-7 {
        fill: #fdd133;
      }

      .cls-8 {
        fill: #231f20;
      }

      .cls-9 {
        fill: #f7a991;
      }

      .cls-10 {
        fill: #be1e2d;
      }
    </style>
    <clipPath id="clippath">
      <rect class="cls-3" x="-47.838325420761066" y="-316.087356429192369" width="540.690165093559699" height="1080"/>
    </clipPath>
  </defs>
  <g class="cls-11">
    <g>
      <rect class="cls-1" x="39.050419206381093" y="6.198374255621161" width="358.631954437374134" height="577.508672238883491" rx="179.315797910180635" ry="179.315797910180635"/>
      <circle class="cls-9" cx="49.533880466944538" cy="249.404057599698262" r="45.761496969032351"/>
      <circle class="cls-9" cx="393.506299022927124" cy="249.191213430920016" r="45.761496969037808"/>
      <rect class="cls-4" x="60.307086296451871" y="32.994360653848162" width="316.05691804568869" height="394.044971957359849" rx="158.028300845903516" ry="158.028300845903516"/>
      <path class="cls-1" d="M60.30708655061062,206.803141735417739c121.392529376640596-14.150049436530026,158.028458967179176-122.10793133469997,158.028458967179176-122.10793133469997,0,0,84.024187718350731,113.171058006360909,158.02845896719009,122.10793133469997,0,0,24.252028794329817-158.169101610570578-157.99760804638936-175.525020565270097,0,0-171.13615743191076,2.410544299260437-158.059309887979907,175.525020565270097"/>
      <path class="cls-2" d="M379.049136510619064,206.706279346257361l-19.036946194319171-3.041038641629711,9.518473097159585,1.520519320820313-9.521241704809654-1.501969649560124c.038206785538932-.246682941540712,3.748694756701298-25.008556032380511-4.271961602369629-54.021626168219882-4.623574773770088-16.723774503629102-12.211774618070194-31.626358895720841-22.554185351569686-44.293569472069066-12.934381214439782-15.842249828161584-30.340617503510657-28.32894718577154-51.73530997170019-37.113739255941255-43.192494210041332-17.735146877790612-91.659462852159777-16.875217342008909-132.972626190061419,2.359130577680844-22.83962880018953,10.633391397390369-40.557333449778525,25.445996040909449-52.660578648008595,44.026121973140107-15.461289415679857,23.734996513840088-21.870339262270136,53.944382014829898-19.049128067970742,89.789268385278774l-19.219120577630747,1.512767219401212c-7.169586367768716-91.09881980325008,41.065372953351471-133.378504071430143,82.791889413259923-152.805270222721447,46.175945812581631-21.497961533488706,100.278138463399955-22.487738767998962,148.431977580410603-2.715727242879439,24.570285441539454,10.088806272840884,44.64490578269033,24.606277340990346,59.666817164459644,43.149303930729729,12.04510443763138,14.868807378799829,20.824913014041158,32.275597389410905,26.095788256141532,51.737524857830067,8.907164528269277,32.892166312829431,4.699434623358684,60.249885935350903,4.516152797008544,61.398304388139877Z"/>
      <g>
        <path class="cls-6" d="M218.335547025721098,372.517827622637924c-41.9264261094213.855285771280251-61.664917452881127-25.476449532859988-67.988318471961975-37.028067724479115-1.970848750250298-3.600355601010961,1.346877213940388-7.623348260531202,6.289869728239864-7.623348260531202h123.396894471581618c4.942992514308571,0,8.260718478490162,4.022992659520241,6.289869728248959,7.623348260531202-6.323401019080848,11.551618191619127-22.167936542709867,34.507533004139987-64.983157639440833,36.882273129898749-1.001909954558869.055570792610524-2.000807780248579.145794594580366-3.005157816667634.145794594580366"/>
        <path class="cls-6" d="M216.350523715069357,377.924728459958715c-45.347855264768441,0-65.560352266838891-30.407894669391681-70.728235304399277-39.848569891621082-1.699371374939801-3.104162896019261-1.636523981320352-6.774782917009361.167500762760028-9.819143887829341,2.111893914629036-3.563474904980467,6.26840457804974-5.777253581100013,10.847404768668639-5.777253581100013h123.396566053812421c4.579277051388999,0,8.735510854028689,2.213778676119546,10.847404768679553,5.777530441879208,1.804024744069466,3.044084110040785,1.867148998448101,6.714704131030885.167777623519214,9.818867027050146-13.419994996089372,24.515743870879305-36.77264679361906,37.864031928860641-69.410101202731312,39.674147609750435-.260249119008222.014396759770534-.521051959549368.031562127209327-.7815779393095.048450633839821-.743094293000468.048450633870743-1.583089853680576.103269065330096-2.462676503759212.105760812199151-.685507253880132.013566177491157-1.369630203949782.020210835831676-2.044063027240554.020210835831676ZM155.407932145959421,333.506571643727511c5.016993920711684,8.866465995810358,23.011282474410109,34.446739507720849,62.817769529770885,33.625847339781103l.109913723659702-.001107443051296c.550122339838708,0,1.167244984801073-.04014481089871,1.820913250719968-.082781368690121.295133575380532-.019380253559575.58999029000006-.038483646329041.885400726139778-.054818431468448,28.394286326330985-1.574784030721275,48.652188493821086-12.841355997461505,60.222753580399512-33.486586375051047-.260802840539327-.129017116440082-.665573278820375-.254158182169704-1.230922960738098-.254158182169704h-123.396566053812421c-.564242238859151,0-.96845895559818.124587344189422-1.229261796139326.253604460649512Z"/>
      </g>
      <g>
        <ellipse class="cls-8" cx="288.590369135224137" cy="250.044550630103004" rx="10.054548550234358" ry="16.563077427185821"/>
        <path class="cls-8" d="M288.590418795809455,271.994200620427364c-8.658543561379702,0-15.441078579809982-9.641399276750235-15.441078579809982-21.949521441019897,0-12.308399025019753,6.782535018430281-21.949798301789997,15.441078579809982-21.949798301789997,8.658543561410625,0,15.441078579839086,9.641399276770244,15.441078579839086,21.949798301789997,0,12.308122164269662-6.782535018428462,21.949521441019897-15.441078579839086,21.949521441019897ZM288.590418795809455,238.86808696128719c-1.354956583409148,0-4.667872496169366,3.916472380231426-4.667872496169366,11.176592218120277,0,7.259842977129665,3.312915912760218,11.176315357370186,4.667872496169366,11.176315357370186,1.354956583400053,0,4.667872496160271-3.916472380240521,4.667872496160271-11.176315357370186,0-7.260119837888851-3.312915912760218-11.176592218120277-4.667872496160271-11.176592218120277Z"/>
      </g>
      <g>
        <ellipse class="cls-8" cx="147.581090136794955" cy="248.763564569288064" rx="10.054548550235268" ry="16.56307742719946"/>
        <path class="cls-8" d="M147.581078322318717,270.713165861267044c-8.658543561388797,0-15.441078579839086-9.641399276779339-15.441078579839086-21.949521441028992,0-12.308399025039762,6.782535018450289-21.949798301810006,15.441078579839086-21.949798301810006,8.658543561381521,0,15.44107857983181,9.641399276770244,15.44107857983181,21.949798301810006,0,12.308122164249653-6.782535018450289,21.949521441028992-15.44107857983181,21.949521441028992ZM147.581078322318717,237.58705220210868c-1.354679722648143,0-4.667872496167547,3.916472380238702-4.667872496167547,11.176592218129372,0,7.259842977129665,3.313192773519404,11.176315357350177,4.667872496167547,11.176315357350177,1.354679722640867,0,4.667872496160271-3.916472380220512,4.667872496160271-11.176315357350177,0-7.26011983789067-3.313192773519404-11.176592218129372-4.667872496160271-11.176592218129372Z"/>
      </g>
      <rect class="cls-5" x="207.086774616331013" y="253.51431082308693" width="21.997910037295242" height="57.210083712715686" rx="10.998944049483724" ry="10.998944049483724"/>
      <path class="cls-1" d="M124.418353009519706,213.350937703788077c-2.560962075309362,0-5.033605566610277-1.392332786670522-6.295536933001131-3.82206285940083-1.804301604839566-3.473772017148804-.451006186027371-7.752378277878961,3.022765831130528-9.556679882718527,5.609752818359993-2.913959550540312,14.675281704141526-6.318516376481057,25.988920000891085-6.017568725021192,7.154082164928695.192971953119923,14.106886553799995,1.814545453131359,20.665718074209508,4.819315334550993,3.55876827199063,1.630433044480014,5.121924150580526,5.837055506330216,3.491491106111425,9.395823778299018-1.630709905241019,3.558491411229625-5.837886088631421,5.121370429060335-9.395823778320846,3.491491106109606-4.813501258480755-2.205472853149331-9.908569914890904-3.395143559928329-15.143730118341409-3.536342550019981-8.282566642648817-.221488611909081-14.946328392958094,2.283824449650638-19.072661232989049,4.426726769939705-1.0440419444094.542370238441436-2.160621409238956.799297028261208-3.261142949690111.799297028261208Z"/>
      <path class="cls-1" d="M266.689624849410393,213.138031775577474c-2.560962075309362,0-5.033882427371282-1.392332786670522-6.295813793760317-3.822062859399011-1.804578465591476-3.473495156400531-.451283046790195-7.752378277889875,3.022765831159631-9.556679882720346,5.60975281833089-2.913682689770212,14.679157754821063-6.321008123361025,25.988366279350885-6.017568725030287,7.154635886439792.193248813900937,14.107717136070278,1.814822313910554,20.665994934959599,4.819315334580097,3.558768271999725,1.630433044460005,5.121924150578707,5.837055506310207,3.491767966879706,9.395546917539832-1.631263626779401,3.558768271970621-5.837886088609594,5.121370429060335-9.395546917539832,3.491767966879706-4.813501258509859-2.205195992410154-9.908846775679194-3.395143559939243-15.14428383987979-3.536342550049085-8.290872465591747-.220104308080408-14.947158975230195,2.283824449648819-19.072384372209854,4.426726769939705-1.043765083670223.542370238439617-2.16062140924987.799297028259389-3.260866088960029.799297028259389Z"/>
      <path class="cls-10" d="M360.055249690331038,114.487036508096935c-7.6815463667117,2.52148907091032-16.354463600870076,3.816105841111494-24.475096001251586,4.741593621691209-.037836517518372.005106530139528-.077248153349501.009481805880569-.114402322460592.01311856079883-.021200213419434-.030727989169463-.043293196747982-.063657007938673-.063811061758315-.095854772318489-4.53386798181964-6.800385587981509-9.142198199970153-14.260869771440412-12.173556397130596-21.755863732510988-2.971961762979845-7.345443834339676-3.92063784155107-15.887655168919082.020222106079018-22.445603286019832,3.25496814861981-5.414588653040482,9.88910318840135-8.809132033378773,16.565198637581489-8.107163588940239,3.681789496409692.386869720970935,7.242616335999628,2.067858322880056,9.980696526668908,4.551690741609491,2.292595628379786,2.080110384340514,3.438526183501381,4.490338183270069,4.606694761980179,7.065937771971221,2.721248525720512-.769923558249502,5.301972850989841-1.450038280820081,8.370404848170438-1.041272100181232,3.662900537710811.487846154981526,7.245010149139489,2.122991768321299,9.918147922409844,4.686420135431035,4.844769794381136,4.646635128599883,6.531759690289618,11.904291011480382,4.496458141449693,17.88511431751067-2.464599077040475,7.243307593189456-9.60355539829834,12.030806183829554-17.130957161738479,14.501882330958324Z"/>
      <path class="cls-2" d="M293.410531145569621,109.300991584907024l-.079548032879757.16038704174025c-.027667249640217-.044382021040292-.053292726710424-.087816141758594-.079929631079722-.134417521509022.051757704070042-.007508699380196.106689614609422-.016241462160906.159477663959478-.025969520231229Z"/>
      <path class="cls-2" d="M293.251053481610143,109.326961105138253c-.052788049340961.00972805811034-.102503980790061.01818465776887-.154261684820085.025693357149066l.071176765230121-.164273432979826c.026636904369298.046601379750427.055417669940653.094198054810477.083084919589965.13858007583076Z"/>
      <path class="cls-7" d="M51.101739300518602,294.394216164617319c-2.303380040677439,2.308000411900139-5.158979109528445,4.325352864159868-7.879821382628506,6.105550450480223-.01254676724966.00859566445979-.025770866401217.017191328890476-.038317633639963.025109661450188-.01254676724966-.007918332559711-.025770866390303-.016513996990398-.038317633630868-.025109661450188-2.720842273109156-1.780197586320355-5.576441341960162-3.797550038580084-7.879821382630325-6.105550450480223-2.257805279477907-2.261756382258682-3.996387270850391-5.333359821848717-3.679299176339555-8.513287985810166.262224209949636-2.625725520929336,2.051670602209924-5.080368290839033,4.528770150260243-5.98929933008003,1.366049442171061-.501362690758469,2.901851161950617-.490799538380088,4.278447629540096-.031044379098603,1.152689891259797.385103506880114,1.953941284131361,1.097188992189331,2.790220412800409,1.868057210929692.836246874780045-.770868218740361,1.637530521538793-1.482953704049578,2.790188158900492-1.868057210929692,1.375951389578404-.459755159281485,2.911753109368874-.470318311659867,4.278447629538277.031044379098603,2.477099548050319.908931039240997,4.265900862301351,3.363573809150694,4.528157326170913,5.98929933008003.317733172500084,3.179928163961449-1.421526150799764,6.251531603551484-3.678654098341212,8.513287985810166Z"/>
      <path class="cls-7" d="M401.167320489059421,294.394216164617319c-2.303380040679258,2.308000411900139-5.158979109528445,4.325352864159868-7.87982138263942,6.105550450480223-.012546767220556.00859566445979-.025770866390303.017191328890476-.038317633630868.025109661450188-.012546767240565-.007918332559711-.025770866388484-.016513996990398-.038317633629049-.025109661450188-2.72084227312007-1.780197586320355-5.576441341931059-3.797550038580084-7.879821382610317-6.105550450480223-2.257805279479726-2.261756382258682-3.9963872708704-5.333359821848717-3.679299176370478-8.513287985810166.26222420996055-2.625725520929336,2.051670602220838-5.080368290839033,4.528770150271157-5.98929933008003,1.366049442169242-.501362690758469,2.901851161968807-.490799538380088,4.278447629560105-.031044379098603,1.152689891237969.385103506880114,1.953941284118628,1.097188992189331,2.790220412778581,1.868057210929692.836246874780045-.770868218740361,1.63753052156062-1.482953704049578,2.790188158900492-1.868057210929692,1.375951389580223-.459755159281485,2.911753109359779-.470318311659867,4.278447629529182.031044379098603,2.477099548081242.908931039240997,4.265900862321359,3.363573809150694,4.528157326200017,5.98929933008003.317733172501903,3.179928163961449-1.421526150808859,6.251531603551484-3.678654098359402,8.513287985810166Z"/>
      <path class="cls-2" d="M60.486361110159123,740.412219382567855l-.000000067999281-139.568672682700708c-.000000042349711-86.915565612129285,71.112735423859704-158.028301099438977,158.02830103596898-158.028301082929829h.000316103611112c32.593335748550089.00000000621003,62.964398693469775,10.000227628381253,88.196455895838881,27.083949927069625,42.053431344302226,28.47287230809161,69.831844921931406,76.622121219661494,69.831844921791344,130.944350920981378l-.000000000291038,139.568672948080348c-.000000000058208,28.362050766949324-22.991984950738697,51.354035711599863-51.354035717678926,51.354035704218404l-213.34884648023035-.000000055388227c-28.362050746791283-.000000007381459-51.354035677179127-22.991984932521518-51.354035691010722-51.354035679330991Z"/>
    </g>
  </g>
</svg>