<?xml version="1.0" encoding="UTF-8"?>
<svg id="Layer_1" data-name="Layer 1" xmlns="http://www.w3.org/2000/svg" width="700" height="700" viewBox="0 0 700 700">
  <defs>
    <style>
      .cls-1 {
        fill: #d96b62;
        stroke-width: 0px;
      }
    </style>
  </defs>
  <path class="cls-1" d="m371.85407884160395,700h-43.746789459037245c-1.974887751776805-.402531323992662-3.93492311610953-.910702087368918-5.927020446084498-1.190738389905164-14.411843132119429-2.026466514922504-29.001372551477289-3.180573219289727-43.220426687776126-6.127254377774079C101.677781947033509,655.942637852067492-19.046204329754801,488.693584661459681,2.539321417937572,309.427628010589615c11.494592450800155-95.461630227382557,55.281248158427843-173.679092648453661,130.371143547281463-233.313792250233746C213.091339492074439,12.435999914065178,304.967102818114654-10.824518720759443,405.992583490758989,4.597902010269536c66.893692973996622,10.211913529416051,125.798386854466116,38.820845354193807,176.21790342726672,83.999865125046199,60.368571890774547,54.093985056460951,98.140946768388858,121.117599164619605,112.36915848629269,201.094978349719895,2.264905649331922,12.731096163428447,3.60675210525369,25.626367364337057,5.375354379913915,38.445746724464698v43.748412681192349c-.389416249089663,1.757069255574606-1.000700466121998,3.497199485613237-1.13629108209534,5.273669349082411-4.122956010342932,53.995271425445026-19.610116167586057,104.547706789258882-47.800948876828443,150.734087482907853-55.54826291239624,91.007250638916958-135.778440273239539,146.963443729391656-240.780731132294022,166.746765192368912-12.680726447767483,2.389195301269865-25.583237423101309,3.601086612037761-38.382949851410558,5.358573084948148Zm-76.14990110439976-337.768756832183499v202.57676758078378h84.472578273809631v-202.730136687969207h56.8569418176412c2.455817236641451-23.990604060863916,4.850514395602659-47.384024031260196,7.322519065771303-71.532649173077516h-64.027307352183016c0-15.853738750043703-.544782234915147-31.072764706874295.194875005304311-46.229103752837545.479323257532997-9.821860264541101,7.164399547430548-15.034991372434888,17.63975505633789-15.300425066714524,10.926392477933405-.276865450410696,21.864883810824722-.075537205833825,32.798118399864507-.081816327361594,3.971052800255165-.002273834772495,7.942105600508512-.000375495630578,11.72812936018272-.000375495630578v-69.276462771098522c-24.666936900398468,0-48.846581987065292-1.269602904283602-72.84361780414838.283457484923929-40.84014385429964,2.643134656886104-67.145766359150912,27.19992355728391-72.550846374112552,67.690410917864938-2.395051780571521,17.941849132326752-1.251876867167994,36.35692707299313-1.693839695009956,54.55768044764045-.063560708746081,2.61758009267578-.008802959987406,5.238059846087708-.008802959987406,8.70146472414126h-39.564528199243796v71.341188119335129h39.676025405773544Z"/>
</svg>