<?xml version="1.0" encoding="UTF-8"?>
<svg id="Layer_1" data-name="Layer 1" xmlns="http://www.w3.org/2000/svg" width="700" height="700" viewBox="0 0 700 700">
  <defs>
    <style>
      .cls-1 {
        fill: #d96b62;
        stroke-width: 0px;
      }
    </style>
  </defs>
  <path class="cls-1" d="m494.949004347037771,700.044214800431291H205.143597157490149c-1.083993544721125-.308685841933766-2.154157661359022-.821493221985293-3.254024803040011-.896098559300299-21.73600210278255-1.47282952822934-42.758537125809198-6.248113548368565-62.929978271639811-14.361402254962741-50.561056663307681-20.336505332317756-88.679273112125884-54.68571224630432-114.167297619997953-102.857811077661609C6.598011812239747,547.541850893345327-.139377113717273,510.583418275806252.002179787376917,471.908770821368307c.2976806237657-81.328997292752319-.044135730712696-162.660268629479106.2169721308519-243.989516275574715.045915252698251-14.301609498554171.707758594798179-28.757520192662923,2.870461220934885-42.868443789866433,8.465010808126863-55.231493265924655,34.888714501871618-100.666315804210171,77.980771857120999-135.929636296703393C122.464861799207938,15.247023706671825,170.567283935167325-.15983447355211,223.95055558842796-.043374630638937c83.819892625113425.182859910095431,167.640723899168734.169432748742111,251.46065824197467-.000260784849161,44.815815784379083-.090729992263732,86.539179541138765,10.469677768129259,124.229064392746295,35.13565276753252,46.23705547346799,30.259630646447476,77.337708012770236,71.939343951973569,92.009625720331314,125.287010725467553,4.00669612128786,14.568642780061055,5.631935519211765,29.792512776664807,8.35009605651976,44.715687379957672v289.859927791927475c-.35042894765138,1.735784134300047-.877323901080672,3.456713962012145-1.024587494561274,5.209605584161181-2.370318089003376,28.202736878811265-9.730702674816712,55.038961007710896-22.87975629841003,80.088996501690417-29.75158452634696,56.679402191348345-75.254866814037996,94.402915046390262-137.06081294782507,111.569319426958828-14.349564793466016,3.985627415793715-29.372662367842167,5.545621680896147-44.085838912165855,8.221650038223743Zm-144.912465544023689-65.628704621947691c42.601939189807126,0,85.206131137158081.239755183465604,127.804399166567237-.155719865073479,11.775080124737542-.10927929436366,23.81932305542432-.847279630532285,35.25156685969705-3.446449469109211,73.096182778771436-16.618630964421754,121.163854044101754-77.193658495347336,121.26431034243069-152.266322300198226.114640327144116-85.675509251257608.153771559610504-171.351706974641274-.124026816820333-257.026465165450645-.037420805478177-11.543089669245091-.891799954065391-23.357583374741807-3.443631894376267-34.574003476911457-16.632400798712297-73.106377134830836-77.185855468783302-121.185328824158205-152.244398636670667-121.285877040998457-85.659394293848891-.114755776718084-171.319476930302699-.153769194281267-256.978120304959702.124091875379236-11.540918495807091.037438276769535-23.352960530927703.892635336249441-34.567500351476156,3.444253660600225-72.559254710853565,16.509236924423021-120.982569640294059,76.786583735211025-121.222936781859971,150.905745013991691-.28080205315382,86.586190900776273-.100576236807683,173.174029961901397-.041488284332445,259.76107623729331.01509660422289,22.121776004500134,3.748661520310634,43.648336608323007,13.45464122424255,63.615779184179701,28.821722356690771,59.293050806511019,76.531924807110954,89.734740590574802,142.359887899237037,90.776002443180914,42.819059125295098.677331342485559,85.657516995910555.127638549634867,128.487297578320977.1278889031164Z"/>
  <path class="cls-1" d="m349.237644237829045,525.008702393979547c-96.859729226716809-.855958551168442-175.313073683808398-80.210543116736517-174.13398456930463-176.134313834016211,1.189622841784512-96.77939546386915,79.949446616027672-174.679968738044408,175.751130727228883-173.833753109771351,96.859896097646924.855562158081739,175.313261413599321,80.21002154701273,174.134109722484936,176.134167794600216-1.189664559536141,96.779520640524424-79.949905511082761,174.680552896090376-175.75125588040919,173.833899149187346Zm1.077902755891046-65.624782417362439c59.960311958388957-.17683300855424,109.026288547218428-49.344587633640913,109.069382964194119-109.295609113436512.043344723421797-60.231333927215019-49.409396957456011-109.600581378665083-109.608000600315791-109.422892995666189-59.997294727703775.177083362210396-109.014482429111922,49.288112060992717-109.069320387640801,109.278063506968465-.055004829474456,60.200123193233594,49.438369922285347,109.617897494550562,109.607938023762472,109.440438602134236Z"/>
  <path class="cls-1" d="m538.145004038573461,185.052208562929081c-12.757198968262855.004902755663352-22.984759829517316-10.081004478033719-23.149377999438002-22.828826391742041-.167371540213935-12.960194685088936,10.314500614456847-23.665372116665822,23.158222158589524-23.651602675075992,12.768629626759321.013685990194062,23.53443266452723,10.947154502173362,23.295306625480407,23.658111865628598-.23791622482895,12.647388442179363-10.622711217457436,22.81743530822132-23.304150784631929,22.822317201189435Z"/>
</svg>