<?xml version="1.0" encoding="UTF-8"?>
<svg id="Tracy_s_Kitchen" data-name="Tracy&amp;apos;s Kitchen" xmlns="http://www.w3.org/2000/svg" width="250.203502972746719" height="847.938948595496186" xmlns:xlink="http://www.w3.org/1999/xlink" viewBox="0 0 250.203502972746719 847.938948595496186">
  <defs>
    <style>
      .cls-1 {
        fill: #d17954;
      }

      .cls-1, .cls-2, .cls-3, .cls-4, .cls-5, .cls-6, .cls-7 {
        stroke-width: 0px;
      }

      .cls-2 {
        fill: none;
      }

      .cls-3 {
        fill: #bc6d4a;
      }

      .cls-8 {
        clip-path: url(#clippath);
      }

      .cls-4 {
        fill: #f0f2e9;
      }

      .cls-5 {
        fill: #241f20;
      }

      .cls-6 {
        fill: #aa5537;
      }

      .cls-7 {
        fill: #e5e6e7;
      }
    </style>
    <clipPath id="clippath">
      <rect class="cls-2" x="-146.263472984957843" y="-232.061051404503814" width="542.663499855709233" height="1080"/>
    </clipPath>
  </defs>
  <g class="cls-8">
    <g>
      <path class="cls-4" d="M235.389708289771079,79.576398165132559c0,28.095435506143986-22.778012506691084,50.873516591545922-50.873482302189586,50.873516591545922v681.799594266138229h-118.895898089380353V130.449914756678481c-28.098212944551051,0-50.873482302180491-22.778081085401936-50.873482302180491-50.873516591545922,0-28.098281523291007,22.77526935762944-50.876328319329332,50.873482302180491-50.876328319329332,4.432654560619994,0,8.733089336719786.567420382365526,12.83149118477013,1.632002241882219C86.294482235900432,12.343357808353176,104.235500011011027-.229660156554019,125.109081285119828-.229660156554019c20.870700967581797,0,38.803214980620396,12.564582781558784,46.651501589101827,30.542084439121936,4.075908025799436-1.053369237747575,8.351105830579399-1.61235443676469,12.755643113359838-1.61235443676469,28.095469795498502,0,50.873482302189586,22.778046796038325,50.873482302189586,50.876328319329332Z"/>
      <g>
        <path class="cls-7" d="M23.743757232719872,817.146745433627075l-.000000007639755-58.174360521048584c-.000000006759365-51.493181511868897,44.016144568930031-93.623966384991945,97.813654612611572-93.623966384728192h.000195627519133c53.797510050750134.000000000271029,97.813654632929683,42.130784879362182,97.81365462705071,93.623966397983168l-.000000006630216,58.174360502092895"/>
        <circle class="cls-3" cx="26.178383392090836" cy="811.654112515147972" r="26.312281566014008"/>
        <circle class="cls-3" cx="223.95817049368361" cy="811.531729812014419" r="26.312281566012643"/>
        <rect class="cls-1" x="32.372840609708874" y="687.221275821532799" width="181.728727431524021" height="238.188138070865648" rx="90.864272822675858" ry="90.864272822675858"/>
        <path class="cls-7" d="M28.014515087530526,785.07793391168525s13.649439333850751,4.418137468261193,25.38005110559061-6.159802753769327c11.730611771728945-10.57794022203052,61.961692948099881-52.687828633368554,61.961692948099881-52.687828633368554l27.672212384590239,12.933751440628839,72.789949968169822,39.754077192739715-4.210988841119615-47.875269957788987-47.223232004160309-42.228595374226643-34.891050397960498-9.205625471047824-36.094190066849478,3.910203923911467-35.191835315190474,20.15258945399728-19.851804536770942,24.965148129580484-10.340805244399235,56.44135204934355Z"/>
        <path class="cls-7" d="M28.014515087530526,786.213712376076728c87.888308930560015-1.236079364711259,154.934267034590448-97.406107458094993,154.934267034590448-97.406107458094993,0,0-80.865586475560121-5.906325841689977-108.349185864659376,12.930074951565985"/>
        <path class="cls-7" d="M127.984725173011611,703.75534947387132s10.339419523919787,86.43612207280421,87.833696320969466,82.48762774300485c0,0-.948319709321368-86.736641513762152-87.833696320969466-82.48762774300485Z"/>
      </g>
      <g>
        <path class="cls-5" d="M82.219590877009978,835.856189208416254c-2.723195568039955,0-5.375715875448805-.808876666920696-7.578146365260181-2.37878048220955-6.085173754698189-4.338243628730197-7.526746175708467-12.02460091931971-3.353524208128874-17.879319218949604,3.52970512093998-4.951664311760396,10.429842407120304-6.107999496760385,15.381168559719299-2.578632534950884,4.178632513860066,2.978843879129272,5.154897955921115,8.802113378589638,2.176054076780929,12.980914972009487-2.538222517519898,3.560984841560639-7.500369762679838,4.392518170971016-11.060847365521113,1.854464733030909-1.558575484039466-1.111190939600419-2.520300082998801-2.831913732079556-2.63797946429986-4.721039777119586-.115988585610467-1.859875279300468.608010136740631-3.653809525951146,1.986684957410034-4.922244466430129.985057579749991-.906604658870492,2.518609287300933-.842354421951313,3.424875787030032.142534078218887.906266499730918.985226659309774.842692581099982,2.518609287300933-.142703157798678,3.425044866600729-.408158084021125.375694806420142-.445017430451117.821050396019928-.430476587371231,1.053027567219033.026376413061371.424051563681132.250237764859776.815978008889942.613758842169773,1.075007911431385,1.384085366940781.986917455018556,3.31294511113083.66329915642018,4.299017168290447-.720617130940809,1.427369737069967-2.002240277939563.959695644120075-4.792222276450048-1.042544633830403-6.219422933949318-2.774595757549832-1.978230978880674-6.641445542769361-1.329810824690867-8.619338362510462,1.444954012438757-2.569333158549853,3.604269211691644-1.614709901557944,8.383979599901068,2.220014765200176,11.11782718088034,2.186198851009976,1.558406404479683,5.122772837441516,1.909753752690449,7.855436861420458.939406095611048,2.750248299369559-.976603601200623,4.822149360490585-3.117827286370812,5.542090173159522-5.727908621491224.356081576201177-1.290415284689516,1.691133867570898-2.04873715993017,2.981210993129935-1.691979265438931,1.290753443819995.356081576190263,2.04822992120171,1.6907957084386,1.692148345011447,2.981380072689717-1.140610784919772,4.134164586719635-4.353122630969665,7.501384240089465-8.593638267740971,9.006868738890262-1.545387277528789.548832286958714-3.141160267150553.818514202459482-4.713262116860278.818514202459482Z"/>
        <path class="cls-5" d="M160.559904754680247,835.856189208416254c-2.723195568029041,0-5.375715875428796-.808876666920696-7.578146365260181-2.37878048220955-6.08517375468-4.338243628730197-7.526746175710286-12.02460091931971-3.353524208119779-17.879319218949604,3.529705120950894-4.951664311760396,10.429504247960722-6.107999496760385,15.381168559710204-2.578632534950884,4.178632513860066,2.978843879129272,5.154897955919296,8.802113378589638,2.176054076780929,12.980914972009487-2.538560676670386,3.560984841560639-7.50003160353117,4.392518170971016-11.060847365510199,1.854464733030909-1.55857548405038-1.111190939600419-2.520300083011534-2.831913732079556-2.637979464310774-4.721039777119586-.115988585610467-1.859875279300468.60801013676064-3.653809525951146,1.986684957410034-4.922244466430129.984719420610418-.906604658870492,2.518609287300933-.842354421951313,3.424875787030032.142534078218887.906266499730918.985226659309774.842692581090887,2.518609287300933-.142703157780488,3.425044866600729-.4081580840284.375694806420142-.44501743048022.821050396019928-.430476587378507,1.053027567219033.026376413059552.424051563681132.250237764848862.815978008889942.613758842158859,1.075007911431385,1.384085366940781.986917455018556,3.31294511113083.66329915642018,4.299017168301361-.720617130940809,1.427369737069967-2.002240277939563.959695644109161-4.792222276450048-1.042544633830403-6.219422933949318-2.774595757560746-1.978230978880674-6.641445542760266-1.329810824690867-8.619338362510462,1.444954012438757-2.569333158560767,3.604269211691644-1.614709901559763,8.383979599901068,2.220014765189262,11.11782718088034,2.186198851009976,1.558406404479683,5.12311099658109,1.909753752690449,7.855436861431372.939406095611048,2.750248299358645-.976603601200623,4.822149360499679-3.117827286370812,5.542090173148608-5.727908621491224.355743417050689-1.290415284689516,1.689781231019879-2.04873715993017,2.981210993129935-1.691979265438931,1.290753443819995.356081576190263,2.0482299212199,1.6907957084386,1.692148345009628,2.981380072689717-1.140610784917953,4.134164586719635-4.353122630958751,7.501384240089465-8.593638267748247,9.006868738890262-1.545387277519694.548832286958714-3.141160267141458.818514202459482-4.713262116851183.818514202459482Z"/>
      </g>
      <g>
        <path class="cls-5" d="M65.01965424743139,806.930983104706684c-1.552211878301023,0-3.050557809270686-.843732035040375-3.815588506920903-2.31640354251067-1.093764002460375-2.105302727059097-.273860517339926-4.69858730732085,1.83161001641929-5.79268692317055,3.399763530211203-1.765997600788978,8.888552538610384-3.839081443449686,15.752349561160372-3.647110590609373,4.335957051211153.116793455919833,8.550422059190169,1.099469429909732,12.525762534551177,2.920843238251109,2.156819380759771.988381401439256,3.104255949940125,3.538036242418457,2.115874548509964,5.695023429849243-.98821359475005,2.156987187448976-3.538036242420276,3.10308130311023-5.694855623170952,2.11604235519917-2.917319297779613-1.336748088939203-6.00546580550872-2.057981240610388-9.178522498150414-2.143562652279797-5.027656225518513-.130889217849472-9.059379748588981,1.384405188760866-11.559699422839913,2.683228965859598-.632631219588802.328565498130047-1.309899018599026.48462571941127-1.976930609558622.48462571941127Z"/>
        <path class="cls-5" d="M151.250645611709842,806.801771953756543c-1.552379684999323,0-3.050893422649096-.844067648420605-3.81575631360829-2.3167391558909-1.093596195780265-2.105638340439327-.273357097270491-4.69892292069926,1.832113436479631-5.79235130979032,3.399931336918598-1.766333214169208,8.891740865719839-3.841766350489706,15.751678334409007-3.647110590609373,4.335789244520129.116793455919833,8.549918639109819,1.099805043289962,12.525594727860152,2.920843238251109,2.156987187450795.988045788059026,3.10459156331126,3.537365015659816,2.11671358195963,5.694352203099697-.988213594748231,2.157322800809197-3.537700629040046,3.105766210130241-5.694687816469013,2.116713581939621-2.918158331240193-1.336748088930108-6.006640452349529-2.057645627219244-9.179361531610994-2.143562652270703-5.02195079808007-.138272712189064-9.058876328519545,1.384069575380636-11.559699422839913,2.683228965859598-.632631219599716.328565498130047-1.309731211909821.48462571941127-1.976594996180211.48462571941127Z"/>
      </g>
      <path class="cls-6" d="M119.875866429791131,860.88884775720544c-4.707772100970033,0-7.966998940100893-3.983499470039533-9.053407886480272-7.966998940089979-1.448545261820982-7.242726309179488,3.259226839130861-12.3126347255984,7.242726309190402-17.744679457489838,1.086408946370284-2.172817892749663.724272630919586-4.345635785508421,0-6.518453678259903-.362136315461612-1.81068157728987.724272630919586-3.259226839129042,2.172817892738749-3.621363154588835,5.794181047360325-1.448545261830077,11.226225779240849,3.983499470048628,11.588362094691547,9.777680517388944,0,6.156317362811023-3.983499470050447,10.501953148310349-7.6048626246411,15.571861564740175-1.086408946379379,2.172817892749663-.724272630919586,4.345635785499326,0,6.518453678259903.362136315459793,1.086408946370284,0,1.81068157728987-.724272630919586,2.897090523671068-.724272630899577,1.448545261830077-2.172817892740568,1.086408946368465-3.62136315457974,1.086408946368465h0Z"/>
    </g>
  </g>
</svg>