<?xml version="1.0" encoding="UTF-8"?>
<svg id="Tracy_s_Kitchen" data-name="Tracy&amp;apos;s Kitchen" xmlns="http://www.w3.org/2000/svg" width="237.275442925980315" height="630.889238307134292" xmlns:xlink="http://www.w3.org/1999/xlink" viewBox="0 0 237.275442925980315 630.889238307134292">
  <defs>
    <style>
      .cls-1 {
        fill: none;
      }

      .cls-1, .cls-2, .cls-3, .cls-4, .cls-5, .cls-6, .cls-7 {
        stroke-width: 0px;
      }

      .cls-2 {
        fill: #2d3196;
      }

      .cls-3 {
        fill: #66321d;
      }

      .cls-4 {
        fill: #81482e;
      }

      .cls-5 {
        fill: #945538;
      }

      .cls-8 {
        clip-path: url(#clippath);
      }

      .cls-6 {
        fill: #f0f2e9;
      }

      .cls-7 {
        fill: #241f20;
      }
    </style>
    <clipPath id="clippath">
      <rect class="cls-1" x="-152.257607565449689" y="-449.110761692865708" width="542.663499855711052" height="1080"/>
    </clipPath>
  </defs>
  <g class="cls-8">
    <g>
      <path class="cls-6" d="M229.395573709269229,79.806058321686578c0,28.095435506143986-22.778012506678351,50.873516591545922-50.873482302187767,50.873516591545922v468.206343532012397H59.626193317710204V130.6795749132325c-28.098212944560146,0-50.873482302169577-22.778081085401936-50.873482302169577-50.873516591545922,0-28.098281523291007,22.775269357609432-50.876328319329332,50.873482302169577-50.876328319329332,4.432654560619994,0,8.733089336701596.567420382366436,12.83149118477013,1.632002241882219C80.300347655400401,12.573017964908104,98.241365430509177,0,119.114946704610702,0c20.870700967599987,0,38.803214980640405,12.564582781559693,46.651501589120016,30.542084439121027,4.075908025799436-1.053369237746665,8.351105830568486-1.612354436763781,12.755643113350743-1.612354436763781,28.095469795509416,0,50.873482302187767,22.778046796038325,50.873482302187767,50.876328319329332Z"/>
      <g>
        <path class="cls-2" d="M10.928207614180792,685.522967677894485l.000000006250048-129.314860352309552c.000000002819434-58.267904250707943,47.673739846599346-105.94164409233781,105.941644097300014-105.941644092516071h.000211883500015c58.267904232709043-.000000000185537,105.941644062409978,47.673739826430392,105.941644066009758,105.941644059144892l.000000007968993,129.314860405580475-211.883500061028826-.000000019899744Z"/>
        <circle class="cls-4" cx="25.713831174570259" cy="596.024548130666972" r="24.840989375753679"/>
        <circle class="cls-4" cx="212.434453550233229" cy="595.9090086469173" r="24.840989375759591"/>
        <rect class="cls-5" x="31.561915636143567" y="478.549567236819598" width="171.567082852578096" height="224.869477459324685" rx="85.783455714864004" ry="85.783455714864004"/>
        <path class="cls-2" d="M23.399178171910535,571.068019271164303c71.71997281124095-8.359996830760792,93.36486222610074-72.142639751657043,93.36486222610074-72.142639751657043,0,0,49.642366705687891,66.86264175328688,93.364862226098921,72.142639751657043,0,0,14.328351626569201-93.447955367098984-93.346635180230805-103.702013355168674,0,0-101.109027228148989,1.424174720565134-93.383089271968856,103.702013355168674"/>
      </g>
      <g>
        <path class="cls-7" d="M156.223086820280514,589.436455554623535c-5.338439941400793,0-9.520202636720569,5.944458007810681-9.520202636720569,13.533203125,0,2.3291015625.403869628909888,4.61669921875,1.167907714851026,6.615234375.531188964840112,1.389892578121362,1.773193359369543,2.393310546871362,3.241577148439319,2.619140625.208923339840112.031982421871362.417846679680224.0478515625.625793457029431.0478515625,1.253601074220569,0,2.460083007810681-.572021484378638,3.252502441400793-1.572265625v-.000122070308862c1.677917480470569-2.117553710941138,4.1787109375-3.4228515625,6.8603515625-3.581665039069776,2.180847167970569-.12890625,3.890563964849207-1.9375,3.892272949220569-4.128173828121362,0-7.588745117189319-4.181762695310681-13.533203125-9.520202636720569-13.533203125Z"/>
        <path class="cls-7" d="M73.641604886690402,589.436455554623535c-5.338439941409888,0-9.520202636720569,5.944458007810681-9.520202636720569,13.5439453125.001708984380457,2.179931640621362,1.71142578125,3.988525390621362,3.892272949220569,4.117431640621362,2.681640625.158813476569776,5.182434082029431,1.464111328128638,6.8603515625,3.581665039069776v.000122070308862c.792724609369543,1.000244140621362,1.998901367189319,1.572265625,3.252502441409888,1.572265625.207946777340112,0,.416870117180224-.015869140628638.625793457029431-.0478515625,1.468383789060681-.225830078128638,2.710388183590112-1.229248046878638,3.241577148430224-2.618896484378638.764038085941138-1.998779296871362,1.167907714851026-4.286376953121362,1.167907714851026-6.615478515621362,0-7.588745117189319-4.181762695310681-13.533203125-9.520202636720569-13.533203125Z"/>
      </g>
      <g>
        <path class="cls-7" d="M87.610951146711159,584.411466537483648h-26.212185009420864c-2.945296034789862,0-5.3330261466308-2.387730111830024-5.3330261466308-5.333026146619886s2.387730111840938-5.333026146619886,5.3330261466308-5.333026146619886h26.212185009420864c2.945296034788043,0,5.333026146618067,2.387730111830024,5.333026146618067,5.333026146619886s-2.387730111830024,5.333026146619886-5.333026146618067,5.333026146619886Z"/>
        <path class="cls-7" d="M167.028711176930301,584.411466537483648h-26.212338186869601c-2.945296034789862,0-5.3330261466308-2.387730111830024-5.3330261466308-5.333026146619886s2.387730111840938-5.333026146619886,5.3330261466308-5.333026146619886h26.212338186869601c2.945296034789862,0,5.3330261466308,2.387730111830024,5.3330261466308,5.333026146619886s-2.387730111840938,5.333026146619886-5.3330261466308,5.333026146619886Z"/>
      </g>
      <rect class="cls-3" x="107.414352234167836" y="601.424179864678877" width="15.089602953624308" height="39.243612056340453" rx="7.54479394640253" ry="7.54479394640253"/>
    </g>
  </g>
</svg>