<?xml version="1.0" encoding="UTF-8"?>
<svg id="Tracy_s_Kitchen" data-name="Tracy&amp;apos;s Kitchen" xmlns="http://www.w3.org/2000/svg" width="261.296409176668021" height="421.388114559771566" xmlns:xlink="http://www.w3.org/1999/xlink" viewBox="0 0 261.296409176668021 421.388114559771566">
  <defs>
    <style>
      .cls-1 {
        fill: #ff8b7e;
      }

      .cls-1, .cls-2, .cls-3, .cls-4, .cls-5, .cls-6 {
        stroke-width: 0px;
      }

      .cls-2 {
        fill: #ffcab4;
      }

      .cls-3 {
        fill: none;
      }

      .cls-4 {
        fill: #ffc2b0;
      }

      .cls-7 {
        clip-path: url(#clippath);
      }

      .cls-5 {
        fill: #f0f2e9;
      }

      .cls-6 {
        fill: #241f20;
      }
    </style>
    <clipPath id="clippath">
      <rect class="cls-3" x="-137.984235581492612" y="-658.611885440228434" width="542.663499855709233" height="1080"/>
    </clipPath>
  </defs>
  <g class="cls-7">
    <g>
      <path class="cls-5" d="M237.370715358478265,83.49529724356762c0,28.095435506143986-22.778012506671075,50.873516591545922-50.873482302180491,50.873516591545922v246.0690475215888h-118.895898089369439v-246.0690475215888c-28.098212944561965,0-50.873482302180491-22.778081085401936-50.873482302180491-50.873516591545922,0-28.098281523292826,22.775269357618527-50.876328319329332,50.873482302180491-50.876328319329332,4.432654560619994,0,8.733089336699777.567420382365526,12.83149118477013,1.6320022418804,7.842663152918249-17.988714279330452,25.783680928028843-30.561732244237646,46.65726220212855-30.561732244237646,20.870700967599987,0,38.803214980629491,12.564582781556965,46.651501589120016,30.542084439119208,4.075908025801255-1.053369237746665,8.351105830570305-1.612354436761962,12.755643113350743-1.612354436761962,28.095469795509416,0,50.873482302180491,22.778046796036506,50.873482302180491,50.876328319329332Z"/>
      <g>
        <g>
          <circle class="cls-4" cx="29.162087031627379" cy="384.742145823759529" r="26.312281566256843"/>
          <circle class="cls-4" cx="226.941874135039143" cy="384.619763120619155" r="26.312281566252523"/>
          <rect class="cls-2" x="35.356544296069387" y="260.309309122347031" width="181.728727434859138" height="238.188138095833835" rx="90.864272923616014" ry="90.864272923616014"/>
        </g>
        <path class="cls-6" d="M47.625979444117547,336.601836040046692c-.246834661160392-2.396680543864932-.447603014130436-4.796334051683516-.537123076730495-7.20328345955204-.592048361950219-15.918559533260122,5.894011641610632-32.707120337818196,23.793244741520539-35.95877286164432,29.797421570779989-5.413123430107589,71.635349121588661-1.56413163614161,71.635580053809463-1.564136203840462,10.096118094190388-.199497701081782,20.217339825740055-.15116579153073,30.307500356790115.232332987701739,16.055952824959604.610241857775691,28.543617099880066,1.353324522589901,35.293024214910474,17.706430002168418,3.020746792570208,7.318952622004872,3.972957295860397,15.611555212211897,3.929433594039438,23.710280054796385-.052948875978473,9.852524955695117-6.021412600859549,28.844679442845518,5.56114883031114,34.795275527125341,6.605970068148963,3.393334544600293,17.36624193319949.130228383530266,22.639888339359459-4.412372732509539,9.905766782168939-8.532606052620395,21.09003866698913-31.634226322235918,8.022359254049661-42.673883741737882,1.036503951370833.87564318467048,7.159141377331252-9.758210407873776,7.668492070999491-10.655599959502069,3.114945010769588-5.48800490764188,4.33034526738993-10.569058423134265,3.861834145011017-16.896720533351981-.905349619881235-12.227557068801616-8.188632391880674-27.023892863879155-22.397649743950751-28.271547147456658.226264781560531.019866883458235-1.539563649168485-12.795239316023071-1.897352497589964-14.21607398391825-1.641006293959435-6.516688943753252-4.29320674381961-13.200792697178258-9.800166267579698-17.594705106892434-5.503741026030184-4.391223024700594-12.910721480498978-5.634913310710544-19.868297666640501-5.193523365080182-2.45788986550906.155928996686271-14.265118449389774,1.980017074889474-11.905967819149737,6.552904745189153.959633409949674,1.860116729543734-.150725587629495-3.359105864548837-.407292911630066-3.973557316714505-3.026756620738524-7.248760176842552-13.652072235499872-5.509939987749021-18.170614107240908-.422582099259671,1.671933508931033-1.882419474170092-6.855258144300024-13.205665810506616-7.910415952608673-14.491714365956796-6.57820925201122-8.017659969895249-16.012562622630867-13.284961331171871-26.444956997740519-14.941755302012098-17.519094743529422-2.78217390187092-46.885017251219324,1.850504142203135-50.480034671518297,22.667498776238062-8.131978139972489-5.952474651383454-21.388357153811739-6.022181933225511-20.464118770571076,7.417130192556215-.286451262789342-4.16527596432752-14.705768089190315-5.298327183492802-17.513441848779621-5.126896251329526-16.149026054459682.986027149518122-37.799454832700576,21.702165935410449-26.174528752999322,37.969876313800341,0,0-41.365091589010262,20.298849378978048-14.37223368361083,56.500443622493549,1.305888341270474,1.964862014196115-4.857406240251294,14.5462826666826-4.991198271480243,17.787795394408022-.617875050269504,14.969873941496189,10.899626974111015,28.767062090586478,26.724787026400008,29.594409976756651,11.441557484780787.598163631650095,16.069747957510117-3.097962593910779,15.546986773180834-14.628091672200753-.253441497719905-5.589807559390465-1.075467792761629-11.141462373259856-1.648886360560937-16.70916149027471Z"/>
      </g>
      <rect class="cls-1" x="119.094301587910877" y="398.813133942312163" width="14.253212612508378" height="37.068407557022852" rx="7.126599147941742" ry="7.126599147941742"/>
      <g>
        <path class="cls-6" d="M165.332155658237753,408.039390653591909c-8.548973250761264,0-15.50409256535022-6.95495387407027-15.50409256535022-15.50376168431103,0-.821246724019147.06716884970956-1.655728689358511.200183025001024-2.480284223698618.282572402218648-1.754992999260139,1.935323162269924-2.947157361320933,3.689323518439778-2.666404804780541,1.755323880299329.282572402209553,2.948811766487779,1.934495959689229,2.666239364258217,3.689488958949369-.078418804829198.48738776168102-.11812452878803.977588012130582-.11812452878803,1.45720006952979,0,4.999116087739822,4.067189658178904,9.06614030540004,9.06647118643923,9.06614030540004,4.998950647228412,0,9.066140305409135-4.067024217660219,9.066140305409135-9.06614030540004,0-.502111967638484-.044668939470284-1.018451819709298-.13235241322036-1.534626231259608-.298123810769539-1.752511391519874.880474428930029-3.414857701529399,2.633151260972227-3.713146952819443,1.752345950997551-.298454691799634,3.41502314203899.880474428930029,3.713146952817624,2.633151260970408.148565583831441.871871522060246.223675578330585,1.751684188930085.223675578330585,2.614621923108643,0,8.54880781024076-6.955119314579861,15.50376168431103-15.503761684309211,15.50376168431103Z"/>
        <path class="cls-6" d="M85.180857737768747,408.039390653591909c-8.548973250761264,0-15.504092565352039-6.95495387407027-15.504092565352039-15.50376168431103,0-.821246724019147.06716884970956-1.655728689358511.200183025001024-2.480284223698618.282572402209553-1.754992999260139,1.935654043310933-2.947157361320933,3.689323518439778-2.666404804780541,1.755323880301148.282572402209553,2.948811766489598,1.934495959689229,2.666239364260036,3.689488958949369-.078418804820103.48738776168102-.118124528789849.977588012130582-.118124528789849,1.45720006952979,0,4.999116087739822,4.067189658180723,9.06614030540004,9.066471186441049,9.06614030540004,4.998950647228412,0,9.066140305407316-4.067024217660219,9.066140305407316-9.06614030540004,0-.502111967638484-.04466893945937-1.018451819709298-.132352413218541-1.534626231259608-.298123810769539-1.752511391519874.880474428930029-3.414857701529399,2.633151260959494-3.713146952819443,1.753007713079569-.298454691799634,3.415023142060818.880474428930029,3.713146952821262,2.633151260970408.148565583838717.871871522060246.223675578337861,1.751684188930085.223675578337861,2.614621923108643,0,8.54880781024076-6.955119314578042,15.50376168431103-15.503761684307392,15.50376168431103Z"/>
      </g>
      <g>
        <path class="cls-6" d="M98.046552329926271,379.775697516701257h-26.555658062799921c-2.983872473949305,0-5.402876224929059-2.419003750990669-5.402876224929059-5.402876224929059,0-2.983872473951124,2.419003750979755-5.402876224930878,5.402876224929059-5.402876224930878h26.555658062799921c2.983872473951124,0,5.402876224930878,2.419003750979755,5.402876224930878,5.402876224930878,0,2.983872473938391-2.419003750979755,5.402876224929059-5.402876224930878,5.402876224929059Z"/>
        <path class="cls-6" d="M178.504653097927076,379.775697516701257h-26.555658062799921c-2.983872473949305,0-5.402876224930878-2.419003750990669-5.402876224930878-5.402876224929059,0-2.983872473951124,2.419003750981574-5.402876224930878,5.402876224930878-5.402876224930878h26.555658062799921c2.983872473960218,0,5.402876224930878,2.419003750979755,5.402876224930878,5.402876224930878,0,2.983872473938391-2.41900375097066,5.402876224929059-5.402876224930878,5.402876224929059Z"/>
      </g>
    </g>
  </g>
</svg>