<?xml version="1.0" encoding="UTF-8"?>
<svg id="Layer_1" data-name="Layer 1" xmlns="http://www.w3.org/2000/svg" width="700" height="700" viewBox="0 0 700 700">
  <defs>
    <style>
      .cls-1 {
        fill: #d96b62;
        stroke-width: 0px;
      }
    </style>
  </defs>
  <path class="cls-1" d="m.188913268719261,372.121247989429321c.000000326159352-14.589185487839131.000000326159352-29.178391845809529-.000000163015102-43.767598203630769,2.212894518876055-15.28701625132453,3.834114310662699-30.687043645486483,6.730281899413058-45.843538809383972C35.650136177378045,132.152395912962675,163.778744077691954,15.702054229972418,315.96742116823134,1.720305265380375c74.775771713547329-6.869737402506871,145.890190206660009,6.510869142435695,209.948080782444777,45.995429163913286,125.360900228530227,77.271055880819404,183.451398943648201,190.712308924908939,172.617607412114012,337.581339746617232-5.124479287214854,69.470986103980977-32.117553179389688,131.504565936800645-76.328277990227434,185.418665597795552-54.978013458596251,67.044554430180142-125.335518085787044,108.680363862213198-210.805876141661429,124.236624204697364-12.941678295676866,2.355515355480748-26.077730368697303,3.643904994230979-39.123859521563645,5.425870538503659h-43.774844954627042c-8.547791425311516-1.051514944043447-17.116122347668352-1.959444170071947-25.640159761102041-3.177251410765166-69.705876557373813-9.958546083002147-131.358704738726374-37.751106179985072-184.015212314003293-84.544355989746691-60.811298475558942-54.039987604450289-98.792270138833373-121.208593416604344-113.214884791596887-201.408020536138793-2.328833450752427-12.949845640850981-3.652678661956998-26.080342150085926-5.441080619289096-39.127358590827498Zm525.575548233726295-120.804445534564366c-61.149213906253863-6.571258819474679-95.027110529759739-39.890721207992101-101.898532491424703-100.390667830522943h-64.3218982579574c0,3.501467127174692.001043673567438,6.454532813611877-.000166987812918,9.407588065114396-.036152854765533,86.599875283818619-.065292222519929,173.19974013256433-.13087667367563,259.799625851308519-.003089273911428,4.095239985064836-.139643532095761,8.208511664961406-.534026924779937,12.282422492424303-2.880956697812508,29.757847871920603-27.99700443365964,52.727806146162038-57.979952803964807,53.116656305692231-30.098274306783424.390352800746768-55.862401622087418-22.16512693293771-59.676903511468481-52.2447487292593-3.651208712794869-28.792108698366064,15.484484736115519-57.328434466553517,44.125540168989573-63.666700414611114,10.564001897311755-2.337859321127326,21.880137635373103-1.278079850189897,33.127474407422596-1.780212462788768v-63.511636187344266c-14.130422564007858-2.590720448679349-27.861723457276639-2.000453753758848-41.613918696622932.527385333440179-68.706830408505084,12.629303047400754-114.165507093083761,79.397308880437777-99.670310157420317,146.462357667383912,14.957638285983194,69.20468468535546,84.603733217685658,112.618911758592731,152.789833103481214,95.242285040263596,57.291921397761143-14.600330077117178,95.221651294968069-63.134055836997504,95.244361633129301-122.274383452398979.017199741465447-44.894829569861031-.293147050101652-89.78978435978388-.456001883899262-134.684676539825887-.008683364588251-2.393582266751764-.001127167573941-4.787227143682685-.001127167573941-8.527322046760673,30.890443468033482,22.479011990815707,63.773468637112273,34.270133409590926,100.996506243577642,34.082762395621103v-63.84073548773631Z"/>
</svg>